<svg xmlns="http://www.w3.org/2000/svg" xmlns:xlink="http://www.w3.org/1999/xlink" width="1080" zoomAndPan="magnify" viewBox="0 0 810 809.999993" height="1080" preserveAspectRatio="xMidYMid meet" version="1.0"><path fill="#94ccd4" d="M 326.265625 980.226562 C 326.265625 980.226562 330.089844 1000.335938 299.152344 1000.335938 C 268.855469 1000.335938 272.042969 980.226562 272.042969 980.226562 C 272.042969 980.226562 272.042969 793.339844 272.042969 793.339844 C 272.042969 793.339844 326.265625 793.339844 326.265625 793.339844 C 326.265625 793.339844 326.265625 980.226562 326.265625 980.226562 Z M 326.265625 980.226562 " fill-opacity="1" fill-rule="nonzero"/><path fill="#94ccd4" d="M 748.6875 717.03125 C 748.6875 717.03125 752.515625 737.140625 721.578125 737.140625 C 691.277344 737.140625 694.46875 717.03125 694.46875 717.03125 C 694.46875 717.03125 694.46875 530.140625 694.46875 530.140625 C 694.46875 530.140625 748.6875 530.140625 748.6875 530.140625 C 748.6875 530.140625 748.6875 717.03125 748.6875 717.03125 Z M 748.6875 717.03125 " fill-opacity="1" fill-rule="nonzero"/><path fill="#94ccd4" d="M 62.132812 805.074219 C 62.132812 805.074219 65.957031 825.183594 35.019531 825.183594 C 4.722656 825.183594 7.910156 805.074219 7.910156 805.074219 C 7.910156 805.074219 7.910156 618.1875 7.910156 618.1875 C 7.910156 618.1875 60.410156 654.714844 60.410156 654.714844 C 60.410156 654.714844 62.132812 805.074219 62.132812 805.074219 Z M 62.132812 805.074219 " fill-opacity="1" fill-rule="nonzero"/><path stroke-linecap="round" transform="matrix(1.283001, 0, 0, 1.283001, 287.295282, 896.836559)" fill="none" stroke-linejoin="round" d="M 20.881251 64.99608 C 20.881251 64.99608 23.864979 80.669788 -0.248417 80.669788 C -23.862496 80.669788 -21.378085 64.99608 -21.378085 64.99608 C -21.378085 64.99608 -21.378085 -80.667712 -21.378085 -80.667712 C -21.378085 -80.667712 20.881251 -80.667712 20.881251 -80.667712 C 20.881251 -80.667712 20.881251 64.99608 20.881251 64.99608 Z M 20.881251 64.99608 " stroke="#183e55" stroke-width="8" stroke-opacity="1" stroke-miterlimit="4"/><path stroke-linecap="round" transform="matrix(1.283001, 0, 0, 1.283001, 709.719352, 633.640596)" fill="none" stroke-linejoin="round" d="M 20.882585 64.996587 C 20.882585 64.996587 23.866313 80.670295 -0.247083 80.670295 C -23.864207 80.670295 -21.376752 64.996587 -21.376752 64.996587 C -21.376752 64.996587 -21.376752 -80.67025 -21.376752 -80.67025 C -21.376752 -80.67025 20.882585 -80.67025 20.882585 -80.67025 C 20.882585 -80.67025 20.882585 64.996587 20.882585 64.996587 Z M 20.882585 64.996587 " stroke="#183e55" stroke-width="8" stroke-opacity="1" stroke-miterlimit="4"/><path stroke-linecap="round" transform="matrix(1.283001, 0, 0, 1.283001, 23.163957, 717.937592)" fill="none" stroke-linejoin="round" d="M 20.883136 67.916284 C 20.883136 67.916284 23.86382 83.589992 -0.246532 83.589992 C -23.863656 83.589992 -21.379245 67.916284 -21.379245 67.916284 C -21.379245 67.916284 -21.379245 -83.590135 -21.379245 -83.590135 C -21.379245 -83.590135 20.998832 -55.847551 20.998832 -55.847551 C 20.998832 -55.847551 20.883136 67.916284 20.883136 67.916284 Z M 20.883136 67.916284 " stroke="#183e55" stroke-width="8" stroke-opacity="1" stroke-miterlimit="4"/><path fill="#94ccd4" d="M 252.433594 261.695312 C 252.433594 294.085938 226.171875 320.34375 193.78125 320.34375 C 161.390625 320.34375 135.128906 294.085938 135.128906 261.695312 C 135.128906 229.304688 161.390625 203.046875 193.78125 203.046875 C 226.171875 203.046875 252.433594 229.304688 252.433594 261.695312 Z M 252.433594 261.695312 " fill-opacity="1" fill-rule="nonzero"/><path stroke-linecap="round" transform="matrix(1.283001, 0, 0, 1.283001, 185.34808, 258.84276)" fill="none" stroke-linejoin="round" d="M 45.714651 -2.559754 C 45.714651 22.689286 25.245665 43.155227 -0.000330105 43.155227 C -25.246326 43.155227 -45.715311 22.689286 -45.715311 -2.559754 C -45.715311 -15.182752 -40.597304 -26.612258 -32.325069 -34.884493 C -24.052834 -43.156728 -37.945439 -17.798081 -1.492194 -17.798081 C 40.334806 -17.798081 25.875902 -42.301189 34.251654 -32.832419 C 41.3852 -24.770263 45.714651 -14.168893 45.714651 -2.559754 Z M 45.714651 -2.559754 " stroke="#183e55" stroke-width="7" stroke-opacity="1" stroke-miterlimit="4"/><path stroke-linecap="round" transform="matrix(1.283001, 0, 0, 1.283001, 186.392425, 207.271298)" fill="none" stroke-linejoin="round" d="M -30.548084 3.655212 C -30.548084 3.655212 -4.717521 -5.274661 30.548322 5.27495 " stroke="#183e55" stroke-width="7" stroke-opacity="1" stroke-miterlimit="4"/><path stroke-linecap="round" transform="matrix(1.283001, 0, 0, 1.283001, 222.148351, 206.877432)" fill="none" stroke-linejoin="round" d="M -15.835005 20.317904 C -15.835005 20.317904 -2.688333 -20.315605 -2.688333 -20.315605 C -2.688333 -20.315605 15.83514 -20.315605 15.83514 -20.315605 " stroke="#183e55" stroke-width="7" stroke-opacity="1" stroke-miterlimit="4"/><path fill="#94ccd4" d="M 134.246094 220.8125 C 134.246094 220.8125 148.011719 191.539062 148.011719 191.539062 C 148.011719 191.539062 178.953125 204.792969 178.953125 204.792969 C 178.953125 204.792969 163.101562 230.761719 134.246094 220.8125 Z M 134.246094 220.8125 " fill-opacity="1" fill-rule="nonzero"/><path stroke-linecap="round" transform="matrix(1.283001, 0, 0, 1.283001, 152.019545, 209.951493)" fill="none" stroke-linejoin="round" d="M -18.617867 7.527574 C -18.617867 7.527574 -7.891668 -15.285769 -7.891668 -15.285769 C -7.891668 -15.285769 18.617845 -3.76188 18.617845 -3.76188 C 18.617845 -3.76188 3.872747 15.285268 -18.617867 7.527574 Z M -18.617867 7.527574 " stroke="#183e55" stroke-width="7" stroke-opacity="1" stroke-miterlimit="4"/><path fill="#94ccd4" d="M 715.734375 530.203125 C 715.734375 530.203125 406.769531 381.621094 406.769531 381.621094 C 406.769531 381.621094 561.332031 28.621094 561.332031 28.621094 C 561.332031 28.621094 870.296875 156.359375 870.296875 156.359375 C 870.296875 156.359375 715.734375 530.203125 715.734375 530.203125 Z M 715.734375 530.203125 " fill-opacity="1" fill-rule="nonzero"/><path fill="#94ccd4" d="M 715.769531 530.632812 C 715.769531 530.632812 312.480469 828.089844 312.480469 828.089844 C 312.480469 828.089844 17.425781 625.242188 17.425781 625.242188 C 17.425781 625.242188 407.089844 381.503906 407.089844 381.503906 C 407.089844 381.503906 715.769531 530.632812 715.769531 530.632812 Z M 715.769531 530.632812 " fill-opacity="1" fill-rule="nonzero"/><path fill="#94ccd4" d="M 19.992188 623.636719 C 19.992188 623.636719 19.992188 705.164062 19.992188 705.164062 C 19.992188 705.164062 291.515625 905.734375 291.515625 905.734375 C 291.515625 905.734375 313.441406 828.089844 313.441406 828.089844 C 313.441406 828.089844 19.992188 623.636719 19.992188 623.636719 Z M 19.992188 623.636719 " fill-opacity="1" fill-rule="nonzero"/><path fill="#94ccd4" d="M 870.515625 156.207031 C 870.515625 156.207031 911.402344 178.65625 911.402344 178.65625 C 911.402344 178.65625 809.164062 482.359375 745.4375 565.910156 C 662.234375 674.996094 288.949219 909.277344 288.949219 909.277344 C 288.949219 909.277344 288.949219 814.882812 288.949219 814.882812 C 288.949219 814.882812 870.515625 156.207031 870.515625 156.207031 Z M 870.515625 156.207031 " fill-opacity="1" fill-rule="nonzero"/><path stroke-linecap="round" transform="matrix(1.283001, 0, 0, 1.283001, 616.885292, 265.782547)" fill="none" stroke-linejoin="round" d="M 60.171952 195.472778 C 60.171952 195.472778 -180.642329 79.661492 -180.642329 79.661492 C -180.642329 79.661492 -60.172774 -195.471754 -60.172774 -195.471754 C -60.172774 -195.471754 180.641507 -95.90961 180.641507 -95.90961 C 180.641507 -95.90961 60.171952 195.472778 60.171952 195.472778 Z M 60.171952 195.472778 " stroke="#183e55" stroke-width="8" stroke-opacity="1" stroke-miterlimit="4"/><path stroke-linecap="round" transform="matrix(1.283001, 0, 0, 1.283001, 344.952056, 591.166862)" fill="none" stroke-linejoin="round" d="M 272.153396 -57.807352 C 272.153396 -57.807352 -42.182388 174.04052 -42.182388 174.04052 C -42.182388 174.04052 -272.151729 15.933363 -272.151729 15.933363 C -272.151729 15.933363 31.558328 -174.04184 31.558328 -174.04184 C 31.558328 -174.04184 272.153396 -57.807352 272.153396 -57.807352 Z M 272.153396 -57.807352 " stroke="#183e55" stroke-width="8" stroke-opacity="1" stroke-miterlimit="4"/><path stroke-linecap="round" transform="matrix(1.283001, 0, 0, 1.283001, 142.503541, 758.808918)" fill="none" stroke-linejoin="round" d="M -114.358717 -115.978992 C -114.358717 -115.978992 -114.358717 -49.51492 -114.358717 -49.51492 C -114.358717 -49.51492 114.143118 115.978487 114.143118 115.978487 C 114.143118 115.978487 114.362331 43.37646 114.362331 43.37646 C 114.362331 43.37646 -114.358717 -115.978992 -114.358717 -115.978992 Z M -114.358717 -115.978992 " stroke="#183e55" stroke-width="8" stroke-opacity="1" stroke-miterlimit="4"/><path stroke-linecap="round" transform="matrix(1.283001, 0, 0, 1.283001, 598.039317, 525.300162)" fill="none" stroke-linejoin="round" d="M 195.500991 -298.305372 C 195.500991 -298.305372 240.91151 -269.990399 240.91151 -269.990399 C 240.91151 -269.990399 167.907593 -95.512316 114.614551 27.864852 C 99.96688 61.781928 -240.692695 298.306338 -240.692695 298.306338 C -240.692695 298.306338 -240.911908 225.704311 -240.911908 225.704311 " stroke="#183e55" stroke-width="8" stroke-opacity="1" stroke-miterlimit="4"/><path fill="#94ccd4" d="M 330.722656 281.433594 C 330.722656 281.433594 308.183594 315.246094 308.183594 315.246094 C 308.183594 315.246094 222.644531 285.421875 222.644531 285.421875 C 222.644531 285.421875 188.882812 273.769531 177.148438 307.425781 C 165.414062 341.078125 199.726562 352.121094 199.726562 352.121094 C 199.726562 352.121094 285.5 382.929688 285.5 382.929688 C 285.5 382.929688 336.992188 401.90625 351.574219 381.175781 C 380.242188 340.425781 388.296875 323.03125 388.296875 323.03125 " fill-opacity="1" fill-rule="nonzero"/><path stroke-linecap="round" transform="matrix(1.283001, 0, 0, 1.283001, 277.488038, 339.457561)" fill="none" stroke-linejoin="round" d="M 32.486294 -46.960644 C 32.486294 -46.960644 19.415737 -18.106772 19.415737 -18.106772 C 19.415737 -18.106772 -42.253057 -40.853134 -42.253057 -40.853134 C -42.253057 -40.853134 -68.567715 -49.935238 -77.713756 -23.702785 C -86.859796 2.526623 -60.115847 11.133766 -60.115847 11.133766 C -60.115847 11.133766 6.737936 35.14669 6.737936 35.14669 C 6.737936 35.14669 46.872127 49.937458 58.237696 33.779655 C 80.582168 2.018171 86.860176 -11.539525 86.860176 -11.539525 " stroke="#183e55" stroke-width="8" stroke-opacity="1" stroke-miterlimit="4"/><path fill="#94ccd4" d="M 382.097656 410.863281 C 382.097656 410.863281 234.261719 519.734375 234.261719 519.734375 C 234.261719 519.734375 208.609375 490.808594 182.5 511.199219 C 182.5 511.199219 250.984375 598.898438 250.984375 598.898438 C 250.984375 598.898438 423.640625 464.066406 423.640625 464.066406 " fill-opacity="1" fill-rule="nonzero"/><path fill="#94ccd4" d="M 538.941406 541.863281 C 538.941406 541.863281 339.070312 456.300781 339.070312 456.300781 C 288.355469 435.816406 270.871094 390.746094 288.566406 349.410156 C 288.566406 349.410156 389.710938 165.101562 389.710938 165.101562 C 407.410156 123.765625 472.828125 70.988281 514.164062 88.6875 C 514.164062 88.6875 696.316406 174.253906 696.316406 174.253906 C 737.652344 191.949219 756.816406 239.804688 739.121094 281.140625 C 739.121094 281.140625 656.09375 504.191406 656.09375 504.191406 C 638.394531 545.527344 580.277344 559.558594 538.941406 541.863281 Z M 538.941406 541.863281 " fill-opacity="1" fill-rule="nonzero"/><path fill="#94ccd4" d="M 480.960938 501.730469 C 480.960938 501.730469 344.722656 608.121094 344.722656 608.121094 C 344.722656 608.121094 317.359375 573.957031 293.011719 592.96875 C 293.011719 592.96875 361.496094 680.667969 361.496094 680.667969 C 361.496094 680.667969 530 543.691406 530 543.691406 " fill-opacity="1" fill-rule="nonzero"/><path stroke-linecap="round" transform="matrix(1.283001, 0, 0, 1.283001, 402.490764, 585.522879)" fill="none" stroke-linejoin="round" d="M 36.798396 -63.479908 C 36.798396 -63.479908 -55.834191 8.857238 -55.834191 8.857238 C -55.834191 8.857238 -77.119135 -17.804507 -93.672738 -4.877047 C -93.672738 -4.877047 -40.294447 63.477734 -40.294447 63.477734 C -40.294447 63.477734 93.671913 -41.004517 93.671913 -41.004517 " stroke="#183e55" stroke-width="8" stroke-opacity="1" stroke-miterlimit="4"/><path stroke-linecap="round" transform="matrix(1.283001, 0, 0, 1.283001, 519.609481, 313.20352)" fill="none" stroke-linejoin="round" d="M 29.347017 182.083238 C 29.347017 182.083238 -152.00582 104.445408 -152.00582 104.445408 C -180.363418 92.306505 -193.507046 59.479404 -181.368143 31.12485 C -181.368143 31.12485 -102.664696 -152.718487 -102.664696 -152.718487 C -90.525793 -181.076085 -57.698691 -194.219713 -29.344138 -182.080809 C -29.344138 -182.080809 152.008699 -104.442979 152.008699 -104.442979 C 180.363252 -92.307121 193.50688 -59.48002 181.367977 -31.125466 C 181.367977 -31.125466 102.66453 152.720915 102.66453 152.720915 C 90.525627 181.075469 57.698526 194.222141 29.347017 182.083238 Z M 29.347017 182.083238 " stroke="#183e55" stroke-width="8" stroke-opacity="1" stroke-miterlimit="4"/><path stroke-linecap="round" transform="matrix(1.283001, 0, 0, 1.283001, 277.33792, 514.97073)" fill="none" stroke-linejoin="round" d="M 29.994059 -55.803353 C 29.994059 -55.803353 -43.588336 1.182814 -43.588336 1.182814 C -43.588336 1.182814 -64.87328 -25.47893 -81.426883 -12.55147 C -81.426883 -12.55147 -28.048592 55.803311 -28.048592 55.803311 C -28.048592 55.803311 81.426838 -32.396308 81.426838 -32.396308 " stroke="#183e55" stroke-width="8" stroke-opacity="1" stroke-miterlimit="4"/><path stroke-linecap="round" transform="matrix(1.283001, 0, 0, 1.283001, 423.889902, 237.308914)" fill="none" stroke-linejoin="round" d="M -9.431672 -5.514058 C -9.431672 -5.514058 0.801299 3.290985 9.432799 5.513558 " stroke="#183e55" stroke-width="8" stroke-opacity="1" stroke-miterlimit="4"/><path stroke-linecap="round" transform="matrix(1.283001, 0, 0, 1.283001, 517.391161, 277.337233)" fill="none" stroke-linejoin="round" d="M 10.500479 3.022299 C 10.500479 3.022299 -2.935433 1.691799 -10.501315 -3.021274 " stroke="#183e55" stroke-width="8" stroke-opacity="1" stroke-miterlimit="4"/><path stroke-linecap="round" transform="matrix(1.283001, 0, 0, 1.283001, 461.55754, 286.621002)" fill="none" stroke-linejoin="round" d="M 28.373642 3.175611 C 22.421409 8.025692 8.175628 14.008372 -18.553098 -2.35342 C -28.375045 -8.366546 -24.213048 -14.008228 -24.213048 -14.008228 " stroke="#183e55" stroke-width="8" stroke-opacity="1" stroke-miterlimit="4"/><path fill="#183e55" d="M 497.5625 237.386719 C 497.5625 237.386719 472.921875 276.964844 510.570312 293.113281 C 548.214844 309.261719 561.679688 264.890625 561.679688 264.890625 C 561.679688 264.890625 565.140625 251.253906 532.871094 237.410156 C 500.605469 223.570312 497.5625 237.386719 497.5625 237.386719 Z M 497.5625 237.386719 " fill-opacity="1" fill-rule="nonzero"/><path fill="#183e55" d="M 402.492188 196.605469 C 402.492188 196.605469 377.851562 236.183594 415.5 252.332031 C 453.144531 268.480469 466.609375 224.109375 466.609375 224.109375 C 466.609375 224.109375 470.070312 210.472656 437.800781 196.628906 C 405.535156 182.789062 402.492188 196.605469 402.492188 196.605469 Z M 402.492188 196.605469 " fill-opacity="1" fill-rule="nonzero"/><path stroke-linecap="round" transform="matrix(1.283001, 0, 0, 1.283001, 475.376764, 242.071414)" fill="none" stroke-linejoin="round" d="M -20.235924 -8.681073 C -20.235924 -8.681073 20.23622 8.6824 20.23622 8.6824 " stroke="#183e55" stroke-width="10" stroke-opacity="1" stroke-miterlimit="4"/><path fill="#95ccd4" d="M 566.765625 376.796875 C 566.765625 376.796875 532.125 415.285156 532.125 415.285156 C 532.125 415.285156 550.089844 411.4375 475.675781 388.34375 C 401.261719 365.25 402.542969 393.476562 402.542969 393.476562 C 402.542969 393.476562 384.582031 420.417969 433.335938 444.796875 C 482.089844 469.171875 533.410156 479.4375 533.410156 479.4375 C 533.410156 479.4375 570.617188 498.683594 592.425781 460.191406 " fill-opacity="1" fill-rule="nonzero"/><path stroke-linecap="round" transform="matrix(1.283001, 0, 0, 1.283001, 500.654402, 429.49723)" fill="none" stroke-linejoin="round" d="M 44.026657 -41.088043 C 44.026657 -41.088043 25.079982 -15.70504 25.079982 -15.70504 C 25.079982 -15.70504 -40.257581 -42.467257 -40.257581 -42.467257 C -40.257581 -42.467257 -66.054652 -52.937708 -76.582951 -27.22893 C -87.11125 -1.523196 -60.863574 8.493606 -60.863574 8.493606 C -60.863574 8.493606 4.617085 36.032201 4.617085 36.032201 C 4.617085 36.032201 43.907916 52.935936 56.116846 37.40837 C 80.120636 6.879957 87.111085 -6.321519 87.111085 -6.321519 " stroke="#183e55" stroke-width="8" stroke-opacity="1" stroke-miterlimit="4"/></svg>