<svg xmlns="http://www.w3.org/2000/svg" xmlns:xlink="http://www.w3.org/1999/xlink" width="40" zoomAndPan="magnify" viewBox="0 0 30 30.000001" height="40" preserveAspectRatio="xMidYMid meet" version="1.0"><defs><clipPath id="b86f39611c"><path d="M 2.296875 1.816406 L 27.703125 1.816406 L 27.703125 27.21875 L 2.296875 27.21875 Z M 2.296875 1.816406 " clip-rule="nonzero"/></clipPath></defs><g clip-path="url(#b86f39611c)"><path fill="#ef2e2e" d="M 27.703125 14.515625 C 27.703125 21.53125 22.015625 27.21875 15 27.21875 C 7.984375 27.21875 2.296875 21.53125 2.296875 14.515625 C 2.296875 7.5 7.984375 1.816406 15 1.816406 C 22.015625 1.816406 27.703125 7.5 27.703125 14.515625 Z M 27.703125 14.515625 " fill-opacity="1" fill-rule="nonzero"/></g><path fill="#ffffff" d="M 21.648438 10.035156 L 17.167969 14.515625 L 21.648438 19 C 22.246094 19.597656 22.246094 20.566406 21.648438 21.164062 C 21.050781 21.761719 20.082031 21.761719 19.480469 21.164062 L 15 16.683594 L 10.519531 21.164062 C 9.917969 21.761719 8.949219 21.761719 8.351562 21.164062 C 7.753906 20.566406 7.753906 19.597656 8.351562 19 L 12.832031 14.515625 L 8.351562 10.035156 C 7.753906 9.4375 7.753906 8.464844 8.351562 7.867188 C 8.949219 7.269531 9.917969 7.269531 10.519531 7.867188 L 15 12.351562 L 19.480469 7.867188 C 20.082031 7.269531 21.050781 7.269531 21.648438 7.867188 C 22.246094 8.464844 22.246094 9.4375 21.648438 10.035156 Z M 21.648438 10.035156 " fill-opacity="1" fill-rule="nonzero"/></svg>