<svg xmlns="http://www.w3.org/2000/svg" xmlns:xlink="http://www.w3.org/1999/xlink" width="1050" zoomAndPan="magnify" viewBox="0 0 787.5 374.999991" height="500" preserveAspectRatio="xMidYMid meet" version="1.0"><defs><g/><clipPath id="e241d983de"><path d="M 0 0.117188 L 374.761719 0.117188 L 374.761719 374.878906 L 0 374.878906 Z M 0 0.117188 " clip-rule="nonzero"/></clipPath><clipPath id="0dc5ea2e4b"><path d="M 187.382812 0.117188 C 83.894531 0.117188 0 84.011719 0 187.5 C 0 290.988281 83.894531 374.882812 187.382812 374.882812 C 290.867188 374.882812 374.761719 290.988281 374.761719 187.5 C 374.761719 84.011719 290.867188 0.117188 187.382812 0.117188 Z M 187.382812 0.117188 " clip-rule="nonzero"/></clipPath><clipPath id="cc0aeb5030"><path d="M 85 68 L 296 68 L 296 315 L 85 315 Z M 85 68 " clip-rule="nonzero"/></clipPath><clipPath id="d542edf4c2"><path d="M 242.230469 41.113281 L 337.300781 252.007812 L 155.929688 333.769531 L 60.859375 122.875 Z M 242.230469 41.113281 " clip-rule="nonzero"/></clipPath><clipPath id="5b714fa097"><path d="M 242.230469 41.113281 L 337.300781 252.007812 L 155.929688 333.769531 L 60.859375 122.875 Z M 242.230469 41.113281 " clip-rule="nonzero"/></clipPath><clipPath id="cc2a3a9f42"><path d="M 242.230469 41.113281 L 337.300781 252.007812 L 155.929688 333.769531 L 60.859375 122.875 Z M 242.230469 41.113281 " clip-rule="nonzero"/></clipPath><clipPath id="3891c256b9"><path d="M 93 76 L 287 76 L 287 306 L 93 306 Z M 93 76 " clip-rule="nonzero"/></clipPath><clipPath id="866ac6bee6"><path d="M 242.230469 41.113281 L 337.300781 252.007812 L 155.929688 333.769531 L 60.859375 122.875 Z M 242.230469 41.113281 " clip-rule="nonzero"/></clipPath><clipPath id="659d9e19ae"><path d="M 242.230469 41.113281 L 337.300781 252.007812 L 155.929688 333.769531 L 60.859375 122.875 Z M 242.230469 41.113281 " clip-rule="nonzero"/></clipPath><clipPath id="97c7e3b819"><path d="M 242.230469 41.113281 L 337.300781 252.007812 L 155.929688 333.769531 L 60.859375 122.875 Z M 242.230469 41.113281 " clip-rule="nonzero"/></clipPath><clipPath id="b28ad4a16f"><path d="M 128 91 L 287 91 L 287 295 L 128 295 Z M 128 91 " clip-rule="nonzero"/></clipPath><clipPath id="0b882c4be3"><path d="M 242.230469 41.113281 L 337.300781 252.007812 L 155.929688 333.769531 L 60.859375 122.875 Z M 242.230469 41.113281 " clip-rule="nonzero"/></clipPath><clipPath id="a35d8e5bcb"><path d="M 242.230469 41.113281 L 337.300781 252.007812 L 155.929688 333.769531 L 60.859375 122.875 Z M 242.230469 41.113281 " clip-rule="nonzero"/></clipPath><clipPath id="fd6d650802"><path d="M 242.230469 41.113281 L 337.300781 252.007812 L 155.929688 333.769531 L 60.859375 122.875 Z M 242.230469 41.113281 " clip-rule="nonzero"/></clipPath><clipPath id="aa3c52bae1"><path d="M 182 80 L 203 80 L 203 170 L 182 170 Z M 182 80 " clip-rule="nonzero"/></clipPath><clipPath id="dd3db945ee"><path d="M 242.230469 41.113281 L 337.300781 252.007812 L 155.929688 333.769531 L 60.859375 122.875 Z M 242.230469 41.113281 " clip-rule="nonzero"/></clipPath><clipPath id="60f2fde199"><path d="M 242.230469 41.113281 L 337.300781 252.007812 L 155.929688 333.769531 L 60.859375 122.875 Z M 242.230469 41.113281 " clip-rule="nonzero"/></clipPath><clipPath id="0824e8eb81"><path d="M 242.230469 41.113281 L 337.300781 252.007812 L 155.929688 333.769531 L 60.859375 122.875 Z M 242.230469 41.113281 " clip-rule="nonzero"/></clipPath><clipPath id="9231ce0785"><path d="M 135 98 L 163 98 L 163 179 L 135 179 Z M 135 98 " clip-rule="nonzero"/></clipPath><clipPath id="cfbfc86b5c"><path d="M 242.230469 41.113281 L 337.300781 252.007812 L 155.929688 333.769531 L 60.859375 122.875 Z M 242.230469 41.113281 " clip-rule="nonzero"/></clipPath><clipPath id="d076bbac77"><path d="M 242.230469 41.113281 L 337.300781 252.007812 L 155.929688 333.769531 L 60.859375 122.875 Z M 242.230469 41.113281 " clip-rule="nonzero"/></clipPath><clipPath id="39fa6d0517"><path d="M 242.230469 41.113281 L 337.300781 252.007812 L 155.929688 333.769531 L 60.859375 122.875 Z M 242.230469 41.113281 " clip-rule="nonzero"/></clipPath><clipPath id="c4f819ad63"><path d="M 97 135 L 131 135 L 131 203 L 97 203 Z M 97 135 " clip-rule="nonzero"/></clipPath><clipPath id="47dea5d9d2"><path d="M 242.230469 41.113281 L 337.300781 252.007812 L 155.929688 333.769531 L 60.859375 122.875 Z M 242.230469 41.113281 " clip-rule="nonzero"/></clipPath><clipPath id="1c02f4ccb9"><path d="M 242.230469 41.113281 L 337.300781 252.007812 L 155.929688 333.769531 L 60.859375 122.875 Z M 242.230469 41.113281 " clip-rule="nonzero"/></clipPath><clipPath id="865eb895be"><path d="M 242.230469 41.113281 L 337.300781 252.007812 L 155.929688 333.769531 L 60.859375 122.875 Z M 242.230469 41.113281 " clip-rule="nonzero"/></clipPath><clipPath id="5c0cfc4432"><path d="M 412.238281 0.117188 L 787 0.117188 L 787 374.878906 L 412.238281 374.878906 Z M 412.238281 0.117188 " clip-rule="nonzero"/></clipPath><clipPath id="62d2140683"><path d="M 599.621094 0.117188 C 496.132812 0.117188 412.238281 84.011719 412.238281 187.5 C 412.238281 290.988281 496.132812 374.882812 599.621094 374.882812 C 703.105469 374.882812 787 290.988281 787 187.5 C 787 84.011719 703.105469 0.117188 599.621094 0.117188 Z M 599.621094 0.117188 " clip-rule="nonzero"/></clipPath><clipPath id="b2ad77bf8c"><path d="M 520 70 L 669 70 L 669 311 L 520 311 Z M 520 70 " clip-rule="nonzero"/></clipPath><clipPath id="67a3d37287"><path d="M 622.945312 41.886719 L 735.925781 243.753906 L 576.453125 333.011719 L 463.46875 131.144531 Z M 622.945312 41.886719 " clip-rule="nonzero"/></clipPath><clipPath id="649c8f080b"><path d="M 622.945312 41.886719 L 735.925781 243.753906 L 576.453125 333.011719 L 463.46875 131.144531 Z M 622.945312 41.886719 " clip-rule="nonzero"/></clipPath><clipPath id="c4388add74"><path d="M 622.945312 41.886719 L 735.925781 243.753906 L 576.453125 333.011719 L 463.46875 131.144531 Z M 622.945312 41.886719 " clip-rule="nonzero"/></clipPath><clipPath id="da8562f566"><path d="M 545 80 L 643 80 L 643 220 L 545 220 Z M 545 80 " clip-rule="nonzero"/></clipPath><clipPath id="b8601d6db4"><path d="M 622.945312 41.886719 L 735.925781 243.753906 L 576.453125 333.011719 L 463.46875 131.144531 Z M 622.945312 41.886719 " clip-rule="nonzero"/></clipPath><clipPath id="5d9c789f79"><path d="M 622.945312 41.886719 L 735.925781 243.753906 L 576.453125 333.011719 L 463.46875 131.144531 Z M 622.945312 41.886719 " clip-rule="nonzero"/></clipPath><clipPath id="737e010472"><path d="M 622.945312 41.886719 L 735.925781 243.753906 L 576.453125 333.011719 L 463.46875 131.144531 Z M 622.945312 41.886719 " clip-rule="nonzero"/></clipPath><clipPath id="4a116b5342"><path d="M 537 193 L 660 193 L 660 304 L 537 304 Z M 537 193 " clip-rule="nonzero"/></clipPath><clipPath id="b3db8ded4a"><path d="M 622.945312 41.886719 L 735.925781 243.753906 L 576.453125 333.011719 L 463.46875 131.144531 Z M 622.945312 41.886719 " clip-rule="nonzero"/></clipPath><clipPath id="b18c6720ea"><path d="M 622.945312 41.886719 L 735.925781 243.753906 L 576.453125 333.011719 L 463.46875 131.144531 Z M 622.945312 41.886719 " clip-rule="nonzero"/></clipPath><clipPath id="22ecabd89e"><path d="M 622.945312 41.886719 L 735.925781 243.753906 L 576.453125 333.011719 L 463.46875 131.144531 Z M 622.945312 41.886719 " clip-rule="nonzero"/></clipPath><clipPath id="c54c74760f"><path d="M 527 191 L 567 191 L 567 235 L 527 235 Z M 527 191 " clip-rule="nonzero"/></clipPath><clipPath id="a99088ba1f"><path d="M 622.945312 41.886719 L 735.925781 243.753906 L 576.453125 333.011719 L 463.46875 131.144531 Z M 622.945312 41.886719 " clip-rule="nonzero"/></clipPath><clipPath id="5c0627c814"><path d="M 622.945312 41.886719 L 735.925781 243.753906 L 576.453125 333.011719 L 463.46875 131.144531 Z M 622.945312 41.886719 " clip-rule="nonzero"/></clipPath><clipPath id="958e6912e6"><path d="M 622.945312 41.886719 L 735.925781 243.753906 L 576.453125 333.011719 L 463.46875 131.144531 Z M 622.945312 41.886719 " clip-rule="nonzero"/></clipPath><clipPath id="9a491e79a5"><path d="M 570 82 L 643 82 L 643 195 L 570 195 Z M 570 82 " clip-rule="nonzero"/></clipPath><clipPath id="65a24e627b"><path d="M 622.945312 41.886719 L 735.925781 243.753906 L 576.453125 333.011719 L 463.46875 131.144531 Z M 622.945312 41.886719 " clip-rule="nonzero"/></clipPath><clipPath id="5849a80dfa"><path d="M 622.945312 41.886719 L 735.925781 243.753906 L 576.453125 333.011719 L 463.46875 131.144531 Z M 622.945312 41.886719 " clip-rule="nonzero"/></clipPath><clipPath id="c347285b54"><path d="M 622.945312 41.886719 L 735.925781 243.753906 L 576.453125 333.011719 L 463.46875 131.144531 Z M 622.945312 41.886719 " clip-rule="nonzero"/></clipPath><clipPath id="4f1f2ac4fb"><path d="M 594 193 L 660 193 L 660 273 L 594 273 Z M 594 193 " clip-rule="nonzero"/></clipPath><clipPath id="eb74d9ee3f"><path d="M 622.945312 41.886719 L 735.925781 243.753906 L 576.453125 333.011719 L 463.46875 131.144531 Z M 622.945312 41.886719 " clip-rule="nonzero"/></clipPath><clipPath id="17ca8510d6"><path d="M 622.945312 41.886719 L 735.925781 243.753906 L 576.453125 333.011719 L 463.46875 131.144531 Z M 622.945312 41.886719 " clip-rule="nonzero"/></clipPath><clipPath id="c7e1b09028"><path d="M 622.945312 41.886719 L 735.925781 243.753906 L 576.453125 333.011719 L 463.46875 131.144531 Z M 622.945312 41.886719 " clip-rule="nonzero"/></clipPath><clipPath id="83d575bcc5"><path d="M 565 229 L 643 229 L 643 301 L 565 301 Z M 565 229 " clip-rule="nonzero"/></clipPath><clipPath id="c3c520aba5"><path d="M 622.945312 41.886719 L 735.925781 243.753906 L 576.453125 333.011719 L 463.46875 131.144531 Z M 622.945312 41.886719 " clip-rule="nonzero"/></clipPath><clipPath id="37584c0a2d"><path d="M 622.945312 41.886719 L 735.925781 243.753906 L 576.453125 333.011719 L 463.46875 131.144531 Z M 622.945312 41.886719 " clip-rule="nonzero"/></clipPath><clipPath id="6d753e24c3"><path d="M 622.945312 41.886719 L 735.925781 243.753906 L 576.453125 333.011719 L 463.46875 131.144531 Z M 622.945312 41.886719 " clip-rule="nonzero"/></clipPath><clipPath id="21018a19d6"><path d="M 550 163 L 575 163 L 575 206 L 550 206 Z M 550 163 " clip-rule="nonzero"/></clipPath><clipPath id="0c26009a2d"><path d="M 622.945312 41.886719 L 735.925781 243.753906 L 576.453125 333.011719 L 463.46875 131.144531 Z M 622.945312 41.886719 " clip-rule="nonzero"/></clipPath><clipPath id="2fcec674ab"><path d="M 622.945312 41.886719 L 735.925781 243.753906 L 576.453125 333.011719 L 463.46875 131.144531 Z M 622.945312 41.886719 " clip-rule="nonzero"/></clipPath><clipPath id="06e4ebb39e"><path d="M 622.945312 41.886719 L 735.925781 243.753906 L 576.453125 333.011719 L 463.46875 131.144531 Z M 622.945312 41.886719 " clip-rule="nonzero"/></clipPath><clipPath id="cfad4479a7"><path d="M 531 191 L 552 191 L 552 220 L 531 220 Z M 531 191 " clip-rule="nonzero"/></clipPath><clipPath id="36ebf3de59"><path d="M 622.945312 41.886719 L 735.925781 243.753906 L 576.453125 333.011719 L 463.46875 131.144531 Z M 622.945312 41.886719 " clip-rule="nonzero"/></clipPath><clipPath id="ab8d07c9e1"><path d="M 622.945312 41.886719 L 735.925781 243.753906 L 576.453125 333.011719 L 463.46875 131.144531 Z M 622.945312 41.886719 " clip-rule="nonzero"/></clipPath><clipPath id="f7b4d8b27b"><path d="M 622.945312 41.886719 L 735.925781 243.753906 L 576.453125 333.011719 L 463.46875 131.144531 Z M 622.945312 41.886719 " clip-rule="nonzero"/></clipPath><clipPath id="c8a5e3f52b"><path d="M 376 164.101562 L 448.609375 164.101562 L 448.609375 265.546875 L 376 265.546875 Z M 376 164.101562 " clip-rule="nonzero"/></clipPath><clipPath id="0809a9b39f"><path d="M 347.429688 90.9375 L 435.945312 90.9375 L 435.945312 284.308594 L 347.429688 284.308594 Z M 347.429688 90.9375 " clip-rule="nonzero"/></clipPath></defs><g clip-path="url(#e241d983de)"><g clip-path="url(#0dc5ea2e4b)"><path fill="#84caed" d="M 0 0.117188 L 374.761719 0.117188 L 374.761719 374.882812 L 0 374.882812 Z M 0 0.117188 " fill-opacity="1" fill-rule="nonzero"/></g></g><g clip-path="url(#cc0aeb5030)"><g clip-path="url(#d542edf4c2)"><g clip-path="url(#5b714fa097)"><g clip-path="url(#cc2a3a9f42)"><path fill="#232323" d="M 157.101562 99.542969 C 154.546875 93.363281 148.527344 89.351562 141.875 89.285156 C 135.359375 89.285156 129.78125 92.945312 125.925781 97.984375 C 121.011719 104.292969 119.253906 112.292969 119.160156 120.15625 C 119.164062 130.132812 121.039062 139.980469 123.417969 149.636719 C 120.496094 143.785156 117.890625 136.535156 113.03125 132.074219 C 109.355469 128.59375 104.035156 127.183594 99.1875 128.714844 C 93.039062 130.550781 88.53125 136.777344 86.730469 142.703125 C 84.226562 150.910156 84.988281 160.421875 86.617188 168.738281 C 88.363281 178.441406 93.054688 187.625 97.78125 196.222656 C 100.898438 202.078125 105.496094 206.566406 108.050781 212.738281 C 114.300781 225.183594 113.734375 238.332031 119.785156 250.71875 C 123.847656 258.722656 130.101562 265.003906 137.480469 269.996094 C 134.402344 276.554688 134.113281 284.128906 136.945312 290.835938 C 139.886719 298.179688 145.777344 303.703125 152.574219 307.492188 C 162.347656 312.765625 173.253906 314.621094 184.273438 314.183594 C 196.347656 313.632812 208.226562 310.164062 218.464844 303.699219 C 226.695312 298.371094 233.761719 290.914062 236.644531 281.351562 C 237.957031 277.375 238.023438 273.289062 237.464844 269.167969 C 242.671875 265.027344 246.515625 259.734375 249.871094 254.035156 C 253.777344 247.113281 255.386719 239.816406 258.136719 232.460938 C 261.203125 224.25 264.34375 215.96875 269.671875 208.933594 C 274.496094 200.847656 280.882812 194.207031 286.632812 186.839844 C 290.222656 181.78125 294.628906 176.214844 295.601562 169.953125 C 296.609375 163.671875 294.464844 157.011719 289.511719 152.898438 C 284.757812 148.847656 278.050781 148.082031 272.074219 149.007812 C 262.566406 150.535156 254 155.867188 246.933594 162.226562 C 243.34375 165.308594 240.519531 168.992188 237.628906 172.707031 C 239.792969 162.382812 242.324219 152.160156 245.832031 142.214844 C 249.84375 129.042969 254.9375 117.554688 257.304688 104.078125 C 258.3125 97.566406 256.691406 90.773438 251.1875 86.675781 C 247.011719 83.5625 241.457031 82.761719 236.539062 84.40625 C 229.203125 86.839844 223.597656 92.238281 219.445312 98.601562 C 214.46875 106.007812 211.609375 114.085938 208.445312 122.339844 C 208.933594 111.703125 211.074219 99.964844 209.875 89.335938 C 209.121094 82.507812 206.277344 75.324219 200.707031 71.015625 C 195.878906 67.378906 189.425781 67.390625 184.210938 70.191406 C 177.0625 73.9375 172.664062 81.339844 170.453125 88.886719 C 165.007812 106.121094 165.90625 125.679688 165.859375 143.589844 C 163.964844 135.472656 162.480469 127.234375 161.167969 119 C 160.101562 112.601562 159.488281 105.589844 157.101562 99.542969 Z M 157.101562 99.542969 " fill-opacity="1" fill-rule="nonzero"/></g></g></g></g><g clip-path="url(#3891c256b9)"><g clip-path="url(#866ac6bee6)"><g clip-path="url(#659d9e19ae)"><g clip-path="url(#97c7e3b819)"><path fill="#ababab" d="M 134.964844 174.839844 C 135.933594 179.113281 137.503906 182.777344 137.25 187.042969 C 132.734375 181.984375 129.644531 175.453125 126.492188 169.496094 C 122.878906 161.933594 119.1875 154.414062 115.316406 146.988281 C 113.296875 143.324219 110.84375 138.375 106.972656 136.414062 C 104.703125 135.226562 102.507812 135.738281 100.242188 136.605469 C 95.902344 139.730469 93.839844 144.449219 93.378906 149.664062 C 92.390625 161.066406 95.066406 173 99.859375 183.324219 C 103.078125 190.789062 106.910156 197.941406 110.933594 204.996094 C 113.65625 210.402344 116.851562 215.285156 118.65625 220.882812 C 122.230469 230.746094 123.238281 241.625 129.207031 250.5 C 133.140625 256.109375 138.511719 261.414062 144.863281 264.175781 C 151.621094 266.859375 159.230469 267.515625 166.351562 265.988281 C 171.308594 265.023438 175.601562 262.820312 180.453125 261.460938 C 177.160156 266.957031 170.835938 270.683594 164.886719 272.582031 C 158.128906 274.710938 151.261719 274.398438 144.375 273.164062 C 143.566406 277.972656 143.039062 282.53125 144.972656 287.191406 C 148.222656 294.945312 155.671875 299.792969 163.34375 302.445312 C 175.019531 306.429688 188.359375 305.917969 200.023438 302.242188 C 208.953125 299.226562 217.414062 294.679688 223.167969 287.003906 C 226.230469 283.445312 227.804688 279.128906 228.597656 274.546875 C 222.230469 276.304688 216.503906 278.105469 209.832031 276.640625 C 206.835938 276.023438 204.15625 274.5625 201.765625 272.683594 C 211.730469 272.046875 221.078125 270.464844 229.507812 264.6875 C 234.851562 260.925781 238.269531 255.816406 241.421875 250.207031 C 245.539062 242.648438 247.234375 233.898438 250.746094 225.855469 C 254.355469 216.882812 259.257812 208.640625 264.792969 200.742188 C 271.070312 190.515625 279.648438 182.929688 285.351562 172.402344 C 286.847656 169.566406 287.078125 166.699219 286.316406 163.601562 C 285.214844 161.199219 283.714844 159.199219 281.121094 158.355469 C 275.757812 156.546875 269.324219 158.308594 264.359375 160.546875 C 253.664062 165.84375 244.601562 174.578125 239.527344 185.457031 C 237.082031 190.445312 234.882812 195.925781 230.765625 199.796875 C 229.117188 201.292969 227.359375 203.246094 225.195312 203.882812 C 221.875 204.9375 218.40625 205.453125 215.0625 206.433594 C 202.59375 210.019531 190.972656 215.703125 182.050781 225.328125 C 185.0625 217.898438 190.335938 211.746094 196.878906 207.1875 C 205.167969 200.929688 214.902344 197.398438 225.171875 196.226562 C 225.558594 185.574219 228.699219 174.863281 230.851562 164.417969 C 233.542969 151.335938 237.910156 138.847656 242.042969 126.183594 C 244.726562 119.132812 246.925781 111.949219 248.660156 104.605469 C 249.3125 101.671875 249.625 98.089844 248.058594 95.382812 C 246.761719 93.363281 244.804688 92.53125 242.652344 91.726562 C 235.96875 91.925781 230.902344 95.847656 226.773438 100.753906 C 221.210938 107.566406 217.445312 116.378906 214.1875 124.5 C 208.078125 140.457031 204.976562 156.914062 201.261719 173.496094 C 200.257812 173.265625 199.253906 173.039062 198.25 172.800781 C 198.378906 168.75 198.835938 164.726562 199.425781 160.714844 C 199.96875 158.171875 200.472656 155.605469 200.839844 153.03125 C 201.492188 148.511719 201.1875 143.964844 201.675781 139.402344 C 203.011719 127.917969 202.871094 115.984375 202.917969 104.367188 C 202.746094 96.136719 202.902344 87.824219 198.34375 80.605469 C 196.703125 78.664062 195.054688 76.65625 192.339844 76.464844 C 187.890625 76.132812 184.210938 79.078125 181.550781 82.339844 C 177.308594 87.582031 175.429688 95.136719 173.929688 101.609375 C 171.460938 113.625 170.898438 126.097656 170.433594 138.332031 C 170.234375 145.691406 169.957031 153.03125 170.140625 160.402344 C 170.199219 165.039062 170.582031 169.53125 170.125 174.171875 C 165.726562 170.875 164.382812 163.632812 162.609375 158.652344 C 158.296875 142.652344 154.398438 126.5625 151.425781 110.265625 C 150.355469 105.796875 149.371094 100.25 144.621094 98.269531 C 142.410156 97.792969 140.261719 97.59375 138.128906 98.527344 C 133.359375 100.578125 129.957031 105.507812 128.304688 110.300781 C 125.9375 117.191406 126.148438 125.238281 126.664062 132.441406 C 127.757812 147.117188 131.464844 160.554688 134.964844 174.839844 Z M 194.367188 176.722656 C 199.277344 177.207031 205.105469 178.269531 208.0625 182.6875 C 203.105469 181.746094 198.117188 181.457031 193.082031 181.785156 C 180.628906 182.714844 168.195312 185.882812 156.578125 190.402344 C 151.90625 192.265625 147.21875 193.710938 142.867188 196.285156 C 141.652344 196.808594 140.425781 197.285156 139.179688 197.746094 C 143.808594 192.464844 149.84375 188.421875 156.035156 185.199219 C 167.6875 179.253906 181.222656 175.839844 194.367188 176.722656 Z M 194.367188 176.722656 " fill-opacity="1" fill-rule="nonzero"/></g></g></g></g><g clip-path="url(#b28ad4a16f)"><g clip-path="url(#0b882c4be3)"><g clip-path="url(#a35d8e5bcb)"><g clip-path="url(#fd6d650802)"><path fill="#ffffff" d="M 215.507812 146.546875 C 214.652344 153.042969 213.796875 159.253906 214.472656 165.828125 C 214.964844 172.304688 217.535156 178.25 218.066406 184.726562 C 214.636719 184.453125 211.382812 183.515625 208.0625 182.6875 C 203.105469 181.746094 198.117188 181.457031 193.082031 181.785156 C 180.628906 182.714844 168.195312 185.882812 156.578125 190.402344 C 151.90625 192.265625 147.21875 193.710938 142.867188 196.285156 C 139.03125 198.699219 135.390625 200.6875 132.832031 204.554688 C 128.074219 211.421875 127.867188 220.992188 130.324219 228.746094 C 132.910156 235.914062 135.925781 242.578125 141.484375 247.957031 C 147.339844 253.902344 154.9375 257.808594 163.449219 256.898438 C 172.445312 255.703125 180.394531 251.339844 187.640625 246.101562 C 186.335938 251.808594 183.375 256.492188 180.453125 261.460938 C 177.160156 266.957031 170.835938 270.683594 164.886719 272.582031 C 165.449219 275.925781 166.027344 279.070312 167.925781 281.96875 C 171.503906 287.46875 177.300781 290.910156 183.507812 292.65625 C 190.171875 294.511719 197.535156 295.503906 204.402344 294.425781 C 210.859375 293.492188 217.0625 289.574219 223.167969 287.003906 C 226.230469 283.445312 227.804688 279.128906 228.597656 274.546875 C 222.230469 276.304688 216.503906 278.105469 209.832031 276.640625 C 206.835938 276.023438 204.15625 274.5625 201.765625 272.683594 C 198.132812 269.574219 194.796875 266.523438 193.300781 261.796875 C 192.160156 258.511719 192.554688 255.328125 193.105469 251.984375 C 196.332031 254.578125 199.195312 257.546875 203.375 258.480469 C 210.210938 260.035156 217.539062 257.476562 222.957031 253.3125 C 228.324219 249.101562 231.265625 243.351562 233.808594 237.171875 C 236.085938 231.46875 239.054688 226.089844 241.410156 220.410156 C 243.433594 215.605469 245.21875 210.863281 248.011719 206.421875 C 255.238281 194.21875 268.085938 184.507812 278.304688 174.804688 C 281.707031 171.53125 283.882812 167.578125 286.316406 163.601562 C 285.214844 161.199219 283.714844 159.199219 281.121094 158.355469 C 275.757812 156.546875 269.324219 158.308594 264.359375 160.546875 C 253.664062 165.84375 244.601562 174.578125 239.527344 185.457031 C 237.082031 190.445312 234.882812 195.925781 230.765625 199.796875 C 229.117188 201.292969 227.359375 203.246094 225.195312 203.882812 C 221.875 204.9375 218.40625 205.453125 215.0625 206.433594 C 202.59375 210.019531 190.972656 215.703125 182.050781 225.328125 C 185.0625 217.898438 190.335938 211.746094 196.878906 207.1875 C 205.167969 200.929688 214.902344 197.398438 225.171875 196.226562 C 225.558594 185.574219 228.699219 174.863281 230.851562 164.417969 C 233.542969 151.335938 237.910156 138.847656 242.042969 126.183594 C 244.726562 119.132812 246.925781 111.949219 248.660156 104.605469 C 249.3125 101.671875 249.625 98.089844 248.058594 95.382812 C 246.761719 93.363281 244.804688 92.53125 242.652344 91.726562 C 236.246094 95.574219 232.230469 101.421875 228.6875 107.8125 C 222.152344 119.933594 217.390625 132.863281 215.507812 146.546875 Z M 180.378906 213.253906 C 179.234375 215.058594 177.996094 216.777344 176.742188 218.5 C 171.503906 214.6875 166.082031 211.28125 160.035156 208.910156 C 156.234375 207.394531 152.394531 206.558594 148.503906 205.347656 C 153.097656 204.160156 157.617188 203.835938 162.316406 204.515625 C 169.296875 205.535156 175.871094 207.394531 180.378906 213.253906 Z M 180.378906 213.253906 " fill-opacity="1" fill-rule="nonzero"/></g></g></g></g><g clip-path="url(#aa3c52bae1)"><g clip-path="url(#dd3db945ee)"><g clip-path="url(#60f2fde199)"><g clip-path="url(#0824e8eb81)"><path fill="#ffffff" d="M 188.960938 83.25 C 184.605469 89.492188 184.054688 98.453125 183.359375 105.824219 C 182.089844 121.429688 181.894531 137.28125 183.699219 152.855469 C 184.398438 158.507812 185.347656 164.078125 187.492188 169.40625 C 192.90625 168.082031 196.246094 165.101562 199.425781 160.714844 C 199.96875 158.171875 200.472656 155.605469 200.839844 153.03125 C 201.492188 148.511719 201.1875 143.964844 201.675781 139.402344 C 203.011719 127.917969 202.871094 115.984375 202.917969 104.367188 C 202.746094 96.136719 202.902344 87.824219 198.34375 80.605469 C 194.851562 80.707031 191.230469 79.851562 188.960938 83.25 Z M 188.960938 83.25 " fill-opacity="1" fill-rule="nonzero"/></g></g></g></g><g clip-path="url(#9231ce0785)"><g clip-path="url(#cfbfc86b5c)"><g clip-path="url(#d076bbac77)"><g clip-path="url(#39fa6d0517)"><path fill="#ffffff" d="M 135.125 121.761719 C 135.167969 130.660156 136.761719 139.1875 138.65625 147.835938 C 140.753906 157.050781 143.6875 166.152344 147.679688 174.722656 C 148.492188 176.152344 149.320312 178.460938 151.207031 178.652344 C 154.699219 179.242188 157.484375 176.761719 159.210938 174.003906 C 161.859375 169.628906 162.300781 163.660156 162.609375 158.652344 C 158.296875 142.652344 154.398438 126.5625 151.425781 110.265625 C 150.355469 105.796875 149.371094 100.25 144.621094 98.269531 C 141.566406 100.707031 138.433594 102.84375 136.855469 106.5625 C 134.933594 111.121094 135.121094 116.878906 135.125 121.761719 Z M 135.125 121.761719 " fill-opacity="1" fill-rule="nonzero"/></g></g></g></g><g clip-path="url(#c4f819ad63)"><g clip-path="url(#47dea5d9d2)"><g clip-path="url(#1c02f4ccb9)"><g clip-path="url(#865eb895be)"><path fill="#ffffff" d="M 110.203125 190.328125 C 112.269531 194.015625 114.085938 198.007812 116.660156 201.375 C 117.5625 203.066406 119.996094 202.144531 121.414062 201.707031 C 125.867188 199.820312 128.730469 194.617188 129.851562 190.121094 C 131.628906 182.832031 129.597656 176.101562 126.492188 169.496094 C 122.878906 161.933594 119.1875 154.414062 115.316406 146.988281 C 113.296875 143.324219 110.84375 138.375 106.972656 136.414062 C 104.703125 135.226562 102.507812 135.738281 100.242188 136.605469 C 98.925781 141.503906 97.664062 146.269531 97.929688 151.402344 C 98.082031 165.503906 103.820312 178.042969 110.203125 190.328125 Z M 110.203125 190.328125 " fill-opacity="1" fill-rule="nonzero"/></g></g></g></g><g clip-path="url(#5c0cfc4432)"><g clip-path="url(#62d2140683)"><path fill="#ffde59" d="M 412.238281 0.117188 L 787 0.117188 L 787 374.882812 L 412.238281 374.882812 Z M 412.238281 0.117188 " fill-opacity="1" fill-rule="nonzero"/></g></g><g clip-path="url(#b2ad77bf8c)"><g clip-path="url(#67a3d37287)"><g clip-path="url(#649c8f080b)"><g clip-path="url(#c4388add74)"><path fill="#232323" d="M 552.316406 92.941406 C 550.375 98.894531 550.3125 104.832031 550.667969 111.015625 C 551.605469 126.761719 554.871094 142.34375 560.867188 156.960938 C 553.65625 158.308594 546.425781 162.300781 542.058594 168.28125 C 538.566406 173.109375 538.429688 179.007812 538.691406 184.722656 C 531.738281 187.824219 526.640625 193.417969 522.902344 199.921875 C 520.652344 203.984375 519.695312 208.632812 520.726562 213.214844 C 522.21875 220.445312 526.644531 226.773438 530.46875 232.765625 C 530.03125 238.355469 530.097656 243.867188 531.789062 249.277344 C 533.796875 255.546875 536.78125 262.101562 541.3125 266.953125 C 545.578125 271.542969 550.734375 275.222656 556.613281 277.429688 C 555.511719 282.589844 555.542969 287.761719 558 292.558594 C 561.386719 299.839844 567.867188 304.558594 575.160156 307.425781 C 586.515625 311.785156 599.390625 311.890625 611.140625 309.167969 C 622.160156 306.605469 633.199219 301.269531 641.109375 293.054688 C 646.457031 287.492188 650.398438 280.398438 650.5 272.511719 C 650.582031 269.09375 649.660156 265.929688 648.558594 262.730469 C 654.96875 257.371094 659.820312 250.597656 663.632812 243.203125 C 668.152344 234.542969 669.878906 224.601562 668.109375 214.953125 C 666.675781 206.101562 662.054688 197.929688 655.078125 192.269531 C 652.398438 190.109375 649.488281 188.609375 646.464844 187.011719 C 646.734375 182.816406 646.328125 178.714844 646.179688 174.53125 C 645.5 159.3125 646.566406 143.917969 648.378906 128.808594 C 649.332031 121.304688 649.960938 113.777344 650.535156 106.230469 C 651.34375 100.128906 650.988281 94.035156 648.292969 88.402344 C 645.324219 81.855469 639.558594 76.730469 632.550781 74.984375 C 625.675781 73.175781 618.316406 74.886719 612.726562 79.226562 C 609.542969 81.804688 606.296875 84.714844 604.921875 88.695312 C 602.792969 94.894531 601.460938 101.296875 600.78125 107.808594 C 600.339844 111.605469 600.273438 115.441406 599.792969 119.226562 C 598.261719 109.796875 598.28125 100.097656 597.277344 90.59375 C 596.613281 85.570312 594.894531 80.785156 591.445312 76.980469 C 588.296875 73.210938 583.601562 70.933594 578.691406 70.839844 C 573.160156 70.738281 567.558594 72.894531 563.296875 76.367188 C 558.113281 80.695312 554.324219 86.503906 552.316406 92.941406 Z M 552.316406 92.941406 " fill-opacity="1" fill-rule="nonzero"/></g></g></g></g><g clip-path="url(#da8562f566)"><g clip-path="url(#b8601d6db4)"><g clip-path="url(#5d9c789f79)"><g clip-path="url(#737e010472)"><path fill="#ababab" d="M 558.816406 106.363281 C 559.222656 121.332031 561.910156 136.171875 566.773438 150.335938 C 569.722656 160.121094 574.046875 169.34375 577.355469 178.972656 C 573.460938 174.011719 571.792969 168.707031 566.257812 165.042969 C 564.0625 163.976562 561.652344 163.417969 559.238281 164.027344 C 554.414062 165.988281 548.699219 169.183594 546.378906 174.109375 C 544.5625 178.460938 544.984375 183.929688 545.730469 188.492188 C 547.09375 195.265625 549.121094 202.007812 552 208.296875 C 554.210938 213.144531 558.988281 215.113281 563.5 217.238281 C 567.792969 219.082031 572.066406 221.003906 576.785156 219.402344 C 578.242188 218.828125 580.761719 218.132812 581.484375 216.644531 C 581.390625 214.320312 580.640625 211.738281 581.136719 209.445312 C 581.816406 206.433594 583.804688 203.449219 584.898438 200.625 C 585.878906 198.953125 583.953125 196.777344 583.167969 195.335938 C 580.875 191.726562 577.480469 190.988281 573.910156 189.226562 C 576.34375 189.050781 578.742188 189.097656 581.101562 189.757812 C 584.753906 190.703125 587.71875 193.175781 590.503906 195.605469 C 591.203125 195.285156 591.902344 194.96875 592.585938 194.648438 C 599.863281 191.144531 608.578125 189.753906 616.394531 187.648438 C 623.699219 185.722656 630.96875 184.238281 638.570312 184.929688 C 636.507812 166.097656 637.597656 147.453125 639.828125 128.703125 C 641.039062 118.957031 642.082031 109.109375 642.375 99.28125 C 642.539062 95.59375 641.398438 91.992188 639.351562 88.933594 C 637.328125 85.863281 634.628906 83.449219 630.859375 83.019531 C 622.617188 82.183594 614.722656 87.085938 611.332031 94.570312 C 609.175781 99.449219 608.691406 105.195312 608.097656 110.457031 C 607.054688 122.324219 606.679688 134.355469 607.464844 146.246094 C 608.042969 156.464844 609.5625 166.597656 610.136719 176.804688 C 612.816406 177.058594 615.4375 177.367188 617.976562 178.320312 C 611.699219 181.238281 604.398438 182.285156 597.519531 182.015625 C 599.882812 180.1875 602.570312 179.132812 605.332031 178.066406 C 604.15625 172.894531 602.195312 168.007812 600.8125 162.90625 C 595.34375 143.9375 592.886719 123.527344 591.035156 103.898438 C 590.480469 98.894531 591.0625 93.65625 588.703125 89.210938 C 587.292969 86.3125 584.992188 84.164062 582.234375 82.582031 C 574.804688 78.257812 564.644531 82.851562 561.171875 90.21875 C 558.554688 95.019531 558.847656 101.03125 558.816406 106.363281 Z M 558.816406 106.363281 " fill-opacity="1" fill-rule="nonzero"/></g></g></g></g><g clip-path="url(#4a116b5342)"><g clip-path="url(#b3db8ded4a)"><g clip-path="url(#b18c6720ea)"><g clip-path="url(#22ecabd89e)"><path fill="#ababab" d="M 642.554688 272.011719 C 642.515625 271.1875 642.457031 270.359375 642.390625 269.527344 C 633.210938 275.589844 622.066406 278.316406 611.230469 275.796875 C 615.230469 274.605469 619.328125 274.183594 623.207031 272.527344 C 633.496094 268.59375 641.929688 261.070312 648.25 252.183594 C 653.152344 244.800781 658.121094 237.046875 659.539062 228.136719 C 660.878906 219.59375 659.25 209.839844 653.683594 203.023438 C 649.34375 197.367188 642.363281 193.355469 635.191406 193.058594 C 628.585938 192.730469 621.503906 194.789062 615.105469 196.300781 C 608.316406 197.984375 601.074219 199.242188 594.71875 202.070312 C 592.054688 203.617188 589.914062 205.78125 588.890625 208.730469 C 586.976562 213.453125 589.660156 219.363281 593.261719 222.527344 C 598.621094 227.113281 606.378906 229.132812 613.277344 229.710938 C 621.402344 230.351562 628.742188 228.234375 636.464844 226.109375 C 633.203125 228.894531 629.613281 230.738281 625.464844 231.832031 C 616.6875 234.140625 608.339844 237.71875 600.902344 242.949219 C 597.035156 245.710938 593.800781 249.433594 589.742188 251.863281 C 590.714844 248.679688 591.027344 245.734375 592.859375 242.875 C 595.046875 239.328125 598.160156 237.160156 601.527344 234.851562 C 597.320312 233.789062 593.441406 232.109375 590.113281 229.273438 C 587.824219 227.296875 585.996094 224.96875 584.191406 222.570312 C 580.113281 224.554688 576.621094 225.550781 572.113281 225.882812 C 569.175781 231.300781 564.882812 237.199219 559.28125 240 C 552.554688 242.636719 544.332031 241.289062 537.898438 238.328125 C 538.136719 245.613281 540.585938 252.507812 544.160156 258.796875 C 548.023438 264.824219 553.847656 270.152344 560.652344 272.597656 C 567.15625 274.84375 573.636719 275.300781 580.429688 275.632812 C 575.070312 279.136719 569.285156 279.320312 563.121094 279.136719 C 563.21875 283.347656 563.425781 287.246094 565.894531 290.863281 C 570.199219 297.304688 577.992188 300.636719 585.34375 302.109375 C 593.832031 303.703125 602.960938 303.300781 611.25 300.859375 C 619.546875 298.917969 627.617188 294.992188 633.933594 289.238281 C 638.746094 284.765625 642.710938 278.832031 642.554688 272.011719 Z M 642.554688 272.011719 " fill-opacity="1" fill-rule="nonzero"/></g></g></g></g><g clip-path="url(#c54c74760f)"><g clip-path="url(#a99088ba1f)"><g clip-path="url(#5c0627c814)"><g clip-path="url(#958e6912e6)"><path fill="#ababab" d="M 550.546875 216.199219 C 547.558594 213.636719 545.9375 209.898438 544.355469 206.382812 C 542.285156 201.683594 541.109375 196.820312 539.714844 191.894531 C 536.828125 194.144531 534.207031 196.621094 531.992188 199.542969 C 529.617188 202.671875 527.082031 206.289062 527.5625 210.4375 C 528.121094 214.726562 530.582031 219 532.679688 222.726562 C 536.0625 228.625 541.382812 233.292969 548.230469 234.460938 C 551.519531 234.980469 555.816406 235.394531 558.644531 233.28125 C 561.804688 231.023438 564.378906 227.746094 566.5 224.515625 C 560.890625 221.933594 555.402344 220.214844 550.546875 216.199219 Z M 550.546875 216.199219 " fill-opacity="1" fill-rule="nonzero"/></g></g></g></g><g clip-path="url(#9a491e79a5)"><g clip-path="url(#65a24e627b)"><g clip-path="url(#5849a80dfa)"><g clip-path="url(#c347285b54)"><path fill="#ffffff" d="M 574.992188 87.195312 C 571.113281 93.253906 570.324219 101.476562 570.558594 108.523438 C 571.019531 119.871094 572.917969 131.296875 575.457031 142.355469 C 578.199219 154.320312 581.511719 166.277344 585.878906 177.753906 C 587.996094 183.457031 590.796875 188.816406 592.585938 194.648438 C 599.863281 191.144531 608.578125 189.753906 616.394531 187.648438 C 623.699219 185.722656 630.96875 184.238281 638.570312 184.929688 C 636.507812 166.097656 637.597656 147.453125 639.828125 128.703125 C 641.039062 118.957031 642.082031 109.109375 642.375 99.28125 C 642.539062 95.59375 641.398438 91.992188 639.351562 88.933594 C 637.164062 88.105469 634.066406 86.648438 631.734375 87.472656 C 628.675781 88.796875 626.480469 92.070312 625.03125 94.96875 C 621.355469 102.359375 620.074219 111.203125 619.003906 119.332031 C 617.585938 131.234375 617.300781 143.308594 617.050781 155.289062 C 617.058594 160.175781 616.992188 165.394531 618.289062 170.136719 C 619.566406 174.484375 622.371094 177.707031 625.144531 181.160156 C 621.15625 182.308594 617.132812 183.222656 612.980469 183.496094 C 606.929688 183.890625 601.285156 184.535156 595.261719 183.964844 C 596.003906 183.308594 596.746094 182.648438 597.519531 182.015625 C 599.882812 180.1875 602.570312 179.132812 605.332031 178.066406 C 604.15625 172.894531 602.195312 168.007812 600.8125 162.90625 C 595.34375 143.9375 592.886719 123.527344 591.035156 103.898438 C 590.480469 98.894531 591.0625 93.65625 588.703125 89.210938 C 587.292969 86.3125 584.992188 84.164062 582.234375 82.582031 C 579.445312 83.808594 576.699219 84.421875 574.992188 87.195312 Z M 574.992188 87.195312 " fill-opacity="1" fill-rule="nonzero"/></g></g></g></g><g clip-path="url(#4f1f2ac4fb)"><g clip-path="url(#eb74d9ee3f)"><g clip-path="url(#17ca8510d6)"><g clip-path="url(#c7e1b09028)"><path fill="#ffffff" d="M 594.71875 202.070312 C 594.25 205.847656 593.5 209.25 595.917969 212.617188 C 599.601562 217.894531 606.003906 219.230469 611.996094 219.871094 C 620.835938 220.882812 629.300781 219.371094 637.890625 217.472656 C 639.042969 219.304688 640.109375 220.984375 640.101562 223.226562 C 640.113281 226.136719 638.417969 228.316406 636.488281 230.308594 C 631.195312 235.621094 623.996094 239.324219 618.527344 243.804688 C 614.753906 246.9375 611.289062 250.992188 610.339844 255.945312 C 609.464844 260.269531 610.875 264.917969 614.097656 267.960938 C 616.648438 270.410156 619.960938 271.386719 623.207031 272.527344 C 633.496094 268.59375 641.929688 261.070312 648.25 252.183594 C 653.152344 244.800781 658.121094 237.046875 659.539062 228.136719 C 660.878906 219.59375 659.25 209.839844 653.683594 203.023438 C 649.34375 197.367188 642.363281 193.355469 635.191406 193.058594 C 628.585938 192.730469 621.503906 194.789062 615.105469 196.300781 C 608.316406 197.984375 601.074219 199.242188 594.71875 202.070312 Z M 594.71875 202.070312 " fill-opacity="1" fill-rule="nonzero"/></g></g></g></g><g clip-path="url(#83d575bcc5)"><g clip-path="url(#c3c520aba5)"><g clip-path="url(#37584c0a2d)"><g clip-path="url(#6d753e24c3)"><path fill="#ffffff" d="M 602.335938 272.671875 C 596.769531 270.628906 591.738281 266.835938 589.621094 261.121094 C 588.453125 258.042969 588.757812 254.925781 589.742188 251.863281 C 590.714844 248.679688 591.027344 245.734375 592.859375 242.875 C 595.046875 239.328125 598.160156 237.160156 601.527344 234.851562 C 597.320312 233.789062 593.441406 232.109375 590.113281 229.273438 C 584.21875 229.089844 578.523438 230.152344 573.792969 233.867188 C 564.855469 240.25 563.417969 253.867188 569.265625 262.78125 C 572.953125 268.886719 578.917969 272.375 585.847656 273.546875 C 583.371094 276.789062 580.921875 279.832031 580.976562 284.140625 C 581.058594 289.453125 585.015625 293.585938 589.339844 296.144531 C 596.0625 300.140625 603.644531 300.578125 611.25 300.859375 C 619.546875 298.917969 627.617188 294.992188 633.933594 289.238281 C 638.746094 284.765625 642.710938 278.832031 642.554688 272.011719 C 642.515625 271.1875 642.457031 270.359375 642.390625 269.527344 C 633.210938 275.589844 622.066406 278.316406 611.230469 275.796875 C 608.167969 275.277344 605.265625 273.691406 602.335938 272.671875 Z M 602.335938 272.671875 " fill-opacity="1" fill-rule="nonzero"/></g></g></g></g><g clip-path="url(#21018a19d6)"><g clip-path="url(#0c26009a2d)"><g clip-path="url(#2fcec674ab)"><g clip-path="url(#06e4ebb39e)"><path fill="#ffffff" d="M 551.574219 170.386719 C 549.453125 180.910156 552.101562 192.546875 559.515625 200.5 C 561.957031 203.09375 565 205.234375 568.714844 205.0625 C 572.132812 204.957031 574.777344 201.675781 574.90625 198.40625 C 574.785156 196.285156 573.382812 194.152344 572.480469 192.269531 C 569.839844 187.371094 568.089844 182 567.160156 176.515625 C 566.511719 172.695312 566.679688 168.882812 566.257812 165.042969 C 564.0625 163.976562 561.652344 163.417969 559.238281 164.027344 C 556.675781 165.433594 552.003906 167.074219 551.574219 170.386719 Z M 551.574219 170.386719 " fill-opacity="1" fill-rule="nonzero"/></g></g></g></g><g clip-path="url(#cfad4479a7)"><g clip-path="url(#36ebf3de59)"><g clip-path="url(#ab8d07c9e1)"><g clip-path="url(#f7b4d8b27b)"><path fill="#ffffff" d="M 535.878906 211.90625 C 537.871094 215.207031 540.9375 218.816406 544.839844 219.796875 C 546.960938 220.382812 549.125 219.289062 551.109375 218.628906 C 550.925781 217.8125 550.734375 217.003906 550.546875 216.199219 C 547.558594 213.636719 545.9375 209.898438 544.355469 206.382812 C 542.285156 201.683594 541.109375 196.820312 539.714844 191.894531 C 536.828125 194.144531 534.207031 196.621094 531.992188 199.542969 C 532.730469 203.90625 533.511719 208.066406 535.878906 211.90625 Z M 535.878906 211.90625 " fill-opacity="1" fill-rule="nonzero"/></g></g></g></g><g clip-path="url(#c8a5e3f52b)"><path fill="#000000" d="M 447.632812 193.378906 C 450.742188 178.371094 447.3125 164.140625 424.414062 164.140625 C 419.617188 164.140625 415.230469 164.808594 411.292969 166.0625 L 391.304688 210.996094 C 394.179688 214.980469 398.808594 218.535156 405.402344 222.347656 C 415.671875 228.238281 418.214844 232.214844 416.730469 238.980469 C 415.511719 244.53125 412.441406 248.921875 405.886719 248.921875 C 399.140625 248.921875 398.058594 243.398438 399.25 235.371094 L 376.964844 235.371094 C 373.800781 251.964844 378.121094 265.507812 402.019531 265.507812 C 424.078125 265.507812 436.402344 252.632812 439.949219 236.480469 C 443.558594 220.046875 437.519531 212.332031 421.308594 203.210938 C 411.785156 197.902344 410.226562 195.011719 411.457031 189.414062 C 412.648438 183.960938 415.609375 180.722656 420.632812 180.722656 C 427.042969 180.722656 427.015625 186.574219 425.898438 193.378906 L 447.632812 193.378906 " fill-opacity="1" fill-rule="nonzero"/></g><g clip-path="url(#0809a9b39f)"><path fill="#000000" d="M 435.726562 90.9375 C 427.644531 106.664062 419.804688 122.515625 412.207031 138.480469 L 391.707031 138.480469 L 380.652344 167.664062 C 375.925781 180.050781 370.617188 193.183594 367.046875 204.832031 L 366.398438 204.832031 C 367.867188 193.546875 369 179.910156 369.648438 167.382812 L 371.554688 138.828125 L 347.617188 138.828125 L 347.429688 227.128906 L 372.96875 227.128906 C 365.203125 246.058594 357.765625 265.121094 350.660156 284.308594 C 382.835938 221.625 411.285156 157.03125 435.726562 90.9375 " fill-opacity="1" fill-rule="nonzero"/></g><g fill="#ffffff" fill-opacity="1"><g transform="translate(137.532985, 48.229981)"><g><path d="M 13.125 -10.46875 C 13.125 -9.570312 12.914062 -8.753906 12.5 -8.015625 C 12.09375 -7.273438 11.460938 -6.675781 10.609375 -6.21875 C 9.765625 -5.769531 8.710938 -5.546875 7.453125 -5.546875 L 5.125 -5.546875 L 5.125 0 L 1.359375 0 L 1.359375 -15.4375 L 7.453125 -15.4375 C 8.679688 -15.4375 9.71875 -15.222656 10.5625 -14.796875 C 11.414062 -14.367188 12.054688 -13.78125 12.484375 -13.03125 C 12.910156 -12.289062 13.125 -11.4375 13.125 -10.46875 Z M 7.171875 -8.53125 C 7.890625 -8.53125 8.421875 -8.695312 8.765625 -9.03125 C 9.117188 -9.375 9.296875 -9.851562 9.296875 -10.46875 C 9.296875 -11.082031 9.117188 -11.554688 8.765625 -11.890625 C 8.421875 -12.234375 7.890625 -12.40625 7.171875 -12.40625 L 5.125 -12.40625 L 5.125 -8.53125 Z M 7.171875 -8.53125 "/></g></g></g><g fill="#ffffff" fill-opacity="1"><g transform="translate(151.249826, 48.229981)"><g><path d="M 12.921875 -6.328125 C 12.921875 -5.972656 12.898438 -5.609375 12.859375 -5.234375 L 4.359375 -5.234375 C 4.410156 -4.472656 4.648438 -3.890625 5.078125 -3.484375 C 5.515625 -3.078125 6.050781 -2.875 6.6875 -2.875 C 7.625 -2.875 8.273438 -3.269531 8.640625 -4.0625 L 12.640625 -4.0625 C 12.429688 -3.257812 12.0625 -2.535156 11.53125 -1.890625 C 11 -1.242188 10.328125 -0.738281 9.515625 -0.375 C 8.710938 -0.0078125 7.8125 0.171875 6.8125 0.171875 C 5.613281 0.171875 4.546875 -0.0820312 3.609375 -0.59375 C 2.671875 -1.101562 1.9375 -1.832031 1.40625 -2.78125 C 0.875 -3.738281 0.609375 -4.859375 0.609375 -6.140625 C 0.609375 -7.410156 0.867188 -8.519531 1.390625 -9.46875 C 1.910156 -10.425781 2.640625 -11.160156 3.578125 -11.671875 C 4.515625 -12.179688 5.59375 -12.4375 6.8125 -12.4375 C 8 -12.4375 9.050781 -12.1875 9.96875 -11.6875 C 10.894531 -11.195312 11.617188 -10.488281 12.140625 -9.5625 C 12.660156 -8.632812 12.921875 -7.554688 12.921875 -6.328125 Z M 9.078125 -7.328125 C 9.078125 -7.960938 8.859375 -8.472656 8.421875 -8.859375 C 7.984375 -9.242188 7.429688 -9.4375 6.765625 -9.4375 C 6.140625 -9.4375 5.609375 -9.25 5.171875 -8.875 C 4.742188 -8.507812 4.476562 -7.992188 4.375 -7.328125 Z M 9.078125 -7.328125 "/></g></g></g><g fill="#ffffff" fill-opacity="1"><g transform="translate(164.790815, 48.229981)"><g><path d="M 17.015625 -12.40625 C 18.535156 -12.40625 19.742188 -11.941406 20.640625 -11.015625 C 21.546875 -10.085938 22 -8.804688 22 -7.171875 L 22 0 L 18.265625 0 L 18.265625 -6.65625 C 18.265625 -7.445312 18.054688 -8.054688 17.640625 -8.484375 C 17.222656 -8.921875 16.648438 -9.140625 15.921875 -9.140625 C 15.179688 -9.140625 14.601562 -8.921875 14.1875 -8.484375 C 13.769531 -8.054688 13.5625 -7.445312 13.5625 -6.65625 L 13.5625 0 L 9.828125 0 L 9.828125 -6.65625 C 9.828125 -7.445312 9.617188 -8.054688 9.203125 -8.484375 C 8.785156 -8.921875 8.207031 -9.140625 7.46875 -9.140625 C 6.738281 -9.140625 6.164062 -8.921875 5.75 -8.484375 C 5.332031 -8.054688 5.125 -7.445312 5.125 -6.65625 L 5.125 0 L 1.359375 0 L 1.359375 -12.265625 L 5.125 -12.265625 L 5.125 -10.734375 C 5.5 -11.242188 5.992188 -11.648438 6.609375 -11.953125 C 7.234375 -12.253906 7.929688 -12.40625 8.703125 -12.40625 C 9.628906 -12.40625 10.453125 -12.207031 11.171875 -11.8125 C 11.898438 -11.414062 12.472656 -10.847656 12.890625 -10.109375 C 13.304688 -10.785156 13.878906 -11.335938 14.609375 -11.765625 C 15.347656 -12.191406 16.148438 -12.40625 17.015625 -12.40625 Z M 17.015625 -12.40625 "/></g></g></g><g fill="#ffffff" fill-opacity="1"><g transform="translate(188.069888, 48.229981)"><g><path d="M 0.609375 -6.15625 C 0.609375 -7.414062 0.847656 -8.519531 1.328125 -9.46875 C 1.804688 -10.425781 2.453125 -11.160156 3.265625 -11.671875 C 4.085938 -12.179688 5.007812 -12.4375 6.03125 -12.4375 C 6.894531 -12.4375 7.648438 -12.257812 8.296875 -11.90625 C 8.953125 -11.5625 9.457031 -11.101562 9.8125 -10.53125 L 9.8125 -12.265625 L 13.5625 -12.265625 L 13.5625 0 L 9.8125 0 L 9.8125 -1.734375 C 9.4375 -1.160156 8.921875 -0.695312 8.265625 -0.34375 C 7.617188 0 6.863281 0.171875 6 0.171875 C 5 0.171875 4.085938 -0.0859375 3.265625 -0.609375 C 2.453125 -1.128906 1.804688 -1.867188 1.328125 -2.828125 C 0.847656 -3.785156 0.609375 -4.894531 0.609375 -6.15625 Z M 9.8125 -6.140625 C 9.8125 -7.078125 9.550781 -7.816406 9.03125 -8.359375 C 8.507812 -8.898438 7.875 -9.171875 7.125 -9.171875 C 6.375 -9.171875 5.738281 -8.898438 5.21875 -8.359375 C 4.695312 -7.828125 4.4375 -7.09375 4.4375 -6.15625 C 4.4375 -5.21875 4.695312 -4.472656 5.21875 -3.921875 C 5.738281 -3.367188 6.375 -3.09375 7.125 -3.09375 C 7.875 -3.09375 8.507812 -3.363281 9.03125 -3.90625 C 9.550781 -4.457031 9.8125 -5.203125 9.8125 -6.140625 Z M 9.8125 -6.140625 "/></g></g></g><g fill="#ffffff" fill-opacity="1"><g transform="translate(202.995751, 48.229981)"><g><path d="M 3.25 -13.546875 C 2.59375 -13.546875 2.054688 -13.738281 1.640625 -14.125 C 1.222656 -14.507812 1.015625 -14.988281 1.015625 -15.5625 C 1.015625 -16.144531 1.222656 -16.628906 1.640625 -17.015625 C 2.054688 -17.410156 2.59375 -17.609375 3.25 -17.609375 C 3.894531 -17.609375 4.425781 -17.410156 4.84375 -17.015625 C 5.257812 -16.628906 5.46875 -16.144531 5.46875 -15.5625 C 5.46875 -14.988281 5.257812 -14.507812 4.84375 -14.125 C 4.425781 -13.738281 3.894531 -13.546875 3.25 -13.546875 Z M 5.125 -12.265625 L 5.125 0 L 1.359375 0 L 1.359375 -12.265625 Z M 5.125 -12.265625 "/></g></g></g><g fill="#ffffff" fill-opacity="1"><g transform="translate(209.48048, 48.229981)"><g><path d="M 8.84375 -12.40625 C 10.269531 -12.40625 11.410156 -11.9375 12.265625 -11 C 13.128906 -10.070312 13.5625 -8.796875 13.5625 -7.171875 L 13.5625 0 L 9.828125 0 L 9.828125 -6.65625 C 9.828125 -7.476562 9.613281 -8.113281 9.1875 -8.5625 C 8.757812 -9.019531 8.1875 -9.25 7.46875 -9.25 C 6.75 -9.25 6.175781 -9.019531 5.75 -8.5625 C 5.332031 -8.113281 5.125 -7.476562 5.125 -6.65625 L 5.125 0 L 1.359375 0 L 1.359375 -12.265625 L 5.125 -12.265625 L 5.125 -10.640625 C 5.5 -11.179688 6.007812 -11.609375 6.65625 -11.921875 C 7.300781 -12.242188 8.03125 -12.40625 8.84375 -12.40625 Z M 8.84375 -12.40625 "/></g></g></g><g fill="#ffffff" fill-opacity="1"><g transform="translate(224.296435, 48.229981)"><g/></g></g><g fill="#ffffff" fill-opacity="1"><g transform="translate(228.956646, 48.229981)"><g><path d="M 0.59375 -12.546875 L 0.59375 -16.046875 L 6.6875 -16.046875 L 6.6875 0 L 2.765625 0 L 2.765625 -12.546875 Z M 0.59375 -12.546875 "/></g></g></g><g fill="#ffffff" fill-opacity="1"><g transform="translate(547.630403, 48.229981)"><g><path d="M 13.125 -10.46875 C 13.125 -9.570312 12.914062 -8.753906 12.5 -8.015625 C 12.09375 -7.273438 11.460938 -6.675781 10.609375 -6.21875 C 9.765625 -5.769531 8.710938 -5.546875 7.453125 -5.546875 L 5.125 -5.546875 L 5.125 0 L 1.359375 0 L 1.359375 -15.4375 L 7.453125 -15.4375 C 8.679688 -15.4375 9.71875 -15.222656 10.5625 -14.796875 C 11.414062 -14.367188 12.054688 -13.78125 12.484375 -13.03125 C 12.910156 -12.289062 13.125 -11.4375 13.125 -10.46875 Z M 7.171875 -8.53125 C 7.890625 -8.53125 8.421875 -8.695312 8.765625 -9.03125 C 9.117188 -9.375 9.296875 -9.851562 9.296875 -10.46875 C 9.296875 -11.082031 9.117188 -11.554688 8.765625 -11.890625 C 8.421875 -12.234375 7.890625 -12.40625 7.171875 -12.40625 L 5.125 -12.40625 L 5.125 -8.53125 Z M 7.171875 -8.53125 "/></g></g></g><g fill="#ffffff" fill-opacity="1"><g transform="translate(561.347245, 48.229981)"><g><path d="M 12.921875 -6.328125 C 12.921875 -5.972656 12.898438 -5.609375 12.859375 -5.234375 L 4.359375 -5.234375 C 4.410156 -4.472656 4.648438 -3.890625 5.078125 -3.484375 C 5.515625 -3.078125 6.050781 -2.875 6.6875 -2.875 C 7.625 -2.875 8.273438 -3.269531 8.640625 -4.0625 L 12.640625 -4.0625 C 12.429688 -3.257812 12.0625 -2.535156 11.53125 -1.890625 C 11 -1.242188 10.328125 -0.738281 9.515625 -0.375 C 8.710938 -0.0078125 7.8125 0.171875 6.8125 0.171875 C 5.613281 0.171875 4.546875 -0.0820312 3.609375 -0.59375 C 2.671875 -1.101562 1.9375 -1.832031 1.40625 -2.78125 C 0.875 -3.738281 0.609375 -4.859375 0.609375 -6.140625 C 0.609375 -7.410156 0.867188 -8.519531 1.390625 -9.46875 C 1.910156 -10.425781 2.640625 -11.160156 3.578125 -11.671875 C 4.515625 -12.179688 5.59375 -12.4375 6.8125 -12.4375 C 8 -12.4375 9.050781 -12.1875 9.96875 -11.6875 C 10.894531 -11.195312 11.617188 -10.488281 12.140625 -9.5625 C 12.660156 -8.632812 12.921875 -7.554688 12.921875 -6.328125 Z M 9.078125 -7.328125 C 9.078125 -7.960938 8.859375 -8.472656 8.421875 -8.859375 C 7.984375 -9.242188 7.429688 -9.4375 6.765625 -9.4375 C 6.140625 -9.4375 5.609375 -9.25 5.171875 -8.875 C 4.742188 -8.507812 4.476562 -7.992188 4.375 -7.328125 Z M 9.078125 -7.328125 "/></g></g></g><g fill="#ffffff" fill-opacity="1"><g transform="translate(574.888234, 48.229981)"><g><path d="M 17.015625 -12.40625 C 18.535156 -12.40625 19.742188 -11.941406 20.640625 -11.015625 C 21.546875 -10.085938 22 -8.804688 22 -7.171875 L 22 0 L 18.265625 0 L 18.265625 -6.65625 C 18.265625 -7.445312 18.054688 -8.054688 17.640625 -8.484375 C 17.222656 -8.921875 16.648438 -9.140625 15.921875 -9.140625 C 15.179688 -9.140625 14.601562 -8.921875 14.1875 -8.484375 C 13.769531 -8.054688 13.5625 -7.445312 13.5625 -6.65625 L 13.5625 0 L 9.828125 0 L 9.828125 -6.65625 C 9.828125 -7.445312 9.617188 -8.054688 9.203125 -8.484375 C 8.785156 -8.921875 8.207031 -9.140625 7.46875 -9.140625 C 6.738281 -9.140625 6.164062 -8.921875 5.75 -8.484375 C 5.332031 -8.054688 5.125 -7.445312 5.125 -6.65625 L 5.125 0 L 1.359375 0 L 1.359375 -12.265625 L 5.125 -12.265625 L 5.125 -10.734375 C 5.5 -11.242188 5.992188 -11.648438 6.609375 -11.953125 C 7.234375 -12.253906 7.929688 -12.40625 8.703125 -12.40625 C 9.628906 -12.40625 10.453125 -12.207031 11.171875 -11.8125 C 11.898438 -11.414062 12.472656 -10.847656 12.890625 -10.109375 C 13.304688 -10.785156 13.878906 -11.335938 14.609375 -11.765625 C 15.347656 -12.191406 16.148438 -12.40625 17.015625 -12.40625 Z M 17.015625 -12.40625 "/></g></g></g><g fill="#ffffff" fill-opacity="1"><g transform="translate(598.167307, 48.229981)"><g><path d="M 0.609375 -6.15625 C 0.609375 -7.414062 0.847656 -8.519531 1.328125 -9.46875 C 1.804688 -10.425781 2.453125 -11.160156 3.265625 -11.671875 C 4.085938 -12.179688 5.007812 -12.4375 6.03125 -12.4375 C 6.894531 -12.4375 7.648438 -12.257812 8.296875 -11.90625 C 8.953125 -11.5625 9.457031 -11.101562 9.8125 -10.53125 L 9.8125 -12.265625 L 13.5625 -12.265625 L 13.5625 0 L 9.8125 0 L 9.8125 -1.734375 C 9.4375 -1.160156 8.921875 -0.695312 8.265625 -0.34375 C 7.617188 0 6.863281 0.171875 6 0.171875 C 5 0.171875 4.085938 -0.0859375 3.265625 -0.609375 C 2.453125 -1.128906 1.804688 -1.867188 1.328125 -2.828125 C 0.847656 -3.785156 0.609375 -4.894531 0.609375 -6.15625 Z M 9.8125 -6.140625 C 9.8125 -7.078125 9.550781 -7.816406 9.03125 -8.359375 C 8.507812 -8.898438 7.875 -9.171875 7.125 -9.171875 C 6.375 -9.171875 5.738281 -8.898438 5.21875 -8.359375 C 4.695312 -7.828125 4.4375 -7.09375 4.4375 -6.15625 C 4.4375 -5.21875 4.695312 -4.472656 5.21875 -3.921875 C 5.738281 -3.367188 6.375 -3.09375 7.125 -3.09375 C 7.875 -3.09375 8.507812 -3.363281 9.03125 -3.90625 C 9.550781 -4.457031 9.8125 -5.203125 9.8125 -6.140625 Z M 9.8125 -6.140625 "/></g></g></g><g fill="#ffffff" fill-opacity="1"><g transform="translate(613.09317, 48.229981)"><g><path d="M 3.25 -13.546875 C 2.59375 -13.546875 2.054688 -13.738281 1.640625 -14.125 C 1.222656 -14.507812 1.015625 -14.988281 1.015625 -15.5625 C 1.015625 -16.144531 1.222656 -16.628906 1.640625 -17.015625 C 2.054688 -17.410156 2.59375 -17.609375 3.25 -17.609375 C 3.894531 -17.609375 4.425781 -17.410156 4.84375 -17.015625 C 5.257812 -16.628906 5.46875 -16.144531 5.46875 -15.5625 C 5.46875 -14.988281 5.257812 -14.507812 4.84375 -14.125 C 4.425781 -13.738281 3.894531 -13.546875 3.25 -13.546875 Z M 5.125 -12.265625 L 5.125 0 L 1.359375 0 L 1.359375 -12.265625 Z M 5.125 -12.265625 "/></g></g></g><g fill="#ffffff" fill-opacity="1"><g transform="translate(619.577898, 48.229981)"><g><path d="M 8.84375 -12.40625 C 10.269531 -12.40625 11.410156 -11.9375 12.265625 -11 C 13.128906 -10.070312 13.5625 -8.796875 13.5625 -7.171875 L 13.5625 0 L 9.828125 0 L 9.828125 -6.65625 C 9.828125 -7.476562 9.613281 -8.113281 9.1875 -8.5625 C 8.757812 -9.019531 8.1875 -9.25 7.46875 -9.25 C 6.75 -9.25 6.175781 -9.019531 5.75 -8.5625 C 5.332031 -8.113281 5.125 -7.476562 5.125 -6.65625 L 5.125 0 L 1.359375 0 L 1.359375 -12.265625 L 5.125 -12.265625 L 5.125 -10.640625 C 5.5 -11.179688 6.007812 -11.609375 6.65625 -11.921875 C 7.300781 -12.242188 8.03125 -12.40625 8.84375 -12.40625 Z M 8.84375 -12.40625 "/></g></g></g><g fill="#ffffff" fill-opacity="1"><g transform="translate(634.393854, 48.229981)"><g/></g></g><g fill="#ffffff" fill-opacity="1"><g transform="translate(639.054065, 48.229981)"><g><path d="M 0.859375 -3.015625 C 1.359375 -3.410156 1.582031 -3.59375 1.53125 -3.5625 C 2.96875 -4.75 4.097656 -5.722656 4.921875 -6.484375 C 5.753906 -7.242188 6.457031 -8.039062 7.03125 -8.875 C 7.601562 -9.71875 7.890625 -10.535156 7.890625 -11.328125 C 7.890625 -11.921875 7.75 -12.382812 7.46875 -12.71875 C 7.195312 -13.0625 6.78125 -13.234375 6.21875 -13.234375 C 5.664062 -13.234375 5.226562 -13.023438 4.90625 -12.609375 C 4.59375 -12.191406 4.4375 -11.601562 4.4375 -10.84375 L 0.8125 -10.84375 C 0.84375 -12.082031 1.109375 -13.117188 1.609375 -13.953125 C 2.117188 -14.796875 2.785156 -15.414062 3.609375 -15.8125 C 4.441406 -16.207031 5.363281 -16.40625 6.375 -16.40625 C 8.113281 -16.40625 9.425781 -15.957031 10.3125 -15.0625 C 11.207031 -14.164062 11.65625 -13 11.65625 -11.5625 C 11.65625 -10 11.117188 -8.546875 10.046875 -7.203125 C 8.972656 -5.859375 7.609375 -4.550781 5.953125 -3.28125 L 11.890625 -3.28125 L 11.890625 -0.21875 L 0.859375 -0.21875 Z M 0.859375 -3.015625 "/></g></g></g></svg>