<svg xmlns="http://www.w3.org/2000/svg" xmlns:xlink="http://www.w3.org/1999/xlink" width="1050" zoomAndPan="magnify" viewBox="0 0 787.5 374.999991" height="500" preserveAspectRatio="xMidYMid meet" version="1.0"><defs><g/><clipPath id="a77129dbfa"><path d="M 0 0.117188 L 374.761719 0.117188 L 374.761719 374.878906 L 0 374.878906 Z M 0 0.117188 " clip-rule="nonzero"/></clipPath><clipPath id="751449d41f"><path d="M 187.382812 0.117188 C 83.894531 0.117188 0 84.011719 0 187.5 C 0 290.988281 83.894531 374.882812 187.382812 374.882812 C 290.867188 374.882812 374.761719 290.988281 374.761719 187.5 C 374.761719 84.011719 290.867188 0.117188 187.382812 0.117188 Z M 187.382812 0.117188 " clip-rule="nonzero"/></clipPath><clipPath id="91f6766125"><path d="M 85 68 L 296 68 L 296 315 L 85 315 Z M 85 68 " clip-rule="nonzero"/></clipPath><clipPath id="45b2254859"><path d="M 242.230469 41.113281 L 337.300781 252.007812 L 155.929688 333.769531 L 60.859375 122.875 Z M 242.230469 41.113281 " clip-rule="nonzero"/></clipPath><clipPath id="2239323c24"><path d="M 242.230469 41.113281 L 337.300781 252.007812 L 155.929688 333.769531 L 60.859375 122.875 Z M 242.230469 41.113281 " clip-rule="nonzero"/></clipPath><clipPath id="c2a29f40d8"><path d="M 242.230469 41.113281 L 337.300781 252.007812 L 155.929688 333.769531 L 60.859375 122.875 Z M 242.230469 41.113281 " clip-rule="nonzero"/></clipPath><clipPath id="e8f0a31b08"><path d="M 93 76 L 287 76 L 287 306 L 93 306 Z M 93 76 " clip-rule="nonzero"/></clipPath><clipPath id="a5eb62c362"><path d="M 242.230469 41.113281 L 337.300781 252.007812 L 155.929688 333.769531 L 60.859375 122.875 Z M 242.230469 41.113281 " clip-rule="nonzero"/></clipPath><clipPath id="63e7265dc4"><path d="M 242.230469 41.113281 L 337.300781 252.007812 L 155.929688 333.769531 L 60.859375 122.875 Z M 242.230469 41.113281 " clip-rule="nonzero"/></clipPath><clipPath id="4260dbe6f8"><path d="M 242.230469 41.113281 L 337.300781 252.007812 L 155.929688 333.769531 L 60.859375 122.875 Z M 242.230469 41.113281 " clip-rule="nonzero"/></clipPath><clipPath id="701f8cb19a"><path d="M 128 91 L 287 91 L 287 295 L 128 295 Z M 128 91 " clip-rule="nonzero"/></clipPath><clipPath id="74d30d727a"><path d="M 242.230469 41.113281 L 337.300781 252.007812 L 155.929688 333.769531 L 60.859375 122.875 Z M 242.230469 41.113281 " clip-rule="nonzero"/></clipPath><clipPath id="e6f1180d01"><path d="M 242.230469 41.113281 L 337.300781 252.007812 L 155.929688 333.769531 L 60.859375 122.875 Z M 242.230469 41.113281 " clip-rule="nonzero"/></clipPath><clipPath id="ca3a0d62a4"><path d="M 242.230469 41.113281 L 337.300781 252.007812 L 155.929688 333.769531 L 60.859375 122.875 Z M 242.230469 41.113281 " clip-rule="nonzero"/></clipPath><clipPath id="7199f1ed62"><path d="M 182 80 L 203 80 L 203 170 L 182 170 Z M 182 80 " clip-rule="nonzero"/></clipPath><clipPath id="1fa0b610d0"><path d="M 242.230469 41.113281 L 337.300781 252.007812 L 155.929688 333.769531 L 60.859375 122.875 Z M 242.230469 41.113281 " clip-rule="nonzero"/></clipPath><clipPath id="f91b467b16"><path d="M 242.230469 41.113281 L 337.300781 252.007812 L 155.929688 333.769531 L 60.859375 122.875 Z M 242.230469 41.113281 " clip-rule="nonzero"/></clipPath><clipPath id="e1353b75ae"><path d="M 242.230469 41.113281 L 337.300781 252.007812 L 155.929688 333.769531 L 60.859375 122.875 Z M 242.230469 41.113281 " clip-rule="nonzero"/></clipPath><clipPath id="fc1ce24eef"><path d="M 135 98 L 163 98 L 163 179 L 135 179 Z M 135 98 " clip-rule="nonzero"/></clipPath><clipPath id="ff17e5bcfb"><path d="M 242.230469 41.113281 L 337.300781 252.007812 L 155.929688 333.769531 L 60.859375 122.875 Z M 242.230469 41.113281 " clip-rule="nonzero"/></clipPath><clipPath id="e88721efd0"><path d="M 242.230469 41.113281 L 337.300781 252.007812 L 155.929688 333.769531 L 60.859375 122.875 Z M 242.230469 41.113281 " clip-rule="nonzero"/></clipPath><clipPath id="ef1838f2f1"><path d="M 242.230469 41.113281 L 337.300781 252.007812 L 155.929688 333.769531 L 60.859375 122.875 Z M 242.230469 41.113281 " clip-rule="nonzero"/></clipPath><clipPath id="4cca46b220"><path d="M 97 135 L 131 135 L 131 203 L 97 203 Z M 97 135 " clip-rule="nonzero"/></clipPath><clipPath id="0f3247979f"><path d="M 242.230469 41.113281 L 337.300781 252.007812 L 155.929688 333.769531 L 60.859375 122.875 Z M 242.230469 41.113281 " clip-rule="nonzero"/></clipPath><clipPath id="da0ced191c"><path d="M 242.230469 41.113281 L 337.300781 252.007812 L 155.929688 333.769531 L 60.859375 122.875 Z M 242.230469 41.113281 " clip-rule="nonzero"/></clipPath><clipPath id="11d16c8f6a"><path d="M 242.230469 41.113281 L 337.300781 252.007812 L 155.929688 333.769531 L 60.859375 122.875 Z M 242.230469 41.113281 " clip-rule="nonzero"/></clipPath><clipPath id="1ac722a87e"><path d="M 414.691406 0.117188 L 787 0.117188 L 787 374.878906 L 414.691406 374.878906 Z M 414.691406 0.117188 " clip-rule="nonzero"/></clipPath><clipPath id="81ff2f44fe"><path d="M 602.070312 0.117188 C 498.582031 0.117188 414.691406 84.011719 414.691406 187.5 C 414.691406 290.988281 498.582031 374.882812 602.070312 374.882812 C 705.558594 374.882812 789.453125 290.988281 789.453125 187.5 C 789.453125 84.011719 705.558594 0.117188 602.070312 0.117188 Z M 602.070312 0.117188 " clip-rule="nonzero"/></clipPath><clipPath id="faa420190a"><path d="M 499 68 L 711 68 L 711 315 L 499 315 Z M 499 68 " clip-rule="nonzero"/></clipPath><clipPath id="6a874ea3bb"><path d="M 656.917969 41.113281 L 751.992188 252.007812 L 570.621094 333.769531 L 475.546875 122.875 Z M 656.917969 41.113281 " clip-rule="nonzero"/></clipPath><clipPath id="b5c7cd0fc2"><path d="M 656.917969 41.113281 L 751.992188 252.007812 L 570.621094 333.769531 L 475.546875 122.875 Z M 656.917969 41.113281 " clip-rule="nonzero"/></clipPath><clipPath id="ab9abbb011"><path d="M 656.917969 41.113281 L 751.992188 252.007812 L 570.621094 333.769531 L 475.546875 122.875 Z M 656.917969 41.113281 " clip-rule="nonzero"/></clipPath><clipPath id="deb5160939"><path d="M 507 76 L 702 76 L 702 306 L 507 306 Z M 507 76 " clip-rule="nonzero"/></clipPath><clipPath id="f9a5877b29"><path d="M 656.917969 41.113281 L 751.992188 252.007812 L 570.621094 333.769531 L 475.546875 122.875 Z M 656.917969 41.113281 " clip-rule="nonzero"/></clipPath><clipPath id="7d31844b8d"><path d="M 656.917969 41.113281 L 751.992188 252.007812 L 570.621094 333.769531 L 475.546875 122.875 Z M 656.917969 41.113281 " clip-rule="nonzero"/></clipPath><clipPath id="199aa6d858"><path d="M 656.917969 41.113281 L 751.992188 252.007812 L 570.621094 333.769531 L 475.546875 122.875 Z M 656.917969 41.113281 " clip-rule="nonzero"/></clipPath><clipPath id="9f1cb42962"><path d="M 543 91 L 702 91 L 702 295 L 543 295 Z M 543 91 " clip-rule="nonzero"/></clipPath><clipPath id="d6b568b612"><path d="M 656.917969 41.113281 L 751.992188 252.007812 L 570.621094 333.769531 L 475.546875 122.875 Z M 656.917969 41.113281 " clip-rule="nonzero"/></clipPath><clipPath id="c0646ae0c6"><path d="M 656.917969 41.113281 L 751.992188 252.007812 L 570.621094 333.769531 L 475.546875 122.875 Z M 656.917969 41.113281 " clip-rule="nonzero"/></clipPath><clipPath id="6d02f0d8a9"><path d="M 656.917969 41.113281 L 751.992188 252.007812 L 570.621094 333.769531 L 475.546875 122.875 Z M 656.917969 41.113281 " clip-rule="nonzero"/></clipPath><clipPath id="6331c82691"><path d="M 597 80 L 618 80 L 618 170 L 597 170 Z M 597 80 " clip-rule="nonzero"/></clipPath><clipPath id="ae553559f7"><path d="M 656.917969 41.113281 L 751.992188 252.007812 L 570.621094 333.769531 L 475.546875 122.875 Z M 656.917969 41.113281 " clip-rule="nonzero"/></clipPath><clipPath id="9232c93646"><path d="M 656.917969 41.113281 L 751.992188 252.007812 L 570.621094 333.769531 L 475.546875 122.875 Z M 656.917969 41.113281 " clip-rule="nonzero"/></clipPath><clipPath id="58eecf5479"><path d="M 656.917969 41.113281 L 751.992188 252.007812 L 570.621094 333.769531 L 475.546875 122.875 Z M 656.917969 41.113281 " clip-rule="nonzero"/></clipPath><clipPath id="7f5ea92bc2"><path d="M 549 98 L 578 98 L 578 179 L 549 179 Z M 549 98 " clip-rule="nonzero"/></clipPath><clipPath id="1e9167e3d9"><path d="M 656.917969 41.113281 L 751.992188 252.007812 L 570.621094 333.769531 L 475.546875 122.875 Z M 656.917969 41.113281 " clip-rule="nonzero"/></clipPath><clipPath id="ed074dcd92"><path d="M 656.917969 41.113281 L 751.992188 252.007812 L 570.621094 333.769531 L 475.546875 122.875 Z M 656.917969 41.113281 " clip-rule="nonzero"/></clipPath><clipPath id="dc96f42819"><path d="M 656.917969 41.113281 L 751.992188 252.007812 L 570.621094 333.769531 L 475.546875 122.875 Z M 656.917969 41.113281 " clip-rule="nonzero"/></clipPath><clipPath id="9a8bf54cd5"><path d="M 512 135 L 546 135 L 546 203 L 512 203 Z M 512 135 " clip-rule="nonzero"/></clipPath><clipPath id="534486a25c"><path d="M 656.917969 41.113281 L 751.992188 252.007812 L 570.621094 333.769531 L 475.546875 122.875 Z M 656.917969 41.113281 " clip-rule="nonzero"/></clipPath><clipPath id="5d8a41748e"><path d="M 656.917969 41.113281 L 751.992188 252.007812 L 570.621094 333.769531 L 475.546875 122.875 Z M 656.917969 41.113281 " clip-rule="nonzero"/></clipPath><clipPath id="cd5d56238d"><path d="M 656.917969 41.113281 L 751.992188 252.007812 L 570.621094 333.769531 L 475.546875 122.875 Z M 656.917969 41.113281 " clip-rule="nonzero"/></clipPath><clipPath id="359523fa9d"><path d="M 376 164.101562 L 448.609375 164.101562 L 448.609375 265.546875 L 376 265.546875 Z M 376 164.101562 " clip-rule="nonzero"/></clipPath><clipPath id="f5d8570e89"><path d="M 347.429688 90.9375 L 435.945312 90.9375 L 435.945312 284.308594 L 347.429688 284.308594 Z M 347.429688 90.9375 " clip-rule="nonzero"/></clipPath></defs><g clip-path="url(#a77129dbfa)"><g clip-path="url(#751449d41f)"><path fill="#84caed" d="M 0 0.117188 L 374.761719 0.117188 L 374.761719 374.882812 L 0 374.882812 Z M 0 0.117188 " fill-opacity="1" fill-rule="nonzero"/></g></g><g clip-path="url(#91f6766125)"><g clip-path="url(#45b2254859)"><g clip-path="url(#2239323c24)"><g clip-path="url(#c2a29f40d8)"><path fill="#232323" d="M 157.101562 99.542969 C 154.546875 93.363281 148.527344 89.351562 141.875 89.285156 C 135.359375 89.285156 129.78125 92.945312 125.925781 97.984375 C 121.011719 104.292969 119.253906 112.292969 119.160156 120.152344 C 119.164062 130.132812 121.039062 139.980469 123.417969 149.636719 C 120.496094 143.785156 117.890625 136.535156 113.03125 132.074219 C 109.355469 128.59375 104.035156 127.183594 99.1875 128.714844 C 93.039062 130.550781 88.53125 136.777344 86.730469 142.703125 C 84.226562 150.90625 84.988281 160.417969 86.617188 168.738281 C 88.363281 178.441406 93.054688 187.625 97.78125 196.222656 C 100.898438 202.074219 105.496094 206.566406 108.050781 212.738281 C 114.300781 225.183594 113.734375 238.328125 119.785156 250.71875 C 123.847656 258.722656 130.101562 265.003906 137.480469 269.996094 C 134.402344 276.554688 134.113281 284.128906 136.945312 290.835938 C 139.886719 298.179688 145.777344 303.703125 152.574219 307.492188 C 162.347656 312.765625 173.253906 314.621094 184.273438 314.183594 C 196.347656 313.632812 208.226562 310.164062 218.464844 303.699219 C 226.695312 298.371094 233.761719 290.914062 236.644531 281.351562 C 237.957031 277.375 238.023438 273.289062 237.464844 269.167969 C 242.671875 265.027344 246.515625 259.734375 249.871094 254.035156 C 253.777344 247.113281 255.386719 239.816406 258.136719 232.460938 C 261.203125 224.25 264.34375 215.96875 269.671875 208.933594 C 274.496094 200.847656 280.882812 194.207031 286.632812 186.839844 C 290.222656 181.78125 294.628906 176.214844 295.601562 169.953125 C 296.609375 163.671875 294.464844 157.011719 289.511719 152.898438 C 284.757812 148.847656 278.050781 148.078125 272.074219 149.007812 C 262.566406 150.535156 254 155.867188 246.933594 162.226562 C 243.34375 165.308594 240.519531 168.992188 237.628906 172.707031 C 239.792969 162.382812 242.324219 152.160156 245.832031 142.214844 C 249.84375 129.042969 254.9375 117.554688 257.304688 104.078125 C 258.3125 97.566406 256.691406 90.773438 251.1875 86.675781 C 247.011719 83.5625 241.457031 82.761719 236.539062 84.40625 C 229.203125 86.839844 223.597656 92.238281 219.445312 98.601562 C 214.46875 106.003906 211.609375 114.085938 208.445312 122.339844 C 208.933594 111.703125 211.074219 99.964844 209.875 89.335938 C 209.121094 82.507812 206.277344 75.324219 200.707031 71.015625 C 195.878906 67.378906 189.425781 67.390625 184.210938 70.191406 C 177.0625 73.9375 172.664062 81.339844 170.453125 88.886719 C 165.007812 106.121094 165.90625 125.679688 165.859375 143.589844 C 163.964844 135.472656 162.480469 127.234375 161.167969 119 C 160.101562 112.601562 159.488281 105.589844 157.101562 99.542969 Z M 157.101562 99.542969 " fill-opacity="1" fill-rule="nonzero"/></g></g></g></g><g clip-path="url(#e8f0a31b08)"><g clip-path="url(#a5eb62c362)"><g clip-path="url(#63e7265dc4)"><g clip-path="url(#4260dbe6f8)"><path fill="#ababab" d="M 134.964844 174.839844 C 135.933594 179.113281 137.503906 182.777344 137.25 187.042969 C 132.734375 181.984375 129.644531 175.453125 126.492188 169.496094 C 122.878906 161.933594 119.1875 154.414062 115.316406 146.988281 C 113.296875 143.324219 110.84375 138.375 106.972656 136.414062 C 104.703125 135.226562 102.507812 135.738281 100.242188 136.605469 C 95.902344 139.730469 93.839844 144.449219 93.378906 149.664062 C 92.390625 161.066406 95.066406 173 99.859375 183.324219 C 103.078125 190.789062 106.910156 197.941406 110.933594 204.996094 C 113.65625 210.402344 116.851562 215.285156 118.65625 220.882812 C 122.230469 230.746094 123.238281 241.625 129.207031 250.5 C 133.140625 256.109375 138.511719 261.414062 144.863281 264.175781 C 151.621094 266.859375 159.230469 267.515625 166.351562 265.988281 C 171.308594 265.023438 175.601562 262.820312 180.453125 261.460938 C 177.160156 266.957031 170.835938 270.683594 164.886719 272.582031 C 158.128906 274.710938 151.261719 274.398438 144.375 273.164062 C 143.566406 277.972656 143.039062 282.53125 144.972656 287.191406 C 148.222656 294.945312 155.671875 299.792969 163.34375 302.445312 C 175.019531 306.429688 188.359375 305.917969 200.023438 302.242188 C 208.953125 299.226562 217.414062 294.679688 223.167969 287.003906 C 226.230469 283.445312 227.804688 279.128906 228.597656 274.546875 C 222.230469 276.304688 216.503906 278.105469 209.832031 276.640625 C 206.835938 276.023438 204.15625 274.5625 201.765625 272.683594 C 211.730469 272.046875 221.078125 270.464844 229.507812 264.6875 C 234.851562 260.925781 238.269531 255.816406 241.421875 250.207031 C 245.539062 242.648438 247.234375 233.898438 250.746094 225.855469 C 254.355469 216.882812 259.257812 208.640625 264.792969 200.742188 C 271.070312 190.515625 279.648438 182.929688 285.351562 172.402344 C 286.847656 169.566406 287.078125 166.699219 286.316406 163.601562 C 285.214844 161.199219 283.714844 159.199219 281.121094 158.355469 C 275.757812 156.546875 269.324219 158.308594 264.359375 160.546875 C 253.664062 165.84375 244.601562 174.578125 239.527344 185.457031 C 237.082031 190.445312 234.882812 195.925781 230.765625 199.796875 C 229.117188 201.292969 227.359375 203.246094 225.195312 203.882812 C 221.875 204.9375 218.40625 205.453125 215.0625 206.433594 C 202.59375 210.019531 190.972656 215.703125 182.050781 225.328125 C 185.0625 217.898438 190.335938 211.746094 196.878906 207.1875 C 205.167969 200.929688 214.902344 197.398438 225.171875 196.226562 C 225.558594 185.574219 228.699219 174.863281 230.851562 164.417969 C 233.542969 151.335938 237.910156 138.847656 242.042969 126.183594 C 244.726562 119.132812 246.925781 111.949219 248.660156 104.605469 C 249.3125 101.671875 249.625 98.089844 248.058594 95.382812 C 246.761719 93.363281 244.804688 92.53125 242.652344 91.726562 C 235.96875 91.925781 230.902344 95.847656 226.773438 100.753906 C 221.210938 107.566406 217.445312 116.378906 214.1875 124.496094 C 208.078125 140.457031 204.976562 156.914062 201.261719 173.496094 C 200.257812 173.265625 199.253906 173.039062 198.25 172.800781 C 198.378906 168.75 198.835938 164.726562 199.425781 160.714844 C 199.96875 158.171875 200.472656 155.605469 200.839844 153.03125 C 201.492188 148.511719 201.1875 143.964844 201.675781 139.402344 C 203.011719 127.917969 202.871094 115.984375 202.917969 104.367188 C 202.746094 96.136719 202.902344 87.824219 198.34375 80.605469 C 196.703125 78.664062 195.054688 76.65625 192.339844 76.464844 C 187.890625 76.132812 184.210938 79.078125 181.550781 82.339844 C 177.308594 87.582031 175.429688 95.136719 173.929688 101.609375 C 171.460938 113.625 170.898438 126.097656 170.433594 138.332031 C 170.234375 145.691406 169.957031 153.03125 170.140625 160.402344 C 170.199219 165.039062 170.582031 169.53125 170.125 174.171875 C 165.726562 170.875 164.382812 163.632812 162.609375 158.652344 C 158.296875 142.652344 154.398438 126.5625 151.425781 110.265625 C 150.355469 105.796875 149.371094 100.25 144.621094 98.269531 C 142.410156 97.792969 140.261719 97.59375 138.128906 98.527344 C 133.359375 100.578125 129.957031 105.507812 128.304688 110.300781 C 125.9375 117.191406 126.148438 125.238281 126.664062 132.441406 C 127.757812 147.117188 131.464844 160.554688 134.964844 174.839844 Z M 194.367188 176.722656 C 199.277344 177.207031 205.105469 178.269531 208.0625 182.6875 C 203.105469 181.746094 198.117188 181.457031 193.082031 181.785156 C 180.628906 182.714844 168.195312 185.882812 156.578125 190.402344 C 151.90625 192.265625 147.21875 193.707031 142.867188 196.285156 C 141.652344 196.808594 140.425781 197.285156 139.179688 197.746094 C 143.808594 192.464844 149.84375 188.421875 156.035156 185.199219 C 167.6875 179.253906 181.222656 175.839844 194.367188 176.722656 Z M 194.367188 176.722656 " fill-opacity="1" fill-rule="nonzero"/></g></g></g></g><g clip-path="url(#701f8cb19a)"><g clip-path="url(#74d30d727a)"><g clip-path="url(#e6f1180d01)"><g clip-path="url(#ca3a0d62a4)"><path fill="#ffffff" d="M 215.507812 146.546875 C 214.652344 153.042969 213.796875 159.253906 214.472656 165.828125 C 214.964844 172.304688 217.535156 178.25 218.066406 184.726562 C 214.636719 184.453125 211.382812 183.515625 208.0625 182.6875 C 203.105469 181.746094 198.117188 181.457031 193.082031 181.785156 C 180.628906 182.714844 168.195312 185.882812 156.578125 190.402344 C 151.90625 192.265625 147.21875 193.707031 142.867188 196.285156 C 139.03125 198.699219 135.390625 200.6875 132.832031 204.554688 C 128.074219 211.421875 127.867188 220.992188 130.324219 228.746094 C 132.910156 235.914062 135.925781 242.578125 141.484375 247.957031 C 147.339844 253.902344 154.9375 257.808594 163.449219 256.898438 C 172.445312 255.703125 180.394531 251.339844 187.640625 246.101562 C 186.335938 251.808594 183.375 256.492188 180.453125 261.460938 C 177.160156 266.957031 170.835938 270.683594 164.886719 272.582031 C 165.449219 275.925781 166.027344 279.070312 167.925781 281.96875 C 171.503906 287.46875 177.300781 290.910156 183.507812 292.65625 C 190.171875 294.511719 197.535156 295.503906 204.402344 294.425781 C 210.859375 293.492188 217.0625 289.574219 223.167969 287.003906 C 226.230469 283.445312 227.804688 279.128906 228.597656 274.546875 C 222.230469 276.304688 216.503906 278.105469 209.832031 276.640625 C 206.835938 276.023438 204.15625 274.5625 201.765625 272.683594 C 198.132812 269.574219 194.796875 266.523438 193.300781 261.796875 C 192.160156 258.511719 192.554688 255.324219 193.105469 251.984375 C 196.332031 254.578125 199.195312 257.546875 203.375 258.480469 C 210.210938 260.035156 217.539062 257.476562 222.957031 253.3125 C 228.324219 249.101562 231.265625 243.351562 233.808594 237.171875 C 236.085938 231.46875 239.054688 226.089844 241.410156 220.410156 C 243.433594 215.605469 245.21875 210.863281 248.011719 206.421875 C 255.238281 194.21875 268.085938 184.507812 278.304688 174.804688 C 281.707031 171.53125 283.882812 167.578125 286.316406 163.601562 C 285.214844 161.199219 283.714844 159.199219 281.121094 158.355469 C 275.757812 156.546875 269.324219 158.308594 264.359375 160.546875 C 253.664062 165.84375 244.601562 174.578125 239.527344 185.457031 C 237.082031 190.445312 234.882812 195.925781 230.765625 199.796875 C 229.117188 201.292969 227.359375 203.246094 225.195312 203.882812 C 221.875 204.9375 218.40625 205.453125 215.0625 206.433594 C 202.59375 210.019531 190.972656 215.703125 182.050781 225.328125 C 185.0625 217.898438 190.335938 211.746094 196.878906 207.1875 C 205.167969 200.929688 214.902344 197.398438 225.171875 196.226562 C 225.558594 185.574219 228.699219 174.863281 230.851562 164.417969 C 233.542969 151.332031 237.910156 138.847656 242.042969 126.183594 C 244.726562 119.132812 246.925781 111.949219 248.660156 104.605469 C 249.3125 101.671875 249.625 98.089844 248.058594 95.382812 C 246.761719 93.363281 244.804688 92.53125 242.652344 91.726562 C 236.246094 95.574219 232.230469 101.421875 228.6875 107.8125 C 222.152344 119.933594 217.390625 132.863281 215.507812 146.546875 Z M 180.378906 213.253906 C 179.234375 215.058594 177.996094 216.777344 176.742188 218.5 C 171.503906 214.6875 166.082031 211.28125 160.035156 208.910156 C 156.234375 207.394531 152.394531 206.558594 148.503906 205.347656 C 153.097656 204.160156 157.617188 203.835938 162.316406 204.515625 C 169.296875 205.535156 175.871094 207.394531 180.378906 213.253906 Z M 180.378906 213.253906 " fill-opacity="1" fill-rule="nonzero"/></g></g></g></g><g clip-path="url(#7199f1ed62)"><g clip-path="url(#1fa0b610d0)"><g clip-path="url(#f91b467b16)"><g clip-path="url(#e1353b75ae)"><path fill="#ffffff" d="M 188.960938 83.25 C 184.605469 89.492188 184.054688 98.453125 183.359375 105.824219 C 182.089844 121.429688 181.894531 137.28125 183.699219 152.855469 C 184.398438 158.507812 185.347656 164.078125 187.492188 169.40625 C 192.90625 168.082031 196.246094 165.101562 199.425781 160.714844 C 199.96875 158.171875 200.472656 155.605469 200.839844 153.03125 C 201.492188 148.511719 201.1875 143.964844 201.675781 139.402344 C 203.011719 127.917969 202.871094 115.984375 202.917969 104.367188 C 202.746094 96.136719 202.902344 87.824219 198.34375 80.605469 C 194.851562 80.707031 191.230469 79.851562 188.960938 83.25 Z M 188.960938 83.25 " fill-opacity="1" fill-rule="nonzero"/></g></g></g></g><g clip-path="url(#fc1ce24eef)"><g clip-path="url(#ff17e5bcfb)"><g clip-path="url(#e88721efd0)"><g clip-path="url(#ef1838f2f1)"><path fill="#ffffff" d="M 135.125 121.761719 C 135.167969 130.660156 136.761719 139.1875 138.65625 147.835938 C 140.753906 157.050781 143.6875 166.152344 147.679688 174.722656 C 148.492188 176.152344 149.320312 178.460938 151.207031 178.652344 C 154.699219 179.242188 157.484375 176.761719 159.210938 174.003906 C 161.859375 169.628906 162.300781 163.660156 162.609375 158.652344 C 158.296875 142.652344 154.398438 126.5625 151.425781 110.265625 C 150.355469 105.796875 149.371094 100.25 144.621094 98.269531 C 141.566406 100.707031 138.433594 102.84375 136.855469 106.5625 C 134.933594 111.121094 135.121094 116.878906 135.125 121.761719 Z M 135.125 121.761719 " fill-opacity="1" fill-rule="nonzero"/></g></g></g></g><g clip-path="url(#4cca46b220)"><g clip-path="url(#0f3247979f)"><g clip-path="url(#da0ced191c)"><g clip-path="url(#11d16c8f6a)"><path fill="#ffffff" d="M 110.203125 190.328125 C 112.269531 194.015625 114.085938 198.007812 116.660156 201.375 C 117.5625 203.066406 119.996094 202.144531 121.414062 201.707031 C 125.867188 199.820312 128.730469 194.617188 129.851562 190.117188 C 131.628906 182.832031 129.597656 176.101562 126.492188 169.496094 C 122.878906 161.933594 119.1875 154.414062 115.316406 146.988281 C 113.296875 143.324219 110.84375 138.375 106.972656 136.414062 C 104.703125 135.226562 102.507812 135.738281 100.242188 136.605469 C 98.925781 141.503906 97.664062 146.269531 97.929688 151.402344 C 98.082031 165.503906 103.820312 178.042969 110.203125 190.328125 Z M 110.203125 190.328125 " fill-opacity="1" fill-rule="nonzero"/></g></g></g></g><g clip-path="url(#1ac722a87e)"><g clip-path="url(#81ff2f44fe)"><path fill="#05a552" d="M 414.691406 0.117188 L 789.453125 0.117188 L 789.453125 374.882812 L 414.691406 374.882812 Z M 414.691406 0.117188 " fill-opacity="1" fill-rule="nonzero"/></g></g><g clip-path="url(#faa420190a)"><g clip-path="url(#6a874ea3bb)"><g clip-path="url(#b5c7cd0fc2)"><g clip-path="url(#ab9abbb011)"><path fill="#232323" d="M 571.792969 99.542969 C 569.234375 93.363281 563.21875 89.351562 556.566406 89.285156 C 550.050781 89.285156 544.46875 92.945312 540.613281 97.984375 C 535.703125 104.292969 533.941406 112.292969 533.847656 120.152344 C 533.855469 130.132812 535.730469 139.980469 538.109375 149.636719 C 535.1875 143.785156 532.578125 136.535156 527.71875 132.074219 C 524.046875 128.59375 518.726562 127.183594 513.875 128.714844 C 507.730469 130.550781 503.222656 136.777344 501.421875 142.703125 C 498.917969 150.90625 499.675781 160.417969 501.304688 168.738281 C 503.050781 178.441406 507.742188 187.625 512.472656 196.222656 C 515.589844 202.074219 520.1875 206.566406 522.738281 212.738281 C 528.992188 225.183594 528.421875 238.328125 534.476562 250.71875 C 538.535156 258.722656 544.792969 265.003906 552.171875 269.996094 C 549.089844 276.554688 548.800781 284.128906 551.632812 290.835938 C 554.574219 298.179688 560.464844 303.703125 567.265625 307.492188 C 577.039062 312.765625 587.945312 314.621094 598.964844 314.183594 C 611.035156 313.632812 622.914062 310.164062 633.15625 303.699219 C 641.382812 298.371094 648.453125 290.914062 651.335938 281.351562 C 652.648438 277.375 652.714844 273.289062 652.152344 269.167969 C 657.363281 265.027344 661.203125 259.734375 664.5625 254.035156 C 668.46875 247.113281 670.078125 239.816406 672.824219 232.460938 C 675.894531 224.25 679.035156 215.96875 684.359375 208.933594 C 689.1875 200.847656 695.574219 194.207031 701.320312 186.839844 C 704.910156 181.78125 709.320312 176.214844 710.292969 169.953125 C 711.300781 163.671875 709.152344 157.011719 704.203125 152.898438 C 699.445312 148.847656 692.742188 148.078125 686.765625 149.007812 C 677.253906 150.535156 668.691406 155.867188 661.625 162.226562 C 658.035156 165.308594 655.210938 168.992188 652.320312 172.707031 C 654.480469 162.382812 657.011719 152.160156 660.523438 142.214844 C 664.535156 129.042969 669.628906 117.554688 671.996094 104.078125 C 673.003906 97.566406 671.382812 90.773438 665.878906 86.675781 C 661.699219 83.5625 656.148438 82.761719 651.230469 84.40625 C 643.894531 86.839844 638.289062 92.238281 634.136719 98.601562 C 629.160156 106.003906 626.296875 114.085938 623.136719 122.339844 C 623.625 111.703125 625.765625 99.964844 624.566406 89.335938 C 623.8125 82.507812 620.96875 75.324219 615.398438 71.015625 C 610.570312 67.378906 604.117188 67.390625 598.902344 70.191406 C 591.753906 73.9375 587.355469 81.339844 585.144531 88.886719 C 579.699219 106.121094 580.597656 125.679688 580.546875 143.589844 C 578.652344 135.472656 577.171875 127.234375 575.859375 119 C 574.792969 112.601562 574.175781 105.589844 571.792969 99.542969 Z M 571.792969 99.542969 " fill-opacity="1" fill-rule="nonzero"/></g></g></g></g><g clip-path="url(#deb5160939)"><g clip-path="url(#f9a5877b29)"><g clip-path="url(#7d31844b8d)"><g clip-path="url(#199aa6d858)"><path fill="#ababab" d="M 549.65625 174.839844 C 550.625 179.113281 552.195312 182.777344 551.9375 187.042969 C 547.425781 181.984375 544.335938 175.453125 541.179688 169.496094 C 537.570312 161.933594 533.878906 154.414062 530.003906 146.988281 C 527.988281 143.324219 525.535156 138.375 521.664062 136.414062 C 519.394531 135.226562 517.199219 135.738281 514.933594 136.605469 C 510.589844 139.730469 508.527344 144.449219 508.066406 149.664062 C 507.082031 161.066406 509.757812 173 514.550781 183.324219 C 517.769531 190.789062 521.597656 197.941406 525.625 204.996094 C 528.347656 210.402344 531.539062 215.285156 533.347656 220.882812 C 536.921875 230.746094 537.929688 241.625 543.898438 250.5 C 547.828125 256.109375 553.199219 261.414062 559.550781 264.175781 C 566.3125 266.859375 573.921875 267.515625 581.042969 265.988281 C 586 265.023438 590.289062 262.820312 595.144531 261.460938 C 591.851562 266.957031 585.527344 270.683594 579.578125 272.582031 C 572.816406 274.710938 565.953125 274.398438 559.066406 273.164062 C 558.253906 277.972656 557.730469 282.53125 559.664062 287.191406 C 562.914062 294.945312 570.363281 299.792969 578.035156 302.445312 C 589.707031 306.429688 603.046875 305.917969 614.710938 302.242188 C 623.644531 299.226562 632.101562 294.679688 637.859375 287.003906 C 640.921875 283.445312 642.496094 279.128906 643.285156 274.546875 C 636.921875 276.304688 631.191406 278.105469 624.523438 276.640625 C 621.523438 276.023438 618.84375 274.5625 616.457031 272.683594 C 626.421875 272.046875 635.769531 270.464844 644.199219 264.6875 C 649.539062 260.925781 652.960938 255.816406 656.109375 250.207031 C 660.226562 242.648438 661.921875 233.898438 665.4375 225.855469 C 669.046875 216.882812 673.949219 208.640625 679.484375 200.742188 C 685.761719 190.515625 694.339844 182.929688 700.039062 172.402344 C 701.535156 169.566406 701.769531 166.699219 701.007812 163.601562 C 699.90625 161.199219 698.40625 159.199219 695.8125 158.355469 C 690.449219 156.546875 684.011719 158.308594 679.050781 160.546875 C 668.355469 165.84375 659.289062 174.578125 654.21875 185.457031 C 651.769531 190.445312 649.574219 195.925781 645.457031 199.796875 C 643.808594 201.292969 642.050781 203.246094 639.882812 203.882812 C 636.566406 204.9375 633.09375 205.453125 629.753906 206.433594 C 617.285156 210.019531 605.660156 215.703125 596.742188 225.328125 C 599.75 217.898438 605.027344 211.746094 611.570312 207.1875 C 619.859375 200.929688 629.59375 197.398438 639.863281 196.226562 C 640.25 185.574219 643.386719 174.863281 645.542969 164.417969 C 648.234375 151.335938 652.601562 138.847656 656.730469 126.183594 C 659.414062 119.132812 661.617188 111.949219 663.347656 104.605469 C 664 101.671875 664.316406 98.089844 662.746094 95.382812 C 661.449219 93.363281 659.496094 92.53125 657.34375 91.726562 C 650.660156 91.925781 645.59375 95.847656 641.464844 100.753906 C 635.898438 107.566406 632.136719 116.378906 628.878906 124.496094 C 622.769531 140.457031 619.667969 156.914062 615.953125 173.496094 C 614.949219 173.265625 613.945312 173.039062 612.9375 172.800781 C 613.070312 168.75 613.523438 164.726562 614.113281 160.714844 C 614.65625 158.171875 615.164062 155.605469 615.527344 153.03125 C 616.183594 148.511719 615.878906 143.964844 616.367188 139.402344 C 617.703125 127.917969 617.558594 115.984375 617.605469 104.367188 C 617.433594 96.136719 617.589844 87.824219 613.03125 80.605469 C 611.394531 78.664062 609.746094 76.65625 607.03125 76.464844 C 602.582031 76.132812 598.902344 79.078125 596.238281 82.339844 C 591.996094 87.582031 590.117188 95.136719 588.617188 101.609375 C 586.152344 113.625 585.589844 126.097656 585.125 138.332031 C 584.921875 145.691406 584.648438 153.03125 584.828125 160.402344 C 584.890625 165.039062 585.269531 169.53125 584.816406 174.171875 C 580.417969 170.875 579.074219 163.632812 577.296875 158.652344 C 572.988281 142.652344 569.085938 126.5625 566.113281 110.265625 C 565.046875 105.796875 564.0625 100.25 559.308594 98.269531 C 557.101562 97.792969 554.953125 97.59375 552.820312 98.527344 C 548.046875 100.578125 544.648438 105.507812 542.996094 110.300781 C 540.625 117.191406 540.835938 125.238281 541.355469 132.441406 C 542.449219 147.117188 546.15625 160.554688 549.65625 174.839844 Z M 609.054688 176.722656 C 613.96875 177.207031 619.792969 178.269531 622.75 182.6875 C 617.796875 181.746094 612.804688 181.457031 607.773438 181.785156 C 595.320312 182.714844 582.882812 185.882812 571.269531 190.402344 C 566.597656 192.265625 561.910156 193.707031 557.558594 196.285156 C 556.339844 196.808594 555.113281 197.285156 553.871094 197.746094 C 558.5 192.464844 564.53125 188.421875 570.722656 185.199219 C 582.375 179.253906 595.914062 175.839844 609.054688 176.722656 Z M 609.054688 176.722656 " fill-opacity="1" fill-rule="nonzero"/></g></g></g></g><g clip-path="url(#9f1cb42962)"><g clip-path="url(#d6b568b612)"><g clip-path="url(#c0646ae0c6)"><g clip-path="url(#6d02f0d8a9)"><path fill="#ffffff" d="M 630.199219 146.546875 C 629.34375 153.042969 628.484375 159.253906 629.164062 165.828125 C 629.65625 172.304688 632.226562 178.25 632.757812 184.726562 C 629.324219 184.453125 626.074219 183.515625 622.75 182.6875 C 617.796875 181.746094 612.804688 181.457031 607.773438 181.785156 C 595.320312 182.714844 582.882812 185.882812 571.269531 190.402344 C 566.597656 192.265625 561.910156 193.707031 557.558594 196.285156 C 553.71875 198.699219 550.078125 200.6875 547.523438 204.554688 C 542.761719 211.421875 542.554688 220.992188 545.011719 228.746094 C 547.601562 235.914062 550.617188 242.578125 556.171875 247.957031 C 562.03125 253.902344 569.628906 257.808594 578.136719 256.898438 C 587.136719 255.703125 595.082031 251.339844 602.332031 246.101562 C 601.027344 251.808594 598.066406 256.492188 595.144531 261.460938 C 591.851562 266.957031 585.527344 270.683594 579.578125 272.582031 C 580.136719 275.925781 580.71875 279.070312 582.613281 281.96875 C 586.195312 287.46875 591.992188 290.910156 598.199219 292.65625 C 604.859375 294.511719 612.226562 295.503906 619.089844 294.425781 C 625.550781 293.492188 631.75 289.574219 637.859375 287.003906 C 640.921875 283.445312 642.496094 279.128906 643.285156 274.546875 C 636.921875 276.304688 631.191406 278.105469 624.523438 276.640625 C 621.523438 276.023438 618.84375 274.5625 616.457031 272.683594 C 612.820312 269.574219 609.488281 266.523438 607.992188 261.796875 C 606.851562 258.511719 607.242188 255.324219 607.796875 251.984375 C 611.023438 254.578125 613.886719 257.546875 618.0625 258.480469 C 624.902344 260.035156 632.230469 257.476562 637.648438 253.3125 C 643.015625 249.101562 645.953125 243.351562 648.496094 237.171875 C 650.777344 231.46875 653.746094 226.089844 656.101562 220.410156 C 658.125 215.605469 659.910156 210.863281 662.703125 206.421875 C 669.929688 194.21875 682.777344 184.507812 692.992188 174.804688 C 696.394531 171.53125 698.574219 167.578125 701.007812 163.601562 C 699.90625 161.199219 698.40625 159.199219 695.8125 158.355469 C 690.449219 156.546875 684.011719 158.308594 679.050781 160.546875 C 668.355469 165.84375 659.289062 174.578125 654.21875 185.457031 C 651.769531 190.445312 649.574219 195.925781 645.457031 199.796875 C 643.808594 201.292969 642.050781 203.246094 639.882812 203.882812 C 636.566406 204.9375 633.09375 205.453125 629.753906 206.433594 C 617.285156 210.019531 605.660156 215.703125 596.742188 225.328125 C 599.75 217.898438 605.027344 211.746094 611.570312 207.1875 C 619.859375 200.929688 629.59375 197.398438 639.863281 196.226562 C 640.25 185.574219 643.386719 174.863281 645.542969 164.417969 C 648.234375 151.332031 652.601562 138.847656 656.730469 126.183594 C 659.414062 119.132812 661.617188 111.949219 663.347656 104.605469 C 664 101.671875 664.316406 98.089844 662.746094 95.382812 C 661.449219 93.363281 659.496094 92.53125 657.34375 91.726562 C 650.933594 95.574219 646.921875 101.421875 643.378906 107.8125 C 636.84375 119.933594 632.078125 132.863281 630.199219 146.546875 Z M 595.066406 213.253906 C 593.921875 215.058594 592.683594 216.777344 591.433594 218.5 C 586.195312 214.6875 580.773438 211.28125 574.722656 208.910156 C 570.925781 207.394531 567.085938 206.558594 563.195312 205.347656 C 567.789062 204.160156 572.308594 203.835938 577.003906 204.515625 C 583.988281 205.535156 590.558594 207.394531 595.066406 213.253906 Z M 595.066406 213.253906 " fill-opacity="1" fill-rule="nonzero"/></g></g></g></g><g clip-path="url(#6331c82691)"><g clip-path="url(#ae553559f7)"><g clip-path="url(#9232c93646)"><g clip-path="url(#58eecf5479)"><path fill="#ffffff" d="M 603.648438 83.25 C 599.296875 89.492188 598.742188 98.453125 598.050781 105.824219 C 596.78125 121.429688 596.585938 137.28125 598.386719 152.855469 C 599.089844 158.507812 600.039062 164.078125 602.183594 169.40625 C 607.59375 168.082031 610.9375 165.101562 614.113281 160.714844 C 614.65625 158.171875 615.164062 155.605469 615.527344 153.03125 C 616.183594 148.511719 615.878906 143.964844 616.367188 139.402344 C 617.703125 127.917969 617.558594 115.984375 617.605469 104.367188 C 617.433594 96.136719 617.589844 87.824219 613.03125 80.605469 C 609.539062 80.707031 605.921875 79.851562 603.648438 83.25 Z M 603.648438 83.25 " fill-opacity="1" fill-rule="nonzero"/></g></g></g></g><g clip-path="url(#7f5ea92bc2)"><g clip-path="url(#1e9167e3d9)"><g clip-path="url(#ed074dcd92)"><g clip-path="url(#dc96f42819)"><path fill="#ffffff" d="M 549.816406 121.761719 C 549.859375 130.660156 551.453125 139.1875 553.347656 147.835938 C 555.441406 157.050781 558.378906 166.152344 562.371094 174.722656 C 563.179688 176.152344 564.011719 178.460938 565.898438 178.652344 C 569.386719 179.242188 572.175781 176.761719 573.898438 174.003906 C 576.546875 169.628906 576.992188 163.660156 577.296875 158.652344 C 572.988281 142.652344 569.085938 126.5625 566.113281 110.265625 C 565.046875 105.796875 564.0625 100.25 559.308594 98.269531 C 556.253906 100.707031 553.121094 102.84375 551.546875 106.5625 C 549.621094 111.121094 549.8125 116.878906 549.816406 121.761719 Z M 549.816406 121.761719 " fill-opacity="1" fill-rule="nonzero"/></g></g></g></g><g clip-path="url(#9a8bf54cd5)"><g clip-path="url(#534486a25c)"><g clip-path="url(#5d8a41748e)"><g clip-path="url(#cd5d56238d)"><path fill="#ffffff" d="M 524.894531 190.328125 C 526.960938 194.015625 528.777344 198.007812 531.351562 201.375 C 532.253906 203.066406 534.683594 202.144531 536.105469 201.707031 C 540.554688 199.820312 543.417969 194.617188 544.542969 190.117188 C 546.320312 182.832031 544.289062 176.101562 541.179688 169.496094 C 537.570312 161.933594 533.878906 154.414062 530.003906 146.988281 C 527.988281 143.324219 525.535156 138.375 521.664062 136.414062 C 519.394531 135.226562 517.199219 135.738281 514.933594 136.605469 C 513.613281 141.503906 512.351562 146.269531 512.617188 151.402344 C 512.773438 165.503906 518.507812 178.042969 524.894531 190.328125 Z M 524.894531 190.328125 " fill-opacity="1" fill-rule="nonzero"/></g></g></g></g><g clip-path="url(#359523fa9d)"><path fill="#000000" d="M 447.632812 193.378906 C 450.742188 178.371094 447.3125 164.140625 424.414062 164.140625 C 419.617188 164.140625 415.230469 164.808594 411.292969 166.0625 L 391.304688 210.996094 C 394.179688 214.980469 398.808594 218.535156 405.402344 222.347656 C 415.671875 228.238281 418.214844 232.214844 416.730469 238.980469 C 415.511719 244.53125 412.441406 248.921875 405.886719 248.921875 C 399.140625 248.921875 398.058594 243.398438 399.25 235.371094 L 376.964844 235.371094 C 373.800781 251.964844 378.121094 265.507812 402.019531 265.507812 C 424.078125 265.507812 436.402344 252.632812 439.949219 236.480469 C 443.558594 220.046875 437.519531 212.332031 421.308594 203.210938 C 411.785156 197.902344 410.226562 195.011719 411.457031 189.414062 C 412.648438 183.960938 415.609375 180.722656 420.632812 180.722656 C 427.042969 180.722656 427.015625 186.574219 425.898438 193.378906 L 447.632812 193.378906 " fill-opacity="1" fill-rule="nonzero"/></g><g clip-path="url(#f5d8570e89)"><path fill="#000000" d="M 435.726562 90.9375 C 427.644531 106.664062 419.804688 122.515625 412.207031 138.480469 L 391.707031 138.480469 L 380.652344 167.664062 C 375.925781 180.050781 370.617188 193.183594 367.046875 204.832031 L 366.398438 204.832031 C 367.867188 193.546875 369 179.910156 369.648438 167.382812 L 371.554688 138.828125 L 347.617188 138.828125 L 347.429688 227.128906 L 372.96875 227.128906 C 365.203125 246.058594 357.765625 265.121094 350.660156 284.308594 C 382.835938 221.625 411.285156 157.03125 435.726562 90.9375 " fill-opacity="1" fill-rule="nonzero"/></g><g fill="#ffffff" fill-opacity="1"><g transform="translate(137.532985, 48.229981)"><g><path d="M 13.125 -10.46875 C 13.125 -9.570312 12.914062 -8.753906 12.5 -8.015625 C 12.09375 -7.273438 11.460938 -6.675781 10.609375 -6.21875 C 9.765625 -5.769531 8.710938 -5.546875 7.453125 -5.546875 L 5.125 -5.546875 L 5.125 0 L 1.359375 0 L 1.359375 -15.4375 L 7.453125 -15.4375 C 8.679688 -15.4375 9.71875 -15.222656 10.5625 -14.796875 C 11.414062 -14.367188 12.054688 -13.78125 12.484375 -13.03125 C 12.910156 -12.289062 13.125 -11.4375 13.125 -10.46875 Z M 7.171875 -8.53125 C 7.890625 -8.53125 8.421875 -8.695312 8.765625 -9.03125 C 9.117188 -9.375 9.296875 -9.851562 9.296875 -10.46875 C 9.296875 -11.082031 9.117188 -11.554688 8.765625 -11.890625 C 8.421875 -12.234375 7.890625 -12.40625 7.171875 -12.40625 L 5.125 -12.40625 L 5.125 -8.53125 Z M 7.171875 -8.53125 "/></g></g></g><g fill="#ffffff" fill-opacity="1"><g transform="translate(151.249826, 48.229981)"><g><path d="M 12.921875 -6.328125 C 12.921875 -5.972656 12.898438 -5.609375 12.859375 -5.234375 L 4.359375 -5.234375 C 4.410156 -4.472656 4.648438 -3.890625 5.078125 -3.484375 C 5.515625 -3.078125 6.050781 -2.875 6.6875 -2.875 C 7.625 -2.875 8.273438 -3.269531 8.640625 -4.0625 L 12.640625 -4.0625 C 12.429688 -3.257812 12.0625 -2.535156 11.53125 -1.890625 C 11 -1.242188 10.328125 -0.738281 9.515625 -0.375 C 8.710938 -0.0078125 7.8125 0.171875 6.8125 0.171875 C 5.613281 0.171875 4.546875 -0.0820312 3.609375 -0.59375 C 2.671875 -1.101562 1.9375 -1.832031 1.40625 -2.78125 C 0.875 -3.738281 0.609375 -4.859375 0.609375 -6.140625 C 0.609375 -7.410156 0.867188 -8.519531 1.390625 -9.46875 C 1.910156 -10.425781 2.640625 -11.160156 3.578125 -11.671875 C 4.515625 -12.179688 5.59375 -12.4375 6.8125 -12.4375 C 8 -12.4375 9.050781 -12.1875 9.96875 -11.6875 C 10.894531 -11.195312 11.617188 -10.488281 12.140625 -9.5625 C 12.660156 -8.632812 12.921875 -7.554688 12.921875 -6.328125 Z M 9.078125 -7.328125 C 9.078125 -7.960938 8.859375 -8.472656 8.421875 -8.859375 C 7.984375 -9.242188 7.429688 -9.4375 6.765625 -9.4375 C 6.140625 -9.4375 5.609375 -9.25 5.171875 -8.875 C 4.742188 -8.507812 4.476562 -7.992188 4.375 -7.328125 Z M 9.078125 -7.328125 "/></g></g></g><g fill="#ffffff" fill-opacity="1"><g transform="translate(164.790815, 48.229981)"><g><path d="M 17.015625 -12.40625 C 18.535156 -12.40625 19.742188 -11.941406 20.640625 -11.015625 C 21.546875 -10.085938 22 -8.804688 22 -7.171875 L 22 0 L 18.265625 0 L 18.265625 -6.65625 C 18.265625 -7.445312 18.054688 -8.054688 17.640625 -8.484375 C 17.222656 -8.921875 16.648438 -9.140625 15.921875 -9.140625 C 15.179688 -9.140625 14.601562 -8.921875 14.1875 -8.484375 C 13.769531 -8.054688 13.5625 -7.445312 13.5625 -6.65625 L 13.5625 0 L 9.828125 0 L 9.828125 -6.65625 C 9.828125 -7.445312 9.617188 -8.054688 9.203125 -8.484375 C 8.785156 -8.921875 8.207031 -9.140625 7.46875 -9.140625 C 6.738281 -9.140625 6.164062 -8.921875 5.75 -8.484375 C 5.332031 -8.054688 5.125 -7.445312 5.125 -6.65625 L 5.125 0 L 1.359375 0 L 1.359375 -12.265625 L 5.125 -12.265625 L 5.125 -10.734375 C 5.5 -11.242188 5.992188 -11.648438 6.609375 -11.953125 C 7.234375 -12.253906 7.929688 -12.40625 8.703125 -12.40625 C 9.628906 -12.40625 10.453125 -12.207031 11.171875 -11.8125 C 11.898438 -11.414062 12.472656 -10.847656 12.890625 -10.109375 C 13.304688 -10.785156 13.878906 -11.335938 14.609375 -11.765625 C 15.347656 -12.191406 16.148438 -12.40625 17.015625 -12.40625 Z M 17.015625 -12.40625 "/></g></g></g><g fill="#ffffff" fill-opacity="1"><g transform="translate(188.069888, 48.229981)"><g><path d="M 0.609375 -6.15625 C 0.609375 -7.414062 0.847656 -8.519531 1.328125 -9.46875 C 1.804688 -10.425781 2.453125 -11.160156 3.265625 -11.671875 C 4.085938 -12.179688 5.007812 -12.4375 6.03125 -12.4375 C 6.894531 -12.4375 7.648438 -12.257812 8.296875 -11.90625 C 8.953125 -11.5625 9.457031 -11.101562 9.8125 -10.53125 L 9.8125 -12.265625 L 13.5625 -12.265625 L 13.5625 0 L 9.8125 0 L 9.8125 -1.734375 C 9.4375 -1.160156 8.921875 -0.695312 8.265625 -0.34375 C 7.617188 0 6.863281 0.171875 6 0.171875 C 5 0.171875 4.085938 -0.0859375 3.265625 -0.609375 C 2.453125 -1.128906 1.804688 -1.867188 1.328125 -2.828125 C 0.847656 -3.785156 0.609375 -4.894531 0.609375 -6.15625 Z M 9.8125 -6.140625 C 9.8125 -7.078125 9.550781 -7.816406 9.03125 -8.359375 C 8.507812 -8.898438 7.875 -9.171875 7.125 -9.171875 C 6.375 -9.171875 5.738281 -8.898438 5.21875 -8.359375 C 4.695312 -7.828125 4.4375 -7.09375 4.4375 -6.15625 C 4.4375 -5.21875 4.695312 -4.472656 5.21875 -3.921875 C 5.738281 -3.367188 6.375 -3.09375 7.125 -3.09375 C 7.875 -3.09375 8.507812 -3.363281 9.03125 -3.90625 C 9.550781 -4.457031 9.8125 -5.203125 9.8125 -6.140625 Z M 9.8125 -6.140625 "/></g></g></g><g fill="#ffffff" fill-opacity="1"><g transform="translate(202.995751, 48.229981)"><g><path d="M 3.25 -13.546875 C 2.59375 -13.546875 2.054688 -13.738281 1.640625 -14.125 C 1.222656 -14.507812 1.015625 -14.988281 1.015625 -15.5625 C 1.015625 -16.144531 1.222656 -16.628906 1.640625 -17.015625 C 2.054688 -17.410156 2.59375 -17.609375 3.25 -17.609375 C 3.894531 -17.609375 4.425781 -17.410156 4.84375 -17.015625 C 5.257812 -16.628906 5.46875 -16.144531 5.46875 -15.5625 C 5.46875 -14.988281 5.257812 -14.507812 4.84375 -14.125 C 4.425781 -13.738281 3.894531 -13.546875 3.25 -13.546875 Z M 5.125 -12.265625 L 5.125 0 L 1.359375 0 L 1.359375 -12.265625 Z M 5.125 -12.265625 "/></g></g></g><g fill="#ffffff" fill-opacity="1"><g transform="translate(209.48048, 48.229981)"><g><path d="M 8.84375 -12.40625 C 10.269531 -12.40625 11.410156 -11.9375 12.265625 -11 C 13.128906 -10.070312 13.5625 -8.796875 13.5625 -7.171875 L 13.5625 0 L 9.828125 0 L 9.828125 -6.65625 C 9.828125 -7.476562 9.613281 -8.113281 9.1875 -8.5625 C 8.757812 -9.019531 8.1875 -9.25 7.46875 -9.25 C 6.75 -9.25 6.175781 -9.019531 5.75 -8.5625 C 5.332031 -8.113281 5.125 -7.476562 5.125 -6.65625 L 5.125 0 L 1.359375 0 L 1.359375 -12.265625 L 5.125 -12.265625 L 5.125 -10.640625 C 5.5 -11.179688 6.007812 -11.609375 6.65625 -11.921875 C 7.300781 -12.242188 8.03125 -12.40625 8.84375 -12.40625 Z M 8.84375 -12.40625 "/></g></g></g><g fill="#ffffff" fill-opacity="1"><g transform="translate(224.296435, 48.229981)"><g/></g></g><g fill="#ffffff" fill-opacity="1"><g transform="translate(228.956646, 48.229981)"><g><path d="M 0.59375 -12.546875 L 0.59375 -16.046875 L 6.6875 -16.046875 L 6.6875 0 L 2.765625 0 L 2.765625 -12.546875 Z M 0.59375 -12.546875 "/></g></g></g><g fill="#ffffff" fill-opacity="1"><g transform="translate(547.630403, 48.229981)"><g><path d="M 13.125 -10.46875 C 13.125 -9.570312 12.914062 -8.753906 12.5 -8.015625 C 12.09375 -7.273438 11.460938 -6.675781 10.609375 -6.21875 C 9.765625 -5.769531 8.710938 -5.546875 7.453125 -5.546875 L 5.125 -5.546875 L 5.125 0 L 1.359375 0 L 1.359375 -15.4375 L 7.453125 -15.4375 C 8.679688 -15.4375 9.71875 -15.222656 10.5625 -14.796875 C 11.414062 -14.367188 12.054688 -13.78125 12.484375 -13.03125 C 12.910156 -12.289062 13.125 -11.4375 13.125 -10.46875 Z M 7.171875 -8.53125 C 7.890625 -8.53125 8.421875 -8.695312 8.765625 -9.03125 C 9.117188 -9.375 9.296875 -9.851562 9.296875 -10.46875 C 9.296875 -11.082031 9.117188 -11.554688 8.765625 -11.890625 C 8.421875 -12.234375 7.890625 -12.40625 7.171875 -12.40625 L 5.125 -12.40625 L 5.125 -8.53125 Z M 7.171875 -8.53125 "/></g></g></g><g fill="#ffffff" fill-opacity="1"><g transform="translate(561.347245, 48.229981)"><g><path d="M 12.921875 -6.328125 C 12.921875 -5.972656 12.898438 -5.609375 12.859375 -5.234375 L 4.359375 -5.234375 C 4.410156 -4.472656 4.648438 -3.890625 5.078125 -3.484375 C 5.515625 -3.078125 6.050781 -2.875 6.6875 -2.875 C 7.625 -2.875 8.273438 -3.269531 8.640625 -4.0625 L 12.640625 -4.0625 C 12.429688 -3.257812 12.0625 -2.535156 11.53125 -1.890625 C 11 -1.242188 10.328125 -0.738281 9.515625 -0.375 C 8.710938 -0.0078125 7.8125 0.171875 6.8125 0.171875 C 5.613281 0.171875 4.546875 -0.0820312 3.609375 -0.59375 C 2.671875 -1.101562 1.9375 -1.832031 1.40625 -2.78125 C 0.875 -3.738281 0.609375 -4.859375 0.609375 -6.140625 C 0.609375 -7.410156 0.867188 -8.519531 1.390625 -9.46875 C 1.910156 -10.425781 2.640625 -11.160156 3.578125 -11.671875 C 4.515625 -12.179688 5.59375 -12.4375 6.8125 -12.4375 C 8 -12.4375 9.050781 -12.1875 9.96875 -11.6875 C 10.894531 -11.195312 11.617188 -10.488281 12.140625 -9.5625 C 12.660156 -8.632812 12.921875 -7.554688 12.921875 -6.328125 Z M 9.078125 -7.328125 C 9.078125 -7.960938 8.859375 -8.472656 8.421875 -8.859375 C 7.984375 -9.242188 7.429688 -9.4375 6.765625 -9.4375 C 6.140625 -9.4375 5.609375 -9.25 5.171875 -8.875 C 4.742188 -8.507812 4.476562 -7.992188 4.375 -7.328125 Z M 9.078125 -7.328125 "/></g></g></g><g fill="#ffffff" fill-opacity="1"><g transform="translate(574.888234, 48.229981)"><g><path d="M 17.015625 -12.40625 C 18.535156 -12.40625 19.742188 -11.941406 20.640625 -11.015625 C 21.546875 -10.085938 22 -8.804688 22 -7.171875 L 22 0 L 18.265625 0 L 18.265625 -6.65625 C 18.265625 -7.445312 18.054688 -8.054688 17.640625 -8.484375 C 17.222656 -8.921875 16.648438 -9.140625 15.921875 -9.140625 C 15.179688 -9.140625 14.601562 -8.921875 14.1875 -8.484375 C 13.769531 -8.054688 13.5625 -7.445312 13.5625 -6.65625 L 13.5625 0 L 9.828125 0 L 9.828125 -6.65625 C 9.828125 -7.445312 9.617188 -8.054688 9.203125 -8.484375 C 8.785156 -8.921875 8.207031 -9.140625 7.46875 -9.140625 C 6.738281 -9.140625 6.164062 -8.921875 5.75 -8.484375 C 5.332031 -8.054688 5.125 -7.445312 5.125 -6.65625 L 5.125 0 L 1.359375 0 L 1.359375 -12.265625 L 5.125 -12.265625 L 5.125 -10.734375 C 5.5 -11.242188 5.992188 -11.648438 6.609375 -11.953125 C 7.234375 -12.253906 7.929688 -12.40625 8.703125 -12.40625 C 9.628906 -12.40625 10.453125 -12.207031 11.171875 -11.8125 C 11.898438 -11.414062 12.472656 -10.847656 12.890625 -10.109375 C 13.304688 -10.785156 13.878906 -11.335938 14.609375 -11.765625 C 15.347656 -12.191406 16.148438 -12.40625 17.015625 -12.40625 Z M 17.015625 -12.40625 "/></g></g></g><g fill="#ffffff" fill-opacity="1"><g transform="translate(598.167307, 48.229981)"><g><path d="M 0.609375 -6.15625 C 0.609375 -7.414062 0.847656 -8.519531 1.328125 -9.46875 C 1.804688 -10.425781 2.453125 -11.160156 3.265625 -11.671875 C 4.085938 -12.179688 5.007812 -12.4375 6.03125 -12.4375 C 6.894531 -12.4375 7.648438 -12.257812 8.296875 -11.90625 C 8.953125 -11.5625 9.457031 -11.101562 9.8125 -10.53125 L 9.8125 -12.265625 L 13.5625 -12.265625 L 13.5625 0 L 9.8125 0 L 9.8125 -1.734375 C 9.4375 -1.160156 8.921875 -0.695312 8.265625 -0.34375 C 7.617188 0 6.863281 0.171875 6 0.171875 C 5 0.171875 4.085938 -0.0859375 3.265625 -0.609375 C 2.453125 -1.128906 1.804688 -1.867188 1.328125 -2.828125 C 0.847656 -3.785156 0.609375 -4.894531 0.609375 -6.15625 Z M 9.8125 -6.140625 C 9.8125 -7.078125 9.550781 -7.816406 9.03125 -8.359375 C 8.507812 -8.898438 7.875 -9.171875 7.125 -9.171875 C 6.375 -9.171875 5.738281 -8.898438 5.21875 -8.359375 C 4.695312 -7.828125 4.4375 -7.09375 4.4375 -6.15625 C 4.4375 -5.21875 4.695312 -4.472656 5.21875 -3.921875 C 5.738281 -3.367188 6.375 -3.09375 7.125 -3.09375 C 7.875 -3.09375 8.507812 -3.363281 9.03125 -3.90625 C 9.550781 -4.457031 9.8125 -5.203125 9.8125 -6.140625 Z M 9.8125 -6.140625 "/></g></g></g><g fill="#ffffff" fill-opacity="1"><g transform="translate(613.09317, 48.229981)"><g><path d="M 3.25 -13.546875 C 2.59375 -13.546875 2.054688 -13.738281 1.640625 -14.125 C 1.222656 -14.507812 1.015625 -14.988281 1.015625 -15.5625 C 1.015625 -16.144531 1.222656 -16.628906 1.640625 -17.015625 C 2.054688 -17.410156 2.59375 -17.609375 3.25 -17.609375 C 3.894531 -17.609375 4.425781 -17.410156 4.84375 -17.015625 C 5.257812 -16.628906 5.46875 -16.144531 5.46875 -15.5625 C 5.46875 -14.988281 5.257812 -14.507812 4.84375 -14.125 C 4.425781 -13.738281 3.894531 -13.546875 3.25 -13.546875 Z M 5.125 -12.265625 L 5.125 0 L 1.359375 0 L 1.359375 -12.265625 Z M 5.125 -12.265625 "/></g></g></g><g fill="#ffffff" fill-opacity="1"><g transform="translate(619.577898, 48.229981)"><g><path d="M 8.84375 -12.40625 C 10.269531 -12.40625 11.410156 -11.9375 12.265625 -11 C 13.128906 -10.070312 13.5625 -8.796875 13.5625 -7.171875 L 13.5625 0 L 9.828125 0 L 9.828125 -6.65625 C 9.828125 -7.476562 9.613281 -8.113281 9.1875 -8.5625 C 8.757812 -9.019531 8.1875 -9.25 7.46875 -9.25 C 6.75 -9.25 6.175781 -9.019531 5.75 -8.5625 C 5.332031 -8.113281 5.125 -7.476562 5.125 -6.65625 L 5.125 0 L 1.359375 0 L 1.359375 -12.265625 L 5.125 -12.265625 L 5.125 -10.640625 C 5.5 -11.179688 6.007812 -11.609375 6.65625 -11.921875 C 7.300781 -12.242188 8.03125 -12.40625 8.84375 -12.40625 Z M 8.84375 -12.40625 "/></g></g></g><g fill="#ffffff" fill-opacity="1"><g transform="translate(634.393854, 48.229981)"><g/></g></g><g fill="#ffffff" fill-opacity="1"><g transform="translate(639.054065, 48.229981)"><g><path d="M 0.859375 -3.015625 C 1.359375 -3.410156 1.582031 -3.59375 1.53125 -3.5625 C 2.96875 -4.75 4.097656 -5.722656 4.921875 -6.484375 C 5.753906 -7.242188 6.457031 -8.039062 7.03125 -8.875 C 7.601562 -9.71875 7.890625 -10.535156 7.890625 -11.328125 C 7.890625 -11.921875 7.75 -12.382812 7.46875 -12.71875 C 7.195312 -13.0625 6.78125 -13.234375 6.21875 -13.234375 C 5.664062 -13.234375 5.226562 -13.023438 4.90625 -12.609375 C 4.59375 -12.191406 4.4375 -11.601562 4.4375 -10.84375 L 0.8125 -10.84375 C 0.84375 -12.082031 1.109375 -13.117188 1.609375 -13.953125 C 2.117188 -14.796875 2.785156 -15.414062 3.609375 -15.8125 C 4.441406 -16.207031 5.363281 -16.40625 6.375 -16.40625 C 8.113281 -16.40625 9.425781 -15.957031 10.3125 -15.0625 C 11.207031 -14.164062 11.65625 -13 11.65625 -11.5625 C 11.65625 -10 11.117188 -8.546875 10.046875 -7.203125 C 8.972656 -5.859375 7.609375 -4.550781 5.953125 -3.28125 L 11.890625 -3.28125 L 11.890625 -0.21875 L 0.859375 -0.21875 Z M 0.859375 -3.015625 "/></g></g></g></svg>