<svg xmlns="http://www.w3.org/2000/svg" xmlns:xlink="http://www.w3.org/1999/xlink" width="1050" zoomAndPan="magnify" viewBox="0 0 787.5 374.999991" height="500" preserveAspectRatio="xMidYMid meet" version="1.0"><defs><g/><clipPath id="a95c7af3ba"><path d="M 412.238281 0.117188 L 787 0.117188 L 787 374.878906 L 412.238281 374.878906 Z M 412.238281 0.117188 " clip-rule="nonzero"/></clipPath><clipPath id="1ee5219dc7"><path d="M 599.621094 0.117188 C 496.132812 0.117188 412.238281 84.011719 412.238281 187.5 C 412.238281 290.988281 496.132812 374.882812 599.621094 374.882812 C 703.105469 374.882812 787 290.988281 787 187.5 C 787 84.011719 703.105469 0.117188 599.621094 0.117188 Z M 599.621094 0.117188 " clip-rule="nonzero"/></clipPath><clipPath id="56067929d4"><path d="M 488 68 L 695 68 L 695 309 L 488 309 Z M 488 68 " clip-rule="nonzero"/></clipPath><clipPath id="8ffff8e90e"><path d="M 631.414062 35.59375 L 747.050781 235.953125 L 567.730469 339.449219 L 452.09375 139.089844 Z M 631.414062 35.59375 " clip-rule="nonzero"/></clipPath><clipPath id="afa7aef5dc"><path d="M 631.414062 35.59375 L 747.050781 235.953125 L 567.730469 339.449219 L 452.09375 139.089844 Z M 631.414062 35.59375 " clip-rule="nonzero"/></clipPath><clipPath id="b8dc41cbb0"><path d="M 631.414062 35.59375 L 747.050781 235.953125 L 567.730469 339.449219 L 452.09375 139.089844 Z M 631.414062 35.59375 " clip-rule="nonzero"/></clipPath><clipPath id="4415f16548"><path d="M 613 78 L 662 78 L 662 139 L 613 139 Z M 613 78 " clip-rule="nonzero"/></clipPath><clipPath id="9baa931483"><path d="M 631.414062 35.59375 L 747.050781 235.953125 L 567.730469 339.449219 L 452.09375 139.089844 Z M 631.414062 35.59375 " clip-rule="nonzero"/></clipPath><clipPath id="1ca90f32ec"><path d="M 631.414062 35.59375 L 747.050781 235.953125 L 567.730469 339.449219 L 452.09375 139.089844 Z M 631.414062 35.59375 " clip-rule="nonzero"/></clipPath><clipPath id="ea6061c8cb"><path d="M 631.414062 35.59375 L 747.050781 235.953125 L 567.730469 339.449219 L 452.09375 139.089844 Z M 631.414062 35.59375 " clip-rule="nonzero"/></clipPath><clipPath id="e351f4f184"><path d="M 553 79 L 613 79 L 613 160 L 553 160 Z M 553 79 " clip-rule="nonzero"/></clipPath><clipPath id="dacd0cbbbe"><path d="M 631.414062 35.59375 L 747.050781 235.953125 L 567.730469 339.449219 L 452.09375 139.089844 Z M 631.414062 35.59375 " clip-rule="nonzero"/></clipPath><clipPath id="44bb8a6d79"><path d="M 631.414062 35.59375 L 747.050781 235.953125 L 567.730469 339.449219 L 452.09375 139.089844 Z M 631.414062 35.59375 " clip-rule="nonzero"/></clipPath><clipPath id="1264cdcfb2"><path d="M 631.414062 35.59375 L 747.050781 235.953125 L 567.730469 339.449219 L 452.09375 139.089844 Z M 631.414062 35.59375 " clip-rule="nonzero"/></clipPath><clipPath id="2fc7752f2c"><path d="M 513 144 L 682 144 L 682 298 L 513 298 Z M 513 144 " clip-rule="nonzero"/></clipPath><clipPath id="e12fb8decf"><path d="M 631.414062 35.59375 L 747.050781 235.953125 L 567.730469 339.449219 L 452.09375 139.089844 Z M 631.414062 35.59375 " clip-rule="nonzero"/></clipPath><clipPath id="0b555da8b0"><path d="M 631.414062 35.59375 L 747.050781 235.953125 L 567.730469 339.449219 L 452.09375 139.089844 Z M 631.414062 35.59375 " clip-rule="nonzero"/></clipPath><clipPath id="511e9e2eda"><path d="M 631.414062 35.59375 L 747.050781 235.953125 L 567.730469 339.449219 L 452.09375 139.089844 Z M 631.414062 35.59375 " clip-rule="nonzero"/></clipPath><clipPath id="db46396ff7"><path d="M 522 105 L 574 105 L 574 183 L 522 183 Z M 522 105 " clip-rule="nonzero"/></clipPath><clipPath id="1a93891059"><path d="M 631.414062 35.59375 L 747.050781 235.953125 L 567.730469 339.449219 L 452.09375 139.089844 Z M 631.414062 35.59375 " clip-rule="nonzero"/></clipPath><clipPath id="3711729d87"><path d="M 631.414062 35.59375 L 747.050781 235.953125 L 567.730469 339.449219 L 452.09375 139.089844 Z M 631.414062 35.59375 " clip-rule="nonzero"/></clipPath><clipPath id="fa4561f540"><path d="M 631.414062 35.59375 L 747.050781 235.953125 L 567.730469 339.449219 L 452.09375 139.089844 Z M 631.414062 35.59375 " clip-rule="nonzero"/></clipPath><clipPath id="951de27850"><path d="M 498 144 L 553 144 L 553 204 L 498 204 Z M 498 144 " clip-rule="nonzero"/></clipPath><clipPath id="0d0571411b"><path d="M 631.414062 35.59375 L 747.050781 235.953125 L 567.730469 339.449219 L 452.09375 139.089844 Z M 631.414062 35.59375 " clip-rule="nonzero"/></clipPath><clipPath id="68b8d9470a"><path d="M 631.414062 35.59375 L 747.050781 235.953125 L 567.730469 339.449219 L 452.09375 139.089844 Z M 631.414062 35.59375 " clip-rule="nonzero"/></clipPath><clipPath id="ca20f31bb0"><path d="M 631.414062 35.59375 L 747.050781 235.953125 L 567.730469 339.449219 L 452.09375 139.089844 Z M 631.414062 35.59375 " clip-rule="nonzero"/></clipPath><clipPath id="f62d1d317e"><path d="M 628 78 L 662 78 L 662 136 L 628 136 Z M 628 78 " clip-rule="nonzero"/></clipPath><clipPath id="fccde840c2"><path d="M 631.414062 35.59375 L 747.050781 235.953125 L 567.730469 339.449219 L 452.09375 139.089844 Z M 631.414062 35.59375 " clip-rule="nonzero"/></clipPath><clipPath id="f114cf82ae"><path d="M 631.414062 35.59375 L 747.050781 235.953125 L 567.730469 339.449219 L 452.09375 139.089844 Z M 631.414062 35.59375 " clip-rule="nonzero"/></clipPath><clipPath id="be9883d7f8"><path d="M 631.414062 35.59375 L 747.050781 235.953125 L 567.730469 339.449219 L 452.09375 139.089844 Z M 631.414062 35.59375 " clip-rule="nonzero"/></clipPath><clipPath id="ee57c71051"><path d="M 591 144 L 682 144 L 682 255 L 591 255 Z M 591 144 " clip-rule="nonzero"/></clipPath><clipPath id="18a1c097c5"><path d="M 631.414062 35.59375 L 747.050781 235.953125 L 567.730469 339.449219 L 452.09375 139.089844 Z M 631.414062 35.59375 " clip-rule="nonzero"/></clipPath><clipPath id="4477fa6569"><path d="M 631.414062 35.59375 L 747.050781 235.953125 L 567.730469 339.449219 L 452.09375 139.089844 Z M 631.414062 35.59375 " clip-rule="nonzero"/></clipPath><clipPath id="e08eacd22b"><path d="M 631.414062 35.59375 L 747.050781 235.953125 L 567.730469 339.449219 L 452.09375 139.089844 Z M 631.414062 35.59375 " clip-rule="nonzero"/></clipPath><clipPath id="5096b63f3d"><path d="M 570 79 L 613 79 L 613 149 L 570 149 Z M 570 79 " clip-rule="nonzero"/></clipPath><clipPath id="d002a7d06b"><path d="M 631.414062 35.59375 L 747.050781 235.953125 L 567.730469 339.449219 L 452.09375 139.089844 Z M 631.414062 35.59375 " clip-rule="nonzero"/></clipPath><clipPath id="a7862dd1b3"><path d="M 631.414062 35.59375 L 747.050781 235.953125 L 567.730469 339.449219 L 452.09375 139.089844 Z M 631.414062 35.59375 " clip-rule="nonzero"/></clipPath><clipPath id="5216f5c6f8"><path d="M 631.414062 35.59375 L 747.050781 235.953125 L 567.730469 339.449219 L 452.09375 139.089844 Z M 631.414062 35.59375 " clip-rule="nonzero"/></clipPath><clipPath id="7e594bc2f0"><path d="M 552 195 L 659 195 L 659 296 L 552 296 Z M 552 195 " clip-rule="nonzero"/></clipPath><clipPath id="9f1ce2f389"><path d="M 631.414062 35.59375 L 747.050781 235.953125 L 567.730469 339.449219 L 452.09375 139.089844 Z M 631.414062 35.59375 " clip-rule="nonzero"/></clipPath><clipPath id="7e2b5d0a6d"><path d="M 631.414062 35.59375 L 747.050781 235.953125 L 567.730469 339.449219 L 452.09375 139.089844 Z M 631.414062 35.59375 " clip-rule="nonzero"/></clipPath><clipPath id="be0f0c3f57"><path d="M 631.414062 35.59375 L 747.050781 235.953125 L 567.730469 339.449219 L 452.09375 139.089844 Z M 631.414062 35.59375 " clip-rule="nonzero"/></clipPath><clipPath id="da0967ff88"><path d="M 530 105 L 565 105 L 565 164 L 530 164 Z M 530 105 " clip-rule="nonzero"/></clipPath><clipPath id="a68cd3c0a4"><path d="M 631.414062 35.59375 L 747.050781 235.953125 L 567.730469 339.449219 L 452.09375 139.089844 Z M 631.414062 35.59375 " clip-rule="nonzero"/></clipPath><clipPath id="32be3e42b1"><path d="M 631.414062 35.59375 L 747.050781 235.953125 L 567.730469 339.449219 L 452.09375 139.089844 Z M 631.414062 35.59375 " clip-rule="nonzero"/></clipPath><clipPath id="bb2dffc201"><path d="M 631.414062 35.59375 L 747.050781 235.953125 L 567.730469 339.449219 L 452.09375 139.089844 Z M 631.414062 35.59375 " clip-rule="nonzero"/></clipPath><clipPath id="4f4819bf90"><path d="M 505 144 L 534 144 L 534 185 L 505 185 Z M 505 144 " clip-rule="nonzero"/></clipPath><clipPath id="dd15740c05"><path d="M 631.414062 35.59375 L 747.050781 235.953125 L 567.730469 339.449219 L 452.09375 139.089844 Z M 631.414062 35.59375 " clip-rule="nonzero"/></clipPath><clipPath id="b3122229ea"><path d="M 631.414062 35.59375 L 747.050781 235.953125 L 567.730469 339.449219 L 452.09375 139.089844 Z M 631.414062 35.59375 " clip-rule="nonzero"/></clipPath><clipPath id="85295e40fe"><path d="M 631.414062 35.59375 L 747.050781 235.953125 L 567.730469 339.449219 L 452.09375 139.089844 Z M 631.414062 35.59375 " clip-rule="nonzero"/></clipPath><clipPath id="8314e19008"><path d="M 0 0.117188 L 374.761719 0.117188 L 374.761719 374.878906 L 0 374.878906 Z M 0 0.117188 " clip-rule="nonzero"/></clipPath><clipPath id="aa814fe5c3"><path d="M 187.382812 0.117188 C 83.894531 0.117188 0 84.011719 0 187.5 C 0 290.988281 83.894531 374.882812 187.382812 374.882812 C 290.867188 374.882812 374.761719 290.988281 374.761719 187.5 C 374.761719 84.011719 290.867188 0.117188 187.382812 0.117188 Z M 187.382812 0.117188 " clip-rule="nonzero"/></clipPath><clipPath id="b29d740200"><path d="M 85 68 L 296 68 L 296 315 L 85 315 Z M 85 68 " clip-rule="nonzero"/></clipPath><clipPath id="84e1c8f517"><path d="M 242.230469 41.113281 L 337.300781 252.007812 L 155.929688 333.769531 L 60.859375 122.875 Z M 242.230469 41.113281 " clip-rule="nonzero"/></clipPath><clipPath id="a4632bd07b"><path d="M 242.230469 41.113281 L 337.300781 252.007812 L 155.929688 333.769531 L 60.859375 122.875 Z M 242.230469 41.113281 " clip-rule="nonzero"/></clipPath><clipPath id="1bbd0fa069"><path d="M 242.230469 41.113281 L 337.300781 252.007812 L 155.929688 333.769531 L 60.859375 122.875 Z M 242.230469 41.113281 " clip-rule="nonzero"/></clipPath><clipPath id="3bf457b95b"><path d="M 93 76 L 287 76 L 287 306 L 93 306 Z M 93 76 " clip-rule="nonzero"/></clipPath><clipPath id="dd17ba7de2"><path d="M 242.230469 41.113281 L 337.300781 252.007812 L 155.929688 333.769531 L 60.859375 122.875 Z M 242.230469 41.113281 " clip-rule="nonzero"/></clipPath><clipPath id="64304fc06d"><path d="M 242.230469 41.113281 L 337.300781 252.007812 L 155.929688 333.769531 L 60.859375 122.875 Z M 242.230469 41.113281 " clip-rule="nonzero"/></clipPath><clipPath id="e5d268b7d6"><path d="M 242.230469 41.113281 L 337.300781 252.007812 L 155.929688 333.769531 L 60.859375 122.875 Z M 242.230469 41.113281 " clip-rule="nonzero"/></clipPath><clipPath id="ca8dadcb3b"><path d="M 128 91 L 287 91 L 287 295 L 128 295 Z M 128 91 " clip-rule="nonzero"/></clipPath><clipPath id="b484159d41"><path d="M 242.230469 41.113281 L 337.300781 252.007812 L 155.929688 333.769531 L 60.859375 122.875 Z M 242.230469 41.113281 " clip-rule="nonzero"/></clipPath><clipPath id="ec3821c93f"><path d="M 242.230469 41.113281 L 337.300781 252.007812 L 155.929688 333.769531 L 60.859375 122.875 Z M 242.230469 41.113281 " clip-rule="nonzero"/></clipPath><clipPath id="7e91cf92b9"><path d="M 242.230469 41.113281 L 337.300781 252.007812 L 155.929688 333.769531 L 60.859375 122.875 Z M 242.230469 41.113281 " clip-rule="nonzero"/></clipPath><clipPath id="e4a1804637"><path d="M 182 80 L 203 80 L 203 170 L 182 170 Z M 182 80 " clip-rule="nonzero"/></clipPath><clipPath id="4d5aa260ff"><path d="M 242.230469 41.113281 L 337.300781 252.007812 L 155.929688 333.769531 L 60.859375 122.875 Z M 242.230469 41.113281 " clip-rule="nonzero"/></clipPath><clipPath id="b734988cdc"><path d="M 242.230469 41.113281 L 337.300781 252.007812 L 155.929688 333.769531 L 60.859375 122.875 Z M 242.230469 41.113281 " clip-rule="nonzero"/></clipPath><clipPath id="080c13e121"><path d="M 242.230469 41.113281 L 337.300781 252.007812 L 155.929688 333.769531 L 60.859375 122.875 Z M 242.230469 41.113281 " clip-rule="nonzero"/></clipPath><clipPath id="2775159262"><path d="M 135 98 L 163 98 L 163 179 L 135 179 Z M 135 98 " clip-rule="nonzero"/></clipPath><clipPath id="a623ad8951"><path d="M 242.230469 41.113281 L 337.300781 252.007812 L 155.929688 333.769531 L 60.859375 122.875 Z M 242.230469 41.113281 " clip-rule="nonzero"/></clipPath><clipPath id="3144a65202"><path d="M 242.230469 41.113281 L 337.300781 252.007812 L 155.929688 333.769531 L 60.859375 122.875 Z M 242.230469 41.113281 " clip-rule="nonzero"/></clipPath><clipPath id="73d81b59c7"><path d="M 242.230469 41.113281 L 337.300781 252.007812 L 155.929688 333.769531 L 60.859375 122.875 Z M 242.230469 41.113281 " clip-rule="nonzero"/></clipPath><clipPath id="cbc0a16e4c"><path d="M 97 135 L 131 135 L 131 203 L 97 203 Z M 97 135 " clip-rule="nonzero"/></clipPath><clipPath id="08784e8ab6"><path d="M 242.230469 41.113281 L 337.300781 252.007812 L 155.929688 333.769531 L 60.859375 122.875 Z M 242.230469 41.113281 " clip-rule="nonzero"/></clipPath><clipPath id="daf97bc7fd"><path d="M 242.230469 41.113281 L 337.300781 252.007812 L 155.929688 333.769531 L 60.859375 122.875 Z M 242.230469 41.113281 " clip-rule="nonzero"/></clipPath><clipPath id="87f1fb1415"><path d="M 242.230469 41.113281 L 337.300781 252.007812 L 155.929688 333.769531 L 60.859375 122.875 Z M 242.230469 41.113281 " clip-rule="nonzero"/></clipPath><clipPath id="473f40d107"><path d="M 376 164.101562 L 448.609375 164.101562 L 448.609375 265.546875 L 376 265.546875 Z M 376 164.101562 " clip-rule="nonzero"/></clipPath><clipPath id="9d63aae65f"><path d="M 347.429688 90.9375 L 435.945312 90.9375 L 435.945312 284.308594 L 347.429688 284.308594 Z M 347.429688 90.9375 " clip-rule="nonzero"/></clipPath></defs><g clip-path="url(#a95c7af3ba)"><g clip-path="url(#1ee5219dc7)"><path fill="#3a5dc4" d="M 412.238281 0.117188 L 787 0.117188 L 787 374.882812 L 412.238281 374.882812 Z M 412.238281 0.117188 " fill-opacity="1" fill-rule="nonzero"/></g></g><g clip-path="url(#56067929d4)"><g clip-path="url(#8ffff8e90e)"><g clip-path="url(#afa7aef5dc)"><g clip-path="url(#b8dc41cbb0)"><path fill="#232323" d="M 520.425781 108.941406 C 516.527344 113.152344 514.28125 118.132812 513.722656 123.839844 C 513.203125 127.5625 513.75 131.386719 513.097656 135.054688 C 503.570312 139.722656 496.449219 147.707031 491.582031 156.996094 C 488.769531 162.480469 487.816406 168.664062 489.28125 174.6875 C 491.644531 185 497.65625 192.949219 503.046875 201.484375 C 502.132812 212.027344 503.523438 222.089844 508.058594 231.714844 C 513.847656 246.019531 525.535156 257.285156 540.003906 262.597656 C 538.441406 269.8125 538.703125 277.070312 542.277344 283.675781 C 547.140625 293.609375 556.191406 299.910156 566.3125 303.730469 C 582.105469 309.507812 600.015625 309.296875 616.210938 305.296875 C 632.101562 301.34375 647.855469 293.246094 658.675781 280.75 C 665.945312 272.453125 670.914062 261.21875 669.421875 250.042969 C 669.121094 246.734375 667.351562 243.515625 667.359375 240.253906 C 677.132812 231.128906 684.71875 220.046875 689.820312 207.691406 C 695.390625 193.988281 695.511719 178.105469 690.269531 164.289062 C 686.449219 154.027344 679.1875 145.855469 670.226562 139.769531 C 673.5625 123.414062 669.226562 107.023438 663.054688 91.90625 C 659.855469 84.835938 655.058594 77.023438 648.183594 73.007812 C 640.625 68.171875 630.609375 67.351562 622.097656 69.832031 C 615.34375 72.019531 610.679688 76.761719 607.207031 82.753906 C 604.789062 79.003906 602.742188 75.480469 598.632812 73.351562 C 590.933594 69.152344 580.832031 69.789062 572.707031 72.328125 C 561.707031 75.859375 550.773438 84.066406 546.285156 94.972656 C 536.882812 97.242188 527.03125 101.71875 520.425781 108.941406 Z M 520.425781 108.941406 " fill-opacity="1" fill-rule="nonzero"/></g></g></g></g><g clip-path="url(#4415f16548)"><g clip-path="url(#9baa931483)"><g clip-path="url(#1ca90f32ec)"><g clip-path="url(#ea6061c8cb)"><path fill="#ababab" d="M 613.839844 100.398438 C 613.601562 113.113281 615.015625 125.921875 616.796875 138.492188 C 622.21875 137.074219 627.585938 135.597656 633.082031 134.5 C 638.785156 133.371094 644.558594 132.757812 650.367188 133.230469 C 654.109375 133.496094 657.933594 134.710938 661.609375 135.609375 C 662.589844 124.050781 659.9375 113.367188 656.742188 102.339844 C 654.925781 96.121094 652.042969 90.273438 647.96875 85.21875 C 645.066406 81.734375 641.0625 79.792969 636.714844 78.78125 C 631.089844 78.039062 624.6875 78.265625 620.242188 82.25 C 615.085938 86.773438 614.0625 93.917969 613.839844 100.398438 Z M 613.839844 100.398438 " fill-opacity="1" fill-rule="nonzero"/></g></g></g></g><g clip-path="url(#e351f4f184)"><g clip-path="url(#dacd0cbbbe)"><g clip-path="url(#44bb8a6d79)"><g clip-path="url(#1264cdcfb2)"><path fill="#ababab" d="M 554.800781 116.445312 C 557.929688 132.113281 564.019531 148.183594 575.40625 159.738281 C 578.828125 155.246094 582.824219 151.570312 587.328125 148.1875 C 594.738281 143.800781 604.1875 141.945312 612.433594 139.589844 C 609.304688 128.109375 606.351562 116.316406 605.199219 104.464844 C 604.734375 100.144531 605.28125 96.257812 603.496094 92.269531 C 601.753906 88.203125 599.027344 83.238281 594.9375 81.144531 C 589.050781 78.378906 582.257812 79.78125 576.246094 81.378906 C 569.285156 84.238281 561.808594 88.617188 557.367188 94.855469 C 553.179688 101.078125 553.484375 109.371094 554.800781 116.445312 Z M 554.800781 116.445312 " fill-opacity="1" fill-rule="nonzero"/></g></g></g></g><g clip-path="url(#2fc7752f2c)"><g clip-path="url(#e12fb8decf)"><g clip-path="url(#0b555da8b0)"><g clip-path="url(#511e9e2eda)"><path fill="#ababab" d="M 658.472656 249.972656 C 645.496094 258.871094 629.648438 262.660156 614.210938 259.027344 C 620.25 257.429688 626.320312 256.871094 632.152344 254.460938 C 645.976562 248.996094 657.722656 238.191406 666.117188 226.089844 C 672.328125 216.566406 678.742188 206.226562 680.96875 194.953125 C 682.9375 185.125 681.914062 174.457031 677.652344 165.34375 C 672.914062 155.589844 664.082031 147.980469 653.488281 145.351562 C 642.804688 142.824219 631.742188 146.292969 621.398438 148.867188 C 611.851562 151.472656 601.453125 153.234375 592.433594 157.269531 C 588.335938 159.242188 585.214844 162.1875 583.570312 166.472656 C 581.441406 171.375 582.84375 176.4375 585.40625 180.859375 C 588.414062 185.980469 593.46875 189.199219 598.835938 191.410156 C 608.105469 195.132812 618.246094 196.394531 628.15625 195.179688 C 635.890625 194.429688 642.882812 191.9375 650.285156 189.78125 C 645.554688 193.554688 640.429688 196.625 634.539062 198.214844 C 623.492188 201.320312 612.441406 205.875 602.960938 212.386719 C 596.574219 216.78125 591.492188 222.214844 585.601562 227.011719 C 586.574219 222.222656 587.023438 217.8125 589.796875 213.609375 C 592.730469 208.945312 596.910156 206.003906 601.390625 202.96875 C 595.71875 201.472656 590.445312 199.359375 585.746094 195.769531 C 582.496094 192.953125 579.789062 189.660156 577.1875 186.246094 C 571.800781 188.925781 566.589844 190.648438 560.542969 190.917969 C 557.160156 197.601562 552.464844 204.007812 546.5625 208.675781 C 541.488281 212.722656 534.695312 213.035156 528.476562 212.773438 C 523 212.550781 518.230469 210.675781 513.144531 208.867188 C 514.25 219.324219 517.476562 229.347656 523.191406 238.199219 C 528.800781 246.171875 536.988281 253.144531 546.382812 256.136719 C 555.125 258.839844 563.851562 259.261719 572.902344 259.722656 C 565.496094 264.464844 557.453125 265.003906 548.929688 264.742188 C 549.203125 270.683594 549.554688 276.15625 553.183594 281.179688 C 559.3125 289.945312 570.816406 294.636719 581.066406 296.28125 C 590.738281 297.796875 600.664062 297.574219 610.203125 295.242188 C 624.722656 292.683594 639.207031 285.785156 649.417969 275.023438 C 655.867188 268.183594 659.867188 259.523438 658.472656 249.972656 Z M 658.472656 249.972656 " fill-opacity="1" fill-rule="nonzero"/></g></g></g></g><g clip-path="url(#db46396ff7)"><g clip-path="url(#1a93891059)"><g clip-path="url(#3711729d87)"><g clip-path="url(#fa4561f540)"><path fill="#ababab" d="M 564.257812 161.769531 C 553.625 149.164062 547.675781 133.214844 544.933594 117.097656 C 544.261719 113.183594 544.382812 109.253906 543.953125 105.324219 C 539.816406 106.25 536.246094 108.238281 532.746094 110.546875 C 528.496094 113.71875 524.496094 116.992188 523.210938 122.375 C 521.636719 129.132812 522.496094 136.6875 524.140625 143.351562 C 526.207031 151.554688 528.820312 159.769531 532.535156 167.386719 C 535.496094 173.625 541.992188 176.332031 547.902344 179.046875 C 552.21875 180.882812 557.277344 183.058594 562.042969 182.945312 C 566.328125 182.863281 570.066406 180.554688 573.746094 178.621094 C 573.003906 175.351562 572.726562 171.886719 571.65625 168.71875 C 569.355469 166.238281 566.613281 164.195312 564.257812 161.769531 Z M 564.257812 161.769531 " fill-opacity="1" fill-rule="nonzero"/></g></g></g></g><g clip-path="url(#951de27850)"><g clip-path="url(#0d0571411b)"><g clip-path="url(#68b8d9470a)"><g clip-path="url(#ca20f31bb0)"><path fill="#ababab" d="M 521.089844 163.011719 C 518.519531 157.097656 517.046875 150.925781 515.105469 144.816406 C 511.222656 147.722656 507.960938 151.054688 505.039062 154.914062 C 501.550781 159.445312 497.738281 164.789062 498.699219 170.839844 C 499.726562 177.113281 503.417969 183.222656 506.660156 188.621094 C 511.597656 196.4375 519.21875 202.355469 528.566406 203.527344 C 532.871094 204.007812 538.460938 204.34375 542.070312 201.519531 C 546.332031 198.328125 549.789062 193.765625 552.746094 189.382812 C 546.09375 186.316406 539.410156 184.109375 533.101562 180.140625 C 526.71875 175.949219 524.105469 169.722656 521.089844 163.011719 Z M 521.089844 163.011719 " fill-opacity="1" fill-rule="nonzero"/></g></g></g></g><g clip-path="url(#f62d1d317e)"><g clip-path="url(#fccde840c2)"><g clip-path="url(#f114cf82ae)"><g clip-path="url(#be9883d7f8)"><path fill="#ffffff" d="M 633.082031 134.5 C 638.785156 133.371094 644.558594 132.757812 650.367188 133.230469 C 654.109375 133.496094 657.933594 134.710938 661.609375 135.609375 C 662.589844 124.050781 659.9375 113.367188 656.742188 102.339844 C 654.925781 96.121094 652.042969 90.273438 647.96875 85.21875 C 645.066406 81.734375 641.0625 79.792969 636.714844 78.78125 C 633.851562 81.339844 631.023438 83.246094 630 87.160156 C 626.058594 103.410156 628.914062 118.667969 633.082031 134.5 Z M 633.082031 134.5 " fill-opacity="1" fill-rule="nonzero"/></g></g></g></g><g clip-path="url(#ee57c71051)"><g clip-path="url(#18a1c097c5)"><g clip-path="url(#4477fa6569)"><g clip-path="url(#e08eacd22b)"><path fill="#ffffff" d="M 592.433594 157.269531 C 591.652344 161.695312 590.328125 166.296875 592.273438 170.621094 C 595.054688 176.6875 600.835938 179.941406 607.085938 181.480469 C 615.257812 183.40625 623.945312 183.523438 632.277344 182.765625 C 639.035156 182.171875 645.421875 180.308594 652.050781 179.125 C 654.964844 183.605469 656.289062 188.339844 653.117188 193.074219 C 644.800781 205.136719 627.355469 211 618.804688 222.980469 C 614.980469 228.242188 612.90625 234.613281 614.769531 241.046875 C 616.929688 248.804688 624.191406 254.1875 632.152344 254.460938 C 645.976562 248.996094 657.722656 238.191406 666.117188 226.089844 C 672.328125 216.566406 678.742188 206.226562 680.96875 194.953125 C 682.9375 185.125 681.914062 174.457031 677.652344 165.34375 C 672.914062 155.589844 664.082031 147.980469 653.488281 145.351562 C 642.804688 142.824219 631.742188 146.292969 621.398438 148.867188 C 611.851562 151.46875 601.453125 153.234375 592.433594 157.269531 Z M 592.433594 157.269531 " fill-opacity="1" fill-rule="nonzero"/></g></g></g></g><g clip-path="url(#5096b63f3d)"><g clip-path="url(#d002a7d06b)"><g clip-path="url(#a7862dd1b3)"><g clip-path="url(#5216f5c6f8)"><path fill="#ffffff" d="M 570.527344 99.949219 C 572.441406 117.398438 578.839844 132.976562 587.328125 148.1875 C 594.738281 143.800781 604.1875 141.945312 612.433594 139.589844 C 609.304688 128.109375 606.351562 116.316406 605.199219 104.464844 C 604.734375 100.144531 605.28125 96.257812 603.496094 92.269531 C 601.753906 88.203125 599.027344 83.238281 594.9375 81.144531 C 589.050781 78.378906 582.257812 79.78125 576.246094 81.378906 C 571.441406 87.144531 569.925781 92.523438 570.527344 99.949219 Z M 570.527344 99.949219 " fill-opacity="1" fill-rule="nonzero"/></g></g></g></g><g clip-path="url(#7e594bc2f0)"><g clip-path="url(#9f1ce2f389)"><g clip-path="url(#7e2b5d0a6d)"><g clip-path="url(#be0f0c3f57)"><path fill="#ffffff" d="M 587.457031 243.664062 C 584.234375 238.46875 584.289062 232.785156 585.601562 227.011719 C 586.574219 222.222656 587.023438 217.8125 589.796875 213.609375 C 592.730469 208.945312 596.910156 206.003906 601.390625 202.96875 C 595.71875 201.472656 590.445312 199.359375 585.746094 195.769531 C 577.757812 196.757812 570.410156 197.503906 563.804688 202.699219 C 551.535156 211.488281 549.441406 229.992188 557.332031 242.332031 C 562.433594 251.023438 571.003906 256.015625 580.8125 257.574219 C 577.609375 261.925781 574.34375 266.011719 574.273438 271.6875 C 574.265625 278.761719 579.160156 284.429688 584.878906 287.996094 C 592.621094 292.972656 601.324219 293.746094 610.203125 295.242188 C 624.722656 292.683594 639.207031 285.785156 649.417969 275.023438 C 655.867188 268.183594 659.867188 259.523438 658.472656 249.972656 C 645.496094 258.871094 629.648438 262.660156 614.210938 259.027344 C 604.113281 257.144531 592.949219 252.933594 587.457031 243.664062 Z M 587.457031 243.664062 " fill-opacity="1" fill-rule="nonzero"/></g></g></g></g><g clip-path="url(#da0967ff88)"><g clip-path="url(#a68cd3c0a4)"><g clip-path="url(#32be3e42b1)"><g clip-path="url(#bb2dffc201)"><path fill="#ffffff" d="M 550.054688 162.191406 C 554.925781 164.289062 559.382812 163.074219 564.257812 161.769531 C 553.625 149.164062 547.675781 133.214844 544.933594 117.097656 C 544.261719 113.183594 544.382812 109.253906 543.953125 105.324219 C 539.816406 106.25 536.246094 108.238281 532.746094 110.546875 C 529.480469 123.363281 530.285156 136.8125 536.816406 148.5 C 539.859375 153.773438 544.335938 159.65625 550.054688 162.191406 Z M 550.054688 162.191406 " fill-opacity="1" fill-rule="nonzero"/></g></g></g></g><g clip-path="url(#4f4819bf90)"><g clip-path="url(#dd15740c05)"><g clip-path="url(#b3122229ea)"><g clip-path="url(#85295e40fe)"><path fill="#ffffff" d="M 510.855469 173.609375 C 513.886719 178.4375 518.886719 183.855469 524.9375 184.351562 C 528.378906 184.691406 530.621094 182.074219 533.101562 180.140625 C 526.71875 175.949219 524.105469 169.722656 521.089844 163.011719 C 518.519531 157.097656 517.046875 150.925781 515.105469 144.816406 C 511.222656 147.722656 507.960938 151.054688 505.039062 154.914062 C 506.097656 161.5625 507.078125 167.824219 510.855469 173.609375 Z M 510.855469 173.609375 " fill-opacity="1" fill-rule="nonzero"/></g></g></g></g><g clip-path="url(#8314e19008)"><g clip-path="url(#aa814fe5c3)"><path fill="#84caed" d="M 0 0.117188 L 374.761719 0.117188 L 374.761719 374.882812 L 0 374.882812 Z M 0 0.117188 " fill-opacity="1" fill-rule="nonzero"/></g></g><g clip-path="url(#b29d740200)"><g clip-path="url(#84e1c8f517)"><g clip-path="url(#a4632bd07b)"><g clip-path="url(#1bbd0fa069)"><path fill="#232323" d="M 157.101562 99.542969 C 154.546875 93.363281 148.527344 89.351562 141.875 89.285156 C 135.359375 89.285156 129.78125 92.945312 125.925781 97.984375 C 121.011719 104.292969 119.253906 112.292969 119.160156 120.15625 C 119.164062 130.132812 121.039062 139.980469 123.417969 149.636719 C 120.496094 143.785156 117.890625 136.535156 113.03125 132.074219 C 109.355469 128.59375 104.035156 127.183594 99.1875 128.714844 C 93.039062 130.550781 88.53125 136.777344 86.730469 142.703125 C 84.226562 150.90625 84.988281 160.417969 86.617188 168.738281 C 88.363281 178.441406 93.054688 187.625 97.78125 196.222656 C 100.898438 202.074219 105.496094 206.566406 108.050781 212.738281 C 114.300781 225.183594 113.734375 238.328125 119.785156 250.71875 C 123.847656 258.722656 130.101562 265.003906 137.480469 269.996094 C 134.402344 276.554688 134.113281 284.128906 136.945312 290.835938 C 139.886719 298.179688 145.777344 303.703125 152.574219 307.492188 C 162.347656 312.765625 173.253906 314.621094 184.273438 314.183594 C 196.347656 313.632812 208.226562 310.164062 218.464844 303.699219 C 226.695312 298.371094 233.761719 290.914062 236.644531 281.351562 C 237.957031 277.375 238.023438 273.289062 237.464844 269.167969 C 242.671875 265.027344 246.515625 259.734375 249.871094 254.035156 C 253.777344 247.113281 255.386719 239.816406 258.136719 232.460938 C 261.203125 224.25 264.34375 215.96875 269.671875 208.933594 C 274.496094 200.847656 280.882812 194.207031 286.632812 186.839844 C 290.222656 181.78125 294.628906 176.214844 295.601562 169.953125 C 296.609375 163.671875 294.464844 157.011719 289.511719 152.898438 C 284.757812 148.847656 278.050781 148.082031 272.074219 149.007812 C 262.566406 150.535156 254 155.867188 246.933594 162.226562 C 243.34375 165.308594 240.519531 168.992188 237.628906 172.707031 C 239.792969 162.382812 242.324219 152.160156 245.832031 142.214844 C 249.84375 129.042969 254.9375 117.554688 257.304688 104.078125 C 258.3125 97.566406 256.691406 90.773438 251.1875 86.675781 C 247.011719 83.5625 241.457031 82.761719 236.539062 84.40625 C 229.203125 86.839844 223.597656 92.238281 219.445312 98.601562 C 214.46875 106.007812 211.609375 114.085938 208.445312 122.339844 C 208.933594 111.703125 211.074219 99.964844 209.875 89.335938 C 209.121094 82.507812 206.277344 75.324219 200.707031 71.015625 C 195.878906 67.378906 189.425781 67.390625 184.210938 70.191406 C 177.0625 73.9375 172.664062 81.339844 170.453125 88.886719 C 165.007812 106.121094 165.90625 125.679688 165.859375 143.589844 C 163.964844 135.472656 162.480469 127.234375 161.167969 119 C 160.101562 112.601562 159.488281 105.589844 157.101562 99.542969 Z M 157.101562 99.542969 " fill-opacity="1" fill-rule="nonzero"/></g></g></g></g><g clip-path="url(#3bf457b95b)"><g clip-path="url(#dd17ba7de2)"><g clip-path="url(#64304fc06d)"><g clip-path="url(#e5d268b7d6)"><path fill="#ababab" d="M 134.964844 174.839844 C 135.933594 179.113281 137.503906 182.777344 137.25 187.042969 C 132.734375 181.984375 129.644531 175.453125 126.492188 169.496094 C 122.878906 161.933594 119.1875 154.414062 115.316406 146.988281 C 113.296875 143.324219 110.84375 138.375 106.972656 136.414062 C 104.703125 135.226562 102.507812 135.738281 100.242188 136.605469 C 95.902344 139.730469 93.839844 144.449219 93.378906 149.664062 C 92.390625 161.066406 95.066406 173 99.859375 183.324219 C 103.078125 190.789062 106.910156 197.941406 110.933594 204.996094 C 113.65625 210.402344 116.851562 215.285156 118.65625 220.882812 C 122.230469 230.746094 123.238281 241.625 129.207031 250.5 C 133.140625 256.109375 138.511719 261.414062 144.863281 264.175781 C 151.621094 266.859375 159.230469 267.515625 166.351562 265.988281 C 171.308594 265.023438 175.601562 262.820312 180.453125 261.460938 C 177.160156 266.957031 170.835938 270.683594 164.886719 272.582031 C 158.128906 274.710938 151.261719 274.398438 144.375 273.164062 C 143.566406 277.972656 143.039062 282.53125 144.972656 287.191406 C 148.222656 294.945312 155.671875 299.792969 163.34375 302.445312 C 175.019531 306.429688 188.359375 305.917969 200.023438 302.242188 C 208.953125 299.226562 217.414062 294.679688 223.167969 287.003906 C 226.230469 283.445312 227.804688 279.128906 228.597656 274.546875 C 222.230469 276.304688 216.503906 278.105469 209.832031 276.640625 C 206.835938 276.023438 204.15625 274.5625 201.765625 272.683594 C 211.730469 272.046875 221.078125 270.464844 229.507812 264.6875 C 234.851562 260.925781 238.269531 255.816406 241.421875 250.207031 C 245.539062 242.648438 247.234375 233.898438 250.746094 225.855469 C 254.355469 216.882812 259.257812 208.640625 264.792969 200.742188 C 271.070312 190.515625 279.648438 182.929688 285.351562 172.402344 C 286.847656 169.566406 287.078125 166.699219 286.316406 163.601562 C 285.214844 161.199219 283.714844 159.199219 281.121094 158.355469 C 275.757812 156.546875 269.324219 158.308594 264.359375 160.546875 C 253.664062 165.84375 244.601562 174.578125 239.527344 185.457031 C 237.082031 190.445312 234.882812 195.925781 230.765625 199.796875 C 229.117188 201.292969 227.359375 203.246094 225.195312 203.882812 C 221.875 204.9375 218.40625 205.453125 215.0625 206.433594 C 202.59375 210.019531 190.972656 215.703125 182.050781 225.328125 C 185.0625 217.898438 190.335938 211.746094 196.878906 207.1875 C 205.167969 200.929688 214.902344 197.398438 225.171875 196.226562 C 225.558594 185.574219 228.699219 174.863281 230.851562 164.417969 C 233.542969 151.335938 237.910156 138.847656 242.042969 126.183594 C 244.726562 119.132812 246.925781 111.949219 248.660156 104.605469 C 249.3125 101.671875 249.625 98.089844 248.058594 95.382812 C 246.761719 93.363281 244.804688 92.53125 242.652344 91.726562 C 235.96875 91.925781 230.902344 95.847656 226.773438 100.753906 C 221.210938 107.566406 217.445312 116.378906 214.1875 124.496094 C 208.078125 140.457031 204.976562 156.914062 201.261719 173.496094 C 200.257812 173.265625 199.253906 173.039062 198.25 172.800781 C 198.378906 168.75 198.835938 164.726562 199.425781 160.714844 C 199.96875 158.171875 200.472656 155.605469 200.839844 153.03125 C 201.492188 148.511719 201.1875 143.964844 201.675781 139.402344 C 203.011719 127.917969 202.871094 115.984375 202.917969 104.367188 C 202.746094 96.136719 202.902344 87.824219 198.34375 80.605469 C 196.703125 78.664062 195.054688 76.65625 192.339844 76.464844 C 187.890625 76.132812 184.210938 79.078125 181.550781 82.339844 C 177.308594 87.582031 175.429688 95.136719 173.929688 101.609375 C 171.460938 113.625 170.898438 126.097656 170.433594 138.332031 C 170.234375 145.691406 169.957031 153.03125 170.140625 160.402344 C 170.199219 165.039062 170.582031 169.53125 170.125 174.171875 C 165.726562 170.875 164.382812 163.632812 162.609375 158.652344 C 158.296875 142.652344 154.398438 126.5625 151.425781 110.265625 C 150.355469 105.796875 149.371094 100.25 144.621094 98.269531 C 142.410156 97.792969 140.261719 97.59375 138.128906 98.527344 C 133.359375 100.578125 129.957031 105.507812 128.304688 110.300781 C 125.9375 117.191406 126.148438 125.238281 126.664062 132.441406 C 127.757812 147.117188 131.464844 160.554688 134.964844 174.839844 Z M 194.367188 176.722656 C 199.277344 177.207031 205.105469 178.269531 208.0625 182.6875 C 203.105469 181.746094 198.117188 181.457031 193.082031 181.785156 C 180.628906 182.714844 168.195312 185.882812 156.578125 190.402344 C 151.90625 192.265625 147.21875 193.707031 142.867188 196.285156 C 141.652344 196.808594 140.425781 197.285156 139.179688 197.746094 C 143.808594 192.464844 149.84375 188.421875 156.035156 185.199219 C 167.6875 179.253906 181.222656 175.839844 194.367188 176.722656 Z M 194.367188 176.722656 " fill-opacity="1" fill-rule="nonzero"/></g></g></g></g><g clip-path="url(#ca8dadcb3b)"><g clip-path="url(#b484159d41)"><g clip-path="url(#ec3821c93f)"><g clip-path="url(#7e91cf92b9)"><path fill="#ffffff" d="M 215.507812 146.546875 C 214.652344 153.042969 213.796875 159.253906 214.472656 165.828125 C 214.964844 172.304688 217.535156 178.25 218.066406 184.726562 C 214.636719 184.453125 211.382812 183.515625 208.0625 182.6875 C 203.105469 181.746094 198.117188 181.457031 193.082031 181.785156 C 180.628906 182.714844 168.195312 185.882812 156.578125 190.402344 C 151.90625 192.265625 147.21875 193.707031 142.867188 196.285156 C 139.03125 198.699219 135.390625 200.6875 132.832031 204.554688 C 128.074219 211.421875 127.867188 220.992188 130.324219 228.746094 C 132.910156 235.914062 135.925781 242.578125 141.484375 247.957031 C 147.339844 253.902344 154.9375 257.808594 163.449219 256.898438 C 172.445312 255.703125 180.394531 251.339844 187.640625 246.101562 C 186.335938 251.808594 183.375 256.492188 180.453125 261.460938 C 177.160156 266.957031 170.835938 270.683594 164.886719 272.582031 C 165.449219 275.925781 166.027344 279.070312 167.925781 281.96875 C 171.503906 287.46875 177.300781 290.910156 183.507812 292.65625 C 190.171875 294.511719 197.535156 295.503906 204.402344 294.425781 C 210.859375 293.492188 217.0625 289.574219 223.167969 287.003906 C 226.230469 283.445312 227.804688 279.128906 228.597656 274.546875 C 222.230469 276.304688 216.503906 278.105469 209.832031 276.640625 C 206.835938 276.023438 204.15625 274.5625 201.765625 272.683594 C 198.132812 269.574219 194.796875 266.523438 193.300781 261.796875 C 192.160156 258.511719 192.554688 255.328125 193.105469 251.984375 C 196.332031 254.578125 199.195312 257.546875 203.375 258.480469 C 210.210938 260.035156 217.539062 257.476562 222.957031 253.3125 C 228.324219 249.101562 231.265625 243.351562 233.808594 237.171875 C 236.085938 231.46875 239.054688 226.089844 241.410156 220.410156 C 243.433594 215.605469 245.21875 210.863281 248.011719 206.421875 C 255.238281 194.21875 268.085938 184.507812 278.304688 174.804688 C 281.707031 171.53125 283.882812 167.578125 286.316406 163.601562 C 285.214844 161.199219 283.714844 159.199219 281.121094 158.355469 C 275.757812 156.546875 269.324219 158.308594 264.359375 160.546875 C 253.664062 165.84375 244.601562 174.578125 239.527344 185.457031 C 237.082031 190.445312 234.882812 195.925781 230.765625 199.796875 C 229.117188 201.292969 227.359375 203.246094 225.195312 203.882812 C 221.875 204.9375 218.40625 205.453125 215.0625 206.433594 C 202.59375 210.019531 190.972656 215.703125 182.050781 225.328125 C 185.0625 217.898438 190.335938 211.746094 196.878906 207.1875 C 205.167969 200.929688 214.902344 197.398438 225.171875 196.226562 C 225.558594 185.574219 228.699219 174.863281 230.851562 164.417969 C 233.542969 151.335938 237.910156 138.847656 242.042969 126.183594 C 244.726562 119.132812 246.925781 111.949219 248.660156 104.605469 C 249.3125 101.671875 249.625 98.089844 248.058594 95.382812 C 246.761719 93.363281 244.804688 92.53125 242.652344 91.726562 C 236.246094 95.574219 232.230469 101.421875 228.6875 107.8125 C 222.152344 119.933594 217.390625 132.863281 215.507812 146.546875 Z M 180.378906 213.253906 C 179.234375 215.058594 177.996094 216.777344 176.742188 218.5 C 171.503906 214.6875 166.082031 211.28125 160.035156 208.910156 C 156.234375 207.394531 152.394531 206.558594 148.503906 205.347656 C 153.097656 204.160156 157.617188 203.835938 162.316406 204.515625 C 169.296875 205.535156 175.871094 207.394531 180.378906 213.253906 Z M 180.378906 213.253906 " fill-opacity="1" fill-rule="nonzero"/></g></g></g></g><g clip-path="url(#e4a1804637)"><g clip-path="url(#4d5aa260ff)"><g clip-path="url(#b734988cdc)"><g clip-path="url(#080c13e121)"><path fill="#ffffff" d="M 188.960938 83.25 C 184.605469 89.492188 184.054688 98.453125 183.359375 105.824219 C 182.089844 121.429688 181.894531 137.28125 183.699219 152.855469 C 184.398438 158.507812 185.347656 164.078125 187.492188 169.40625 C 192.90625 168.082031 196.246094 165.101562 199.425781 160.714844 C 199.96875 158.171875 200.472656 155.605469 200.839844 153.03125 C 201.492188 148.511719 201.1875 143.964844 201.675781 139.402344 C 203.011719 127.917969 202.871094 115.984375 202.917969 104.367188 C 202.746094 96.136719 202.902344 87.824219 198.34375 80.605469 C 194.851562 80.707031 191.230469 79.851562 188.960938 83.25 Z M 188.960938 83.25 " fill-opacity="1" fill-rule="nonzero"/></g></g></g></g><g clip-path="url(#2775159262)"><g clip-path="url(#a623ad8951)"><g clip-path="url(#3144a65202)"><g clip-path="url(#73d81b59c7)"><path fill="#ffffff" d="M 135.125 121.761719 C 135.167969 130.660156 136.761719 139.1875 138.65625 147.835938 C 140.753906 157.050781 143.6875 166.152344 147.679688 174.722656 C 148.492188 176.152344 149.320312 178.460938 151.207031 178.652344 C 154.699219 179.242188 157.484375 176.761719 159.210938 174.003906 C 161.859375 169.628906 162.300781 163.660156 162.609375 158.652344 C 158.296875 142.652344 154.398438 126.5625 151.425781 110.265625 C 150.355469 105.796875 149.371094 100.25 144.621094 98.269531 C 141.566406 100.707031 138.433594 102.84375 136.855469 106.5625 C 134.933594 111.121094 135.121094 116.878906 135.125 121.761719 Z M 135.125 121.761719 " fill-opacity="1" fill-rule="nonzero"/></g></g></g></g><g clip-path="url(#cbc0a16e4c)"><g clip-path="url(#08784e8ab6)"><g clip-path="url(#daf97bc7fd)"><g clip-path="url(#87f1fb1415)"><path fill="#ffffff" d="M 110.203125 190.328125 C 112.269531 194.015625 114.085938 198.007812 116.660156 201.375 C 117.5625 203.066406 119.996094 202.144531 121.414062 201.707031 C 125.867188 199.820312 128.730469 194.617188 129.851562 190.117188 C 131.628906 182.832031 129.597656 176.101562 126.492188 169.496094 C 122.878906 161.933594 119.1875 154.414062 115.316406 146.988281 C 113.296875 143.324219 110.84375 138.375 106.972656 136.414062 C 104.703125 135.226562 102.507812 135.738281 100.242188 136.605469 C 98.925781 141.503906 97.664062 146.269531 97.929688 151.402344 C 98.082031 165.503906 103.820312 178.042969 110.203125 190.328125 Z M 110.203125 190.328125 " fill-opacity="1" fill-rule="nonzero"/></g></g></g></g><g clip-path="url(#473f40d107)"><path fill="#000000" d="M 447.632812 193.378906 C 450.742188 178.371094 447.3125 164.140625 424.414062 164.140625 C 419.617188 164.140625 415.230469 164.808594 411.292969 166.0625 L 391.304688 210.996094 C 394.179688 214.980469 398.808594 218.535156 405.402344 222.347656 C 415.671875 228.238281 418.214844 232.214844 416.730469 238.980469 C 415.511719 244.53125 412.441406 248.921875 405.886719 248.921875 C 399.140625 248.921875 398.058594 243.398438 399.25 235.371094 L 376.964844 235.371094 C 373.800781 251.964844 378.121094 265.507812 402.019531 265.507812 C 424.078125 265.507812 436.402344 252.632812 439.949219 236.480469 C 443.558594 220.046875 437.519531 212.332031 421.308594 203.210938 C 411.785156 197.902344 410.226562 195.011719 411.457031 189.414062 C 412.648438 183.960938 415.609375 180.722656 420.632812 180.722656 C 427.042969 180.722656 427.015625 186.574219 425.898438 193.378906 L 447.632812 193.378906 " fill-opacity="1" fill-rule="nonzero"/></g><g clip-path="url(#9d63aae65f)"><path fill="#000000" d="M 435.726562 90.9375 C 427.644531 106.664062 419.804688 122.515625 412.207031 138.480469 L 391.707031 138.480469 L 380.652344 167.664062 C 375.925781 180.050781 370.617188 193.183594 367.046875 204.832031 L 366.398438 204.832031 C 367.867188 193.546875 369 179.910156 369.648438 167.382812 L 371.554688 138.828125 L 347.617188 138.828125 L 347.429688 227.128906 L 372.96875 227.128906 C 365.203125 246.058594 357.765625 265.121094 350.660156 284.308594 C 382.835938 221.625 411.285156 157.03125 435.726562 90.9375 " fill-opacity="1" fill-rule="nonzero"/></g><g fill="#ffffff" fill-opacity="1"><g transform="translate(137.532985, 48.229981)"><g><path d="M 13.125 -10.46875 C 13.125 -9.570312 12.914062 -8.753906 12.5 -8.015625 C 12.09375 -7.273438 11.460938 -6.675781 10.609375 -6.21875 C 9.765625 -5.769531 8.710938 -5.546875 7.453125 -5.546875 L 5.125 -5.546875 L 5.125 0 L 1.359375 0 L 1.359375 -15.4375 L 7.453125 -15.4375 C 8.679688 -15.4375 9.71875 -15.222656 10.5625 -14.796875 C 11.414062 -14.367188 12.054688 -13.78125 12.484375 -13.03125 C 12.910156 -12.289062 13.125 -11.4375 13.125 -10.46875 Z M 7.171875 -8.53125 C 7.890625 -8.53125 8.421875 -8.695312 8.765625 -9.03125 C 9.117188 -9.375 9.296875 -9.851562 9.296875 -10.46875 C 9.296875 -11.082031 9.117188 -11.554688 8.765625 -11.890625 C 8.421875 -12.234375 7.890625 -12.40625 7.171875 -12.40625 L 5.125 -12.40625 L 5.125 -8.53125 Z M 7.171875 -8.53125 "/></g></g></g><g fill="#ffffff" fill-opacity="1"><g transform="translate(151.249826, 48.229981)"><g><path d="M 12.921875 -6.328125 C 12.921875 -5.972656 12.898438 -5.609375 12.859375 -5.234375 L 4.359375 -5.234375 C 4.410156 -4.472656 4.648438 -3.890625 5.078125 -3.484375 C 5.515625 -3.078125 6.050781 -2.875 6.6875 -2.875 C 7.625 -2.875 8.273438 -3.269531 8.640625 -4.0625 L 12.640625 -4.0625 C 12.429688 -3.257812 12.0625 -2.535156 11.53125 -1.890625 C 11 -1.242188 10.328125 -0.738281 9.515625 -0.375 C 8.710938 -0.0078125 7.8125 0.171875 6.8125 0.171875 C 5.613281 0.171875 4.546875 -0.0820312 3.609375 -0.59375 C 2.671875 -1.101562 1.9375 -1.832031 1.40625 -2.78125 C 0.875 -3.738281 0.609375 -4.859375 0.609375 -6.140625 C 0.609375 -7.410156 0.867188 -8.519531 1.390625 -9.46875 C 1.910156 -10.425781 2.640625 -11.160156 3.578125 -11.671875 C 4.515625 -12.179688 5.59375 -12.4375 6.8125 -12.4375 C 8 -12.4375 9.050781 -12.1875 9.96875 -11.6875 C 10.894531 -11.195312 11.617188 -10.488281 12.140625 -9.5625 C 12.660156 -8.632812 12.921875 -7.554688 12.921875 -6.328125 Z M 9.078125 -7.328125 C 9.078125 -7.960938 8.859375 -8.472656 8.421875 -8.859375 C 7.984375 -9.242188 7.429688 -9.4375 6.765625 -9.4375 C 6.140625 -9.4375 5.609375 -9.25 5.171875 -8.875 C 4.742188 -8.507812 4.476562 -7.992188 4.375 -7.328125 Z M 9.078125 -7.328125 "/></g></g></g><g fill="#ffffff" fill-opacity="1"><g transform="translate(164.790815, 48.229981)"><g><path d="M 17.015625 -12.40625 C 18.535156 -12.40625 19.742188 -11.941406 20.640625 -11.015625 C 21.546875 -10.085938 22 -8.804688 22 -7.171875 L 22 0 L 18.265625 0 L 18.265625 -6.65625 C 18.265625 -7.445312 18.054688 -8.054688 17.640625 -8.484375 C 17.222656 -8.921875 16.648438 -9.140625 15.921875 -9.140625 C 15.179688 -9.140625 14.601562 -8.921875 14.1875 -8.484375 C 13.769531 -8.054688 13.5625 -7.445312 13.5625 -6.65625 L 13.5625 0 L 9.828125 0 L 9.828125 -6.65625 C 9.828125 -7.445312 9.617188 -8.054688 9.203125 -8.484375 C 8.785156 -8.921875 8.207031 -9.140625 7.46875 -9.140625 C 6.738281 -9.140625 6.164062 -8.921875 5.75 -8.484375 C 5.332031 -8.054688 5.125 -7.445312 5.125 -6.65625 L 5.125 0 L 1.359375 0 L 1.359375 -12.265625 L 5.125 -12.265625 L 5.125 -10.734375 C 5.5 -11.242188 5.992188 -11.648438 6.609375 -11.953125 C 7.234375 -12.253906 7.929688 -12.40625 8.703125 -12.40625 C 9.628906 -12.40625 10.453125 -12.207031 11.171875 -11.8125 C 11.898438 -11.414062 12.472656 -10.847656 12.890625 -10.109375 C 13.304688 -10.785156 13.878906 -11.335938 14.609375 -11.765625 C 15.347656 -12.191406 16.148438 -12.40625 17.015625 -12.40625 Z M 17.015625 -12.40625 "/></g></g></g><g fill="#ffffff" fill-opacity="1"><g transform="translate(188.069888, 48.229981)"><g><path d="M 0.609375 -6.15625 C 0.609375 -7.414062 0.847656 -8.519531 1.328125 -9.46875 C 1.804688 -10.425781 2.453125 -11.160156 3.265625 -11.671875 C 4.085938 -12.179688 5.007812 -12.4375 6.03125 -12.4375 C 6.894531 -12.4375 7.648438 -12.257812 8.296875 -11.90625 C 8.953125 -11.5625 9.457031 -11.101562 9.8125 -10.53125 L 9.8125 -12.265625 L 13.5625 -12.265625 L 13.5625 0 L 9.8125 0 L 9.8125 -1.734375 C 9.4375 -1.160156 8.921875 -0.695312 8.265625 -0.34375 C 7.617188 0 6.863281 0.171875 6 0.171875 C 5 0.171875 4.085938 -0.0859375 3.265625 -0.609375 C 2.453125 -1.128906 1.804688 -1.867188 1.328125 -2.828125 C 0.847656 -3.785156 0.609375 -4.894531 0.609375 -6.15625 Z M 9.8125 -6.140625 C 9.8125 -7.078125 9.550781 -7.816406 9.03125 -8.359375 C 8.507812 -8.898438 7.875 -9.171875 7.125 -9.171875 C 6.375 -9.171875 5.738281 -8.898438 5.21875 -8.359375 C 4.695312 -7.828125 4.4375 -7.09375 4.4375 -6.15625 C 4.4375 -5.21875 4.695312 -4.472656 5.21875 -3.921875 C 5.738281 -3.367188 6.375 -3.09375 7.125 -3.09375 C 7.875 -3.09375 8.507812 -3.363281 9.03125 -3.90625 C 9.550781 -4.457031 9.8125 -5.203125 9.8125 -6.140625 Z M 9.8125 -6.140625 "/></g></g></g><g fill="#ffffff" fill-opacity="1"><g transform="translate(202.995751, 48.229981)"><g><path d="M 3.25 -13.546875 C 2.59375 -13.546875 2.054688 -13.738281 1.640625 -14.125 C 1.222656 -14.507812 1.015625 -14.988281 1.015625 -15.5625 C 1.015625 -16.144531 1.222656 -16.628906 1.640625 -17.015625 C 2.054688 -17.410156 2.59375 -17.609375 3.25 -17.609375 C 3.894531 -17.609375 4.425781 -17.410156 4.84375 -17.015625 C 5.257812 -16.628906 5.46875 -16.144531 5.46875 -15.5625 C 5.46875 -14.988281 5.257812 -14.507812 4.84375 -14.125 C 4.425781 -13.738281 3.894531 -13.546875 3.25 -13.546875 Z M 5.125 -12.265625 L 5.125 0 L 1.359375 0 L 1.359375 -12.265625 Z M 5.125 -12.265625 "/></g></g></g><g fill="#ffffff" fill-opacity="1"><g transform="translate(209.48048, 48.229981)"><g><path d="M 8.84375 -12.40625 C 10.269531 -12.40625 11.410156 -11.9375 12.265625 -11 C 13.128906 -10.070312 13.5625 -8.796875 13.5625 -7.171875 L 13.5625 0 L 9.828125 0 L 9.828125 -6.65625 C 9.828125 -7.476562 9.613281 -8.113281 9.1875 -8.5625 C 8.757812 -9.019531 8.1875 -9.25 7.46875 -9.25 C 6.75 -9.25 6.175781 -9.019531 5.75 -8.5625 C 5.332031 -8.113281 5.125 -7.476562 5.125 -6.65625 L 5.125 0 L 1.359375 0 L 1.359375 -12.265625 L 5.125 -12.265625 L 5.125 -10.640625 C 5.5 -11.179688 6.007812 -11.609375 6.65625 -11.921875 C 7.300781 -12.242188 8.03125 -12.40625 8.84375 -12.40625 Z M 8.84375 -12.40625 "/></g></g></g><g fill="#ffffff" fill-opacity="1"><g transform="translate(224.296435, 48.229981)"><g/></g></g><g fill="#ffffff" fill-opacity="1"><g transform="translate(228.956646, 48.229981)"><g><path d="M 0.59375 -12.546875 L 0.59375 -16.046875 L 6.6875 -16.046875 L 6.6875 0 L 2.765625 0 L 2.765625 -12.546875 Z M 0.59375 -12.546875 "/></g></g></g><g fill="#ffffff" fill-opacity="1"><g transform="translate(547.630403, 48.229981)"><g><path d="M 13.125 -10.46875 C 13.125 -9.570312 12.914062 -8.753906 12.5 -8.015625 C 12.09375 -7.273438 11.460938 -6.675781 10.609375 -6.21875 C 9.765625 -5.769531 8.710938 -5.546875 7.453125 -5.546875 L 5.125 -5.546875 L 5.125 0 L 1.359375 0 L 1.359375 -15.4375 L 7.453125 -15.4375 C 8.679688 -15.4375 9.71875 -15.222656 10.5625 -14.796875 C 11.414062 -14.367188 12.054688 -13.78125 12.484375 -13.03125 C 12.910156 -12.289062 13.125 -11.4375 13.125 -10.46875 Z M 7.171875 -8.53125 C 7.890625 -8.53125 8.421875 -8.695312 8.765625 -9.03125 C 9.117188 -9.375 9.296875 -9.851562 9.296875 -10.46875 C 9.296875 -11.082031 9.117188 -11.554688 8.765625 -11.890625 C 8.421875 -12.234375 7.890625 -12.40625 7.171875 -12.40625 L 5.125 -12.40625 L 5.125 -8.53125 Z M 7.171875 -8.53125 "/></g></g></g><g fill="#ffffff" fill-opacity="1"><g transform="translate(561.347245, 48.229981)"><g><path d="M 12.921875 -6.328125 C 12.921875 -5.972656 12.898438 -5.609375 12.859375 -5.234375 L 4.359375 -5.234375 C 4.410156 -4.472656 4.648438 -3.890625 5.078125 -3.484375 C 5.515625 -3.078125 6.050781 -2.875 6.6875 -2.875 C 7.625 -2.875 8.273438 -3.269531 8.640625 -4.0625 L 12.640625 -4.0625 C 12.429688 -3.257812 12.0625 -2.535156 11.53125 -1.890625 C 11 -1.242188 10.328125 -0.738281 9.515625 -0.375 C 8.710938 -0.0078125 7.8125 0.171875 6.8125 0.171875 C 5.613281 0.171875 4.546875 -0.0820312 3.609375 -0.59375 C 2.671875 -1.101562 1.9375 -1.832031 1.40625 -2.78125 C 0.875 -3.738281 0.609375 -4.859375 0.609375 -6.140625 C 0.609375 -7.410156 0.867188 -8.519531 1.390625 -9.46875 C 1.910156 -10.425781 2.640625 -11.160156 3.578125 -11.671875 C 4.515625 -12.179688 5.59375 -12.4375 6.8125 -12.4375 C 8 -12.4375 9.050781 -12.1875 9.96875 -11.6875 C 10.894531 -11.195312 11.617188 -10.488281 12.140625 -9.5625 C 12.660156 -8.632812 12.921875 -7.554688 12.921875 -6.328125 Z M 9.078125 -7.328125 C 9.078125 -7.960938 8.859375 -8.472656 8.421875 -8.859375 C 7.984375 -9.242188 7.429688 -9.4375 6.765625 -9.4375 C 6.140625 -9.4375 5.609375 -9.25 5.171875 -8.875 C 4.742188 -8.507812 4.476562 -7.992188 4.375 -7.328125 Z M 9.078125 -7.328125 "/></g></g></g><g fill="#ffffff" fill-opacity="1"><g transform="translate(574.888234, 48.229981)"><g><path d="M 17.015625 -12.40625 C 18.535156 -12.40625 19.742188 -11.941406 20.640625 -11.015625 C 21.546875 -10.085938 22 -8.804688 22 -7.171875 L 22 0 L 18.265625 0 L 18.265625 -6.65625 C 18.265625 -7.445312 18.054688 -8.054688 17.640625 -8.484375 C 17.222656 -8.921875 16.648438 -9.140625 15.921875 -9.140625 C 15.179688 -9.140625 14.601562 -8.921875 14.1875 -8.484375 C 13.769531 -8.054688 13.5625 -7.445312 13.5625 -6.65625 L 13.5625 0 L 9.828125 0 L 9.828125 -6.65625 C 9.828125 -7.445312 9.617188 -8.054688 9.203125 -8.484375 C 8.785156 -8.921875 8.207031 -9.140625 7.46875 -9.140625 C 6.738281 -9.140625 6.164062 -8.921875 5.75 -8.484375 C 5.332031 -8.054688 5.125 -7.445312 5.125 -6.65625 L 5.125 0 L 1.359375 0 L 1.359375 -12.265625 L 5.125 -12.265625 L 5.125 -10.734375 C 5.5 -11.242188 5.992188 -11.648438 6.609375 -11.953125 C 7.234375 -12.253906 7.929688 -12.40625 8.703125 -12.40625 C 9.628906 -12.40625 10.453125 -12.207031 11.171875 -11.8125 C 11.898438 -11.414062 12.472656 -10.847656 12.890625 -10.109375 C 13.304688 -10.785156 13.878906 -11.335938 14.609375 -11.765625 C 15.347656 -12.191406 16.148438 -12.40625 17.015625 -12.40625 Z M 17.015625 -12.40625 "/></g></g></g><g fill="#ffffff" fill-opacity="1"><g transform="translate(598.167307, 48.229981)"><g><path d="M 0.609375 -6.15625 C 0.609375 -7.414062 0.847656 -8.519531 1.328125 -9.46875 C 1.804688 -10.425781 2.453125 -11.160156 3.265625 -11.671875 C 4.085938 -12.179688 5.007812 -12.4375 6.03125 -12.4375 C 6.894531 -12.4375 7.648438 -12.257812 8.296875 -11.90625 C 8.953125 -11.5625 9.457031 -11.101562 9.8125 -10.53125 L 9.8125 -12.265625 L 13.5625 -12.265625 L 13.5625 0 L 9.8125 0 L 9.8125 -1.734375 C 9.4375 -1.160156 8.921875 -0.695312 8.265625 -0.34375 C 7.617188 0 6.863281 0.171875 6 0.171875 C 5 0.171875 4.085938 -0.0859375 3.265625 -0.609375 C 2.453125 -1.128906 1.804688 -1.867188 1.328125 -2.828125 C 0.847656 -3.785156 0.609375 -4.894531 0.609375 -6.15625 Z M 9.8125 -6.140625 C 9.8125 -7.078125 9.550781 -7.816406 9.03125 -8.359375 C 8.507812 -8.898438 7.875 -9.171875 7.125 -9.171875 C 6.375 -9.171875 5.738281 -8.898438 5.21875 -8.359375 C 4.695312 -7.828125 4.4375 -7.09375 4.4375 -6.15625 C 4.4375 -5.21875 4.695312 -4.472656 5.21875 -3.921875 C 5.738281 -3.367188 6.375 -3.09375 7.125 -3.09375 C 7.875 -3.09375 8.507812 -3.363281 9.03125 -3.90625 C 9.550781 -4.457031 9.8125 -5.203125 9.8125 -6.140625 Z M 9.8125 -6.140625 "/></g></g></g><g fill="#ffffff" fill-opacity="1"><g transform="translate(613.09317, 48.229981)"><g><path d="M 3.25 -13.546875 C 2.59375 -13.546875 2.054688 -13.738281 1.640625 -14.125 C 1.222656 -14.507812 1.015625 -14.988281 1.015625 -15.5625 C 1.015625 -16.144531 1.222656 -16.628906 1.640625 -17.015625 C 2.054688 -17.410156 2.59375 -17.609375 3.25 -17.609375 C 3.894531 -17.609375 4.425781 -17.410156 4.84375 -17.015625 C 5.257812 -16.628906 5.46875 -16.144531 5.46875 -15.5625 C 5.46875 -14.988281 5.257812 -14.507812 4.84375 -14.125 C 4.425781 -13.738281 3.894531 -13.546875 3.25 -13.546875 Z M 5.125 -12.265625 L 5.125 0 L 1.359375 0 L 1.359375 -12.265625 Z M 5.125 -12.265625 "/></g></g></g><g fill="#ffffff" fill-opacity="1"><g transform="translate(619.577898, 48.229981)"><g><path d="M 8.84375 -12.40625 C 10.269531 -12.40625 11.410156 -11.9375 12.265625 -11 C 13.128906 -10.070312 13.5625 -8.796875 13.5625 -7.171875 L 13.5625 0 L 9.828125 0 L 9.828125 -6.65625 C 9.828125 -7.476562 9.613281 -8.113281 9.1875 -8.5625 C 8.757812 -9.019531 8.1875 -9.25 7.46875 -9.25 C 6.75 -9.25 6.175781 -9.019531 5.75 -8.5625 C 5.332031 -8.113281 5.125 -7.476562 5.125 -6.65625 L 5.125 0 L 1.359375 0 L 1.359375 -12.265625 L 5.125 -12.265625 L 5.125 -10.640625 C 5.5 -11.179688 6.007812 -11.609375 6.65625 -11.921875 C 7.300781 -12.242188 8.03125 -12.40625 8.84375 -12.40625 Z M 8.84375 -12.40625 "/></g></g></g><g fill="#ffffff" fill-opacity="1"><g transform="translate(634.393854, 48.229981)"><g/></g></g><g fill="#ffffff" fill-opacity="1"><g transform="translate(639.054065, 48.229981)"><g><path d="M 0.859375 -3.015625 C 1.359375 -3.410156 1.582031 -3.59375 1.53125 -3.5625 C 2.96875 -4.75 4.097656 -5.722656 4.921875 -6.484375 C 5.753906 -7.242188 6.457031 -8.039062 7.03125 -8.875 C 7.601562 -9.71875 7.890625 -10.535156 7.890625 -11.328125 C 7.890625 -11.921875 7.75 -12.382812 7.46875 -12.71875 C 7.195312 -13.0625 6.78125 -13.234375 6.21875 -13.234375 C 5.664062 -13.234375 5.226562 -13.023438 4.90625 -12.609375 C 4.59375 -12.191406 4.4375 -11.601562 4.4375 -10.84375 L 0.8125 -10.84375 C 0.84375 -12.082031 1.109375 -13.117188 1.609375 -13.953125 C 2.117188 -14.796875 2.785156 -15.414062 3.609375 -15.8125 C 4.441406 -16.207031 5.363281 -16.40625 6.375 -16.40625 C 8.113281 -16.40625 9.425781 -15.957031 10.3125 -15.0625 C 11.207031 -14.164062 11.65625 -13 11.65625 -11.5625 C 11.65625 -10 11.117188 -8.546875 10.046875 -7.203125 C 8.972656 -5.859375 7.609375 -4.550781 5.953125 -3.28125 L 11.890625 -3.28125 L 11.890625 -0.21875 L 0.859375 -0.21875 Z M 0.859375 -3.015625 "/></g></g></g></svg>