<svg xmlns="http://www.w3.org/2000/svg" xmlns:xlink="http://www.w3.org/1999/xlink" width="1080" zoomAndPan="magnify" viewBox="0 0 810 809.999993" height="1080" preserveAspectRatio="xMidYMid meet" version="1.0"><defs><clipPath id="a6da7899f4"><path d="M 405 0 C 181.324219 0 0 181.324219 0 405 C 0 628.675781 181.324219 810 405 810 C 628.675781 810 810 628.675781 810 405 C 810 181.324219 628.675781 0 405 0 Z M 405 0 " clip-rule="nonzero"/></clipPath><clipPath id="8ddff2e924"><path d="M 183 147 L 640 147 L 640 679 L 183 679 Z M 183 147 " clip-rule="nonzero"/></clipPath><clipPath id="42848f88e8"><path d="M 523.546875 88.601562 L 729.03125 544.425781 L 337.023438 721.140625 L 131.539062 265.316406 Z M 523.546875 88.601562 " clip-rule="nonzero"/></clipPath><clipPath id="855a774aae"><path d="M 523.546875 88.601562 L 729.03125 544.425781 L 337.023438 721.140625 L 131.539062 265.316406 Z M 523.546875 88.601562 " clip-rule="nonzero"/></clipPath><clipPath id="00006ff571"><path d="M 523.546875 88.601562 L 729.03125 544.425781 L 337.023438 721.140625 L 131.539062 265.316406 Z M 523.546875 88.601562 " clip-rule="nonzero"/></clipPath><clipPath id="d746a00314"><path d="M 201 164 L 620 164 L 620 660 L 201 660 Z M 201 164 " clip-rule="nonzero"/></clipPath><clipPath id="09a777f6bd"><path d="M 523.546875 88.601562 L 729.03125 544.425781 L 337.023438 721.140625 L 131.539062 265.316406 Z M 523.546875 88.601562 " clip-rule="nonzero"/></clipPath><clipPath id="7e7ae8e403"><path d="M 523.546875 88.601562 L 729.03125 544.425781 L 337.023438 721.140625 L 131.539062 265.316406 Z M 523.546875 88.601562 " clip-rule="nonzero"/></clipPath><clipPath id="b133427324"><path d="M 523.546875 88.601562 L 729.03125 544.425781 L 337.023438 721.140625 L 131.539062 265.316406 Z M 523.546875 88.601562 " clip-rule="nonzero"/></clipPath><clipPath id="556074c45e"><path d="M 278 198 L 619 198 L 619 638 L 278 638 Z M 278 198 " clip-rule="nonzero"/></clipPath><clipPath id="053d5c816a"><path d="M 523.546875 88.601562 L 729.03125 544.425781 L 337.023438 721.140625 L 131.539062 265.316406 Z M 523.546875 88.601562 " clip-rule="nonzero"/></clipPath><clipPath id="ed6f78f612"><path d="M 523.546875 88.601562 L 729.03125 544.425781 L 337.023438 721.140625 L 131.539062 265.316406 Z M 523.546875 88.601562 " clip-rule="nonzero"/></clipPath><clipPath id="4a2a483dca"><path d="M 523.546875 88.601562 L 729.03125 544.425781 L 337.023438 721.140625 L 131.539062 265.316406 Z M 523.546875 88.601562 " clip-rule="nonzero"/></clipPath><clipPath id="5200a0e1c6"><path d="M 394 173 L 439 173 L 439 366 L 394 366 Z M 394 173 " clip-rule="nonzero"/></clipPath><clipPath id="cea509dc22"><path d="M 523.546875 88.601562 L 729.03125 544.425781 L 337.023438 721.140625 L 131.539062 265.316406 Z M 523.546875 88.601562 " clip-rule="nonzero"/></clipPath><clipPath id="b4362eebd6"><path d="M 523.546875 88.601562 L 729.03125 544.425781 L 337.023438 721.140625 L 131.539062 265.316406 Z M 523.546875 88.601562 " clip-rule="nonzero"/></clipPath><clipPath id="03280993ea"><path d="M 523.546875 88.601562 L 729.03125 544.425781 L 337.023438 721.140625 L 131.539062 265.316406 Z M 523.546875 88.601562 " clip-rule="nonzero"/></clipPath><clipPath id="20696a6079"><path d="M 292 212 L 352 212 L 352 387 L 292 387 Z M 292 212 " clip-rule="nonzero"/></clipPath><clipPath id="2c14df590a"><path d="M 523.546875 88.601562 L 729.03125 544.425781 L 337.023438 721.140625 L 131.539062 265.316406 Z M 523.546875 88.601562 " clip-rule="nonzero"/></clipPath><clipPath id="77184d6647"><path d="M 523.546875 88.601562 L 729.03125 544.425781 L 337.023438 721.140625 L 131.539062 265.316406 Z M 523.546875 88.601562 " clip-rule="nonzero"/></clipPath><clipPath id="b4ecda81f2"><path d="M 523.546875 88.601562 L 729.03125 544.425781 L 337.023438 721.140625 L 131.539062 265.316406 Z M 523.546875 88.601562 " clip-rule="nonzero"/></clipPath><clipPath id="320f3271e4"><path d="M 211 293 L 283 293 L 283 438 L 211 438 Z M 211 293 " clip-rule="nonzero"/></clipPath><clipPath id="4b028a54f0"><path d="M 523.546875 88.601562 L 729.03125 544.425781 L 337.023438 721.140625 L 131.539062 265.316406 Z M 523.546875 88.601562 " clip-rule="nonzero"/></clipPath><clipPath id="ebfd036d90"><path d="M 523.546875 88.601562 L 729.03125 544.425781 L 337.023438 721.140625 L 131.539062 265.316406 Z M 523.546875 88.601562 " clip-rule="nonzero"/></clipPath><clipPath id="b781291702"><path d="M 523.546875 88.601562 L 729.03125 544.425781 L 337.023438 721.140625 L 131.539062 265.316406 Z M 523.546875 88.601562 " clip-rule="nonzero"/></clipPath></defs><g clip-path="url(#a6da7899f4)"><rect x="-81" width="972" fill="#84caed" y="-80.999999" height="971.999992" fill-opacity="1"/></g><g clip-path="url(#8ddff2e924)"><g clip-path="url(#42848f88e8)"><g clip-path="url(#855a774aae)"><g clip-path="url(#00006ff571)"><path fill="#232323" d="M 339.554688 214.894531 C 334.03125 201.535156 321.023438 192.863281 306.644531 192.722656 C 292.566406 192.726562 280.5 200.628906 272.167969 211.527344 C 261.554688 225.160156 257.75 242.445312 257.546875 259.441406 C 257.5625 281.011719 261.613281 302.292969 266.753906 323.164062 C 260.4375 310.519531 254.800781 294.84375 244.296875 285.199219 C 236.363281 277.683594 224.859375 274.632812 214.378906 277.945312 C 201.09375 281.90625 191.351562 295.367188 187.457031 308.179688 C 182.046875 325.910156 183.691406 346.46875 187.210938 364.453125 C 190.984375 385.421875 201.121094 405.269531 211.34375 423.851562 C 218.082031 436.503906 228.015625 446.207031 233.535156 459.546875 C 247.050781 486.445312 245.820312 514.863281 258.902344 541.636719 C 267.675781 558.941406 281.203125 572.511719 297.144531 583.304688 C 290.492188 597.480469 289.867188 613.847656 295.988281 628.351562 C 302.347656 644.21875 315.078125 656.160156 329.769531 664.351562 C 350.894531 675.75 374.464844 679.757812 398.285156 678.804688 C 424.378906 677.621094 450.050781 670.125 472.1875 656.148438 C 489.972656 644.632812 505.246094 628.519531 511.476562 607.851562 C 514.3125 599.253906 514.460938 590.417969 513.25 581.519531 C 524.503906 572.566406 532.808594 561.125 540.066406 548.808594 C 548.511719 533.84375 551.988281 518.078125 557.925781 502.175781 C 564.558594 484.429688 571.347656 466.535156 582.859375 451.324219 C 593.292969 433.851562 607.09375 419.496094 619.515625 403.574219 C 627.277344 392.640625 636.804688 380.605469 638.90625 367.074219 C 641.085938 353.5 636.445312 339.105469 625.742188 330.210938 C 615.464844 321.460938 600.972656 319.800781 588.054688 321.804688 C 567.5 325.105469 548.988281 336.632812 533.71875 350.375 C 525.957031 357.035156 519.855469 364.996094 513.605469 373.027344 C 518.28125 350.710938 523.75 328.617188 531.335938 307.121094 C 540.007812 278.652344 551.015625 253.824219 556.132812 224.691406 C 558.308594 210.625 554.804688 195.933594 542.910156 187.078125 C 533.878906 180.351562 521.878906 178.621094 511.253906 182.179688 C 495.394531 187.4375 483.277344 199.105469 474.304688 212.855469 C 463.546875 228.859375 457.363281 246.324219 450.53125 264.164062 C 451.585938 241.175781 456.210938 215.800781 453.621094 192.828125 C 451.992188 178.070312 445.847656 162.542969 433.804688 153.234375 C 423.371094 145.371094 409.421875 145.394531 398.152344 151.453125 C 382.699219 159.550781 373.191406 175.550781 368.410156 191.863281 C 356.644531 229.105469 358.585938 271.386719 358.480469 310.09375 C 354.386719 292.546875 351.183594 274.742188 348.347656 256.949219 C 346.042969 243.113281 344.710938 227.960938 339.554688 214.894531 Z M 339.554688 214.894531 " fill-opacity="1" fill-rule="nonzero"/></g></g></g></g><g clip-path="url(#d746a00314)"><g clip-path="url(#09a777f6bd)"><g clip-path="url(#7e7ae8e403)"><g clip-path="url(#b133427324)"><path fill="#ababab" d="M 291.707031 377.640625 C 293.808594 386.875 297.199219 394.792969 296.648438 404.011719 C 286.890625 393.074219 280.210938 378.964844 273.394531 366.089844 C 265.589844 349.742188 257.609375 333.492188 249.238281 317.4375 C 244.875 309.519531 239.578125 298.824219 231.210938 294.582031 C 226.304688 292.019531 221.558594 293.125 216.664062 294.996094 C 207.277344 301.75 202.820312 311.953125 201.824219 323.21875 C 199.691406 347.867188 205.476562 373.65625 215.835938 395.972656 C 222.792969 412.109375 231.070312 427.566406 239.773438 442.816406 C 245.65625 454.5 252.554688 465.050781 256.460938 477.152344 C 264.1875 498.46875 266.367188 521.984375 279.265625 541.167969 C 287.765625 553.285156 299.371094 564.757812 313.101562 570.722656 C 327.710938 576.523438 344.15625 577.941406 359.546875 574.640625 C 370.261719 572.554688 379.535156 567.796875 390.027344 564.859375 C 382.910156 576.738281 369.242188 584.789062 356.382812 588.894531 C 341.773438 593.492188 326.933594 592.824219 312.046875 590.148438 C 310.300781 600.542969 309.164062 610.398438 313.34375 620.46875 C 320.363281 637.230469 336.46875 647.710938 353.050781 653.4375 C 378.277344 662.050781 407.109375 660.945312 432.324219 653 C 451.628906 646.484375 469.910156 636.652344 482.351562 620.066406 C 488.96875 612.371094 492.371094 603.042969 494.082031 593.140625 C 480.324219 596.9375 467.941406 600.828125 453.527344 597.664062 C 447.046875 596.328125 441.253906 593.171875 436.089844 589.117188 C 457.632812 587.738281 477.832031 584.320312 496.054688 571.828125 C 507.601562 563.703125 514.992188 552.652344 521.800781 540.535156 C 530.699219 524.195312 534.363281 505.28125 541.957031 487.898438 C 549.757812 468.511719 560.351562 450.6875 572.316406 433.621094 C 585.882812 411.515625 604.425781 395.125 616.746094 372.367188 C 619.980469 366.238281 620.484375 360.042969 618.835938 353.347656 C 616.457031 348.15625 613.214844 343.832031 607.605469 342.003906 C 596.019531 338.101562 582.105469 341.90625 571.378906 346.742188 C 548.265625 358.195312 528.671875 377.070312 517.710938 400.585938 C 512.421875 411.363281 507.671875 423.210938 498.773438 431.574219 C 495.210938 434.8125 491.410156 439.03125 486.730469 440.40625 C 479.554688 442.683594 472.054688 443.800781 464.832031 445.921875 C 437.882812 453.675781 412.757812 465.957031 393.480469 486.757812 C 399.984375 470.699219 411.386719 457.40625 425.53125 447.550781 C 443.445312 434.027344 464.484375 426.390625 486.679688 423.863281 C 487.515625 400.835938 494.300781 377.691406 498.957031 355.109375 C 504.773438 326.832031 514.214844 299.847656 523.144531 272.472656 C 528.941406 257.230469 533.699219 241.703125 537.445312 225.835938 C 538.855469 219.492188 539.535156 211.75 536.144531 205.898438 C 533.34375 201.535156 529.117188 199.738281 524.460938 198 C 510.019531 198.425781 499.066406 206.902344 490.144531 217.507812 C 478.117188 232.238281 469.980469 251.277344 462.941406 268.828125 C 449.734375 303.320312 443.035156 338.894531 435.003906 374.730469 C 432.832031 374.238281 430.664062 373.742188 428.488281 373.234375 C 428.769531 364.476562 429.753906 355.777344 431.03125 347.109375 C 432.203125 341.609375 433.296875 336.066406 434.085938 330.5 C 435.5 320.734375 434.84375 310.90625 435.898438 301.042969 C 438.785156 276.21875 438.476562 250.425781 438.578125 225.320312 C 438.207031 207.53125 438.542969 189.5625 428.691406 173.957031 C 425.152344 169.765625 421.585938 165.425781 415.71875 165.007812 C 406.105469 164.292969 398.152344 170.660156 392.394531 177.710938 C 383.226562 189.042969 379.167969 205.371094 375.921875 219.363281 C 370.589844 245.332031 369.378906 272.285156 368.375 298.730469 C 367.9375 314.640625 367.34375 330.5 367.734375 346.429688 C 367.863281 356.453125 368.6875 366.164062 367.707031 376.191406 C 358.199219 369.0625 355.292969 353.410156 351.457031 342.652344 C 342.140625 308.070312 333.710938 273.292969 327.285156 238.066406 C 324.976562 228.410156 322.847656 216.421875 312.578125 212.140625 C 307.804688 211.113281 303.160156 210.679688 298.550781 212.699219 C 288.238281 217.128906 280.886719 227.78125 277.316406 238.140625 C 272.195312 253.035156 272.648438 270.429688 273.769531 285.996094 C 276.136719 317.722656 284.144531 346.765625 291.707031 377.640625 Z M 420.097656 381.710938 C 430.714844 382.75 443.304688 385.046875 449.695312 394.597656 C 438.988281 392.5625 428.203125 391.9375 417.320312 392.644531 C 390.40625 394.65625 363.527344 401.503906 338.421875 411.269531 C 328.328125 415.304688 318.195312 418.417969 308.792969 423.992188 C 306.160156 425.117188 303.511719 426.152344 300.820312 427.148438 C 310.828125 415.734375 323.867188 406.992188 337.246094 400.027344 C 362.433594 387.179688 391.691406 379.796875 420.097656 381.710938 Z M 420.097656 381.710938 " fill-opacity="1" fill-rule="nonzero"/></g></g></g></g><g clip-path="url(#556074c45e)"><g clip-path="url(#053d5c816a)"><g clip-path="url(#ed6f78f612)"><g clip-path="url(#4a2a483dca)"><path fill="#ffffff" d="M 465.796875 316.484375 C 463.941406 330.523438 462.089844 343.945312 463.554688 358.160156 C 464.621094 372.15625 470.175781 385.007812 471.324219 399.007812 C 463.90625 398.414062 456.878906 396.390625 449.695312 394.597656 C 438.988281 392.5625 428.203125 391.9375 417.320312 392.644531 C 390.40625 394.65625 363.527344 401.503906 338.421875 411.269531 C 328.328125 415.304688 318.195312 418.417969 308.792969 423.992188 C 300.496094 429.203125 292.625 433.503906 287.101562 441.863281 C 276.8125 456.703125 276.367188 477.386719 281.675781 494.144531 C 287.273438 509.640625 293.785156 524.042969 305.796875 535.671875 C 318.460938 548.519531 334.878906 556.964844 353.273438 554.996094 C 372.722656 552.414062 389.894531 542.984375 405.566406 531.664062 C 402.742188 543.992188 396.34375 554.117188 390.027344 564.859375 C 382.910156 576.738281 369.242188 584.789062 356.382812 588.894531 C 357.59375 596.125 358.851562 602.917969 362.945312 609.183594 C 370.6875 621.066406 383.214844 628.503906 396.632812 632.28125 C 411.027344 636.289062 426.949219 638.441406 441.785156 636.105469 C 455.75 634.089844 469.148438 625.621094 482.351562 620.066406 C 488.96875 612.371094 492.371094 603.042969 494.082031 593.140625 C 480.324219 596.9375 467.941406 600.828125 453.527344 597.664062 C 447.046875 596.328125 441.253906 593.171875 436.089844 589.117188 C 428.234375 582.394531 421.03125 575.800781 417.796875 565.585938 C 415.332031 558.484375 416.179688 551.597656 417.371094 544.378906 C 424.347656 549.984375 430.535156 556.402344 439.566406 558.414062 C 454.347656 561.777344 470.183594 556.246094 481.894531 547.25 C 493.496094 538.140625 499.847656 525.710938 505.34375 512.355469 C 510.273438 500.03125 516.691406 488.410156 521.78125 476.132812 C 526.152344 465.746094 530.011719 455.496094 536.046875 445.894531 C 551.664062 419.527344 579.433594 398.535156 601.515625 377.5625 C 608.871094 370.488281 613.578125 361.945312 618.835938 353.347656 C 616.457031 348.15625 613.214844 343.832031 607.605469 342.003906 C 596.019531 338.101562 582.105469 341.90625 571.378906 346.742188 C 548.265625 358.195312 528.671875 377.070312 517.710938 400.585938 C 512.421875 411.363281 507.671875 423.210938 498.773438 431.574219 C 495.210938 434.8125 491.410156 439.03125 486.730469 440.40625 C 479.554688 442.683594 472.054688 443.800781 464.832031 445.921875 C 437.882812 453.675781 412.757812 465.957031 393.480469 486.757812 C 399.984375 470.699219 411.386719 457.40625 425.53125 447.550781 C 443.445312 434.027344 464.484375 426.390625 486.679688 423.863281 C 487.515625 400.835938 494.300781 377.691406 498.957031 355.109375 C 504.773438 326.832031 514.214844 299.847656 523.144531 272.472656 C 528.941406 257.230469 533.699219 241.703125 537.445312 225.835938 C 538.855469 219.492188 539.535156 211.75 536.144531 205.898438 C 533.34375 201.535156 529.117188 199.738281 524.460938 198 C 510.613281 206.3125 501.933594 218.953125 494.28125 232.765625 C 480.15625 258.960938 469.859375 286.910156 465.796875 316.484375 Z M 389.863281 460.667969 C 387.390625 464.566406 384.714844 468.277344 382.007812 472.003906 C 370.6875 463.761719 358.964844 456.398438 345.894531 451.273438 C 337.683594 447.996094 329.382812 446.1875 320.976562 443.574219 C 330.898438 441.011719 340.671875 440.304688 350.824219 441.773438 C 365.917969 443.976562 380.121094 447.996094 389.863281 460.667969 Z M 389.863281 460.667969 " fill-opacity="1" fill-rule="nonzero"/></g></g></g></g><g clip-path="url(#5200a0e1c6)"><g clip-path="url(#cea509dc22)"><g clip-path="url(#b4362eebd6)"><g clip-path="url(#03280993ea)"><path fill="#ffffff" d="M 408.414062 179.679688 C 399.003906 193.167969 397.808594 212.539062 396.3125 228.464844 C 393.566406 262.199219 393.140625 296.457031 397.039062 330.117188 C 398.554688 342.339844 400.609375 354.378906 405.242188 365.894531 C 416.9375 363.027344 424.164062 356.589844 431.03125 347.109375 C 432.203125 341.609375 433.296875 336.066406 434.085938 330.5 C 435.5 320.734375 434.84375 310.90625 435.898438 301.042969 C 438.785156 276.21875 438.476562 250.425781 438.578125 225.320312 C 438.207031 207.53125 438.542969 189.5625 428.691406 173.957031 C 421.144531 174.175781 413.324219 172.332031 408.414062 179.679688 Z M 408.414062 179.679688 " fill-opacity="1" fill-rule="nonzero"/></g></g></g></g><g clip-path="url(#20696a6079)"><g clip-path="url(#2c14df590a)"><g clip-path="url(#77184d6647)"><g clip-path="url(#b4ecda81f2)"><path fill="#ffffff" d="M 292.058594 262.914062 C 292.148438 282.144531 295.59375 300.578125 299.691406 319.273438 C 304.21875 339.1875 310.566406 358.859375 319.195312 377.378906 C 320.945312 380.46875 322.738281 385.464844 326.816406 385.875 C 334.359375 387.148438 340.382812 381.789062 344.113281 375.832031 C 349.835938 366.371094 350.792969 353.472656 351.457031 342.652344 C 342.140625 308.070312 333.710938 273.292969 327.285156 238.066406 C 324.976562 228.40625 322.847656 216.421875 312.578125 212.140625 C 305.976562 217.40625 299.203125 222.027344 295.796875 230.066406 C 291.640625 239.917969 292.046875 252.359375 292.058594 262.914062 Z M 292.058594 262.914062 " fill-opacity="1" fill-rule="nonzero"/></g></g></g></g><g clip-path="url(#320f3271e4)"><g clip-path="url(#4b028a54f0)"><g clip-path="url(#ebfd036d90)"><g clip-path="url(#b781291702)"><path fill="#ffffff" d="M 238.191406 411.113281 C 242.65625 419.082031 246.585938 427.710938 252.148438 434.988281 C 254.097656 438.644531 259.355469 436.652344 262.421875 435.707031 C 272.042969 431.628906 278.234375 420.386719 280.660156 410.660156 C 284.5 394.910156 280.109375 380.363281 273.394531 366.089844 C 265.589844 349.742188 257.609375 333.492188 249.238281 317.4375 C 244.875 309.519531 239.578125 298.824219 231.210938 294.582031 C 226.304688 292.019531 221.558594 293.125 216.664062 294.996094 C 213.8125 305.585938 211.085938 315.882812 211.660156 326.980469 C 211.996094 357.453125 224.390625 384.558594 238.191406 411.113281 Z M 238.191406 411.113281 " fill-opacity="1" fill-rule="nonzero"/></g></g></g></g></svg>