<svg xmlns="http://www.w3.org/2000/svg" xmlns:xlink="http://www.w3.org/1999/xlink" width="1080" zoomAndPan="magnify" viewBox="0 0 810 809.999993" height="1080" preserveAspectRatio="xMidYMid meet" version="1.0"><defs><clipPath id="a12c072c35"><path d="M 405 0 C 181.324219 0 0 181.324219 0 405 C 0 628.675781 181.324219 810 405 810 C 628.675781 810 810 628.675781 810 405 C 810 181.324219 628.675781 0 405 0 Z M 405 0 " clip-rule="nonzero"/></clipPath><clipPath id="04410f2a3d"><path d="M 165 147 L 610 147 L 610 666 L 165 666 Z M 165 147 " clip-rule="nonzero"/></clipPath><clipPath id="0cba8a748b"><path d="M 473.722656 76.675781 L 723.65625 509.726562 L 336.074219 733.417969 L 86.140625 300.363281 Z M 473.722656 76.675781 " clip-rule="nonzero"/></clipPath><clipPath id="7ae176458e"><path d="M 473.722656 76.675781 L 723.65625 509.726562 L 336.074219 733.417969 L 86.140625 300.363281 Z M 473.722656 76.675781 " clip-rule="nonzero"/></clipPath><clipPath id="80e4a99026"><path d="M 473.722656 76.675781 L 723.65625 509.726562 L 336.074219 733.417969 L 86.140625 300.363281 Z M 473.722656 76.675781 " clip-rule="nonzero"/></clipPath><clipPath id="57ee2f0c1b"><path d="M 435 169 L 540 169 L 540 300 L 435 300 Z M 435 169 " clip-rule="nonzero"/></clipPath><clipPath id="6f5b650aa1"><path d="M 473.722656 76.675781 L 723.65625 509.726562 L 336.074219 733.417969 L 86.140625 300.363281 Z M 473.722656 76.675781 " clip-rule="nonzero"/></clipPath><clipPath id="35a86da137"><path d="M 473.722656 76.675781 L 723.65625 509.726562 L 336.074219 733.417969 L 86.140625 300.363281 Z M 473.722656 76.675781 " clip-rule="nonzero"/></clipPath><clipPath id="34a2872993"><path d="M 473.722656 76.675781 L 723.65625 509.726562 L 336.074219 733.417969 L 86.140625 300.363281 Z M 473.722656 76.675781 " clip-rule="nonzero"/></clipPath><clipPath id="d658a2b4d3"><path d="M 306 171 L 433 171 L 433 345 L 306 345 Z M 306 171 " clip-rule="nonzero"/></clipPath><clipPath id="de17b1cb00"><path d="M 473.722656 76.675781 L 723.65625 509.726562 L 336.074219 733.417969 L 86.140625 300.363281 Z M 473.722656 76.675781 " clip-rule="nonzero"/></clipPath><clipPath id="99f35661a3"><path d="M 473.722656 76.675781 L 723.65625 509.726562 L 336.074219 733.417969 L 86.140625 300.363281 Z M 473.722656 76.675781 " clip-rule="nonzero"/></clipPath><clipPath id="8216676ef9"><path d="M 473.722656 76.675781 L 723.65625 509.726562 L 336.074219 733.417969 L 86.140625 300.363281 Z M 473.722656 76.675781 " clip-rule="nonzero"/></clipPath><clipPath id="05217f5982"><path d="M 218 312 L 583 312 L 583 643 L 218 643 Z M 218 312 " clip-rule="nonzero"/></clipPath><clipPath id="a9803b38a1"><path d="M 473.722656 76.675781 L 723.65625 509.726562 L 336.074219 733.417969 L 86.140625 300.363281 Z M 473.722656 76.675781 " clip-rule="nonzero"/></clipPath><clipPath id="70fca4e17b"><path d="M 473.722656 76.675781 L 723.65625 509.726562 L 336.074219 733.417969 L 86.140625 300.363281 Z M 473.722656 76.675781 " clip-rule="nonzero"/></clipPath><clipPath id="6273b5395f"><path d="M 473.722656 76.675781 L 723.65625 509.726562 L 336.074219 733.417969 L 86.140625 300.363281 Z M 473.722656 76.675781 " clip-rule="nonzero"/></clipPath><clipPath id="274c2fd733"><path d="M 238 227 L 350 227 L 350 396 L 238 396 Z M 238 227 " clip-rule="nonzero"/></clipPath><clipPath id="4f1c136477"><path d="M 473.722656 76.675781 L 723.65625 509.726562 L 336.074219 733.417969 L 86.140625 300.363281 Z M 473.722656 76.675781 " clip-rule="nonzero"/></clipPath><clipPath id="e2a4ebbfe2"><path d="M 473.722656 76.675781 L 723.65625 509.726562 L 336.074219 733.417969 L 86.140625 300.363281 Z M 473.722656 76.675781 " clip-rule="nonzero"/></clipPath><clipPath id="b791d95cad"><path d="M 473.722656 76.675781 L 723.65625 509.726562 L 336.074219 733.417969 L 86.140625 300.363281 Z M 473.722656 76.675781 " clip-rule="nonzero"/></clipPath><clipPath id="6ee04e16a2"><path d="M 186 312 L 304 312 L 304 441 L 186 441 Z M 186 312 " clip-rule="nonzero"/></clipPath><clipPath id="1ac374244b"><path d="M 473.722656 76.675781 L 723.65625 509.726562 L 336.074219 733.417969 L 86.140625 300.363281 Z M 473.722656 76.675781 " clip-rule="nonzero"/></clipPath><clipPath id="cbca0163a9"><path d="M 473.722656 76.675781 L 723.65625 509.726562 L 336.074219 733.417969 L 86.140625 300.363281 Z M 473.722656 76.675781 " clip-rule="nonzero"/></clipPath><clipPath id="a1cb33d2f3"><path d="M 473.722656 76.675781 L 723.65625 509.726562 L 336.074219 733.417969 L 86.140625 300.363281 Z M 473.722656 76.675781 " clip-rule="nonzero"/></clipPath><clipPath id="17535a643b"><path d="M 466 170 L 540 170 L 540 293 L 466 293 Z M 466 170 " clip-rule="nonzero"/></clipPath><clipPath id="3ce921157a"><path d="M 473.722656 76.675781 L 723.65625 509.726562 L 336.074219 733.417969 L 86.140625 300.363281 Z M 473.722656 76.675781 " clip-rule="nonzero"/></clipPath><clipPath id="ecca08309a"><path d="M 473.722656 76.675781 L 723.65625 509.726562 L 336.074219 733.417969 L 86.140625 300.363281 Z M 473.722656 76.675781 " clip-rule="nonzero"/></clipPath><clipPath id="da27f35562"><path d="M 473.722656 76.675781 L 723.65625 509.726562 L 336.074219 733.417969 L 86.140625 300.363281 Z M 473.722656 76.675781 " clip-rule="nonzero"/></clipPath><clipPath id="75304afb0e"><path d="M 386 312 L 583 312 L 583 550 L 386 550 Z M 386 312 " clip-rule="nonzero"/></clipPath><clipPath id="e1a639126b"><path d="M 473.722656 76.675781 L 723.65625 509.726562 L 336.074219 733.417969 L 86.140625 300.363281 Z M 473.722656 76.675781 " clip-rule="nonzero"/></clipPath><clipPath id="068a1121eb"><path d="M 473.722656 76.675781 L 723.65625 509.726562 L 336.074219 733.417969 L 86.140625 300.363281 Z M 473.722656 76.675781 " clip-rule="nonzero"/></clipPath><clipPath id="26797ee8c5"><path d="M 473.722656 76.675781 L 723.65625 509.726562 L 336.074219 733.417969 L 86.140625 300.363281 Z M 473.722656 76.675781 " clip-rule="nonzero"/></clipPath><clipPath id="5d784d86fc"><path d="M 341 171 L 433 171 L 433 321 L 341 321 Z M 341 171 " clip-rule="nonzero"/></clipPath><clipPath id="a37655261d"><path d="M 473.722656 76.675781 L 723.65625 509.726562 L 336.074219 733.417969 L 86.140625 300.363281 Z M 473.722656 76.675781 " clip-rule="nonzero"/></clipPath><clipPath id="bd3b379666"><path d="M 473.722656 76.675781 L 723.65625 509.726562 L 336.074219 733.417969 L 86.140625 300.363281 Z M 473.722656 76.675781 " clip-rule="nonzero"/></clipPath><clipPath id="d59df42078"><path d="M 473.722656 76.675781 L 723.65625 509.726562 L 336.074219 733.417969 L 86.140625 300.363281 Z M 473.722656 76.675781 " clip-rule="nonzero"/></clipPath><clipPath id="07cdf856d2"><path d="M 303 422 L 533 422 L 533 638 L 303 638 Z M 303 422 " clip-rule="nonzero"/></clipPath><clipPath id="9bf45e3c9e"><path d="M 473.722656 76.675781 L 723.65625 509.726562 L 336.074219 733.417969 L 86.140625 300.363281 Z M 473.722656 76.675781 " clip-rule="nonzero"/></clipPath><clipPath id="460ed70de8"><path d="M 473.722656 76.675781 L 723.65625 509.726562 L 336.074219 733.417969 L 86.140625 300.363281 Z M 473.722656 76.675781 " clip-rule="nonzero"/></clipPath><clipPath id="ebb6779ce7"><path d="M 473.722656 76.675781 L 723.65625 509.726562 L 336.074219 733.417969 L 86.140625 300.363281 Z M 473.722656 76.675781 " clip-rule="nonzero"/></clipPath><clipPath id="ee9aa3c5a1"><path d="M 256 227 L 329 227 L 329 353 L 256 353 Z M 256 227 " clip-rule="nonzero"/></clipPath><clipPath id="121913631b"><path d="M 473.722656 76.675781 L 723.65625 509.726562 L 336.074219 733.417969 L 86.140625 300.363281 Z M 473.722656 76.675781 " clip-rule="nonzero"/></clipPath><clipPath id="812093b91d"><path d="M 473.722656 76.675781 L 723.65625 509.726562 L 336.074219 733.417969 L 86.140625 300.363281 Z M 473.722656 76.675781 " clip-rule="nonzero"/></clipPath><clipPath id="9f186413ff"><path d="M 473.722656 76.675781 L 723.65625 509.726562 L 336.074219 733.417969 L 86.140625 300.363281 Z M 473.722656 76.675781 " clip-rule="nonzero"/></clipPath><clipPath id="6985656614"><path d="M 200 312 L 262 312 L 262 399 L 200 399 Z M 200 312 " clip-rule="nonzero"/></clipPath><clipPath id="020341c591"><path d="M 473.722656 76.675781 L 723.65625 509.726562 L 336.074219 733.417969 L 86.140625 300.363281 Z M 473.722656 76.675781 " clip-rule="nonzero"/></clipPath><clipPath id="cd56a52751"><path d="M 473.722656 76.675781 L 723.65625 509.726562 L 336.074219 733.417969 L 86.140625 300.363281 Z M 473.722656 76.675781 " clip-rule="nonzero"/></clipPath><clipPath id="651ba08de3"><path d="M 473.722656 76.675781 L 723.65625 509.726562 L 336.074219 733.417969 L 86.140625 300.363281 Z M 473.722656 76.675781 " clip-rule="nonzero"/></clipPath></defs><g clip-path="url(#a12c072c35)"><rect x="-81" width="972" fill="#3a5dc4" y="-80.999999" height="971.999992" fill-opacity="1"/></g><g clip-path="url(#04410f2a3d)"><g clip-path="url(#0cba8a748b)"><g clip-path="url(#7ae176458e)"><g clip-path="url(#80e4a99026)"><path fill="#232323" d="M 233.835938 235.203125 C 225.410156 244.308594 220.554688 255.074219 219.347656 267.40625 C 218.222656 275.453125 219.402344 283.714844 217.996094 291.648438 C 197.40625 301.738281 182.015625 318.996094 171.488281 339.074219 C 165.410156 350.925781 163.355469 364.292969 166.519531 377.3125 C 171.625 399.59375 184.617188 416.78125 196.273438 435.230469 C 194.296875 458.011719 197.304688 479.765625 207.105469 500.5625 C 219.617188 531.484375 244.878906 555.835938 276.148438 567.3125 C 272.773438 582.910156 273.339844 598.597656 281.0625 612.871094 C 291.578125 634.34375 311.132812 647.960938 333.007812 656.214844 C 367.144531 668.703125 405.859375 668.246094 440.855469 659.601562 C 475.207031 651.058594 509.253906 633.558594 532.644531 606.546875 C 548.355469 588.617188 559.09375 564.335938 555.871094 540.179688 C 555.222656 533.023438 551.398438 526.070312 551.410156 519.019531 C 572.535156 499.296875 588.929688 475.34375 599.960938 448.644531 C 611.996094 419.023438 612.257812 384.695312 600.925781 354.832031 C 592.671875 332.65625 576.976562 314.988281 557.609375 301.832031 C 564.820312 266.488281 555.445312 231.0625 542.109375 198.386719 C 535.191406 183.101562 524.824219 166.222656 509.960938 157.535156 C 493.625 147.089844 471.980469 145.3125 453.585938 150.679688 C 438.988281 155.40625 428.910156 165.65625 421.398438 178.609375 C 416.175781 170.503906 411.753906 162.886719 402.867188 158.28125 C 386.230469 149.207031 364.394531 150.582031 346.832031 156.066406 C 323.054688 163.699219 299.429688 181.441406 289.722656 205.015625 C 269.402344 209.917969 248.113281 219.59375 233.835938 235.203125 Z M 233.835938 235.203125 " fill-opacity="1" fill-rule="nonzero"/></g></g></g></g><g clip-path="url(#57ee2f0c1b)"><g clip-path="url(#6f5b650aa1)"><g clip-path="url(#35a86da137)"><g clip-path="url(#34a2872993)"><path fill="#ababab" d="M 435.734375 216.742188 C 435.222656 244.226562 438.277344 271.90625 442.125 299.074219 C 453.847656 296.007812 465.445312 292.820312 477.324219 290.449219 C 489.652344 288.011719 502.132812 286.679688 514.6875 287.699219 C 522.773438 288.277344 531.039062 290.90625 538.984375 292.84375 C 541.101562 267.859375 535.367188 244.773438 528.46875 220.941406 C 524.542969 207.492188 518.308594 194.859375 509.5 183.929688 C 503.226562 176.402344 494.574219 172.207031 485.179688 170.019531 C 473.019531 168.417969 459.179688 168.898438 449.574219 177.515625 C 438.433594 187.292969 436.21875 202.734375 435.734375 216.742188 Z M 435.734375 216.742188 " fill-opacity="1" fill-rule="nonzero"/></g></g></g></g><g clip-path="url(#d658a2b4d3)"><g clip-path="url(#de17b1cb00)"><g clip-path="url(#99f35661a3)"><g clip-path="url(#8216676ef9)"><path fill="#ababab" d="M 308.132812 251.429688 C 314.890625 285.289062 328.054688 320.023438 352.667969 344.996094 C 360.066406 335.289062 368.699219 327.339844 378.4375 320.035156 C 394.453125 310.546875 414.875 306.535156 432.695312 301.445312 C 425.9375 276.636719 419.550781 251.148438 417.0625 225.535156 C 416.050781 216.195312 417.238281 207.789062 413.378906 199.167969 C 409.613281 190.382812 403.71875 179.648438 394.878906 175.125 C 382.152344 169.148438 367.476562 172.183594 354.480469 175.632812 C 339.4375 181.8125 323.277344 191.277344 313.675781 204.757812 C 304.628906 218.214844 305.289062 236.132812 308.132812 251.429688 Z M 308.132812 251.429688 " fill-opacity="1" fill-rule="nonzero"/></g></g></g></g><g clip-path="url(#05217f5982)"><g clip-path="url(#a9803b38a1)"><g clip-path="url(#70fca4e17b)"><g clip-path="url(#6273b5395f)"><path fill="#ababab" d="M 532.199219 540.03125 C 504.15625 559.261719 469.902344 567.449219 436.539062 559.597656 C 449.585938 556.144531 462.707031 554.933594 475.3125 549.726562 C 505.195312 537.917969 530.585938 514.5625 548.730469 488.40625 C 562.148438 467.828125 576.011719 445.472656 580.828125 421.105469 C 585.082031 399.863281 582.871094 376.808594 573.65625 357.113281 C 563.417969 336.027344 544.324219 319.585938 521.433594 313.902344 C 498.34375 308.441406 474.433594 315.933594 452.074219 321.5 C 431.441406 327.128906 408.964844 330.9375 389.464844 339.660156 C 380.613281 343.929688 373.867188 350.292969 370.316406 359.550781 C 365.714844 370.144531 368.742188 381.09375 374.28125 390.648438 C 380.777344 401.714844 391.703125 408.675781 403.304688 413.453125 C 423.339844 421.492188 445.261719 424.226562 466.679688 421.601562 C 483.394531 419.972656 498.511719 414.59375 514.507812 409.929688 C 504.28125 418.085938 493.207031 424.722656 480.472656 428.15625 C 456.597656 434.867188 432.710938 444.710938 412.222656 458.792969 C 398.417969 468.285156 387.433594 480.03125 374.703125 490.398438 C 376.808594 480.046875 377.78125 470.515625 383.769531 461.429688 C 390.113281 451.351562 399.148438 444.996094 408.824219 438.433594 C 396.570312 435.203125 385.171875 430.632812 375.011719 422.878906 C 367.988281 416.789062 362.140625 409.671875 356.515625 402.285156 C 344.875 408.082031 333.613281 411.808594 320.542969 412.390625 C 313.234375 426.832031 303.085938 440.683594 290.324219 450.765625 C 279.355469 459.515625 264.671875 460.1875 251.234375 459.621094 C 239.398438 459.140625 229.085938 455.085938 218.101562 451.179688 C 220.480469 473.78125 227.464844 495.445312 239.8125 514.582031 C 251.933594 531.808594 269.632812 546.878906 289.933594 553.351562 C 308.835938 559.1875 327.695312 560.101562 347.257812 561.101562 C 331.25 571.347656 313.863281 572.519531 295.445312 571.949219 C 296.03125 584.792969 296.789062 596.617188 304.632812 607.476562 C 317.878906 626.421875 342.746094 636.566406 364.902344 640.121094 C 385.800781 643.390625 407.261719 642.914062 427.878906 637.867188 C 459.261719 632.339844 490.5625 617.429688 512.632812 594.171875 C 526.570312 579.386719 535.214844 560.664062 532.199219 540.03125 Z M 532.199219 540.03125 " fill-opacity="1" fill-rule="nonzero"/></g></g></g></g><g clip-path="url(#274c2fd733)"><g clip-path="url(#4f1c136477)"><g clip-path="url(#e2a4ebbfe2)"><g clip-path="url(#b791d95cad)"><path fill="#ababab" d="M 328.570312 349.386719 C 305.585938 322.144531 292.730469 287.667969 286.800781 252.835938 C 285.347656 244.378906 285.613281 235.878906 284.683594 227.390625 C 275.746094 229.390625 268.023438 233.6875 260.460938 238.675781 C 251.273438 245.527344 242.632812 252.609375 239.855469 264.246094 C 236.453125 278.851562 238.3125 295.175781 241.863281 309.574219 C 246.328125 327.308594 251.980469 345.0625 260.011719 361.523438 C 266.410156 375.011719 280.445312 380.859375 293.21875 386.726562 C 302.550781 390.695312 313.480469 395.398438 323.789062 395.15625 C 333.042969 394.980469 341.125 389.992188 349.074219 385.808594 C 347.472656 378.742188 346.878906 371.253906 344.558594 364.410156 C 339.585938 359.042969 333.664062 354.628906 328.570312 349.386719 Z M 328.570312 349.386719 " fill-opacity="1" fill-rule="nonzero"/></g></g></g></g><g clip-path="url(#6ee04e16a2)"><g clip-path="url(#1ac374244b)"><g clip-path="url(#cbca0163a9)"><g clip-path="url(#a1cb33d2f3)"><path fill="#ababab" d="M 235.269531 352.070312 C 229.714844 339.289062 226.535156 325.953125 222.335938 312.742188 C 213.941406 319.027344 206.886719 326.226562 200.578125 334.570312 C 193.035156 344.363281 184.796875 355.914062 186.875 368.988281 C 189.097656 382.546875 197.074219 395.753906 204.082031 407.421875 C 214.753906 424.316406 231.222656 437.105469 251.425781 439.640625 C 260.734375 440.683594 272.816406 441.402344 280.613281 435.300781 C 289.824219 428.40625 297.300781 418.546875 303.691406 409.066406 C 289.308594 402.441406 274.863281 397.675781 261.234375 389.09375 C 247.4375 380.035156 241.789062 366.574219 235.269531 352.070312 Z M 235.269531 352.070312 " fill-opacity="1" fill-rule="nonzero"/></g></g></g></g><g clip-path="url(#17535a643b)"><g clip-path="url(#3ce921157a)"><g clip-path="url(#ecca08309a)"><g clip-path="url(#da27f35562)"><path fill="#ffffff" d="M 477.324219 290.449219 C 489.652344 288.011719 502.132812 286.679688 514.6875 287.699219 C 522.773438 288.277344 531.039062 290.90625 538.984375 292.84375 C 541.101562 267.859375 535.367188 244.773438 528.46875 220.941406 C 524.542969 207.492188 518.308594 194.859375 509.5 183.929688 C 503.226562 176.402344 494.574219 172.207031 485.179688 170.019531 C 478.984375 175.550781 472.878906 179.671875 470.660156 188.128906 C 462.148438 223.246094 468.316406 256.226562 477.324219 290.449219 Z M 477.324219 290.449219 " fill-opacity="1" fill-rule="nonzero"/></g></g></g></g><g clip-path="url(#75304afb0e)"><g clip-path="url(#e1a639126b)"><g clip-path="url(#068a1121eb)"><g clip-path="url(#26797ee8c5)"><path fill="#ffffff" d="M 389.464844 339.660156 C 387.777344 349.226562 384.921875 359.167969 389.117188 368.515625 C 395.136719 381.628906 407.628906 388.664062 421.136719 391.988281 C 438.796875 396.152344 457.578125 396.40625 475.589844 394.761719 C 490.191406 393.484375 504 389.457031 518.328125 386.898438 C 524.625 396.585938 527.484375 406.816406 520.632812 417.050781 C 502.652344 443.117188 464.949219 455.792969 446.464844 481.6875 C 438.203125 493.0625 433.714844 506.824219 437.742188 520.730469 C 442.417969 537.5 458.109375 549.132812 475.3125 549.726562 C 505.195312 537.917969 530.585938 514.5625 548.730469 488.40625 C 562.148438 467.828125 576.011719 445.472656 580.828125 421.105469 C 585.082031 399.863281 582.871094 376.808594 573.65625 357.113281 C 563.417969 336.027344 544.324219 319.585938 521.433594 313.902344 C 498.34375 308.441406 474.433594 315.933594 452.074219 321.5 C 431.441406 327.128906 408.964844 330.9375 389.464844 339.660156 Z M 389.464844 339.660156 " fill-opacity="1" fill-rule="nonzero"/></g></g></g></g><g clip-path="url(#5d784d86fc)"><g clip-path="url(#a37655261d)"><g clip-path="url(#bd3b379666)"><g clip-path="url(#d59df42078)"><path fill="#ffffff" d="M 342.121094 215.773438 C 346.257812 253.484375 360.085938 287.152344 378.4375 320.035156 C 394.453125 310.546875 414.875 306.535156 432.695312 301.445312 C 425.9375 276.636719 419.550781 251.148438 417.0625 225.535156 C 416.050781 216.195312 417.238281 207.789062 413.378906 199.167969 C 409.613281 190.382812 403.71875 179.648438 394.878906 175.125 C 382.152344 169.148438 367.476562 172.183594 354.480469 175.632812 C 344.097656 188.09375 340.824219 199.71875 342.121094 215.773438 Z M 342.121094 215.773438 " fill-opacity="1" fill-rule="nonzero"/></g></g></g></g><g clip-path="url(#07cdf856d2)"><g clip-path="url(#9bf45e3c9e)"><g clip-path="url(#460ed70de8)"><g clip-path="url(#ebb6779ce7)"><path fill="#ffffff" d="M 378.71875 526.386719 C 371.746094 515.160156 371.871094 502.882812 374.703125 490.398438 C 376.808594 480.046875 377.78125 470.515625 383.769531 461.429688 C 390.113281 451.351562 399.148438 444.996094 408.824219 438.433594 C 396.570312 435.203125 385.171875 430.632812 375.011719 422.878906 C 357.746094 425.011719 341.863281 426.621094 327.589844 437.847656 C 301.074219 456.851562 296.546875 496.84375 313.597656 523.515625 C 324.628906 542.296875 343.152344 553.085938 364.351562 556.457031 C 357.429688 565.859375 350.371094 574.691406 350.214844 586.960938 C 350.199219 602.25 360.777344 614.496094 373.140625 622.207031 C 389.875 632.964844 408.6875 634.640625 427.878906 637.867188 C 459.261719 632.339844 490.5625 617.429688 512.632812 594.171875 C 526.570312 579.386719 535.214844 560.664062 532.199219 540.03125 C 504.15625 559.261719 469.902344 567.449219 436.539062 559.597656 C 414.710938 555.527344 390.582031 546.429688 378.71875 526.386719 Z M 378.71875 526.386719 " fill-opacity="1" fill-rule="nonzero"/></g></g></g></g><g clip-path="url(#ee9aa3c5a1)"><g clip-path="url(#121913631b)"><g clip-path="url(#812093b91d)"><g clip-path="url(#9f186413ff)"><path fill="#ffffff" d="M 297.871094 350.300781 C 308.402344 354.828125 318.039062 352.203125 328.570312 349.386719 C 305.585938 322.144531 292.730469 287.664062 286.800781 252.835938 C 285.347656 244.378906 285.613281 235.878906 284.683594 227.386719 C 275.746094 229.390625 268.023438 233.6875 260.460938 238.675781 C 253.40625 266.375 255.140625 295.441406 269.257812 320.707031 C 275.839844 332.105469 285.515625 344.820312 297.871094 350.300781 Z M 297.871094 350.300781 " fill-opacity="1" fill-rule="nonzero"/></g></g></g></g><g clip-path="url(#6985656614)"><g clip-path="url(#020341c591)"><g clip-path="url(#cd56a52751)"><g clip-path="url(#651ba08de3)"><path fill="#ffffff" d="M 213.152344 374.972656 C 219.695312 385.414062 230.503906 397.121094 243.582031 398.191406 C 251.023438 398.925781 255.867188 393.277344 261.234375 389.09375 C 247.4375 380.035156 241.789062 366.574219 235.269531 352.070312 C 229.714844 339.289062 226.535156 325.953125 222.335938 312.742188 C 213.941406 319.027344 206.886719 326.226562 200.578125 334.570312 C 202.859375 348.941406 204.988281 362.476562 213.152344 374.972656 Z M 213.152344 374.972656 " fill-opacity="1" fill-rule="nonzero"/></g></g></g></g></svg>