<svg xmlns="http://www.w3.org/2000/svg" xmlns:xlink="http://www.w3.org/1999/xlink" width="1080" zoomAndPan="magnify" viewBox="0 0 810 809.999993" height="1080" preserveAspectRatio="xMidYMid meet" version="1.0"><defs><clipPath id="bf44884aba"><path d="M 405 0 C 181.324219 0 0 181.324219 0 405 C 0 628.675781 181.324219 810 405 810 C 628.675781 810 810 628.675781 810 405 C 810 181.324219 628.675781 0 405 0 Z M 405 0 " clip-rule="nonzero"/></clipPath><clipPath id="d257ac24d3"><path d="M 233 152 L 555 152 L 555 672 L 233 672 Z M 233 152 " clip-rule="nonzero"/></clipPath><clipPath id="69f00b8fd6"><path d="M 455.414062 90.277344 L 699.613281 526.589844 L 354.925781 719.503906 L 110.730469 283.191406 Z M 455.414062 90.277344 " clip-rule="nonzero"/></clipPath><clipPath id="7b28a5bd7d"><path d="M 455.414062 90.277344 L 699.613281 526.589844 L 354.925781 719.503906 L 110.730469 283.191406 Z M 455.414062 90.277344 " clip-rule="nonzero"/></clipPath><clipPath id="ec3e23e7df"><path d="M 455.414062 90.277344 L 699.613281 526.589844 L 354.925781 719.503906 L 110.730469 283.191406 Z M 455.414062 90.277344 " clip-rule="nonzero"/></clipPath><clipPath id="1a1a90381c"><path d="M 287 174 L 498 174 L 498 476 L 287 476 Z M 287 174 " clip-rule="nonzero"/></clipPath><clipPath id="96b4abb2d7"><path d="M 455.414062 90.277344 L 699.613281 526.589844 L 354.925781 719.503906 L 110.730469 283.191406 Z M 455.414062 90.277344 " clip-rule="nonzero"/></clipPath><clipPath id="57f3d85fa1"><path d="M 455.414062 90.277344 L 699.613281 526.589844 L 354.925781 719.503906 L 110.730469 283.191406 Z M 455.414062 90.277344 " clip-rule="nonzero"/></clipPath><clipPath id="ebd14bf595"><path d="M 455.414062 90.277344 L 699.613281 526.589844 L 354.925781 719.503906 L 110.730469 283.191406 Z M 455.414062 90.277344 " clip-rule="nonzero"/></clipPath><clipPath id="bef8d8c3c8"><path d="M 271 416 L 536 416 L 536 655 L 271 655 Z M 271 416 " clip-rule="nonzero"/></clipPath><clipPath id="389723206f"><path d="M 455.414062 90.277344 L 699.613281 526.589844 L 354.925781 719.503906 L 110.730469 283.191406 Z M 455.414062 90.277344 " clip-rule="nonzero"/></clipPath><clipPath id="0c3f94e94e"><path d="M 455.414062 90.277344 L 699.613281 526.589844 L 354.925781 719.503906 L 110.730469 283.191406 Z M 455.414062 90.277344 " clip-rule="nonzero"/></clipPath><clipPath id="14b935ad87"><path d="M 455.414062 90.277344 L 699.613281 526.589844 L 354.925781 719.503906 L 110.730469 283.191406 Z M 455.414062 90.277344 " clip-rule="nonzero"/></clipPath><clipPath id="0b9291341b"><path d="M 249 414 L 334 414 L 334 508 L 249 508 Z M 249 414 " clip-rule="nonzero"/></clipPath><clipPath id="6460f8df26"><path d="M 455.414062 90.277344 L 699.613281 526.589844 L 354.925781 719.503906 L 110.730469 283.191406 Z M 455.414062 90.277344 " clip-rule="nonzero"/></clipPath><clipPath id="dabe55b124"><path d="M 455.414062 90.277344 L 699.613281 526.589844 L 354.925781 719.503906 L 110.730469 283.191406 Z M 455.414062 90.277344 " clip-rule="nonzero"/></clipPath><clipPath id="8fcfee67b6"><path d="M 455.414062 90.277344 L 699.613281 526.589844 L 354.925781 719.503906 L 110.730469 283.191406 Z M 455.414062 90.277344 " clip-rule="nonzero"/></clipPath><clipPath id="06932c4cc5"><path d="M 342 178 L 498 178 L 498 421 L 342 421 Z M 342 178 " clip-rule="nonzero"/></clipPath><clipPath id="6e99dca1dd"><path d="M 455.414062 90.277344 L 699.613281 526.589844 L 354.925781 719.503906 L 110.730469 283.191406 Z M 455.414062 90.277344 " clip-rule="nonzero"/></clipPath><clipPath id="730d277ecf"><path d="M 455.414062 90.277344 L 699.613281 526.589844 L 354.925781 719.503906 L 110.730469 283.191406 Z M 455.414062 90.277344 " clip-rule="nonzero"/></clipPath><clipPath id="ef2f885ddd"><path d="M 455.414062 90.277344 L 699.613281 526.589844 L 354.925781 719.503906 L 110.730469 283.191406 Z M 455.414062 90.277344 " clip-rule="nonzero"/></clipPath><clipPath id="b801553597"><path d="M 393 416 L 536 416 L 536 589 L 393 589 Z M 393 416 " clip-rule="nonzero"/></clipPath><clipPath id="95083f3444"><path d="M 455.414062 90.277344 L 699.613281 526.589844 L 354.925781 719.503906 L 110.730469 283.191406 Z M 455.414062 90.277344 " clip-rule="nonzero"/></clipPath><clipPath id="d84bbc7d25"><path d="M 455.414062 90.277344 L 699.613281 526.589844 L 354.925781 719.503906 L 110.730469 283.191406 Z M 455.414062 90.277344 " clip-rule="nonzero"/></clipPath><clipPath id="b2b966598e"><path d="M 455.414062 90.277344 L 699.613281 526.589844 L 354.925781 719.503906 L 110.730469 283.191406 Z M 455.414062 90.277344 " clip-rule="nonzero"/></clipPath><clipPath id="d5c3b896f5"><path d="M 331 495 L 498 495 L 498 651 L 331 651 Z M 331 495 " clip-rule="nonzero"/></clipPath><clipPath id="838a9a2aba"><path d="M 455.414062 90.277344 L 699.613281 526.589844 L 354.925781 719.503906 L 110.730469 283.191406 Z M 455.414062 90.277344 " clip-rule="nonzero"/></clipPath><clipPath id="b44bbf431a"><path d="M 455.414062 90.277344 L 699.613281 526.589844 L 354.925781 719.503906 L 110.730469 283.191406 Z M 455.414062 90.277344 " clip-rule="nonzero"/></clipPath><clipPath id="e29872c24c"><path d="M 455.414062 90.277344 L 699.613281 526.589844 L 354.925781 719.503906 L 110.730469 283.191406 Z M 455.414062 90.277344 " clip-rule="nonzero"/></clipPath><clipPath id="3c3abda02f"><path d="M 299 353 L 352 353 L 352 443 L 299 443 Z M 299 353 " clip-rule="nonzero"/></clipPath><clipPath id="6ef678ecb3"><path d="M 455.414062 90.277344 L 699.613281 526.589844 L 354.925781 719.503906 L 110.730469 283.191406 Z M 455.414062 90.277344 " clip-rule="nonzero"/></clipPath><clipPath id="91643dfe8e"><path d="M 455.414062 90.277344 L 699.613281 526.589844 L 354.925781 719.503906 L 110.730469 283.191406 Z M 455.414062 90.277344 " clip-rule="nonzero"/></clipPath><clipPath id="e83d1b24b2"><path d="M 455.414062 90.277344 L 699.613281 526.589844 L 354.925781 719.503906 L 110.730469 283.191406 Z M 455.414062 90.277344 " clip-rule="nonzero"/></clipPath><clipPath id="0acea5dc32"><path d="M 258 414 L 301 414 L 301 476 L 258 476 Z M 258 414 " clip-rule="nonzero"/></clipPath><clipPath id="ee1f84d649"><path d="M 455.414062 90.277344 L 699.613281 526.589844 L 354.925781 719.503906 L 110.730469 283.191406 Z M 455.414062 90.277344 " clip-rule="nonzero"/></clipPath><clipPath id="271bdc5628"><path d="M 455.414062 90.277344 L 699.613281 526.589844 L 354.925781 719.503906 L 110.730469 283.191406 Z M 455.414062 90.277344 " clip-rule="nonzero"/></clipPath><clipPath id="c2a82b088c"><path d="M 455.414062 90.277344 L 699.613281 526.589844 L 354.925781 719.503906 L 110.730469 283.191406 Z M 455.414062 90.277344 " clip-rule="nonzero"/></clipPath></defs><g clip-path="url(#bf44884aba)"><rect x="-81" width="972" fill="#ffde59" y="-80.999999" height="971.999992" fill-opacity="1"/></g><g clip-path="url(#d257ac24d3)"><g clip-path="url(#69f00b8fd6)"><g clip-path="url(#7b28a5bd7d)"><g clip-path="url(#ec3e23e7df)"><path fill="#232323" d="M 302.765625 200.625 C 298.5625 213.488281 298.429688 226.324219 299.195312 239.6875 C 301.222656 273.722656 308.28125 307.402344 321.238281 338.992188 C 305.65625 341.910156 290.03125 350.539062 280.59375 363.460938 C 273.042969 373.898438 272.742188 386.648438 273.308594 398.992188 C 258.285156 405.703125 247.269531 417.789062 239.1875 431.84375 C 234.324219 440.625 232.257812 450.671875 234.484375 460.582031 C 237.707031 476.207031 247.273438 489.882812 255.539062 502.839844 C 254.589844 514.917969 254.738281 526.832031 258.394531 538.523438 C 262.738281 552.074219 269.183594 566.246094 278.976562 576.726562 C 288.199219 586.648438 299.339844 594.597656 312.042969 599.367188 C 309.664062 610.527344 309.730469 621.707031 315.046875 632.074219 C 322.367188 647.808594 336.371094 658.003906 352.140625 664.207031 C 376.675781 673.625 404.503906 673.855469 429.898438 667.964844 C 453.71875 662.429688 477.574219 650.894531 494.671875 633.140625 C 506.234375 621.121094 514.75 605.785156 514.96875 588.742188 C 515.148438 581.351562 513.15625 574.515625 510.773438 567.605469 C 524.628906 556.019531 535.113281 541.378906 543.359375 525.390625 C 553.128906 506.679688 556.855469 485.191406 553.027344 464.335938 C 549.933594 445.203125 539.949219 427.539062 524.867188 415.308594 C 519.070312 410.640625 512.785156 407.398438 506.25 403.945312 C 506.835938 394.882812 505.953125 386.015625 505.636719 376.972656 C 504.164062 344.074219 506.46875 310.800781 510.386719 278.148438 C 512.453125 261.925781 513.804688 245.652344 515.046875 229.347656 C 516.796875 216.15625 516.027344 202.992188 510.207031 190.8125 C 503.789062 176.664062 491.324219 165.585938 476.175781 161.816406 C 461.316406 157.898438 445.410156 161.605469 433.328125 170.984375 C 426.453125 176.554688 419.433594 182.84375 416.457031 191.445312 C 411.855469 204.847656 408.984375 218.683594 407.511719 232.757812 C 406.5625 240.964844 406.417969 249.253906 405.375 257.4375 C 402.066406 237.054688 402.105469 216.089844 399.941406 195.554688 C 398.507812 184.691406 394.785156 174.347656 387.335938 166.128906 C 380.53125 157.980469 370.378906 153.054688 359.765625 152.859375 C 347.8125 152.632812 335.707031 157.296875 326.492188 164.796875 C 315.292969 174.152344 307.097656 186.710938 302.765625 200.625 Z M 302.765625 200.625 " fill-opacity="1" fill-rule="nonzero"/></g></g></g></g><g clip-path="url(#1a1a90381c)"><g clip-path="url(#96b4abb2d7)"><g clip-path="url(#57f3d85fa1)"><g clip-path="url(#ebd14bf595)"><path fill="#ababab" d="M 316.8125 229.632812 C 317.6875 261.988281 323.496094 294.0625 334.011719 324.671875 C 340.382812 345.824219 349.726562 365.757812 356.882812 386.566406 C 348.460938 375.84375 344.855469 364.382812 332.890625 356.464844 C 328.144531 354.15625 322.941406 352.949219 317.722656 354.265625 C 307.289062 358.503906 294.941406 365.414062 289.925781 376.054688 C 285.996094 385.464844 286.910156 397.28125 288.527344 407.144531 C 291.472656 421.789062 295.859375 436.351562 302.082031 449.945312 C 306.851562 460.425781 317.179688 464.6875 326.929688 469.273438 C 336.210938 473.261719 345.445312 477.414062 355.648438 473.949219 C 358.800781 472.714844 364.242188 471.210938 365.800781 467.996094 C 365.601562 462.96875 363.980469 457.386719 365.054688 452.429688 C 366.523438 445.921875 370.820312 439.472656 373.179688 433.367188 C 375.296875 429.757812 371.140625 425.050781 369.4375 421.9375 C 364.488281 414.140625 357.152344 412.539062 349.4375 408.730469 C 354.6875 408.347656 359.878906 408.453125 364.972656 409.882812 C 372.871094 411.925781 379.28125 417.269531 385.300781 422.519531 C 386.808594 421.828125 388.316406 421.140625 389.800781 420.449219 C 405.53125 412.875 424.367188 409.875 441.261719 405.324219 C 457.042969 401.160156 472.757812 397.953125 489.1875 399.445312 C 484.734375 358.738281 487.085938 318.441406 491.910156 277.917969 C 494.527344 256.855469 496.78125 235.566406 497.40625 214.328125 C 497.765625 206.355469 495.300781 198.570312 490.878906 191.957031 C 486.5 185.324219 480.671875 180.105469 472.519531 179.175781 C 454.703125 177.367188 437.644531 187.972656 430.320312 204.144531 C 425.660156 214.6875 424.613281 227.113281 423.324219 238.480469 C 421.066406 264.128906 420.261719 290.136719 421.957031 315.835938 C 423.210938 337.917969 426.488281 359.820312 427.734375 381.886719 C 433.527344 382.4375 439.1875 383.097656 444.675781 385.164062 C 431.105469 391.46875 415.332031 393.730469 400.460938 393.144531 C 405.570312 389.191406 411.382812 386.917969 417.351562 384.609375 C 414.804688 373.433594 410.570312 362.871094 407.582031 351.84375 C 395.761719 310.84375 390.453125 266.726562 386.441406 224.304688 C 385.246094 213.488281 386.507812 202.171875 381.402344 192.5625 C 378.363281 186.292969 373.386719 181.65625 367.425781 178.230469 C 351.367188 168.890625 329.402344 178.820312 321.898438 194.742188 C 316.246094 205.117188 316.878906 218.105469 316.8125 229.632812 Z M 316.8125 229.632812 " fill-opacity="1" fill-rule="nonzero"/></g></g></g></g><g clip-path="url(#bef8d8c3c8)"><g clip-path="url(#389723206f)"><g clip-path="url(#0c3f94e94e)"><g clip-path="url(#14b935ad87)"><path fill="#ababab" d="M 497.796875 587.664062 C 497.710938 585.875 497.589844 584.089844 497.445312 582.292969 C 477.605469 595.390625 453.519531 601.289062 430.09375 595.839844 C 438.742188 593.265625 447.601562 592.351562 455.984375 588.773438 C 478.21875 580.273438 496.449219 564.015625 510.113281 544.800781 C 520.703125 528.851562 531.449219 512.09375 534.507812 492.832031 C 537.40625 474.367188 533.882812 453.285156 521.847656 438.550781 C 512.472656 426.328125 497.390625 417.65625 481.882812 417.015625 C 467.609375 416.308594 452.296875 420.753906 438.472656 424.019531 C 423.800781 427.660156 408.148438 430.382812 394.40625 436.488281 C 388.648438 439.832031 384.023438 444.507812 381.8125 450.882812 C 377.671875 461.097656 383.472656 473.871094 391.261719 480.707031 C 402.84375 490.617188 419.613281 494.988281 434.523438 496.234375 C 452.085938 497.621094 467.949219 493.042969 484.640625 488.445312 C 477.585938 494.464844 469.828125 498.457031 460.859375 500.816406 C 441.890625 505.808594 423.851562 513.542969 407.769531 524.847656 C 399.417969 530.8125 392.425781 538.867188 383.652344 544.109375 C 385.753906 537.226562 386.429688 530.871094 390.386719 524.6875 C 395.113281 517.023438 401.84375 512.339844 409.121094 507.347656 C 400.027344 505.050781 391.648438 501.414062 384.449219 495.285156 C 379.507812 491.019531 375.554688 485.980469 371.65625 480.796875 C 362.835938 485.089844 355.296875 487.238281 345.550781 487.964844 C 339.199219 499.667969 329.921875 512.421875 317.8125 518.476562 C 303.273438 524.167969 285.503906 521.257812 271.597656 514.859375 C 272.117188 530.609375 277.40625 545.503906 285.132812 559.097656 C 293.480469 572.128906 306.070312 583.640625 320.78125 588.929688 C 334.839844 593.78125 348.84375 594.773438 363.527344 595.484375 C 351.941406 603.0625 339.433594 603.457031 326.113281 603.058594 C 326.328125 612.160156 326.769531 620.589844 332.105469 628.410156 C 341.414062 642.324219 358.253906 649.53125 374.144531 652.710938 C 392.488281 656.15625 412.226562 655.292969 430.136719 650.015625 C 448.070312 645.820312 465.511719 637.328125 479.167969 624.898438 C 489.566406 615.230469 498.136719 602.402344 497.796875 587.664062 Z M 497.796875 587.664062 " fill-opacity="1" fill-rule="nonzero"/></g></g></g></g><g clip-path="url(#0b9291341b)"><g clip-path="url(#6460f8df26)"><g clip-path="url(#dabe55b124)"><g clip-path="url(#8fcfee67b6)"><path fill="#ababab" d="M 298.933594 467.027344 C 292.480469 461.496094 288.972656 453.414062 285.554688 445.8125 C 281.082031 435.65625 278.535156 425.140625 275.527344 414.496094 C 269.285156 419.359375 263.621094 424.71875 258.835938 431.027344 C 253.703125 437.789062 248.21875 445.605469 249.257812 454.578125 C 250.464844 463.847656 255.789062 473.082031 260.316406 481.136719 C 267.628906 493.886719 279.132812 503.976562 293.933594 506.5 C 301.039062 507.621094 310.328125 508.519531 316.433594 503.945312 C 323.269531 499.066406 328.832031 491.988281 333.414062 485.007812 C 321.292969 479.425781 309.433594 475.707031 298.933594 467.027344 Z M 298.933594 467.027344 " fill-opacity="1" fill-rule="nonzero"/></g></g></g></g><g clip-path="url(#06932c4cc5)"><g clip-path="url(#6e99dca1dd)"><g clip-path="url(#730d277ecf)"><g clip-path="url(#ef2f885ddd)"><path fill="#ffffff" d="M 351.773438 188.203125 C 343.386719 201.296875 341.683594 219.074219 342.1875 234.304688 C 343.1875 258.832031 347.285156 283.519531 352.78125 307.429688 C 358.703125 333.285156 365.867188 359.128906 375.300781 383.9375 C 379.878906 396.265625 385.929688 407.84375 389.800781 420.449219 C 405.53125 412.875 424.367188 409.875 441.261719 405.324219 C 457.042969 401.160156 472.757812 397.953125 489.1875 399.445312 C 484.734375 358.738281 487.085938 318.441406 491.910156 277.917969 C 494.527344 256.855469 496.78125 235.566406 497.40625 214.328125 C 497.765625 206.355469 495.300781 198.570312 490.878906 191.957031 C 486.148438 190.171875 479.449219 187.023438 474.414062 188.804688 C 467.800781 191.667969 463.054688 198.738281 459.921875 205.003906 C 451.980469 220.980469 449.210938 240.09375 446.902344 257.660156 C 443.832031 283.390625 443.214844 309.488281 442.675781 335.382812 C 442.695312 345.945312 442.546875 357.222656 445.355469 367.472656 C 448.113281 376.871094 454.175781 383.832031 460.171875 391.300781 C 451.546875 393.78125 442.855469 395.757812 433.875 396.347656 C 420.804688 397.195312 408.605469 398.589844 395.582031 397.363281 C 397.183594 395.9375 398.789062 394.511719 400.460938 393.144531 C 405.570312 389.191406 411.382812 386.917969 417.351562 384.609375 C 414.804688 373.433594 410.570312 362.871094 407.582031 351.84375 C 395.761719 310.84375 390.453125 266.726562 386.441406 224.304688 C 385.246094 213.488281 386.507812 202.171875 381.402344 192.5625 C 378.363281 186.292969 373.386719 181.65625 367.425781 178.230469 C 361.398438 180.882812 355.464844 182.210938 351.773438 188.203125 Z M 351.773438 188.203125 " fill-opacity="1" fill-rule="nonzero"/></g></g></g></g><g clip-path="url(#b801553597)"><g clip-path="url(#95083f3444)"><g clip-path="url(#d84bbc7d25)"><g clip-path="url(#b2b966598e)"><path fill="#ffffff" d="M 394.40625 436.488281 C 393.394531 444.65625 391.773438 452.011719 396.996094 459.285156 C 404.964844 470.695312 418.796875 473.578125 431.753906 474.964844 C 450.855469 477.148438 469.152344 473.882812 487.722656 469.78125 C 490.210938 473.742188 492.519531 477.375 492.492188 482.214844 C 492.523438 488.507812 488.855469 493.21875 484.6875 497.527344 C 473.25 509.003906 457.6875 517.011719 445.871094 526.695312 C 437.714844 533.46875 430.226562 542.230469 428.171875 552.933594 C 426.277344 562.277344 429.332031 572.332031 436.289062 578.910156 C 441.808594 584.203125 448.964844 586.3125 455.984375 588.773438 C 478.21875 580.273438 496.449219 564.015625 510.113281 544.800781 C 520.703125 528.851562 531.449219 512.09375 534.507812 492.832031 C 537.40625 474.367188 533.882812 453.285156 521.847656 438.550781 C 512.472656 426.328125 497.390625 417.65625 481.882812 417.015625 C 467.609375 416.308594 452.296875 420.753906 438.472656 424.019531 C 423.800781 427.660156 408.148438 430.382812 394.40625 436.488281 Z M 394.40625 436.488281 " fill-opacity="1" fill-rule="nonzero"/></g></g></g></g><g clip-path="url(#d5c3b896f5)"><g clip-path="url(#838a9a2aba)"><g clip-path="url(#b44bbf431a)"><g clip-path="url(#e29872c24c)"><path fill="#ffffff" d="M 410.875 589.089844 C 398.835938 584.671875 387.964844 576.472656 383.394531 564.125 C 380.863281 557.472656 381.519531 550.734375 383.652344 544.109375 C 385.753906 537.226562 386.429688 530.871094 390.386719 524.6875 C 395.113281 517.023438 401.84375 512.339844 409.121094 507.347656 C 400.027344 505.050781 391.648438 501.414062 384.449219 495.285156 C 371.71875 494.890625 359.402344 497.191406 349.175781 505.21875 C 329.867188 519.015625 326.757812 548.441406 339.394531 567.707031 C 347.367188 580.90625 360.253906 588.445312 375.238281 590.980469 C 369.886719 597.984375 364.589844 604.5625 364.707031 613.875 C 364.886719 625.359375 373.4375 634.289062 382.78125 639.824219 C 397.3125 648.457031 413.695312 649.40625 430.136719 650.015625 C 448.070312 645.820312 465.511719 637.328125 479.167969 624.898438 C 489.566406 615.230469 498.136719 602.402344 497.796875 587.664062 C 497.710938 585.875 497.589844 584.089844 497.445312 582.292969 C 477.605469 595.390625 453.519531 601.289062 430.09375 595.839844 C 423.472656 594.71875 417.203125 591.292969 410.875 589.089844 Z M 410.875 589.089844 " fill-opacity="1" fill-rule="nonzero"/></g></g></g></g><g clip-path="url(#3c3abda02f)"><g clip-path="url(#6ef678ecb3)"><g clip-path="url(#91643dfe8e)"><g clip-path="url(#e83d1b24b2)"><path fill="#ffffff" d="M 301.15625 368.011719 C 296.574219 390.761719 302.296875 415.90625 318.320312 433.101562 C 323.601562 438.703125 330.171875 443.328125 338.203125 442.957031 C 345.589844 442.730469 351.304688 435.644531 351.582031 428.570312 C 351.320312 423.988281 348.289062 419.375 346.34375 415.304688 C 340.636719 404.726562 336.847656 393.109375 334.84375 381.257812 C 333.441406 373 333.808594 364.761719 332.890625 356.464844 C 328.144531 354.15625 322.941406 352.949219 317.722656 354.265625 C 312.183594 357.308594 302.085938 360.847656 301.15625 368.011719 Z M 301.15625 368.011719 " fill-opacity="1" fill-rule="nonzero"/></g></g></g></g><g clip-path="url(#0acea5dc32)"><g clip-path="url(#ee1f84d649)"><g clip-path="url(#271bdc5628)"><g clip-path="url(#c2a82b088c)"><path fill="#ffffff" d="M 267.230469 457.746094 C 271.542969 464.890625 278.171875 472.6875 286.597656 474.808594 C 291.1875 476.070312 295.859375 473.707031 300.15625 472.28125 C 299.753906 470.515625 299.34375 468.769531 298.933594 467.027344 C 292.480469 461.496094 288.972656 453.414062 285.554688 445.8125 C 281.082031 435.65625 278.535156 425.140625 275.527344 414.496094 C 269.285156 419.359375 263.621094 424.71875 258.835938 431.027344 C 260.425781 440.457031 262.121094 449.453125 267.230469 457.746094 Z M 267.230469 457.746094 " fill-opacity="1" fill-rule="nonzero"/></g></g></g></g></svg>