<svg xmlns="http://www.w3.org/2000/svg" xmlns:xlink="http://www.w3.org/1999/xlink" width="1050" zoomAndPan="magnify" viewBox="0 0 787.5 374.999991" height="500" preserveAspectRatio="xMidYMid meet" version="1.0"><defs><g/><clipPath id="6762c351eb"><path d="M 0 0.117188 L 374.761719 0.117188 L 374.761719 374.878906 L 0 374.878906 Z M 0 0.117188 " clip-rule="nonzero"/></clipPath><clipPath id="926a2399f8"><path d="M 187.382812 0.117188 C 83.894531 0.117188 0 84.011719 0 187.5 C 0 290.988281 83.894531 374.882812 187.382812 374.882812 C 290.867188 374.882812 374.761719 290.988281 374.761719 187.5 C 374.761719 84.011719 290.867188 0.117188 187.382812 0.117188 Z M 187.382812 0.117188 " clip-rule="nonzero"/></clipPath><clipPath id="f5006f5732"><path d="M 76 68 L 282 68 L 282 309 L 76 309 Z M 76 68 " clip-rule="nonzero"/></clipPath><clipPath id="3c9aa7ee48"><path d="M 219.175781 35.59375 L 334.8125 235.953125 L 155.492188 339.449219 L 39.855469 139.089844 Z M 219.175781 35.59375 " clip-rule="nonzero"/></clipPath><clipPath id="95b3b25c0c"><path d="M 219.175781 35.59375 L 334.8125 235.953125 L 155.492188 339.449219 L 39.855469 139.089844 Z M 219.175781 35.59375 " clip-rule="nonzero"/></clipPath><clipPath id="4a05a36ca4"><path d="M 219.175781 35.59375 L 334.8125 235.953125 L 155.492188 339.449219 L 39.855469 139.089844 Z M 219.175781 35.59375 " clip-rule="nonzero"/></clipPath><clipPath id="0f5a806cd1"><path d="M 201 78 L 250 78 L 250 139 L 201 139 Z M 201 78 " clip-rule="nonzero"/></clipPath><clipPath id="9e109720be"><path d="M 219.175781 35.59375 L 334.8125 235.953125 L 155.492188 339.449219 L 39.855469 139.089844 Z M 219.175781 35.59375 " clip-rule="nonzero"/></clipPath><clipPath id="bd674e2e71"><path d="M 219.175781 35.59375 L 334.8125 235.953125 L 155.492188 339.449219 L 39.855469 139.089844 Z M 219.175781 35.59375 " clip-rule="nonzero"/></clipPath><clipPath id="56f4eb93ba"><path d="M 219.175781 35.59375 L 334.8125 235.953125 L 155.492188 339.449219 L 39.855469 139.089844 Z M 219.175781 35.59375 " clip-rule="nonzero"/></clipPath><clipPath id="78fcdbb561"><path d="M 141 79 L 201 79 L 201 160 L 141 160 Z M 141 79 " clip-rule="nonzero"/></clipPath><clipPath id="496eb65117"><path d="M 219.175781 35.59375 L 334.8125 235.953125 L 155.492188 339.449219 L 39.855469 139.089844 Z M 219.175781 35.59375 " clip-rule="nonzero"/></clipPath><clipPath id="57384659ac"><path d="M 219.175781 35.59375 L 334.8125 235.953125 L 155.492188 339.449219 L 39.855469 139.089844 Z M 219.175781 35.59375 " clip-rule="nonzero"/></clipPath><clipPath id="2510d1514b"><path d="M 219.175781 35.59375 L 334.8125 235.953125 L 155.492188 339.449219 L 39.855469 139.089844 Z M 219.175781 35.59375 " clip-rule="nonzero"/></clipPath><clipPath id="7fc5842f02"><path d="M 100 144 L 270 144 L 270 298 L 100 298 Z M 100 144 " clip-rule="nonzero"/></clipPath><clipPath id="57d164d4f5"><path d="M 219.175781 35.59375 L 334.8125 235.953125 L 155.492188 339.449219 L 39.855469 139.089844 Z M 219.175781 35.59375 " clip-rule="nonzero"/></clipPath><clipPath id="fccc98ead0"><path d="M 219.175781 35.59375 L 334.8125 235.953125 L 155.492188 339.449219 L 39.855469 139.089844 Z M 219.175781 35.59375 " clip-rule="nonzero"/></clipPath><clipPath id="02d229d27e"><path d="M 219.175781 35.59375 L 334.8125 235.953125 L 155.492188 339.449219 L 39.855469 139.089844 Z M 219.175781 35.59375 " clip-rule="nonzero"/></clipPath><clipPath id="33109a7d31"><path d="M 110 105 L 162 105 L 162 183 L 110 183 Z M 110 105 " clip-rule="nonzero"/></clipPath><clipPath id="15c7fd0042"><path d="M 219.175781 35.59375 L 334.8125 235.953125 L 155.492188 339.449219 L 39.855469 139.089844 Z M 219.175781 35.59375 " clip-rule="nonzero"/></clipPath><clipPath id="d789f41783"><path d="M 219.175781 35.59375 L 334.8125 235.953125 L 155.492188 339.449219 L 39.855469 139.089844 Z M 219.175781 35.59375 " clip-rule="nonzero"/></clipPath><clipPath id="1f8cd0b851"><path d="M 219.175781 35.59375 L 334.8125 235.953125 L 155.492188 339.449219 L 39.855469 139.089844 Z M 219.175781 35.59375 " clip-rule="nonzero"/></clipPath><clipPath id="d43b761869"><path d="M 86 144 L 141 144 L 141 204 L 86 204 Z M 86 144 " clip-rule="nonzero"/></clipPath><clipPath id="6a5eda31ed"><path d="M 219.175781 35.59375 L 334.8125 235.953125 L 155.492188 339.449219 L 39.855469 139.089844 Z M 219.175781 35.59375 " clip-rule="nonzero"/></clipPath><clipPath id="a6fb8b9b55"><path d="M 219.175781 35.59375 L 334.8125 235.953125 L 155.492188 339.449219 L 39.855469 139.089844 Z M 219.175781 35.59375 " clip-rule="nonzero"/></clipPath><clipPath id="115f2243d4"><path d="M 219.175781 35.59375 L 334.8125 235.953125 L 155.492188 339.449219 L 39.855469 139.089844 Z M 219.175781 35.59375 " clip-rule="nonzero"/></clipPath><clipPath id="9e9677ee43"><path d="M 215 78 L 250 78 L 250 136 L 215 136 Z M 215 78 " clip-rule="nonzero"/></clipPath><clipPath id="82cf34a5fc"><path d="M 219.175781 35.59375 L 334.8125 235.953125 L 155.492188 339.449219 L 39.855469 139.089844 Z M 219.175781 35.59375 " clip-rule="nonzero"/></clipPath><clipPath id="132f4866c5"><path d="M 219.175781 35.59375 L 334.8125 235.953125 L 155.492188 339.449219 L 39.855469 139.089844 Z M 219.175781 35.59375 " clip-rule="nonzero"/></clipPath><clipPath id="99b178bd49"><path d="M 219.175781 35.59375 L 334.8125 235.953125 L 155.492188 339.449219 L 39.855469 139.089844 Z M 219.175781 35.59375 " clip-rule="nonzero"/></clipPath><clipPath id="c1abd51ccf"><path d="M 179 144 L 270 144 L 270 255 L 179 255 Z M 179 144 " clip-rule="nonzero"/></clipPath><clipPath id="20f5957f6e"><path d="M 219.175781 35.59375 L 334.8125 235.953125 L 155.492188 339.449219 L 39.855469 139.089844 Z M 219.175781 35.59375 " clip-rule="nonzero"/></clipPath><clipPath id="f9c47e0cf4"><path d="M 219.175781 35.59375 L 334.8125 235.953125 L 155.492188 339.449219 L 39.855469 139.089844 Z M 219.175781 35.59375 " clip-rule="nonzero"/></clipPath><clipPath id="f0064fff74"><path d="M 219.175781 35.59375 L 334.8125 235.953125 L 155.492188 339.449219 L 39.855469 139.089844 Z M 219.175781 35.59375 " clip-rule="nonzero"/></clipPath><clipPath id="c232b8a919"><path d="M 158 79 L 201 79 L 201 149 L 158 149 Z M 158 79 " clip-rule="nonzero"/></clipPath><clipPath id="97c776db3e"><path d="M 219.175781 35.59375 L 334.8125 235.953125 L 155.492188 339.449219 L 39.855469 139.089844 Z M 219.175781 35.59375 " clip-rule="nonzero"/></clipPath><clipPath id="95f766a7c1"><path d="M 219.175781 35.59375 L 334.8125 235.953125 L 155.492188 339.449219 L 39.855469 139.089844 Z M 219.175781 35.59375 " clip-rule="nonzero"/></clipPath><clipPath id="7880cb84e5"><path d="M 219.175781 35.59375 L 334.8125 235.953125 L 155.492188 339.449219 L 39.855469 139.089844 Z M 219.175781 35.59375 " clip-rule="nonzero"/></clipPath><clipPath id="1c4fdbaccc"><path d="M 140 195 L 247 195 L 247 296 L 140 296 Z M 140 195 " clip-rule="nonzero"/></clipPath><clipPath id="0d516c42ba"><path d="M 219.175781 35.59375 L 334.8125 235.953125 L 155.492188 339.449219 L 39.855469 139.089844 Z M 219.175781 35.59375 " clip-rule="nonzero"/></clipPath><clipPath id="8e18474a62"><path d="M 219.175781 35.59375 L 334.8125 235.953125 L 155.492188 339.449219 L 39.855469 139.089844 Z M 219.175781 35.59375 " clip-rule="nonzero"/></clipPath><clipPath id="3bfb9242a7"><path d="M 219.175781 35.59375 L 334.8125 235.953125 L 155.492188 339.449219 L 39.855469 139.089844 Z M 219.175781 35.59375 " clip-rule="nonzero"/></clipPath><clipPath id="e7410a3642"><path d="M 118 105 L 153 105 L 153 164 L 118 164 Z M 118 105 " clip-rule="nonzero"/></clipPath><clipPath id="61d4689d72"><path d="M 219.175781 35.59375 L 334.8125 235.953125 L 155.492188 339.449219 L 39.855469 139.089844 Z M 219.175781 35.59375 " clip-rule="nonzero"/></clipPath><clipPath id="ff9087b3c7"><path d="M 219.175781 35.59375 L 334.8125 235.953125 L 155.492188 339.449219 L 39.855469 139.089844 Z M 219.175781 35.59375 " clip-rule="nonzero"/></clipPath><clipPath id="8bd57777c7"><path d="M 219.175781 35.59375 L 334.8125 235.953125 L 155.492188 339.449219 L 39.855469 139.089844 Z M 219.175781 35.59375 " clip-rule="nonzero"/></clipPath><clipPath id="66be3b1123"><path d="M 92 144 L 121 144 L 121 185 L 92 185 Z M 92 144 " clip-rule="nonzero"/></clipPath><clipPath id="f5aef0b884"><path d="M 219.175781 35.59375 L 334.8125 235.953125 L 155.492188 339.449219 L 39.855469 139.089844 Z M 219.175781 35.59375 " clip-rule="nonzero"/></clipPath><clipPath id="014afcd81f"><path d="M 219.175781 35.59375 L 334.8125 235.953125 L 155.492188 339.449219 L 39.855469 139.089844 Z M 219.175781 35.59375 " clip-rule="nonzero"/></clipPath><clipPath id="5e4001c289"><path d="M 219.175781 35.59375 L 334.8125 235.953125 L 155.492188 339.449219 L 39.855469 139.089844 Z M 219.175781 35.59375 " clip-rule="nonzero"/></clipPath><clipPath id="45a89abb38"><path d="M 412.238281 0.117188 L 787 0.117188 L 787 374.878906 L 412.238281 374.878906 Z M 412.238281 0.117188 " clip-rule="nonzero"/></clipPath><clipPath id="ce45c58aad"><path d="M 599.621094 0.117188 C 496.132812 0.117188 412.238281 84.011719 412.238281 187.5 C 412.238281 290.988281 496.132812 374.882812 599.621094 374.882812 C 703.105469 374.882812 787 290.988281 787 187.5 C 787 84.011719 703.105469 0.117188 599.621094 0.117188 Z M 599.621094 0.117188 " clip-rule="nonzero"/></clipPath><clipPath id="e6918bdfb9"><path d="M 520 70 L 669 70 L 669 311 L 520 311 Z M 520 70 " clip-rule="nonzero"/></clipPath><clipPath id="5309843de9"><path d="M 622.945312 41.886719 L 735.925781 243.757812 L 576.453125 333.011719 L 463.46875 131.144531 Z M 622.945312 41.886719 " clip-rule="nonzero"/></clipPath><clipPath id="3f627e6526"><path d="M 622.945312 41.886719 L 735.925781 243.757812 L 576.453125 333.011719 L 463.46875 131.144531 Z M 622.945312 41.886719 " clip-rule="nonzero"/></clipPath><clipPath id="13489c38f1"><path d="M 622.945312 41.886719 L 735.925781 243.757812 L 576.453125 333.011719 L 463.46875 131.144531 Z M 622.945312 41.886719 " clip-rule="nonzero"/></clipPath><clipPath id="582396b43b"><path d="M 545 80 L 643 80 L 643 220 L 545 220 Z M 545 80 " clip-rule="nonzero"/></clipPath><clipPath id="6f533be597"><path d="M 622.945312 41.886719 L 735.925781 243.757812 L 576.453125 333.011719 L 463.46875 131.144531 Z M 622.945312 41.886719 " clip-rule="nonzero"/></clipPath><clipPath id="9c0af5e47f"><path d="M 622.945312 41.886719 L 735.925781 243.757812 L 576.453125 333.011719 L 463.46875 131.144531 Z M 622.945312 41.886719 " clip-rule="nonzero"/></clipPath><clipPath id="a782494b92"><path d="M 622.945312 41.886719 L 735.925781 243.757812 L 576.453125 333.011719 L 463.46875 131.144531 Z M 622.945312 41.886719 " clip-rule="nonzero"/></clipPath><clipPath id="2454c71f1d"><path d="M 537 193 L 660 193 L 660 304 L 537 304 Z M 537 193 " clip-rule="nonzero"/></clipPath><clipPath id="69498c7563"><path d="M 622.945312 41.886719 L 735.925781 243.757812 L 576.453125 333.011719 L 463.46875 131.144531 Z M 622.945312 41.886719 " clip-rule="nonzero"/></clipPath><clipPath id="32e6810800"><path d="M 622.945312 41.886719 L 735.925781 243.757812 L 576.453125 333.011719 L 463.46875 131.144531 Z M 622.945312 41.886719 " clip-rule="nonzero"/></clipPath><clipPath id="db307955fb"><path d="M 622.945312 41.886719 L 735.925781 243.757812 L 576.453125 333.011719 L 463.46875 131.144531 Z M 622.945312 41.886719 " clip-rule="nonzero"/></clipPath><clipPath id="5b08d3619a"><path d="M 527 191 L 567 191 L 567 235 L 527 235 Z M 527 191 " clip-rule="nonzero"/></clipPath><clipPath id="8779b903a5"><path d="M 622.945312 41.886719 L 735.925781 243.757812 L 576.453125 333.011719 L 463.46875 131.144531 Z M 622.945312 41.886719 " clip-rule="nonzero"/></clipPath><clipPath id="f5ff6c4b0d"><path d="M 622.945312 41.886719 L 735.925781 243.757812 L 576.453125 333.011719 L 463.46875 131.144531 Z M 622.945312 41.886719 " clip-rule="nonzero"/></clipPath><clipPath id="d96edd8703"><path d="M 622.945312 41.886719 L 735.925781 243.757812 L 576.453125 333.011719 L 463.46875 131.144531 Z M 622.945312 41.886719 " clip-rule="nonzero"/></clipPath><clipPath id="eb7be30bde"><path d="M 570 82 L 643 82 L 643 195 L 570 195 Z M 570 82 " clip-rule="nonzero"/></clipPath><clipPath id="081a83bae2"><path d="M 622.945312 41.886719 L 735.925781 243.757812 L 576.453125 333.011719 L 463.46875 131.144531 Z M 622.945312 41.886719 " clip-rule="nonzero"/></clipPath><clipPath id="463e733c84"><path d="M 622.945312 41.886719 L 735.925781 243.757812 L 576.453125 333.011719 L 463.46875 131.144531 Z M 622.945312 41.886719 " clip-rule="nonzero"/></clipPath><clipPath id="ee6cc47b37"><path d="M 622.945312 41.886719 L 735.925781 243.757812 L 576.453125 333.011719 L 463.46875 131.144531 Z M 622.945312 41.886719 " clip-rule="nonzero"/></clipPath><clipPath id="e6c92ed9bb"><path d="M 594 193 L 660 193 L 660 273 L 594 273 Z M 594 193 " clip-rule="nonzero"/></clipPath><clipPath id="f7c3b16a80"><path d="M 622.945312 41.886719 L 735.925781 243.757812 L 576.453125 333.011719 L 463.46875 131.144531 Z M 622.945312 41.886719 " clip-rule="nonzero"/></clipPath><clipPath id="91e36f7692"><path d="M 622.945312 41.886719 L 735.925781 243.757812 L 576.453125 333.011719 L 463.46875 131.144531 Z M 622.945312 41.886719 " clip-rule="nonzero"/></clipPath><clipPath id="676ab8c74f"><path d="M 622.945312 41.886719 L 735.925781 243.757812 L 576.453125 333.011719 L 463.46875 131.144531 Z M 622.945312 41.886719 " clip-rule="nonzero"/></clipPath><clipPath id="779541bb45"><path d="M 565 229 L 643 229 L 643 301 L 565 301 Z M 565 229 " clip-rule="nonzero"/></clipPath><clipPath id="ee7f667b1d"><path d="M 622.945312 41.886719 L 735.925781 243.757812 L 576.453125 333.011719 L 463.46875 131.144531 Z M 622.945312 41.886719 " clip-rule="nonzero"/></clipPath><clipPath id="3ab0fe7c10"><path d="M 622.945312 41.886719 L 735.925781 243.757812 L 576.453125 333.011719 L 463.46875 131.144531 Z M 622.945312 41.886719 " clip-rule="nonzero"/></clipPath><clipPath id="7b9d40760f"><path d="M 622.945312 41.886719 L 735.925781 243.757812 L 576.453125 333.011719 L 463.46875 131.144531 Z M 622.945312 41.886719 " clip-rule="nonzero"/></clipPath><clipPath id="db9dfdf254"><path d="M 550 163 L 575 163 L 575 206 L 550 206 Z M 550 163 " clip-rule="nonzero"/></clipPath><clipPath id="21911bea6f"><path d="M 622.945312 41.886719 L 735.925781 243.757812 L 576.453125 333.011719 L 463.46875 131.144531 Z M 622.945312 41.886719 " clip-rule="nonzero"/></clipPath><clipPath id="4a0480c8f2"><path d="M 622.945312 41.886719 L 735.925781 243.757812 L 576.453125 333.011719 L 463.46875 131.144531 Z M 622.945312 41.886719 " clip-rule="nonzero"/></clipPath><clipPath id="662a9f5238"><path d="M 622.945312 41.886719 L 735.925781 243.757812 L 576.453125 333.011719 L 463.46875 131.144531 Z M 622.945312 41.886719 " clip-rule="nonzero"/></clipPath><clipPath id="d858cbe559"><path d="M 531 191 L 552 191 L 552 220 L 531 220 Z M 531 191 " clip-rule="nonzero"/></clipPath><clipPath id="d574e2d982"><path d="M 622.945312 41.886719 L 735.925781 243.757812 L 576.453125 333.011719 L 463.46875 131.144531 Z M 622.945312 41.886719 " clip-rule="nonzero"/></clipPath><clipPath id="2624203338"><path d="M 622.945312 41.886719 L 735.925781 243.757812 L 576.453125 333.011719 L 463.46875 131.144531 Z M 622.945312 41.886719 " clip-rule="nonzero"/></clipPath><clipPath id="dcf2455330"><path d="M 622.945312 41.886719 L 735.925781 243.757812 L 576.453125 333.011719 L 463.46875 131.144531 Z M 622.945312 41.886719 " clip-rule="nonzero"/></clipPath><clipPath id="050377d40e"><path d="M 376 164.101562 L 448.609375 164.101562 L 448.609375 265.546875 L 376 265.546875 Z M 376 164.101562 " clip-rule="nonzero"/></clipPath><clipPath id="d7cbe3e29f"><path d="M 347.429688 90.9375 L 435.945312 90.9375 L 435.945312 284.308594 L 347.429688 284.308594 Z M 347.429688 90.9375 " clip-rule="nonzero"/></clipPath></defs><g clip-path="url(#6762c351eb)"><g clip-path="url(#926a2399f8)"><path fill="#ff9441" d="M 0 0.117188 L 374.761719 0.117188 L 374.761719 374.882812 L 0 374.882812 Z M 0 0.117188 " fill-opacity="1" fill-rule="nonzero"/></g></g><g clip-path="url(#f5006f5732)"><g clip-path="url(#3c9aa7ee48)"><g clip-path="url(#95b3b25c0c)"><g clip-path="url(#4a05a36ca4)"><path fill="#232323" d="M 108.1875 108.941406 C 104.289062 113.152344 102.042969 118.132812 101.484375 123.839844 C 100.964844 127.5625 101.511719 131.386719 100.859375 135.054688 C 91.335938 139.722656 84.210938 147.707031 79.34375 156.996094 C 76.53125 162.480469 75.578125 168.664062 77.042969 174.6875 C 79.40625 185 85.417969 192.949219 90.808594 201.484375 C 89.894531 212.027344 91.285156 222.089844 95.820312 231.714844 C 101.609375 246.019531 113.296875 257.285156 127.765625 262.597656 C 126.203125 269.8125 126.464844 277.070312 130.039062 283.675781 C 134.902344 293.609375 143.953125 299.910156 154.074219 303.730469 C 169.867188 309.507812 187.777344 309.296875 203.972656 305.296875 C 219.863281 301.34375 235.617188 293.246094 246.4375 280.75 C 253.707031 272.453125 258.675781 261.222656 257.183594 250.042969 C 256.882812 246.734375 255.113281 243.515625 255.121094 240.253906 C 264.894531 231.128906 272.480469 220.046875 277.582031 207.691406 C 283.152344 193.988281 283.273438 178.105469 278.03125 164.289062 C 274.210938 154.027344 266.949219 145.855469 257.988281 139.769531 C 261.324219 123.414062 256.988281 107.023438 250.816406 91.90625 C 247.617188 84.835938 242.820312 77.023438 235.945312 73.007812 C 228.386719 68.171875 218.371094 67.351562 209.859375 69.832031 C 203.105469 72.019531 198.441406 76.761719 194.96875 82.753906 C 192.550781 79.003906 190.503906 75.480469 186.394531 73.351562 C 178.695312 69.152344 168.59375 69.789062 160.46875 72.328125 C 149.46875 75.859375 138.535156 84.066406 134.046875 94.972656 C 124.644531 97.242188 114.792969 101.71875 108.1875 108.941406 Z M 108.1875 108.941406 " fill-opacity="1" fill-rule="nonzero"/></g></g></g></g><g clip-path="url(#0f5a806cd1)"><g clip-path="url(#9e109720be)"><g clip-path="url(#bd674e2e71)"><g clip-path="url(#56f4eb93ba)"><path fill="#ababab" d="M 201.601562 100.398438 C 201.363281 113.113281 202.777344 125.921875 204.558594 138.492188 C 209.980469 137.074219 215.347656 135.597656 220.84375 134.5 C 226.546875 133.371094 232.320312 132.757812 238.128906 133.230469 C 241.871094 133.496094 245.695312 134.710938 249.371094 135.609375 C 250.351562 124.050781 247.699219 113.367188 244.503906 102.339844 C 242.6875 96.121094 239.804688 90.273438 235.730469 85.21875 C 232.828125 81.734375 228.824219 79.792969 224.476562 78.78125 C 218.851562 78.039062 212.449219 78.265625 208.003906 82.25 C 202.847656 86.773438 201.824219 93.917969 201.601562 100.398438 Z M 201.601562 100.398438 " fill-opacity="1" fill-rule="nonzero"/></g></g></g></g><g clip-path="url(#78fcdbb561)"><g clip-path="url(#496eb65117)"><g clip-path="url(#57384659ac)"><g clip-path="url(#2510d1514b)"><path fill="#ababab" d="M 142.5625 116.445312 C 145.691406 132.113281 151.78125 148.183594 163.167969 159.738281 C 166.589844 155.246094 170.585938 151.570312 175.089844 148.1875 C 182.5 143.800781 191.949219 141.945312 200.195312 139.589844 C 197.066406 128.109375 194.113281 116.316406 192.960938 104.464844 C 192.496094 100.144531 193.042969 96.257812 191.257812 92.269531 C 189.515625 88.203125 186.789062 83.238281 182.699219 81.144531 C 176.8125 78.378906 170.019531 79.78125 164.007812 81.378906 C 157.046875 84.238281 149.570312 88.617188 145.128906 94.855469 C 140.941406 101.078125 141.246094 109.371094 142.5625 116.445312 Z M 142.5625 116.445312 " fill-opacity="1" fill-rule="nonzero"/></g></g></g></g><g clip-path="url(#7fc5842f02)"><g clip-path="url(#57d164d4f5)"><g clip-path="url(#fccc98ead0)"><g clip-path="url(#02d229d27e)"><path fill="#ababab" d="M 246.234375 249.972656 C 233.257812 258.871094 217.410156 262.660156 201.972656 259.027344 C 208.011719 257.429688 214.082031 256.871094 219.914062 254.460938 C 233.738281 248.996094 245.484375 238.191406 253.878906 226.089844 C 260.089844 216.566406 266.503906 206.226562 268.730469 194.953125 C 270.699219 185.125 269.675781 174.457031 265.414062 165.34375 C 260.675781 155.589844 251.84375 147.980469 241.25 145.351562 C 230.566406 142.824219 219.503906 146.292969 209.160156 148.867188 C 199.613281 151.472656 189.214844 153.234375 180.195312 157.269531 C 176.097656 159.242188 172.976562 162.1875 171.332031 166.472656 C 169.203125 171.375 170.605469 176.4375 173.167969 180.859375 C 176.175781 185.980469 181.230469 189.199219 186.597656 191.410156 C 195.867188 195.132812 206.007812 196.394531 215.917969 195.179688 C 223.652344 194.429688 230.644531 191.9375 238.046875 189.78125 C 233.316406 193.554688 228.191406 196.625 222.300781 198.214844 C 211.253906 201.320312 200.203125 205.875 190.722656 212.386719 C 184.335938 216.78125 179.253906 222.214844 173.363281 227.011719 C 174.335938 222.222656 174.785156 217.8125 177.558594 213.609375 C 180.492188 208.945312 184.671875 206.003906 189.152344 202.96875 C 183.480469 201.472656 178.207031 199.359375 173.507812 195.769531 C 170.257812 192.953125 167.550781 189.660156 164.949219 186.246094 C 159.5625 188.925781 154.351562 190.648438 148.304688 190.917969 C 144.925781 197.601562 140.226562 204.007812 134.324219 208.675781 C 129.25 212.722656 122.457031 213.035156 116.238281 212.773438 C 110.761719 212.550781 105.992188 210.675781 100.90625 208.867188 C 102.011719 219.324219 105.238281 229.347656 110.953125 238.199219 C 116.5625 246.171875 124.75 253.144531 134.144531 256.136719 C 142.886719 258.839844 151.613281 259.261719 160.667969 259.722656 C 153.257812 264.464844 145.214844 265.003906 136.691406 264.742188 C 136.964844 270.683594 137.316406 276.15625 140.945312 281.179688 C 147.074219 289.945312 158.578125 294.636719 168.828125 296.28125 C 178.5 297.796875 188.425781 297.574219 197.964844 295.242188 C 212.484375 292.683594 226.96875 285.785156 237.179688 275.023438 C 243.628906 268.183594 247.628906 259.523438 246.234375 249.972656 Z M 246.234375 249.972656 " fill-opacity="1" fill-rule="nonzero"/></g></g></g></g><g clip-path="url(#33109a7d31)"><g clip-path="url(#15c7fd0042)"><g clip-path="url(#d789f41783)"><g clip-path="url(#1f8cd0b851)"><path fill="#ababab" d="M 152.019531 161.769531 C 141.386719 149.164062 135.4375 133.214844 132.695312 117.097656 C 132.023438 113.183594 132.144531 109.253906 131.714844 105.324219 C 127.578125 106.25 124.007812 108.238281 120.507812 110.546875 C 116.257812 113.71875 112.257812 116.992188 110.972656 122.375 C 109.398438 129.132812 110.257812 136.6875 111.902344 143.351562 C 113.96875 151.554688 116.582031 159.769531 120.300781 167.386719 C 123.257812 173.625 129.753906 176.332031 135.664062 179.046875 C 139.980469 180.882812 145.039062 183.058594 149.804688 182.945312 C 154.089844 182.863281 157.828125 180.554688 161.507812 178.621094 C 160.765625 175.351562 160.488281 171.886719 159.417969 168.71875 C 157.117188 166.238281 154.375 164.195312 152.019531 161.769531 Z M 152.019531 161.769531 " fill-opacity="1" fill-rule="nonzero"/></g></g></g></g><g clip-path="url(#d43b761869)"><g clip-path="url(#6a5eda31ed)"><g clip-path="url(#a6fb8b9b55)"><g clip-path="url(#115f2243d4)"><path fill="#ababab" d="M 108.851562 163.011719 C 106.28125 157.097656 104.808594 150.925781 102.867188 144.816406 C 98.984375 147.722656 95.722656 151.054688 92.800781 154.914062 C 89.3125 159.445312 85.5 164.789062 86.460938 170.839844 C 87.492188 177.113281 91.179688 183.222656 94.421875 188.621094 C 99.359375 196.4375 106.980469 202.355469 116.328125 203.527344 C 120.632812 204.007812 126.222656 204.34375 129.832031 201.519531 C 134.09375 198.328125 137.550781 193.765625 140.507812 189.382812 C 133.855469 186.316406 127.171875 184.109375 120.863281 180.140625 C 114.480469 175.949219 111.867188 169.722656 108.851562 163.011719 Z M 108.851562 163.011719 " fill-opacity="1" fill-rule="nonzero"/></g></g></g></g><g clip-path="url(#9e9677ee43)"><g clip-path="url(#82cf34a5fc)"><g clip-path="url(#132f4866c5)"><g clip-path="url(#99b178bd49)"><path fill="#ffffff" d="M 220.84375 134.5 C 226.546875 133.371094 232.320312 132.757812 238.128906 133.230469 C 241.871094 133.496094 245.695312 134.710938 249.371094 135.609375 C 250.351562 124.050781 247.699219 113.367188 244.503906 102.339844 C 242.6875 96.121094 239.804688 90.273438 235.730469 85.21875 C 232.828125 81.734375 228.824219 79.792969 224.476562 78.78125 C 221.613281 81.339844 218.785156 83.246094 217.761719 87.160156 C 213.820312 103.410156 216.675781 118.667969 220.84375 134.5 Z M 220.84375 134.5 " fill-opacity="1" fill-rule="nonzero"/></g></g></g></g><g clip-path="url(#c1abd51ccf)"><g clip-path="url(#20f5957f6e)"><g clip-path="url(#f9c47e0cf4)"><g clip-path="url(#f0064fff74)"><path fill="#ffffff" d="M 180.195312 157.269531 C 179.414062 161.695312 178.089844 166.296875 180.035156 170.621094 C 182.816406 176.6875 188.597656 179.941406 194.847656 181.480469 C 203.019531 183.40625 211.707031 183.523438 220.039062 182.765625 C 226.796875 182.171875 233.183594 180.308594 239.8125 179.125 C 242.726562 183.605469 244.050781 188.339844 240.878906 193.074219 C 232.5625 205.136719 215.117188 211 206.566406 222.980469 C 202.742188 228.242188 200.667969 234.613281 202.53125 241.046875 C 204.691406 248.804688 211.953125 254.1875 219.914062 254.460938 C 233.738281 248.996094 245.484375 238.191406 253.878906 226.089844 C 260.089844 216.566406 266.503906 206.226562 268.730469 194.953125 C 270.699219 185.125 269.675781 174.457031 265.414062 165.34375 C 260.675781 155.589844 251.84375 147.980469 241.25 145.351562 C 230.566406 142.824219 219.503906 146.292969 209.160156 148.867188 C 199.613281 151.472656 189.214844 153.234375 180.195312 157.269531 Z M 180.195312 157.269531 " fill-opacity="1" fill-rule="nonzero"/></g></g></g></g><g clip-path="url(#c232b8a919)"><g clip-path="url(#97c776db3e)"><g clip-path="url(#95f766a7c1)"><g clip-path="url(#7880cb84e5)"><path fill="#ffffff" d="M 158.289062 99.949219 C 160.203125 117.398438 166.601562 132.976562 175.089844 148.1875 C 182.5 143.800781 191.949219 141.945312 200.195312 139.589844 C 197.066406 128.109375 194.113281 116.316406 192.960938 104.464844 C 192.496094 100.144531 193.042969 96.257812 191.257812 92.269531 C 189.515625 88.203125 186.789062 83.238281 182.699219 81.144531 C 176.8125 78.378906 170.019531 79.78125 164.007812 81.378906 C 159.203125 87.144531 157.6875 92.523438 158.289062 99.949219 Z M 158.289062 99.949219 " fill-opacity="1" fill-rule="nonzero"/></g></g></g></g><g clip-path="url(#1c4fdbaccc)"><g clip-path="url(#0d516c42ba)"><g clip-path="url(#8e18474a62)"><g clip-path="url(#3bfb9242a7)"><path fill="#ffffff" d="M 175.21875 243.664062 C 171.996094 238.46875 172.050781 232.785156 173.363281 227.011719 C 174.335938 222.222656 174.785156 217.8125 177.558594 213.609375 C 180.492188 208.945312 184.671875 206.003906 189.152344 202.96875 C 183.480469 201.472656 178.207031 199.359375 173.507812 195.769531 C 165.519531 196.757812 158.171875 197.503906 151.566406 202.699219 C 139.296875 211.488281 137.203125 229.992188 145.09375 242.332031 C 150.195312 251.023438 158.765625 256.015625 168.574219 257.574219 C 165.371094 261.925781 162.105469 266.011719 162.035156 271.6875 C 162.027344 278.761719 166.921875 284.429688 172.640625 287.996094 C 180.382812 292.972656 189.085938 293.746094 197.964844 295.242188 C 212.484375 292.683594 226.96875 285.785156 237.179688 275.023438 C 243.628906 268.183594 247.628906 259.523438 246.234375 249.972656 C 233.257812 258.871094 217.410156 262.660156 201.972656 259.027344 C 191.875 257.144531 180.710938 252.933594 175.21875 243.664062 Z M 175.21875 243.664062 " fill-opacity="1" fill-rule="nonzero"/></g></g></g></g><g clip-path="url(#e7410a3642)"><g clip-path="url(#61d4689d72)"><g clip-path="url(#ff9087b3c7)"><g clip-path="url(#8bd57777c7)"><path fill="#ffffff" d="M 137.816406 162.191406 C 142.6875 164.289062 147.144531 163.074219 152.019531 161.769531 C 141.386719 149.164062 135.4375 133.214844 132.695312 117.097656 C 132.023438 113.183594 132.144531 109.253906 131.714844 105.324219 C 127.578125 106.25 124.007812 108.238281 120.507812 110.546875 C 117.242188 123.363281 118.046875 136.8125 124.578125 148.5 C 127.621094 153.773438 132.097656 159.65625 137.816406 162.191406 Z M 137.816406 162.191406 " fill-opacity="1" fill-rule="nonzero"/></g></g></g></g><g clip-path="url(#66be3b1123)"><g clip-path="url(#f5aef0b884)"><g clip-path="url(#014afcd81f)"><g clip-path="url(#5e4001c289)"><path fill="#ffffff" d="M 98.617188 173.609375 C 101.648438 178.4375 106.648438 183.855469 112.699219 184.351562 C 116.140625 184.691406 118.382812 182.074219 120.863281 180.140625 C 114.480469 175.949219 111.867188 169.722656 108.851562 163.011719 C 106.28125 157.097656 104.808594 150.925781 102.867188 144.816406 C 98.984375 147.722656 95.722656 151.054688 92.800781 154.914062 C 93.859375 161.5625 94.839844 167.824219 98.617188 173.609375 Z M 98.617188 173.609375 " fill-opacity="1" fill-rule="nonzero"/></g></g></g></g><g clip-path="url(#45a89abb38)"><g clip-path="url(#ce45c58aad)"><path fill="#ffde59" d="M 412.238281 0.117188 L 787 0.117188 L 787 374.882812 L 412.238281 374.882812 Z M 412.238281 0.117188 " fill-opacity="1" fill-rule="nonzero"/></g></g><g clip-path="url(#e6918bdfb9)"><g clip-path="url(#5309843de9)"><g clip-path="url(#3f627e6526)"><g clip-path="url(#13489c38f1)"><path fill="#232323" d="M 552.316406 92.941406 C 550.375 98.894531 550.3125 104.832031 550.667969 111.015625 C 551.605469 126.761719 554.871094 142.34375 560.867188 156.960938 C 553.65625 158.308594 546.425781 162.304688 542.058594 168.28125 C 538.566406 173.109375 538.429688 179.007812 538.691406 184.722656 C 531.738281 187.824219 526.640625 193.417969 522.902344 199.921875 C 520.652344 203.984375 519.695312 208.632812 520.726562 213.214844 C 522.21875 220.445312 526.644531 226.773438 530.46875 232.769531 C 530.03125 238.355469 530.097656 243.867188 531.789062 249.277344 C 533.796875 255.546875 536.78125 262.101562 541.3125 266.953125 C 545.578125 271.542969 550.734375 275.222656 556.613281 277.429688 C 555.511719 282.589844 555.542969 287.761719 558 292.558594 C 561.386719 299.839844 567.867188 304.558594 575.160156 307.425781 C 586.515625 311.785156 599.390625 311.890625 611.140625 309.167969 C 622.160156 306.605469 633.199219 301.269531 641.109375 293.054688 C 646.457031 287.492188 650.398438 280.398438 650.5 272.511719 C 650.582031 269.09375 649.660156 265.929688 648.558594 262.734375 C 654.96875 257.371094 659.820312 250.597656 663.632812 243.203125 C 668.152344 234.542969 669.878906 224.601562 668.109375 214.953125 C 666.675781 206.101562 662.054688 197.929688 655.078125 192.269531 C 652.398438 190.109375 649.488281 188.609375 646.464844 187.011719 C 646.734375 182.820312 646.328125 178.71875 646.179688 174.53125 C 645.5 159.3125 646.566406 143.917969 648.378906 128.808594 C 649.332031 121.304688 649.960938 113.777344 650.535156 106.230469 C 651.34375 100.128906 650.988281 94.035156 648.292969 88.402344 C 645.324219 81.855469 639.558594 76.730469 632.550781 74.984375 C 625.675781 73.175781 618.316406 74.886719 612.726562 79.226562 C 609.542969 81.804688 606.296875 84.714844 604.921875 88.695312 C 602.792969 94.894531 601.460938 101.296875 600.78125 107.808594 C 600.339844 111.605469 600.273438 115.441406 599.792969 119.226562 C 598.261719 109.796875 598.28125 100.097656 597.277344 90.59375 C 596.613281 85.570312 594.894531 80.785156 591.445312 76.980469 C 588.296875 73.210938 583.601562 70.933594 578.691406 70.839844 C 573.160156 70.738281 567.558594 72.894531 563.296875 76.367188 C 558.113281 80.695312 554.324219 86.503906 552.316406 92.941406 Z M 552.316406 92.941406 " fill-opacity="1" fill-rule="nonzero"/></g></g></g></g><g clip-path="url(#582396b43b)"><g clip-path="url(#6f533be597)"><g clip-path="url(#9c0af5e47f)"><g clip-path="url(#a782494b92)"><path fill="#ababab" d="M 558.816406 106.363281 C 559.222656 121.332031 561.910156 136.171875 566.773438 150.335938 C 569.722656 160.121094 574.046875 169.34375 577.355469 178.972656 C 573.460938 174.011719 571.792969 168.707031 566.257812 165.042969 C 564.0625 163.976562 561.652344 163.417969 559.238281 164.027344 C 554.414062 165.988281 548.699219 169.183594 546.378906 174.109375 C 544.5625 178.460938 544.984375 183.929688 545.730469 188.492188 C 547.09375 195.269531 549.121094 202.007812 552 208.296875 C 554.210938 213.144531 558.988281 215.117188 563.5 217.238281 C 567.792969 219.082031 572.066406 221.003906 576.785156 219.402344 C 578.242188 218.828125 580.761719 218.132812 581.484375 216.644531 C 581.390625 214.320312 580.640625 211.738281 581.136719 209.445312 C 581.816406 206.433594 583.804688 203.449219 584.898438 200.625 C 585.878906 198.953125 583.953125 196.777344 583.167969 195.335938 C 580.875 191.726562 577.480469 190.988281 573.910156 189.226562 C 576.34375 189.050781 578.742188 189.097656 581.101562 189.757812 C 584.753906 190.707031 587.71875 193.175781 590.503906 195.605469 C 591.203125 195.285156 591.902344 194.96875 592.585938 194.648438 C 599.863281 191.144531 608.578125 189.753906 616.394531 187.648438 C 623.699219 185.722656 630.96875 184.238281 638.570312 184.929688 C 636.507812 166.097656 637.597656 147.453125 639.828125 128.703125 C 641.039062 118.957031 642.082031 109.109375 642.375 99.28125 C 642.539062 95.59375 641.398438 91.992188 639.351562 88.933594 C 637.328125 85.863281 634.628906 83.449219 630.859375 83.019531 C 622.617188 82.183594 614.722656 87.085938 611.332031 94.570312 C 609.175781 99.449219 608.691406 105.195312 608.097656 110.457031 C 607.054688 122.324219 606.679688 134.355469 607.464844 146.246094 C 608.042969 156.464844 609.5625 166.597656 610.136719 176.804688 C 612.816406 177.058594 615.4375 177.367188 617.976562 178.324219 C 611.699219 181.238281 604.398438 182.285156 597.519531 182.015625 C 599.882812 180.1875 602.570312 179.132812 605.332031 178.066406 C 604.15625 172.894531 602.195312 168.007812 600.8125 162.90625 C 595.34375 143.9375 592.886719 123.527344 591.035156 103.898438 C 590.480469 98.894531 591.0625 93.65625 588.703125 89.210938 C 587.292969 86.3125 584.992188 84.164062 582.234375 82.582031 C 574.804688 78.257812 564.644531 82.851562 561.171875 90.21875 C 558.554688 95.019531 558.847656 101.03125 558.816406 106.363281 Z M 558.816406 106.363281 " fill-opacity="1" fill-rule="nonzero"/></g></g></g></g><g clip-path="url(#2454c71f1d)"><g clip-path="url(#69498c7563)"><g clip-path="url(#32e6810800)"><g clip-path="url(#db307955fb)"><path fill="#ababab" d="M 642.554688 272.015625 C 642.515625 271.1875 642.457031 270.359375 642.390625 269.527344 C 633.210938 275.589844 622.066406 278.316406 611.230469 275.796875 C 615.230469 274.605469 619.328125 274.183594 623.207031 272.527344 C 633.496094 268.59375 641.929688 261.070312 648.25 252.183594 C 653.152344 244.800781 658.121094 237.046875 659.539062 228.136719 C 660.878906 219.59375 659.25 209.839844 653.683594 203.023438 C 649.34375 197.367188 642.363281 193.355469 635.191406 193.058594 C 628.585938 192.730469 621.503906 194.789062 615.105469 196.300781 C 608.316406 197.984375 601.074219 199.242188 594.71875 202.070312 C 592.054688 203.617188 589.914062 205.78125 588.890625 208.730469 C 586.976562 213.453125 589.660156 219.363281 593.261719 222.527344 C 598.621094 227.113281 606.378906 229.132812 613.277344 229.710938 C 621.402344 230.351562 628.742188 228.234375 636.464844 226.109375 C 633.203125 228.894531 629.613281 230.738281 625.464844 231.832031 C 616.6875 234.140625 608.339844 237.71875 600.902344 242.949219 C 597.035156 245.710938 593.800781 249.433594 589.742188 251.863281 C 590.714844 248.679688 591.027344 245.734375 592.859375 242.875 C 595.046875 239.328125 598.160156 237.160156 601.527344 234.851562 C 597.320312 233.789062 593.441406 232.109375 590.113281 229.273438 C 587.824219 227.296875 585.996094 224.96875 584.191406 222.570312 C 580.113281 224.554688 576.621094 225.550781 572.113281 225.882812 C 569.175781 231.300781 564.882812 237.199219 559.28125 240 C 552.554688 242.636719 544.332031 241.289062 537.898438 238.328125 C 538.136719 245.613281 540.585938 252.507812 544.160156 258.796875 C 548.023438 264.824219 553.847656 270.152344 560.652344 272.597656 C 567.15625 274.84375 573.636719 275.300781 580.429688 275.632812 C 575.070312 279.136719 569.285156 279.320312 563.121094 279.136719 C 563.21875 283.347656 563.425781 287.246094 565.894531 290.863281 C 570.199219 297.304688 577.992188 300.636719 585.34375 302.109375 C 593.832031 303.703125 602.960938 303.300781 611.25 300.859375 C 619.546875 298.917969 627.617188 294.992188 633.933594 289.238281 C 638.746094 284.765625 642.710938 278.832031 642.554688 272.015625 Z M 642.554688 272.015625 " fill-opacity="1" fill-rule="nonzero"/></g></g></g></g><g clip-path="url(#5b08d3619a)"><g clip-path="url(#8779b903a5)"><g clip-path="url(#f5ff6c4b0d)"><g clip-path="url(#d96edd8703)"><path fill="#ababab" d="M 550.546875 216.199219 C 547.558594 213.636719 545.9375 209.898438 544.355469 206.382812 C 542.285156 201.683594 541.109375 196.820312 539.714844 191.894531 C 536.828125 194.144531 534.207031 196.621094 531.992188 199.542969 C 529.617188 202.671875 527.082031 206.289062 527.5625 210.4375 C 528.121094 214.726562 530.582031 219 532.679688 222.726562 C 536.0625 228.625 541.382812 233.292969 548.230469 234.460938 C 551.519531 234.980469 555.816406 235.394531 558.644531 233.28125 C 561.804688 231.023438 564.378906 227.746094 566.5 224.515625 C 560.890625 221.933594 555.402344 220.214844 550.546875 216.199219 Z M 550.546875 216.199219 " fill-opacity="1" fill-rule="nonzero"/></g></g></g></g><g clip-path="url(#eb7be30bde)"><g clip-path="url(#081a83bae2)"><g clip-path="url(#463e733c84)"><g clip-path="url(#ee6cc47b37)"><path fill="#ffffff" d="M 574.992188 87.195312 C 571.113281 93.253906 570.324219 101.476562 570.558594 108.523438 C 571.019531 119.871094 572.917969 131.296875 575.457031 142.355469 C 578.199219 154.320312 581.511719 166.277344 585.878906 177.753906 C 587.996094 183.457031 590.796875 188.816406 592.585938 194.648438 C 599.863281 191.144531 608.578125 189.753906 616.394531 187.648438 C 623.699219 185.722656 630.96875 184.238281 638.570312 184.929688 C 636.507812 166.097656 637.597656 147.453125 639.828125 128.703125 C 641.039062 118.957031 642.082031 109.109375 642.375 99.28125 C 642.539062 95.59375 641.398438 91.992188 639.351562 88.933594 C 637.164062 88.105469 634.066406 86.648438 631.734375 87.472656 C 628.675781 88.796875 626.480469 92.070312 625.03125 94.96875 C 621.355469 102.359375 620.074219 111.203125 619.003906 119.332031 C 617.585938 131.234375 617.300781 143.308594 617.050781 155.292969 C 617.058594 160.175781 616.992188 165.394531 618.289062 170.136719 C 619.566406 174.484375 622.371094 177.707031 625.144531 181.160156 C 621.15625 182.308594 617.132812 183.222656 612.980469 183.496094 C 606.929688 183.890625 601.285156 184.535156 595.261719 183.964844 C 596.003906 183.308594 596.746094 182.648438 597.519531 182.015625 C 599.882812 180.1875 602.570312 179.132812 605.332031 178.066406 C 604.15625 172.894531 602.195312 168.007812 600.8125 162.90625 C 595.34375 143.9375 592.886719 123.527344 591.035156 103.898438 C 590.480469 98.894531 591.0625 93.65625 588.703125 89.210938 C 587.292969 86.3125 584.992188 84.164062 582.234375 82.582031 C 579.445312 83.808594 576.699219 84.421875 574.992188 87.195312 Z M 574.992188 87.195312 " fill-opacity="1" fill-rule="nonzero"/></g></g></g></g><g clip-path="url(#e6c92ed9bb)"><g clip-path="url(#f7c3b16a80)"><g clip-path="url(#91e36f7692)"><g clip-path="url(#676ab8c74f)"><path fill="#ffffff" d="M 594.71875 202.070312 C 594.25 205.847656 593.5 209.25 595.917969 212.617188 C 599.601562 217.894531 606.003906 219.230469 611.996094 219.871094 C 620.835938 220.882812 629.300781 219.371094 637.890625 217.472656 C 639.042969 219.304688 640.109375 220.984375 640.101562 223.226562 C 640.113281 226.136719 638.417969 228.316406 636.488281 230.308594 C 631.195312 235.621094 623.996094 239.324219 618.527344 243.804688 C 614.753906 246.9375 611.289062 250.992188 610.339844 255.945312 C 609.464844 260.269531 610.875 264.917969 614.097656 267.960938 C 616.648438 270.410156 619.960938 271.386719 623.207031 272.527344 C 633.496094 268.59375 641.929688 261.070312 648.25 252.183594 C 653.152344 244.800781 658.121094 237.046875 659.539062 228.136719 C 660.878906 219.59375 659.25 209.839844 653.683594 203.023438 C 649.34375 197.367188 642.363281 193.355469 635.191406 193.058594 C 628.585938 192.730469 621.503906 194.789062 615.105469 196.300781 C 608.316406 197.984375 601.074219 199.242188 594.71875 202.070312 Z M 594.71875 202.070312 " fill-opacity="1" fill-rule="nonzero"/></g></g></g></g><g clip-path="url(#779541bb45)"><g clip-path="url(#ee7f667b1d)"><g clip-path="url(#3ab0fe7c10)"><g clip-path="url(#7b9d40760f)"><path fill="#ffffff" d="M 602.335938 272.671875 C 596.769531 270.628906 591.738281 266.835938 589.621094 261.121094 C 588.453125 258.042969 588.757812 254.925781 589.742188 251.863281 C 590.714844 248.679688 591.027344 245.734375 592.859375 242.875 C 595.046875 239.328125 598.160156 237.160156 601.527344 234.851562 C 597.320312 233.789062 593.441406 232.109375 590.113281 229.273438 C 584.21875 229.089844 578.523438 230.152344 573.792969 233.867188 C 564.855469 240.25 563.417969 253.867188 569.265625 262.78125 C 572.953125 268.886719 578.917969 272.375 585.847656 273.546875 C 583.371094 276.789062 580.921875 279.832031 580.976562 284.140625 C 581.058594 289.453125 585.015625 293.585938 589.339844 296.144531 C 596.0625 300.140625 603.644531 300.582031 611.25 300.859375 C 619.546875 298.917969 627.617188 294.992188 633.933594 289.238281 C 638.746094 284.765625 642.710938 278.832031 642.554688 272.015625 C 642.515625 271.1875 642.457031 270.359375 642.390625 269.527344 C 633.210938 275.589844 622.066406 278.316406 611.230469 275.796875 C 608.167969 275.277344 605.265625 273.691406 602.335938 272.671875 Z M 602.335938 272.671875 " fill-opacity="1" fill-rule="nonzero"/></g></g></g></g><g clip-path="url(#db9dfdf254)"><g clip-path="url(#21911bea6f)"><g clip-path="url(#4a0480c8f2)"><g clip-path="url(#662a9f5238)"><path fill="#ffffff" d="M 551.574219 170.386719 C 549.453125 180.910156 552.101562 192.546875 559.515625 200.5 C 561.957031 203.09375 565 205.234375 568.714844 205.0625 C 572.132812 204.957031 574.777344 201.679688 574.90625 198.40625 C 574.785156 196.285156 573.382812 194.152344 572.480469 192.269531 C 569.839844 187.375 568.089844 182 567.160156 176.515625 C 566.511719 172.695312 566.679688 168.882812 566.257812 165.042969 C 564.0625 163.976562 561.652344 163.417969 559.238281 164.027344 C 556.675781 165.433594 552.003906 167.074219 551.574219 170.386719 Z M 551.574219 170.386719 " fill-opacity="1" fill-rule="nonzero"/></g></g></g></g><g clip-path="url(#d858cbe559)"><g clip-path="url(#d574e2d982)"><g clip-path="url(#2624203338)"><g clip-path="url(#dcf2455330)"><path fill="#ffffff" d="M 535.878906 211.90625 C 537.871094 215.207031 540.9375 218.816406 544.839844 219.796875 C 546.960938 220.382812 549.125 219.289062 551.109375 218.628906 C 550.925781 217.8125 550.734375 217.003906 550.546875 216.199219 C 547.558594 213.636719 545.9375 209.898438 544.355469 206.382812 C 542.285156 201.683594 541.109375 196.820312 539.714844 191.894531 C 536.828125 194.144531 534.207031 196.621094 531.992188 199.542969 C 532.730469 203.90625 533.511719 208.066406 535.878906 211.90625 Z M 535.878906 211.90625 " fill-opacity="1" fill-rule="nonzero"/></g></g></g></g><g clip-path="url(#050377d40e)"><path fill="#000000" d="M 447.632812 193.378906 C 450.742188 178.371094 447.3125 164.140625 424.414062 164.140625 C 419.617188 164.140625 415.230469 164.808594 411.292969 166.0625 L 391.304688 210.996094 C 394.179688 214.980469 398.808594 218.535156 405.402344 222.347656 C 415.671875 228.238281 418.214844 232.214844 416.730469 238.980469 C 415.511719 244.53125 412.441406 248.921875 405.886719 248.921875 C 399.140625 248.921875 398.058594 243.398438 399.25 235.371094 L 376.964844 235.371094 C 373.800781 251.964844 378.121094 265.507812 402.019531 265.507812 C 424.078125 265.507812 436.402344 252.632812 439.949219 236.480469 C 443.558594 220.046875 437.519531 212.332031 421.308594 203.210938 C 411.785156 197.902344 410.226562 195.011719 411.457031 189.414062 C 412.648438 183.960938 415.609375 180.722656 420.632812 180.722656 C 427.042969 180.722656 427.015625 186.574219 425.898438 193.378906 L 447.632812 193.378906 " fill-opacity="1" fill-rule="nonzero"/></g><g clip-path="url(#d7cbe3e29f)"><path fill="#000000" d="M 435.726562 90.9375 C 427.644531 106.664062 419.804688 122.515625 412.207031 138.480469 L 391.707031 138.480469 L 380.652344 167.664062 C 375.925781 180.050781 370.617188 193.183594 367.046875 204.832031 L 366.398438 204.832031 C 367.867188 193.546875 369 179.910156 369.648438 167.382812 L 371.554688 138.828125 L 347.617188 138.828125 L 347.429688 227.128906 L 372.96875 227.128906 C 365.203125 246.058594 357.765625 265.121094 350.660156 284.308594 C 382.835938 221.625 411.285156 157.03125 435.726562 90.9375 " fill-opacity="1" fill-rule="nonzero"/></g><g fill="#ffffff" fill-opacity="1"><g transform="translate(137.532985, 48.229952)"><g><path d="M 13.125 -10.46875 C 13.125 -9.570312 12.914062 -8.753906 12.5 -8.015625 C 12.09375 -7.273438 11.460938 -6.675781 10.609375 -6.21875 C 9.765625 -5.769531 8.710938 -5.546875 7.453125 -5.546875 L 5.125 -5.546875 L 5.125 0 L 1.359375 0 L 1.359375 -15.4375 L 7.453125 -15.4375 C 8.679688 -15.4375 9.71875 -15.222656 10.5625 -14.796875 C 11.414062 -14.367188 12.054688 -13.78125 12.484375 -13.03125 C 12.910156 -12.289062 13.125 -11.4375 13.125 -10.46875 Z M 7.171875 -8.53125 C 7.890625 -8.53125 8.421875 -8.695312 8.765625 -9.03125 C 9.117188 -9.375 9.296875 -9.851562 9.296875 -10.46875 C 9.296875 -11.082031 9.117188 -11.554688 8.765625 -11.890625 C 8.421875 -12.234375 7.890625 -12.40625 7.171875 -12.40625 L 5.125 -12.40625 L 5.125 -8.53125 Z M 7.171875 -8.53125 "/></g></g></g><g fill="#ffffff" fill-opacity="1"><g transform="translate(151.249826, 48.229952)"><g><path d="M 12.921875 -6.328125 C 12.921875 -5.972656 12.898438 -5.609375 12.859375 -5.234375 L 4.359375 -5.234375 C 4.410156 -4.472656 4.648438 -3.890625 5.078125 -3.484375 C 5.515625 -3.078125 6.050781 -2.875 6.6875 -2.875 C 7.625 -2.875 8.273438 -3.269531 8.640625 -4.0625 L 12.640625 -4.0625 C 12.429688 -3.257812 12.0625 -2.535156 11.53125 -1.890625 C 11 -1.242188 10.328125 -0.738281 9.515625 -0.375 C 8.710938 -0.0078125 7.8125 0.171875 6.8125 0.171875 C 5.613281 0.171875 4.546875 -0.0820312 3.609375 -0.59375 C 2.671875 -1.101562 1.9375 -1.832031 1.40625 -2.78125 C 0.875 -3.738281 0.609375 -4.859375 0.609375 -6.140625 C 0.609375 -7.410156 0.867188 -8.519531 1.390625 -9.46875 C 1.910156 -10.425781 2.640625 -11.160156 3.578125 -11.671875 C 4.515625 -12.179688 5.59375 -12.4375 6.8125 -12.4375 C 8 -12.4375 9.050781 -12.1875 9.96875 -11.6875 C 10.894531 -11.195312 11.617188 -10.488281 12.140625 -9.5625 C 12.660156 -8.632812 12.921875 -7.554688 12.921875 -6.328125 Z M 9.078125 -7.328125 C 9.078125 -7.960938 8.859375 -8.472656 8.421875 -8.859375 C 7.984375 -9.242188 7.429688 -9.4375 6.765625 -9.4375 C 6.140625 -9.4375 5.609375 -9.25 5.171875 -8.875 C 4.742188 -8.507812 4.476562 -7.992188 4.375 -7.328125 Z M 9.078125 -7.328125 "/></g></g></g><g fill="#ffffff" fill-opacity="1"><g transform="translate(164.790815, 48.229952)"><g><path d="M 17.015625 -12.40625 C 18.535156 -12.40625 19.742188 -11.941406 20.640625 -11.015625 C 21.546875 -10.085938 22 -8.804688 22 -7.171875 L 22 0 L 18.265625 0 L 18.265625 -6.65625 C 18.265625 -7.445312 18.054688 -8.054688 17.640625 -8.484375 C 17.222656 -8.921875 16.648438 -9.140625 15.921875 -9.140625 C 15.179688 -9.140625 14.601562 -8.921875 14.1875 -8.484375 C 13.769531 -8.054688 13.5625 -7.445312 13.5625 -6.65625 L 13.5625 0 L 9.828125 0 L 9.828125 -6.65625 C 9.828125 -7.445312 9.617188 -8.054688 9.203125 -8.484375 C 8.785156 -8.921875 8.207031 -9.140625 7.46875 -9.140625 C 6.738281 -9.140625 6.164062 -8.921875 5.75 -8.484375 C 5.332031 -8.054688 5.125 -7.445312 5.125 -6.65625 L 5.125 0 L 1.359375 0 L 1.359375 -12.265625 L 5.125 -12.265625 L 5.125 -10.734375 C 5.5 -11.242188 5.992188 -11.648438 6.609375 -11.953125 C 7.234375 -12.253906 7.929688 -12.40625 8.703125 -12.40625 C 9.628906 -12.40625 10.453125 -12.207031 11.171875 -11.8125 C 11.898438 -11.414062 12.472656 -10.847656 12.890625 -10.109375 C 13.304688 -10.785156 13.878906 -11.335938 14.609375 -11.765625 C 15.347656 -12.191406 16.148438 -12.40625 17.015625 -12.40625 Z M 17.015625 -12.40625 "/></g></g></g><g fill="#ffffff" fill-opacity="1"><g transform="translate(188.069888, 48.229952)"><g><path d="M 0.609375 -6.15625 C 0.609375 -7.414062 0.847656 -8.519531 1.328125 -9.46875 C 1.804688 -10.425781 2.453125 -11.160156 3.265625 -11.671875 C 4.085938 -12.179688 5.007812 -12.4375 6.03125 -12.4375 C 6.894531 -12.4375 7.648438 -12.257812 8.296875 -11.90625 C 8.953125 -11.5625 9.457031 -11.101562 9.8125 -10.53125 L 9.8125 -12.265625 L 13.5625 -12.265625 L 13.5625 0 L 9.8125 0 L 9.8125 -1.734375 C 9.4375 -1.160156 8.921875 -0.695312 8.265625 -0.34375 C 7.617188 0 6.863281 0.171875 6 0.171875 C 5 0.171875 4.085938 -0.0859375 3.265625 -0.609375 C 2.453125 -1.128906 1.804688 -1.867188 1.328125 -2.828125 C 0.847656 -3.785156 0.609375 -4.894531 0.609375 -6.15625 Z M 9.8125 -6.140625 C 9.8125 -7.078125 9.550781 -7.816406 9.03125 -8.359375 C 8.507812 -8.898438 7.875 -9.171875 7.125 -9.171875 C 6.375 -9.171875 5.738281 -8.898438 5.21875 -8.359375 C 4.695312 -7.828125 4.4375 -7.09375 4.4375 -6.15625 C 4.4375 -5.21875 4.695312 -4.472656 5.21875 -3.921875 C 5.738281 -3.367188 6.375 -3.09375 7.125 -3.09375 C 7.875 -3.09375 8.507812 -3.363281 9.03125 -3.90625 C 9.550781 -4.457031 9.8125 -5.203125 9.8125 -6.140625 Z M 9.8125 -6.140625 "/></g></g></g><g fill="#ffffff" fill-opacity="1"><g transform="translate(202.995751, 48.229952)"><g><path d="M 3.25 -13.546875 C 2.59375 -13.546875 2.054688 -13.738281 1.640625 -14.125 C 1.222656 -14.507812 1.015625 -14.988281 1.015625 -15.5625 C 1.015625 -16.144531 1.222656 -16.628906 1.640625 -17.015625 C 2.054688 -17.410156 2.59375 -17.609375 3.25 -17.609375 C 3.894531 -17.609375 4.425781 -17.410156 4.84375 -17.015625 C 5.257812 -16.628906 5.46875 -16.144531 5.46875 -15.5625 C 5.46875 -14.988281 5.257812 -14.507812 4.84375 -14.125 C 4.425781 -13.738281 3.894531 -13.546875 3.25 -13.546875 Z M 5.125 -12.265625 L 5.125 0 L 1.359375 0 L 1.359375 -12.265625 Z M 5.125 -12.265625 "/></g></g></g><g fill="#ffffff" fill-opacity="1"><g transform="translate(209.48048, 48.229952)"><g><path d="M 8.84375 -12.40625 C 10.269531 -12.40625 11.410156 -11.9375 12.265625 -11 C 13.128906 -10.070312 13.5625 -8.796875 13.5625 -7.171875 L 13.5625 0 L 9.828125 0 L 9.828125 -6.65625 C 9.828125 -7.476562 9.613281 -8.113281 9.1875 -8.5625 C 8.757812 -9.019531 8.1875 -9.25 7.46875 -9.25 C 6.75 -9.25 6.175781 -9.019531 5.75 -8.5625 C 5.332031 -8.113281 5.125 -7.476562 5.125 -6.65625 L 5.125 0 L 1.359375 0 L 1.359375 -12.265625 L 5.125 -12.265625 L 5.125 -10.640625 C 5.5 -11.179688 6.007812 -11.609375 6.65625 -11.921875 C 7.300781 -12.242188 8.03125 -12.40625 8.84375 -12.40625 Z M 8.84375 -12.40625 "/></g></g></g><g fill="#ffffff" fill-opacity="1"><g transform="translate(224.296435, 48.229952)"><g/></g></g><g fill="#ffffff" fill-opacity="1"><g transform="translate(228.956646, 48.229952)"><g><path d="M 0.59375 -12.546875 L 0.59375 -16.046875 L 6.6875 -16.046875 L 6.6875 0 L 2.765625 0 L 2.765625 -12.546875 Z M 0.59375 -12.546875 "/></g></g></g><g fill="#ffffff" fill-opacity="1"><g transform="translate(547.630403, 48.229952)"><g><path d="M 13.125 -10.46875 C 13.125 -9.570312 12.914062 -8.753906 12.5 -8.015625 C 12.09375 -7.273438 11.460938 -6.675781 10.609375 -6.21875 C 9.765625 -5.769531 8.710938 -5.546875 7.453125 -5.546875 L 5.125 -5.546875 L 5.125 0 L 1.359375 0 L 1.359375 -15.4375 L 7.453125 -15.4375 C 8.679688 -15.4375 9.71875 -15.222656 10.5625 -14.796875 C 11.414062 -14.367188 12.054688 -13.78125 12.484375 -13.03125 C 12.910156 -12.289062 13.125 -11.4375 13.125 -10.46875 Z M 7.171875 -8.53125 C 7.890625 -8.53125 8.421875 -8.695312 8.765625 -9.03125 C 9.117188 -9.375 9.296875 -9.851562 9.296875 -10.46875 C 9.296875 -11.082031 9.117188 -11.554688 8.765625 -11.890625 C 8.421875 -12.234375 7.890625 -12.40625 7.171875 -12.40625 L 5.125 -12.40625 L 5.125 -8.53125 Z M 7.171875 -8.53125 "/></g></g></g><g fill="#ffffff" fill-opacity="1"><g transform="translate(561.347245, 48.229952)"><g><path d="M 12.921875 -6.328125 C 12.921875 -5.972656 12.898438 -5.609375 12.859375 -5.234375 L 4.359375 -5.234375 C 4.410156 -4.472656 4.648438 -3.890625 5.078125 -3.484375 C 5.515625 -3.078125 6.050781 -2.875 6.6875 -2.875 C 7.625 -2.875 8.273438 -3.269531 8.640625 -4.0625 L 12.640625 -4.0625 C 12.429688 -3.257812 12.0625 -2.535156 11.53125 -1.890625 C 11 -1.242188 10.328125 -0.738281 9.515625 -0.375 C 8.710938 -0.0078125 7.8125 0.171875 6.8125 0.171875 C 5.613281 0.171875 4.546875 -0.0820312 3.609375 -0.59375 C 2.671875 -1.101562 1.9375 -1.832031 1.40625 -2.78125 C 0.875 -3.738281 0.609375 -4.859375 0.609375 -6.140625 C 0.609375 -7.410156 0.867188 -8.519531 1.390625 -9.46875 C 1.910156 -10.425781 2.640625 -11.160156 3.578125 -11.671875 C 4.515625 -12.179688 5.59375 -12.4375 6.8125 -12.4375 C 8 -12.4375 9.050781 -12.1875 9.96875 -11.6875 C 10.894531 -11.195312 11.617188 -10.488281 12.140625 -9.5625 C 12.660156 -8.632812 12.921875 -7.554688 12.921875 -6.328125 Z M 9.078125 -7.328125 C 9.078125 -7.960938 8.859375 -8.472656 8.421875 -8.859375 C 7.984375 -9.242188 7.429688 -9.4375 6.765625 -9.4375 C 6.140625 -9.4375 5.609375 -9.25 5.171875 -8.875 C 4.742188 -8.507812 4.476562 -7.992188 4.375 -7.328125 Z M 9.078125 -7.328125 "/></g></g></g><g fill="#ffffff" fill-opacity="1"><g transform="translate(574.888234, 48.229952)"><g><path d="M 17.015625 -12.40625 C 18.535156 -12.40625 19.742188 -11.941406 20.640625 -11.015625 C 21.546875 -10.085938 22 -8.804688 22 -7.171875 L 22 0 L 18.265625 0 L 18.265625 -6.65625 C 18.265625 -7.445312 18.054688 -8.054688 17.640625 -8.484375 C 17.222656 -8.921875 16.648438 -9.140625 15.921875 -9.140625 C 15.179688 -9.140625 14.601562 -8.921875 14.1875 -8.484375 C 13.769531 -8.054688 13.5625 -7.445312 13.5625 -6.65625 L 13.5625 0 L 9.828125 0 L 9.828125 -6.65625 C 9.828125 -7.445312 9.617188 -8.054688 9.203125 -8.484375 C 8.785156 -8.921875 8.207031 -9.140625 7.46875 -9.140625 C 6.738281 -9.140625 6.164062 -8.921875 5.75 -8.484375 C 5.332031 -8.054688 5.125 -7.445312 5.125 -6.65625 L 5.125 0 L 1.359375 0 L 1.359375 -12.265625 L 5.125 -12.265625 L 5.125 -10.734375 C 5.5 -11.242188 5.992188 -11.648438 6.609375 -11.953125 C 7.234375 -12.253906 7.929688 -12.40625 8.703125 -12.40625 C 9.628906 -12.40625 10.453125 -12.207031 11.171875 -11.8125 C 11.898438 -11.414062 12.472656 -10.847656 12.890625 -10.109375 C 13.304688 -10.785156 13.878906 -11.335938 14.609375 -11.765625 C 15.347656 -12.191406 16.148438 -12.40625 17.015625 -12.40625 Z M 17.015625 -12.40625 "/></g></g></g><g fill="#ffffff" fill-opacity="1"><g transform="translate(598.167307, 48.229952)"><g><path d="M 0.609375 -6.15625 C 0.609375 -7.414062 0.847656 -8.519531 1.328125 -9.46875 C 1.804688 -10.425781 2.453125 -11.160156 3.265625 -11.671875 C 4.085938 -12.179688 5.007812 -12.4375 6.03125 -12.4375 C 6.894531 -12.4375 7.648438 -12.257812 8.296875 -11.90625 C 8.953125 -11.5625 9.457031 -11.101562 9.8125 -10.53125 L 9.8125 -12.265625 L 13.5625 -12.265625 L 13.5625 0 L 9.8125 0 L 9.8125 -1.734375 C 9.4375 -1.160156 8.921875 -0.695312 8.265625 -0.34375 C 7.617188 0 6.863281 0.171875 6 0.171875 C 5 0.171875 4.085938 -0.0859375 3.265625 -0.609375 C 2.453125 -1.128906 1.804688 -1.867188 1.328125 -2.828125 C 0.847656 -3.785156 0.609375 -4.894531 0.609375 -6.15625 Z M 9.8125 -6.140625 C 9.8125 -7.078125 9.550781 -7.816406 9.03125 -8.359375 C 8.507812 -8.898438 7.875 -9.171875 7.125 -9.171875 C 6.375 -9.171875 5.738281 -8.898438 5.21875 -8.359375 C 4.695312 -7.828125 4.4375 -7.09375 4.4375 -6.15625 C 4.4375 -5.21875 4.695312 -4.472656 5.21875 -3.921875 C 5.738281 -3.367188 6.375 -3.09375 7.125 -3.09375 C 7.875 -3.09375 8.507812 -3.363281 9.03125 -3.90625 C 9.550781 -4.457031 9.8125 -5.203125 9.8125 -6.140625 Z M 9.8125 -6.140625 "/></g></g></g><g fill="#ffffff" fill-opacity="1"><g transform="translate(613.09317, 48.229952)"><g><path d="M 3.25 -13.546875 C 2.59375 -13.546875 2.054688 -13.738281 1.640625 -14.125 C 1.222656 -14.507812 1.015625 -14.988281 1.015625 -15.5625 C 1.015625 -16.144531 1.222656 -16.628906 1.640625 -17.015625 C 2.054688 -17.410156 2.59375 -17.609375 3.25 -17.609375 C 3.894531 -17.609375 4.425781 -17.410156 4.84375 -17.015625 C 5.257812 -16.628906 5.46875 -16.144531 5.46875 -15.5625 C 5.46875 -14.988281 5.257812 -14.507812 4.84375 -14.125 C 4.425781 -13.738281 3.894531 -13.546875 3.25 -13.546875 Z M 5.125 -12.265625 L 5.125 0 L 1.359375 0 L 1.359375 -12.265625 Z M 5.125 -12.265625 "/></g></g></g><g fill="#ffffff" fill-opacity="1"><g transform="translate(619.577898, 48.229952)"><g><path d="M 8.84375 -12.40625 C 10.269531 -12.40625 11.410156 -11.9375 12.265625 -11 C 13.128906 -10.070312 13.5625 -8.796875 13.5625 -7.171875 L 13.5625 0 L 9.828125 0 L 9.828125 -6.65625 C 9.828125 -7.476562 9.613281 -8.113281 9.1875 -8.5625 C 8.757812 -9.019531 8.1875 -9.25 7.46875 -9.25 C 6.75 -9.25 6.175781 -9.019531 5.75 -8.5625 C 5.332031 -8.113281 5.125 -7.476562 5.125 -6.65625 L 5.125 0 L 1.359375 0 L 1.359375 -12.265625 L 5.125 -12.265625 L 5.125 -10.640625 C 5.5 -11.179688 6.007812 -11.609375 6.65625 -11.921875 C 7.300781 -12.242188 8.03125 -12.40625 8.84375 -12.40625 Z M 8.84375 -12.40625 "/></g></g></g><g fill="#ffffff" fill-opacity="1"><g transform="translate(634.393854, 48.229952)"><g/></g></g><g fill="#ffffff" fill-opacity="1"><g transform="translate(639.054065, 48.229952)"><g><path d="M 0.859375 -3.015625 C 1.359375 -3.410156 1.582031 -3.59375 1.53125 -3.5625 C 2.96875 -4.75 4.097656 -5.722656 4.921875 -6.484375 C 5.753906 -7.242188 6.457031 -8.039062 7.03125 -8.875 C 7.601562 -9.71875 7.890625 -10.535156 7.890625 -11.328125 C 7.890625 -11.921875 7.75 -12.382812 7.46875 -12.71875 C 7.195312 -13.0625 6.78125 -13.234375 6.21875 -13.234375 C 5.664062 -13.234375 5.226562 -13.023438 4.90625 -12.609375 C 4.59375 -12.191406 4.4375 -11.601562 4.4375 -10.84375 L 0.8125 -10.84375 C 0.84375 -12.082031 1.109375 -13.117188 1.609375 -13.953125 C 2.117188 -14.796875 2.785156 -15.414062 3.609375 -15.8125 C 4.441406 -16.207031 5.363281 -16.40625 6.375 -16.40625 C 8.113281 -16.40625 9.425781 -15.957031 10.3125 -15.0625 C 11.207031 -14.164062 11.65625 -13 11.65625 -11.5625 C 11.65625 -10 11.117188 -8.546875 10.046875 -7.203125 C 8.972656 -5.859375 7.609375 -4.550781 5.953125 -3.28125 L 11.890625 -3.28125 L 11.890625 -0.21875 L 0.859375 -0.21875 Z M 0.859375 -3.015625 "/></g></g></g></svg>