<svg xmlns="http://www.w3.org/2000/svg" xmlns:xlink="http://www.w3.org/1999/xlink" width="1050" zoomAndPan="magnify" viewBox="0 0 787.5 374.999991" height="500" preserveAspectRatio="xMidYMid meet" version="1.0"><defs><g/><clipPath id="0a9c83e385"><path d="M 412.238281 0.117188 L 787 0.117188 L 787 374.878906 L 412.238281 374.878906 Z M 412.238281 0.117188 " clip-rule="nonzero"/></clipPath><clipPath id="6530e26148"><path d="M 599.621094 0.117188 C 496.132812 0.117188 412.238281 84.011719 412.238281 187.5 C 412.238281 290.988281 496.132812 374.882812 599.621094 374.882812 C 703.105469 374.882812 787 290.988281 787 187.5 C 787 84.011719 703.105469 0.117188 599.621094 0.117188 Z M 599.621094 0.117188 " clip-rule="nonzero"/></clipPath><clipPath id="9ce891634f"><path d="M 488 68 L 695 68 L 695 309 L 488 309 Z M 488 68 " clip-rule="nonzero"/></clipPath><clipPath id="94d28b3cca"><path d="M 631.414062 35.59375 L 747.050781 235.953125 L 567.730469 339.449219 L 452.09375 139.089844 Z M 631.414062 35.59375 " clip-rule="nonzero"/></clipPath><clipPath id="e5d7abfae1"><path d="M 631.414062 35.59375 L 747.050781 235.953125 L 567.730469 339.449219 L 452.09375 139.089844 Z M 631.414062 35.59375 " clip-rule="nonzero"/></clipPath><clipPath id="ef4eddc9ef"><path d="M 631.414062 35.59375 L 747.050781 235.953125 L 567.730469 339.449219 L 452.09375 139.089844 Z M 631.414062 35.59375 " clip-rule="nonzero"/></clipPath><clipPath id="f0e6b90b3b"><path d="M 613 78 L 662 78 L 662 139 L 613 139 Z M 613 78 " clip-rule="nonzero"/></clipPath><clipPath id="4a69eb8017"><path d="M 631.414062 35.59375 L 747.050781 235.953125 L 567.730469 339.449219 L 452.09375 139.089844 Z M 631.414062 35.59375 " clip-rule="nonzero"/></clipPath><clipPath id="52533f3b12"><path d="M 631.414062 35.59375 L 747.050781 235.953125 L 567.730469 339.449219 L 452.09375 139.089844 Z M 631.414062 35.59375 " clip-rule="nonzero"/></clipPath><clipPath id="86723ff79a"><path d="M 631.414062 35.59375 L 747.050781 235.953125 L 567.730469 339.449219 L 452.09375 139.089844 Z M 631.414062 35.59375 " clip-rule="nonzero"/></clipPath><clipPath id="7f12b0d204"><path d="M 553 79 L 613 79 L 613 160 L 553 160 Z M 553 79 " clip-rule="nonzero"/></clipPath><clipPath id="74584e2fca"><path d="M 631.414062 35.59375 L 747.050781 235.953125 L 567.730469 339.449219 L 452.09375 139.089844 Z M 631.414062 35.59375 " clip-rule="nonzero"/></clipPath><clipPath id="f99ad9cfb4"><path d="M 631.414062 35.59375 L 747.050781 235.953125 L 567.730469 339.449219 L 452.09375 139.089844 Z M 631.414062 35.59375 " clip-rule="nonzero"/></clipPath><clipPath id="86c4b561b0"><path d="M 631.414062 35.59375 L 747.050781 235.953125 L 567.730469 339.449219 L 452.09375 139.089844 Z M 631.414062 35.59375 " clip-rule="nonzero"/></clipPath><clipPath id="897c0b0421"><path d="M 513 144 L 682 144 L 682 298 L 513 298 Z M 513 144 " clip-rule="nonzero"/></clipPath><clipPath id="31bc5799d5"><path d="M 631.414062 35.59375 L 747.050781 235.953125 L 567.730469 339.449219 L 452.09375 139.089844 Z M 631.414062 35.59375 " clip-rule="nonzero"/></clipPath><clipPath id="177d399601"><path d="M 631.414062 35.59375 L 747.050781 235.953125 L 567.730469 339.449219 L 452.09375 139.089844 Z M 631.414062 35.59375 " clip-rule="nonzero"/></clipPath><clipPath id="78cbadcb46"><path d="M 631.414062 35.59375 L 747.050781 235.953125 L 567.730469 339.449219 L 452.09375 139.089844 Z M 631.414062 35.59375 " clip-rule="nonzero"/></clipPath><clipPath id="b727f4c453"><path d="M 522 105 L 574 105 L 574 183 L 522 183 Z M 522 105 " clip-rule="nonzero"/></clipPath><clipPath id="8b11a4c7bf"><path d="M 631.414062 35.59375 L 747.050781 235.953125 L 567.730469 339.449219 L 452.09375 139.089844 Z M 631.414062 35.59375 " clip-rule="nonzero"/></clipPath><clipPath id="85233fe604"><path d="M 631.414062 35.59375 L 747.050781 235.953125 L 567.730469 339.449219 L 452.09375 139.089844 Z M 631.414062 35.59375 " clip-rule="nonzero"/></clipPath><clipPath id="14f17d7045"><path d="M 631.414062 35.59375 L 747.050781 235.953125 L 567.730469 339.449219 L 452.09375 139.089844 Z M 631.414062 35.59375 " clip-rule="nonzero"/></clipPath><clipPath id="d719bf11b8"><path d="M 498 144 L 553 144 L 553 204 L 498 204 Z M 498 144 " clip-rule="nonzero"/></clipPath><clipPath id="cfbe1faf87"><path d="M 631.414062 35.59375 L 747.050781 235.953125 L 567.730469 339.449219 L 452.09375 139.089844 Z M 631.414062 35.59375 " clip-rule="nonzero"/></clipPath><clipPath id="186c38af2f"><path d="M 631.414062 35.59375 L 747.050781 235.953125 L 567.730469 339.449219 L 452.09375 139.089844 Z M 631.414062 35.59375 " clip-rule="nonzero"/></clipPath><clipPath id="ae067b5e7f"><path d="M 631.414062 35.59375 L 747.050781 235.953125 L 567.730469 339.449219 L 452.09375 139.089844 Z M 631.414062 35.59375 " clip-rule="nonzero"/></clipPath><clipPath id="aa780b1f7a"><path d="M 628 78 L 662 78 L 662 136 L 628 136 Z M 628 78 " clip-rule="nonzero"/></clipPath><clipPath id="ca53f96328"><path d="M 631.414062 35.59375 L 747.050781 235.953125 L 567.730469 339.449219 L 452.09375 139.089844 Z M 631.414062 35.59375 " clip-rule="nonzero"/></clipPath><clipPath id="11868afa87"><path d="M 631.414062 35.59375 L 747.050781 235.953125 L 567.730469 339.449219 L 452.09375 139.089844 Z M 631.414062 35.59375 " clip-rule="nonzero"/></clipPath><clipPath id="ce3c87b443"><path d="M 631.414062 35.59375 L 747.050781 235.953125 L 567.730469 339.449219 L 452.09375 139.089844 Z M 631.414062 35.59375 " clip-rule="nonzero"/></clipPath><clipPath id="2f75e2e4be"><path d="M 591 144 L 682 144 L 682 255 L 591 255 Z M 591 144 " clip-rule="nonzero"/></clipPath><clipPath id="e36c407439"><path d="M 631.414062 35.59375 L 747.050781 235.953125 L 567.730469 339.449219 L 452.09375 139.089844 Z M 631.414062 35.59375 " clip-rule="nonzero"/></clipPath><clipPath id="bdef8a7ae2"><path d="M 631.414062 35.59375 L 747.050781 235.953125 L 567.730469 339.449219 L 452.09375 139.089844 Z M 631.414062 35.59375 " clip-rule="nonzero"/></clipPath><clipPath id="dd47e75953"><path d="M 631.414062 35.59375 L 747.050781 235.953125 L 567.730469 339.449219 L 452.09375 139.089844 Z M 631.414062 35.59375 " clip-rule="nonzero"/></clipPath><clipPath id="93dd7ba982"><path d="M 570 79 L 613 79 L 613 149 L 570 149 Z M 570 79 " clip-rule="nonzero"/></clipPath><clipPath id="9720c8cc90"><path d="M 631.414062 35.59375 L 747.050781 235.953125 L 567.730469 339.449219 L 452.09375 139.089844 Z M 631.414062 35.59375 " clip-rule="nonzero"/></clipPath><clipPath id="0867bbe4f6"><path d="M 631.414062 35.59375 L 747.050781 235.953125 L 567.730469 339.449219 L 452.09375 139.089844 Z M 631.414062 35.59375 " clip-rule="nonzero"/></clipPath><clipPath id="f55b53276f"><path d="M 631.414062 35.59375 L 747.050781 235.953125 L 567.730469 339.449219 L 452.09375 139.089844 Z M 631.414062 35.59375 " clip-rule="nonzero"/></clipPath><clipPath id="d2bba2e722"><path d="M 552 195 L 659 195 L 659 296 L 552 296 Z M 552 195 " clip-rule="nonzero"/></clipPath><clipPath id="6796e9c6ac"><path d="M 631.414062 35.59375 L 747.050781 235.953125 L 567.730469 339.449219 L 452.09375 139.089844 Z M 631.414062 35.59375 " clip-rule="nonzero"/></clipPath><clipPath id="5c732d781f"><path d="M 631.414062 35.59375 L 747.050781 235.953125 L 567.730469 339.449219 L 452.09375 139.089844 Z M 631.414062 35.59375 " clip-rule="nonzero"/></clipPath><clipPath id="d217506514"><path d="M 631.414062 35.59375 L 747.050781 235.953125 L 567.730469 339.449219 L 452.09375 139.089844 Z M 631.414062 35.59375 " clip-rule="nonzero"/></clipPath><clipPath id="58b89a3e23"><path d="M 530 105 L 565 105 L 565 164 L 530 164 Z M 530 105 " clip-rule="nonzero"/></clipPath><clipPath id="321d7c346f"><path d="M 631.414062 35.59375 L 747.050781 235.953125 L 567.730469 339.449219 L 452.09375 139.089844 Z M 631.414062 35.59375 " clip-rule="nonzero"/></clipPath><clipPath id="348b7bf54d"><path d="M 631.414062 35.59375 L 747.050781 235.953125 L 567.730469 339.449219 L 452.09375 139.089844 Z M 631.414062 35.59375 " clip-rule="nonzero"/></clipPath><clipPath id="8a4cf4c8f1"><path d="M 631.414062 35.59375 L 747.050781 235.953125 L 567.730469 339.449219 L 452.09375 139.089844 Z M 631.414062 35.59375 " clip-rule="nonzero"/></clipPath><clipPath id="e6603847d5"><path d="M 505 144 L 534 144 L 534 185 L 505 185 Z M 505 144 " clip-rule="nonzero"/></clipPath><clipPath id="4515683057"><path d="M 631.414062 35.59375 L 747.050781 235.953125 L 567.730469 339.449219 L 452.09375 139.089844 Z M 631.414062 35.59375 " clip-rule="nonzero"/></clipPath><clipPath id="503d08504f"><path d="M 631.414062 35.59375 L 747.050781 235.953125 L 567.730469 339.449219 L 452.09375 139.089844 Z M 631.414062 35.59375 " clip-rule="nonzero"/></clipPath><clipPath id="d99878aedf"><path d="M 631.414062 35.59375 L 747.050781 235.953125 L 567.730469 339.449219 L 452.09375 139.089844 Z M 631.414062 35.59375 " clip-rule="nonzero"/></clipPath><clipPath id="015b7d272e"><path d="M 0 0.117188 L 374.761719 0.117188 L 374.761719 374.878906 L 0 374.878906 Z M 0 0.117188 " clip-rule="nonzero"/></clipPath><clipPath id="35a38bf65a"><path d="M 187.382812 0.117188 C 83.894531 0.117188 0 84.011719 0 187.5 C 0 290.988281 83.894531 374.882812 187.382812 374.882812 C 290.867188 374.882812 374.761719 290.988281 374.761719 187.5 C 374.761719 84.011719 290.867188 0.117188 187.382812 0.117188 Z M 187.382812 0.117188 " clip-rule="nonzero"/></clipPath><clipPath id="66a2257112"><path d="M 76 68 L 282 68 L 282 309 L 76 309 Z M 76 68 " clip-rule="nonzero"/></clipPath><clipPath id="d727f23704"><path d="M 219.175781 35.59375 L 334.8125 235.953125 L 155.492188 339.449219 L 39.855469 139.089844 Z M 219.175781 35.59375 " clip-rule="nonzero"/></clipPath><clipPath id="c5523c75f3"><path d="M 219.175781 35.59375 L 334.8125 235.953125 L 155.492188 339.449219 L 39.855469 139.089844 Z M 219.175781 35.59375 " clip-rule="nonzero"/></clipPath><clipPath id="53b458a4c9"><path d="M 219.175781 35.59375 L 334.8125 235.953125 L 155.492188 339.449219 L 39.855469 139.089844 Z M 219.175781 35.59375 " clip-rule="nonzero"/></clipPath><clipPath id="acf1f8b948"><path d="M 201 78 L 250 78 L 250 139 L 201 139 Z M 201 78 " clip-rule="nonzero"/></clipPath><clipPath id="c64271e33d"><path d="M 219.175781 35.59375 L 334.8125 235.953125 L 155.492188 339.449219 L 39.855469 139.089844 Z M 219.175781 35.59375 " clip-rule="nonzero"/></clipPath><clipPath id="f786d66499"><path d="M 219.175781 35.59375 L 334.8125 235.953125 L 155.492188 339.449219 L 39.855469 139.089844 Z M 219.175781 35.59375 " clip-rule="nonzero"/></clipPath><clipPath id="1046f6d054"><path d="M 219.175781 35.59375 L 334.8125 235.953125 L 155.492188 339.449219 L 39.855469 139.089844 Z M 219.175781 35.59375 " clip-rule="nonzero"/></clipPath><clipPath id="09baa4a594"><path d="M 141 79 L 201 79 L 201 160 L 141 160 Z M 141 79 " clip-rule="nonzero"/></clipPath><clipPath id="382be97da2"><path d="M 219.175781 35.59375 L 334.8125 235.953125 L 155.492188 339.449219 L 39.855469 139.089844 Z M 219.175781 35.59375 " clip-rule="nonzero"/></clipPath><clipPath id="9eaff16b80"><path d="M 219.175781 35.59375 L 334.8125 235.953125 L 155.492188 339.449219 L 39.855469 139.089844 Z M 219.175781 35.59375 " clip-rule="nonzero"/></clipPath><clipPath id="8092341483"><path d="M 219.175781 35.59375 L 334.8125 235.953125 L 155.492188 339.449219 L 39.855469 139.089844 Z M 219.175781 35.59375 " clip-rule="nonzero"/></clipPath><clipPath id="627c9da71e"><path d="M 100 144 L 270 144 L 270 298 L 100 298 Z M 100 144 " clip-rule="nonzero"/></clipPath><clipPath id="2f294a3570"><path d="M 219.175781 35.59375 L 334.8125 235.953125 L 155.492188 339.449219 L 39.855469 139.089844 Z M 219.175781 35.59375 " clip-rule="nonzero"/></clipPath><clipPath id="67b1c92023"><path d="M 219.175781 35.59375 L 334.8125 235.953125 L 155.492188 339.449219 L 39.855469 139.089844 Z M 219.175781 35.59375 " clip-rule="nonzero"/></clipPath><clipPath id="3cac06561b"><path d="M 219.175781 35.59375 L 334.8125 235.953125 L 155.492188 339.449219 L 39.855469 139.089844 Z M 219.175781 35.59375 " clip-rule="nonzero"/></clipPath><clipPath id="4657fee173"><path d="M 110 105 L 162 105 L 162 183 L 110 183 Z M 110 105 " clip-rule="nonzero"/></clipPath><clipPath id="285836e2e8"><path d="M 219.175781 35.59375 L 334.8125 235.953125 L 155.492188 339.449219 L 39.855469 139.089844 Z M 219.175781 35.59375 " clip-rule="nonzero"/></clipPath><clipPath id="ae44523bb2"><path d="M 219.175781 35.59375 L 334.8125 235.953125 L 155.492188 339.449219 L 39.855469 139.089844 Z M 219.175781 35.59375 " clip-rule="nonzero"/></clipPath><clipPath id="b3178b3aaa"><path d="M 219.175781 35.59375 L 334.8125 235.953125 L 155.492188 339.449219 L 39.855469 139.089844 Z M 219.175781 35.59375 " clip-rule="nonzero"/></clipPath><clipPath id="888d97975b"><path d="M 86 144 L 141 144 L 141 204 L 86 204 Z M 86 144 " clip-rule="nonzero"/></clipPath><clipPath id="0c18adb178"><path d="M 219.175781 35.59375 L 334.8125 235.953125 L 155.492188 339.449219 L 39.855469 139.089844 Z M 219.175781 35.59375 " clip-rule="nonzero"/></clipPath><clipPath id="ee99da4a80"><path d="M 219.175781 35.59375 L 334.8125 235.953125 L 155.492188 339.449219 L 39.855469 139.089844 Z M 219.175781 35.59375 " clip-rule="nonzero"/></clipPath><clipPath id="a2275889fc"><path d="M 219.175781 35.59375 L 334.8125 235.953125 L 155.492188 339.449219 L 39.855469 139.089844 Z M 219.175781 35.59375 " clip-rule="nonzero"/></clipPath><clipPath id="2a77324e0b"><path d="M 215 78 L 250 78 L 250 136 L 215 136 Z M 215 78 " clip-rule="nonzero"/></clipPath><clipPath id="4ddb6e744a"><path d="M 219.175781 35.59375 L 334.8125 235.953125 L 155.492188 339.449219 L 39.855469 139.089844 Z M 219.175781 35.59375 " clip-rule="nonzero"/></clipPath><clipPath id="8e257619bb"><path d="M 219.175781 35.59375 L 334.8125 235.953125 L 155.492188 339.449219 L 39.855469 139.089844 Z M 219.175781 35.59375 " clip-rule="nonzero"/></clipPath><clipPath id="0ecfd4e5e1"><path d="M 219.175781 35.59375 L 334.8125 235.953125 L 155.492188 339.449219 L 39.855469 139.089844 Z M 219.175781 35.59375 " clip-rule="nonzero"/></clipPath><clipPath id="fcc4d5e3c5"><path d="M 179 144 L 270 144 L 270 255 L 179 255 Z M 179 144 " clip-rule="nonzero"/></clipPath><clipPath id="95edfe4274"><path d="M 219.175781 35.59375 L 334.8125 235.953125 L 155.492188 339.449219 L 39.855469 139.089844 Z M 219.175781 35.59375 " clip-rule="nonzero"/></clipPath><clipPath id="82e71a859e"><path d="M 219.175781 35.59375 L 334.8125 235.953125 L 155.492188 339.449219 L 39.855469 139.089844 Z M 219.175781 35.59375 " clip-rule="nonzero"/></clipPath><clipPath id="1ed00772d0"><path d="M 219.175781 35.59375 L 334.8125 235.953125 L 155.492188 339.449219 L 39.855469 139.089844 Z M 219.175781 35.59375 " clip-rule="nonzero"/></clipPath><clipPath id="d27d088196"><path d="M 158 79 L 201 79 L 201 149 L 158 149 Z M 158 79 " clip-rule="nonzero"/></clipPath><clipPath id="6ed356018a"><path d="M 219.175781 35.59375 L 334.8125 235.953125 L 155.492188 339.449219 L 39.855469 139.089844 Z M 219.175781 35.59375 " clip-rule="nonzero"/></clipPath><clipPath id="beb375445d"><path d="M 219.175781 35.59375 L 334.8125 235.953125 L 155.492188 339.449219 L 39.855469 139.089844 Z M 219.175781 35.59375 " clip-rule="nonzero"/></clipPath><clipPath id="5c042822a7"><path d="M 219.175781 35.59375 L 334.8125 235.953125 L 155.492188 339.449219 L 39.855469 139.089844 Z M 219.175781 35.59375 " clip-rule="nonzero"/></clipPath><clipPath id="a8d1de389e"><path d="M 140 195 L 247 195 L 247 296 L 140 296 Z M 140 195 " clip-rule="nonzero"/></clipPath><clipPath id="249035d7be"><path d="M 219.175781 35.59375 L 334.8125 235.953125 L 155.492188 339.449219 L 39.855469 139.089844 Z M 219.175781 35.59375 " clip-rule="nonzero"/></clipPath><clipPath id="dfe9177ee2"><path d="M 219.175781 35.59375 L 334.8125 235.953125 L 155.492188 339.449219 L 39.855469 139.089844 Z M 219.175781 35.59375 " clip-rule="nonzero"/></clipPath><clipPath id="6c2ffdb16f"><path d="M 219.175781 35.59375 L 334.8125 235.953125 L 155.492188 339.449219 L 39.855469 139.089844 Z M 219.175781 35.59375 " clip-rule="nonzero"/></clipPath><clipPath id="42319ef75d"><path d="M 118 105 L 153 105 L 153 164 L 118 164 Z M 118 105 " clip-rule="nonzero"/></clipPath><clipPath id="9957b0f9db"><path d="M 219.175781 35.59375 L 334.8125 235.953125 L 155.492188 339.449219 L 39.855469 139.089844 Z M 219.175781 35.59375 " clip-rule="nonzero"/></clipPath><clipPath id="1b7adbbde4"><path d="M 219.175781 35.59375 L 334.8125 235.953125 L 155.492188 339.449219 L 39.855469 139.089844 Z M 219.175781 35.59375 " clip-rule="nonzero"/></clipPath><clipPath id="4edb4883b7"><path d="M 219.175781 35.59375 L 334.8125 235.953125 L 155.492188 339.449219 L 39.855469 139.089844 Z M 219.175781 35.59375 " clip-rule="nonzero"/></clipPath><clipPath id="54d16c5edb"><path d="M 92 144 L 121 144 L 121 185 L 92 185 Z M 92 144 " clip-rule="nonzero"/></clipPath><clipPath id="6b830ec7ce"><path d="M 219.175781 35.59375 L 334.8125 235.953125 L 155.492188 339.449219 L 39.855469 139.089844 Z M 219.175781 35.59375 " clip-rule="nonzero"/></clipPath><clipPath id="91b8c29493"><path d="M 219.175781 35.59375 L 334.8125 235.953125 L 155.492188 339.449219 L 39.855469 139.089844 Z M 219.175781 35.59375 " clip-rule="nonzero"/></clipPath><clipPath id="6ebe32b5ff"><path d="M 219.175781 35.59375 L 334.8125 235.953125 L 155.492188 339.449219 L 39.855469 139.089844 Z M 219.175781 35.59375 " clip-rule="nonzero"/></clipPath><clipPath id="2a9e0456f6"><path d="M 376 164.101562 L 448.609375 164.101562 L 448.609375 265.546875 L 376 265.546875 Z M 376 164.101562 " clip-rule="nonzero"/></clipPath><clipPath id="3b123c2533"><path d="M 347.429688 90.9375 L 435.945312 90.9375 L 435.945312 284.308594 L 347.429688 284.308594 Z M 347.429688 90.9375 " clip-rule="nonzero"/></clipPath></defs><g clip-path="url(#0a9c83e385)"><g clip-path="url(#6530e26148)"><path fill="#3a5dc4" d="M 412.238281 0.117188 L 787 0.117188 L 787 374.882812 L 412.238281 374.882812 Z M 412.238281 0.117188 " fill-opacity="1" fill-rule="nonzero"/></g></g><g clip-path="url(#9ce891634f)"><g clip-path="url(#94d28b3cca)"><g clip-path="url(#e5d7abfae1)"><g clip-path="url(#ef4eddc9ef)"><path fill="#232323" d="M 520.425781 108.941406 C 516.527344 113.152344 514.28125 118.132812 513.722656 123.839844 C 513.203125 127.5625 513.75 131.386719 513.097656 135.054688 C 503.570312 139.722656 496.449219 147.707031 491.582031 156.996094 C 488.769531 162.480469 487.816406 168.664062 489.28125 174.6875 C 491.644531 185 497.65625 192.949219 503.046875 201.484375 C 502.132812 212.027344 503.523438 222.089844 508.058594 231.714844 C 513.847656 246.019531 525.535156 257.285156 540.003906 262.597656 C 538.441406 269.8125 538.703125 277.070312 542.277344 283.675781 C 547.140625 293.609375 556.191406 299.910156 566.3125 303.730469 C 582.105469 309.507812 600.015625 309.296875 616.210938 305.296875 C 632.101562 301.34375 647.855469 293.246094 658.675781 280.75 C 665.945312 272.453125 670.914062 261.222656 669.421875 250.042969 C 669.121094 246.734375 667.351562 243.515625 667.359375 240.253906 C 677.132812 231.128906 684.71875 220.046875 689.820312 207.691406 C 695.390625 193.988281 695.511719 178.105469 690.269531 164.289062 C 686.449219 154.027344 679.1875 145.855469 670.226562 139.769531 C 673.5625 123.414062 669.226562 107.023438 663.054688 91.90625 C 659.855469 84.835938 655.058594 77.023438 648.183594 73.007812 C 640.625 68.171875 630.609375 67.351562 622.097656 69.832031 C 615.34375 72.019531 610.679688 76.761719 607.207031 82.753906 C 604.789062 79.003906 602.742188 75.480469 598.632812 73.351562 C 590.933594 69.152344 580.832031 69.789062 572.707031 72.328125 C 561.707031 75.859375 550.773438 84.066406 546.285156 94.972656 C 536.882812 97.242188 527.03125 101.71875 520.425781 108.941406 Z M 520.425781 108.941406 " fill-opacity="1" fill-rule="nonzero"/></g></g></g></g><g clip-path="url(#f0e6b90b3b)"><g clip-path="url(#4a69eb8017)"><g clip-path="url(#52533f3b12)"><g clip-path="url(#86723ff79a)"><path fill="#ababab" d="M 613.839844 100.398438 C 613.601562 113.113281 615.015625 125.921875 616.796875 138.492188 C 622.21875 137.074219 627.585938 135.597656 633.082031 134.5 C 638.785156 133.371094 644.558594 132.757812 650.367188 133.230469 C 654.109375 133.496094 657.933594 134.710938 661.609375 135.609375 C 662.589844 124.050781 659.9375 113.367188 656.742188 102.339844 C 654.925781 96.121094 652.042969 90.273438 647.96875 85.21875 C 645.066406 81.734375 641.0625 79.792969 636.714844 78.78125 C 631.089844 78.039062 624.6875 78.265625 620.242188 82.25 C 615.085938 86.773438 614.0625 93.917969 613.839844 100.398438 Z M 613.839844 100.398438 " fill-opacity="1" fill-rule="nonzero"/></g></g></g></g><g clip-path="url(#7f12b0d204)"><g clip-path="url(#74584e2fca)"><g clip-path="url(#f99ad9cfb4)"><g clip-path="url(#86c4b561b0)"><path fill="#ababab" d="M 554.800781 116.445312 C 557.929688 132.113281 564.019531 148.183594 575.40625 159.738281 C 578.828125 155.246094 582.824219 151.570312 587.328125 148.1875 C 594.738281 143.800781 604.1875 141.945312 612.433594 139.589844 C 609.304688 128.109375 606.351562 116.316406 605.199219 104.464844 C 604.734375 100.144531 605.28125 96.257812 603.496094 92.269531 C 601.753906 88.203125 599.027344 83.238281 594.9375 81.144531 C 589.050781 78.378906 582.257812 79.78125 576.246094 81.378906 C 569.285156 84.238281 561.808594 88.617188 557.367188 94.855469 C 553.179688 101.078125 553.484375 109.371094 554.800781 116.445312 Z M 554.800781 116.445312 " fill-opacity="1" fill-rule="nonzero"/></g></g></g></g><g clip-path="url(#897c0b0421)"><g clip-path="url(#31bc5799d5)"><g clip-path="url(#177d399601)"><g clip-path="url(#78cbadcb46)"><path fill="#ababab" d="M 658.472656 249.972656 C 645.496094 258.871094 629.648438 262.660156 614.210938 259.027344 C 620.25 257.429688 626.320312 256.871094 632.152344 254.460938 C 645.976562 248.996094 657.722656 238.191406 666.117188 226.089844 C 672.328125 216.566406 678.742188 206.226562 680.96875 194.953125 C 682.9375 185.125 681.914062 174.457031 677.652344 165.34375 C 672.914062 155.589844 664.082031 147.980469 653.488281 145.351562 C 642.804688 142.824219 631.742188 146.292969 621.398438 148.867188 C 611.851562 151.472656 601.453125 153.234375 592.433594 157.269531 C 588.335938 159.242188 585.214844 162.1875 583.570312 166.472656 C 581.441406 171.375 582.84375 176.4375 585.40625 180.859375 C 588.414062 185.980469 593.46875 189.199219 598.835938 191.410156 C 608.105469 195.132812 618.246094 196.394531 628.15625 195.179688 C 635.890625 194.429688 642.882812 191.9375 650.285156 189.78125 C 645.554688 193.554688 640.429688 196.625 634.539062 198.214844 C 623.492188 201.320312 612.441406 205.875 602.960938 212.386719 C 596.574219 216.78125 591.492188 222.214844 585.601562 227.011719 C 586.574219 222.222656 587.023438 217.8125 589.796875 213.609375 C 592.730469 208.945312 596.910156 206.003906 601.390625 202.96875 C 595.71875 201.472656 590.445312 199.359375 585.746094 195.769531 C 582.496094 192.953125 579.789062 189.660156 577.1875 186.246094 C 571.800781 188.925781 566.589844 190.648438 560.542969 190.917969 C 557.160156 197.601562 552.464844 204.007812 546.5625 208.675781 C 541.488281 212.722656 534.695312 213.035156 528.476562 212.773438 C 523 212.550781 518.230469 210.675781 513.144531 208.867188 C 514.25 219.324219 517.476562 229.347656 523.191406 238.199219 C 528.800781 246.171875 536.988281 253.144531 546.382812 256.136719 C 555.125 258.839844 563.851562 259.261719 572.902344 259.722656 C 565.496094 264.464844 557.453125 265.003906 548.929688 264.742188 C 549.203125 270.683594 549.554688 276.15625 553.183594 281.179688 C 559.3125 289.945312 570.816406 294.636719 581.066406 296.28125 C 590.738281 297.796875 600.664062 297.574219 610.203125 295.242188 C 624.722656 292.683594 639.207031 285.785156 649.417969 275.023438 C 655.867188 268.183594 659.867188 259.523438 658.472656 249.972656 Z M 658.472656 249.972656 " fill-opacity="1" fill-rule="nonzero"/></g></g></g></g><g clip-path="url(#b727f4c453)"><g clip-path="url(#8b11a4c7bf)"><g clip-path="url(#85233fe604)"><g clip-path="url(#14f17d7045)"><path fill="#ababab" d="M 564.257812 161.769531 C 553.625 149.164062 547.675781 133.214844 544.933594 117.097656 C 544.261719 113.183594 544.382812 109.253906 543.953125 105.324219 C 539.816406 106.25 536.246094 108.238281 532.746094 110.546875 C 528.496094 113.71875 524.496094 116.992188 523.210938 122.375 C 521.636719 129.132812 522.496094 136.6875 524.140625 143.351562 C 526.207031 151.554688 528.820312 159.769531 532.535156 167.386719 C 535.496094 173.625 541.992188 176.332031 547.902344 179.046875 C 552.21875 180.882812 557.277344 183.058594 562.042969 182.945312 C 566.328125 182.863281 570.066406 180.554688 573.746094 178.621094 C 573.003906 175.351562 572.726562 171.886719 571.65625 168.71875 C 569.355469 166.238281 566.613281 164.195312 564.257812 161.769531 Z M 564.257812 161.769531 " fill-opacity="1" fill-rule="nonzero"/></g></g></g></g><g clip-path="url(#d719bf11b8)"><g clip-path="url(#cfbe1faf87)"><g clip-path="url(#186c38af2f)"><g clip-path="url(#ae067b5e7f)"><path fill="#ababab" d="M 521.089844 163.011719 C 518.519531 157.097656 517.046875 150.925781 515.105469 144.816406 C 511.222656 147.722656 507.960938 151.054688 505.039062 154.914062 C 501.550781 159.445312 497.738281 164.789062 498.699219 170.839844 C 499.726562 177.113281 503.417969 183.222656 506.660156 188.621094 C 511.597656 196.4375 519.21875 202.355469 528.566406 203.527344 C 532.871094 204.007812 538.460938 204.34375 542.070312 201.519531 C 546.332031 198.328125 549.789062 193.765625 552.746094 189.382812 C 546.09375 186.316406 539.410156 184.109375 533.101562 180.140625 C 526.71875 175.949219 524.105469 169.722656 521.089844 163.011719 Z M 521.089844 163.011719 " fill-opacity="1" fill-rule="nonzero"/></g></g></g></g><g clip-path="url(#aa780b1f7a)"><g clip-path="url(#ca53f96328)"><g clip-path="url(#11868afa87)"><g clip-path="url(#ce3c87b443)"><path fill="#ffffff" d="M 633.082031 134.5 C 638.785156 133.371094 644.558594 132.757812 650.367188 133.230469 C 654.109375 133.496094 657.933594 134.710938 661.609375 135.609375 C 662.589844 124.050781 659.9375 113.367188 656.742188 102.339844 C 654.925781 96.121094 652.042969 90.273438 647.96875 85.21875 C 645.066406 81.734375 641.0625 79.792969 636.714844 78.78125 C 633.851562 81.339844 631.023438 83.246094 630 87.160156 C 626.058594 103.410156 628.914062 118.667969 633.082031 134.5 Z M 633.082031 134.5 " fill-opacity="1" fill-rule="nonzero"/></g></g></g></g><g clip-path="url(#2f75e2e4be)"><g clip-path="url(#e36c407439)"><g clip-path="url(#bdef8a7ae2)"><g clip-path="url(#dd47e75953)"><path fill="#ffffff" d="M 592.433594 157.269531 C 591.652344 161.695312 590.328125 166.296875 592.273438 170.621094 C 595.054688 176.6875 600.835938 179.941406 607.085938 181.480469 C 615.257812 183.40625 623.945312 183.523438 632.277344 182.765625 C 639.035156 182.171875 645.421875 180.308594 652.050781 179.125 C 654.964844 183.605469 656.289062 188.339844 653.117188 193.074219 C 644.800781 205.136719 627.355469 211 618.804688 222.980469 C 614.980469 228.242188 612.90625 234.613281 614.769531 241.046875 C 616.929688 248.804688 624.191406 254.1875 632.152344 254.460938 C 645.976562 248.996094 657.722656 238.191406 666.117188 226.089844 C 672.328125 216.566406 678.742188 206.226562 680.96875 194.953125 C 682.9375 185.125 681.914062 174.457031 677.652344 165.34375 C 672.914062 155.589844 664.082031 147.980469 653.488281 145.351562 C 642.804688 142.824219 631.742188 146.292969 621.398438 148.867188 C 611.851562 151.472656 601.453125 153.234375 592.433594 157.269531 Z M 592.433594 157.269531 " fill-opacity="1" fill-rule="nonzero"/></g></g></g></g><g clip-path="url(#93dd7ba982)"><g clip-path="url(#9720c8cc90)"><g clip-path="url(#0867bbe4f6)"><g clip-path="url(#f55b53276f)"><path fill="#ffffff" d="M 570.527344 99.949219 C 572.441406 117.398438 578.839844 132.976562 587.328125 148.1875 C 594.738281 143.800781 604.1875 141.945312 612.433594 139.589844 C 609.304688 128.109375 606.351562 116.316406 605.199219 104.464844 C 604.734375 100.144531 605.28125 96.257812 603.496094 92.269531 C 601.753906 88.203125 599.027344 83.238281 594.9375 81.144531 C 589.050781 78.378906 582.257812 79.78125 576.246094 81.378906 C 571.441406 87.144531 569.925781 92.523438 570.527344 99.949219 Z M 570.527344 99.949219 " fill-opacity="1" fill-rule="nonzero"/></g></g></g></g><g clip-path="url(#d2bba2e722)"><g clip-path="url(#6796e9c6ac)"><g clip-path="url(#5c732d781f)"><g clip-path="url(#d217506514)"><path fill="#ffffff" d="M 587.457031 243.664062 C 584.234375 238.46875 584.289062 232.785156 585.601562 227.011719 C 586.574219 222.222656 587.023438 217.8125 589.796875 213.609375 C 592.730469 208.945312 596.910156 206.003906 601.390625 202.96875 C 595.71875 201.472656 590.445312 199.359375 585.746094 195.769531 C 577.757812 196.757812 570.410156 197.503906 563.804688 202.699219 C 551.535156 211.488281 549.441406 229.992188 557.332031 242.332031 C 562.433594 251.023438 571.003906 256.015625 580.8125 257.574219 C 577.609375 261.925781 574.34375 266.011719 574.273438 271.6875 C 574.265625 278.761719 579.160156 284.429688 584.878906 287.996094 C 592.621094 292.972656 601.324219 293.746094 610.203125 295.242188 C 624.722656 292.683594 639.207031 285.785156 649.417969 275.023438 C 655.867188 268.183594 659.867188 259.523438 658.472656 249.972656 C 645.496094 258.871094 629.648438 262.660156 614.210938 259.027344 C 604.113281 257.144531 592.949219 252.933594 587.457031 243.664062 Z M 587.457031 243.664062 " fill-opacity="1" fill-rule="nonzero"/></g></g></g></g><g clip-path="url(#58b89a3e23)"><g clip-path="url(#321d7c346f)"><g clip-path="url(#348b7bf54d)"><g clip-path="url(#8a4cf4c8f1)"><path fill="#ffffff" d="M 550.054688 162.191406 C 554.925781 164.289062 559.382812 163.074219 564.257812 161.769531 C 553.625 149.164062 547.675781 133.214844 544.933594 117.097656 C 544.261719 113.183594 544.382812 109.253906 543.953125 105.324219 C 539.816406 106.25 536.246094 108.238281 532.746094 110.546875 C 529.480469 123.363281 530.285156 136.8125 536.816406 148.5 C 539.859375 153.773438 544.335938 159.65625 550.054688 162.191406 Z M 550.054688 162.191406 " fill-opacity="1" fill-rule="nonzero"/></g></g></g></g><g clip-path="url(#e6603847d5)"><g clip-path="url(#4515683057)"><g clip-path="url(#503d08504f)"><g clip-path="url(#d99878aedf)"><path fill="#ffffff" d="M 510.855469 173.609375 C 513.886719 178.4375 518.886719 183.855469 524.9375 184.351562 C 528.378906 184.691406 530.621094 182.074219 533.101562 180.140625 C 526.71875 175.949219 524.105469 169.722656 521.089844 163.011719 C 518.519531 157.097656 517.046875 150.925781 515.105469 144.816406 C 511.222656 147.722656 507.960938 151.054688 505.039062 154.914062 C 506.097656 161.5625 507.078125 167.824219 510.855469 173.609375 Z M 510.855469 173.609375 " fill-opacity="1" fill-rule="nonzero"/></g></g></g></g><g clip-path="url(#015b7d272e)"><g clip-path="url(#35a38bf65a)"><path fill="#ff9441" d="M 0 0.117188 L 374.761719 0.117188 L 374.761719 374.882812 L 0 374.882812 Z M 0 0.117188 " fill-opacity="1" fill-rule="nonzero"/></g></g><g clip-path="url(#66a2257112)"><g clip-path="url(#d727f23704)"><g clip-path="url(#c5523c75f3)"><g clip-path="url(#53b458a4c9)"><path fill="#232323" d="M 108.1875 108.941406 C 104.289062 113.152344 102.042969 118.132812 101.484375 123.839844 C 100.964844 127.5625 101.511719 131.386719 100.859375 135.054688 C 91.335938 139.722656 84.210938 147.707031 79.34375 156.996094 C 76.53125 162.480469 75.578125 168.664062 77.042969 174.6875 C 79.40625 185 85.417969 192.949219 90.808594 201.484375 C 89.894531 212.027344 91.285156 222.089844 95.820312 231.714844 C 101.609375 246.019531 113.296875 257.285156 127.765625 262.597656 C 126.203125 269.8125 126.464844 277.070312 130.039062 283.675781 C 134.902344 293.609375 143.953125 299.910156 154.074219 303.730469 C 169.867188 309.507812 187.777344 309.296875 203.972656 305.296875 C 219.863281 301.34375 235.617188 293.246094 246.4375 280.75 C 253.707031 272.453125 258.675781 261.222656 257.183594 250.042969 C 256.882812 246.734375 255.113281 243.515625 255.121094 240.253906 C 264.894531 231.128906 272.480469 220.046875 277.582031 207.691406 C 283.152344 193.988281 283.273438 178.105469 278.03125 164.289062 C 274.210938 154.027344 266.949219 145.855469 257.988281 139.769531 C 261.324219 123.414062 256.988281 107.023438 250.816406 91.90625 C 247.617188 84.835938 242.820312 77.023438 235.945312 73.007812 C 228.386719 68.171875 218.371094 67.351562 209.859375 69.832031 C 203.105469 72.019531 198.441406 76.761719 194.96875 82.753906 C 192.550781 79.003906 190.503906 75.480469 186.394531 73.351562 C 178.695312 69.152344 168.59375 69.789062 160.46875 72.328125 C 149.46875 75.859375 138.535156 84.066406 134.046875 94.972656 C 124.644531 97.242188 114.792969 101.71875 108.1875 108.941406 Z M 108.1875 108.941406 " fill-opacity="1" fill-rule="nonzero"/></g></g></g></g><g clip-path="url(#acf1f8b948)"><g clip-path="url(#c64271e33d)"><g clip-path="url(#f786d66499)"><g clip-path="url(#1046f6d054)"><path fill="#ababab" d="M 201.601562 100.398438 C 201.363281 113.113281 202.777344 125.921875 204.558594 138.492188 C 209.980469 137.074219 215.347656 135.597656 220.84375 134.5 C 226.546875 133.371094 232.320312 132.757812 238.128906 133.230469 C 241.871094 133.496094 245.695312 134.710938 249.371094 135.609375 C 250.351562 124.050781 247.699219 113.367188 244.503906 102.339844 C 242.6875 96.121094 239.804688 90.273438 235.730469 85.21875 C 232.828125 81.734375 228.824219 79.792969 224.476562 78.78125 C 218.851562 78.039062 212.449219 78.265625 208.003906 82.25 C 202.847656 86.773438 201.824219 93.917969 201.601562 100.398438 Z M 201.601562 100.398438 " fill-opacity="1" fill-rule="nonzero"/></g></g></g></g><g clip-path="url(#09baa4a594)"><g clip-path="url(#382be97da2)"><g clip-path="url(#9eaff16b80)"><g clip-path="url(#8092341483)"><path fill="#ababab" d="M 142.5625 116.445312 C 145.691406 132.113281 151.78125 148.183594 163.167969 159.738281 C 166.589844 155.246094 170.585938 151.570312 175.089844 148.1875 C 182.5 143.800781 191.949219 141.945312 200.195312 139.589844 C 197.066406 128.109375 194.113281 116.316406 192.960938 104.464844 C 192.496094 100.144531 193.042969 96.257812 191.257812 92.269531 C 189.515625 88.203125 186.789062 83.238281 182.699219 81.144531 C 176.8125 78.378906 170.019531 79.78125 164.007812 81.378906 C 157.046875 84.238281 149.570312 88.617188 145.128906 94.855469 C 140.941406 101.078125 141.246094 109.371094 142.5625 116.445312 Z M 142.5625 116.445312 " fill-opacity="1" fill-rule="nonzero"/></g></g></g></g><g clip-path="url(#627c9da71e)"><g clip-path="url(#2f294a3570)"><g clip-path="url(#67b1c92023)"><g clip-path="url(#3cac06561b)"><path fill="#ababab" d="M 246.234375 249.972656 C 233.257812 258.871094 217.410156 262.660156 201.972656 259.027344 C 208.011719 257.429688 214.082031 256.871094 219.914062 254.460938 C 233.738281 248.996094 245.484375 238.191406 253.878906 226.089844 C 260.089844 216.566406 266.503906 206.226562 268.730469 194.953125 C 270.699219 185.125 269.675781 174.457031 265.414062 165.34375 C 260.675781 155.589844 251.84375 147.980469 241.25 145.351562 C 230.566406 142.824219 219.503906 146.292969 209.160156 148.867188 C 199.613281 151.472656 189.214844 153.234375 180.195312 157.269531 C 176.097656 159.242188 172.976562 162.1875 171.332031 166.472656 C 169.203125 171.375 170.605469 176.4375 173.167969 180.859375 C 176.175781 185.980469 181.230469 189.199219 186.597656 191.410156 C 195.867188 195.132812 206.007812 196.394531 215.917969 195.179688 C 223.652344 194.429688 230.644531 191.9375 238.046875 189.78125 C 233.316406 193.554688 228.191406 196.625 222.300781 198.214844 C 211.253906 201.320312 200.203125 205.875 190.722656 212.386719 C 184.335938 216.78125 179.253906 222.214844 173.363281 227.011719 C 174.335938 222.222656 174.785156 217.8125 177.558594 213.609375 C 180.492188 208.945312 184.671875 206.003906 189.152344 202.96875 C 183.480469 201.472656 178.207031 199.359375 173.507812 195.769531 C 170.257812 192.953125 167.550781 189.660156 164.949219 186.246094 C 159.5625 188.925781 154.351562 190.648438 148.304688 190.917969 C 144.925781 197.601562 140.226562 204.007812 134.324219 208.675781 C 129.25 212.722656 122.457031 213.035156 116.238281 212.773438 C 110.761719 212.550781 105.992188 210.675781 100.90625 208.867188 C 102.011719 219.324219 105.238281 229.347656 110.953125 238.199219 C 116.5625 246.171875 124.75 253.144531 134.144531 256.136719 C 142.886719 258.839844 151.613281 259.261719 160.667969 259.722656 C 153.257812 264.464844 145.214844 265.003906 136.691406 264.742188 C 136.964844 270.683594 137.316406 276.15625 140.945312 281.179688 C 147.074219 289.945312 158.578125 294.636719 168.828125 296.28125 C 178.5 297.796875 188.425781 297.574219 197.964844 295.242188 C 212.484375 292.683594 226.96875 285.785156 237.179688 275.023438 C 243.628906 268.183594 247.628906 259.523438 246.234375 249.972656 Z M 246.234375 249.972656 " fill-opacity="1" fill-rule="nonzero"/></g></g></g></g><g clip-path="url(#4657fee173)"><g clip-path="url(#285836e2e8)"><g clip-path="url(#ae44523bb2)"><g clip-path="url(#b3178b3aaa)"><path fill="#ababab" d="M 152.019531 161.769531 C 141.386719 149.164062 135.4375 133.214844 132.695312 117.097656 C 132.023438 113.183594 132.144531 109.253906 131.714844 105.324219 C 127.578125 106.25 124.007812 108.238281 120.507812 110.546875 C 116.257812 113.71875 112.257812 116.992188 110.972656 122.375 C 109.398438 129.132812 110.257812 136.6875 111.902344 143.351562 C 113.96875 151.554688 116.582031 159.769531 120.300781 167.386719 C 123.257812 173.625 129.753906 176.332031 135.664062 179.046875 C 139.980469 180.882812 145.039062 183.058594 149.804688 182.945312 C 154.089844 182.863281 157.828125 180.554688 161.507812 178.621094 C 160.765625 175.351562 160.488281 171.886719 159.417969 168.71875 C 157.117188 166.238281 154.375 164.195312 152.019531 161.769531 Z M 152.019531 161.769531 " fill-opacity="1" fill-rule="nonzero"/></g></g></g></g><g clip-path="url(#888d97975b)"><g clip-path="url(#0c18adb178)"><g clip-path="url(#ee99da4a80)"><g clip-path="url(#a2275889fc)"><path fill="#ababab" d="M 108.851562 163.011719 C 106.28125 157.097656 104.808594 150.925781 102.867188 144.816406 C 98.984375 147.722656 95.722656 151.054688 92.800781 154.914062 C 89.3125 159.445312 85.5 164.789062 86.460938 170.839844 C 87.492188 177.113281 91.179688 183.222656 94.421875 188.621094 C 99.359375 196.4375 106.980469 202.355469 116.328125 203.527344 C 120.632812 204.007812 126.222656 204.34375 129.832031 201.519531 C 134.09375 198.328125 137.550781 193.765625 140.507812 189.382812 C 133.855469 186.316406 127.171875 184.109375 120.863281 180.140625 C 114.480469 175.949219 111.867188 169.722656 108.851562 163.011719 Z M 108.851562 163.011719 " fill-opacity="1" fill-rule="nonzero"/></g></g></g></g><g clip-path="url(#2a77324e0b)"><g clip-path="url(#4ddb6e744a)"><g clip-path="url(#8e257619bb)"><g clip-path="url(#0ecfd4e5e1)"><path fill="#ffffff" d="M 220.84375 134.5 C 226.546875 133.371094 232.320312 132.757812 238.128906 133.230469 C 241.871094 133.496094 245.695312 134.710938 249.371094 135.609375 C 250.351562 124.050781 247.699219 113.367188 244.503906 102.339844 C 242.6875 96.121094 239.804688 90.273438 235.730469 85.21875 C 232.828125 81.734375 228.824219 79.792969 224.476562 78.78125 C 221.613281 81.339844 218.785156 83.246094 217.761719 87.160156 C 213.820312 103.410156 216.675781 118.667969 220.84375 134.5 Z M 220.84375 134.5 " fill-opacity="1" fill-rule="nonzero"/></g></g></g></g><g clip-path="url(#fcc4d5e3c5)"><g clip-path="url(#95edfe4274)"><g clip-path="url(#82e71a859e)"><g clip-path="url(#1ed00772d0)"><path fill="#ffffff" d="M 180.195312 157.269531 C 179.414062 161.695312 178.089844 166.296875 180.035156 170.621094 C 182.816406 176.6875 188.597656 179.941406 194.847656 181.480469 C 203.019531 183.40625 211.707031 183.523438 220.039062 182.765625 C 226.796875 182.171875 233.183594 180.308594 239.8125 179.125 C 242.726562 183.605469 244.050781 188.339844 240.878906 193.074219 C 232.5625 205.136719 215.117188 211 206.566406 222.980469 C 202.742188 228.242188 200.667969 234.613281 202.53125 241.046875 C 204.691406 248.804688 211.953125 254.1875 219.914062 254.460938 C 233.738281 248.996094 245.484375 238.191406 253.878906 226.089844 C 260.089844 216.566406 266.503906 206.226562 268.730469 194.953125 C 270.699219 185.125 269.675781 174.457031 265.414062 165.34375 C 260.675781 155.589844 251.84375 147.980469 241.25 145.351562 C 230.566406 142.824219 219.503906 146.292969 209.160156 148.867188 C 199.613281 151.472656 189.214844 153.234375 180.195312 157.269531 Z M 180.195312 157.269531 " fill-opacity="1" fill-rule="nonzero"/></g></g></g></g><g clip-path="url(#d27d088196)"><g clip-path="url(#6ed356018a)"><g clip-path="url(#beb375445d)"><g clip-path="url(#5c042822a7)"><path fill="#ffffff" d="M 158.289062 99.949219 C 160.203125 117.398438 166.601562 132.976562 175.089844 148.1875 C 182.5 143.800781 191.949219 141.945312 200.195312 139.589844 C 197.066406 128.109375 194.113281 116.316406 192.960938 104.464844 C 192.496094 100.144531 193.042969 96.257812 191.257812 92.269531 C 189.515625 88.203125 186.789062 83.238281 182.699219 81.144531 C 176.8125 78.378906 170.019531 79.78125 164.007812 81.378906 C 159.203125 87.144531 157.6875 92.523438 158.289062 99.949219 Z M 158.289062 99.949219 " fill-opacity="1" fill-rule="nonzero"/></g></g></g></g><g clip-path="url(#a8d1de389e)"><g clip-path="url(#249035d7be)"><g clip-path="url(#dfe9177ee2)"><g clip-path="url(#6c2ffdb16f)"><path fill="#ffffff" d="M 175.21875 243.664062 C 171.996094 238.46875 172.050781 232.785156 173.363281 227.011719 C 174.335938 222.222656 174.785156 217.8125 177.558594 213.609375 C 180.492188 208.945312 184.671875 206.003906 189.152344 202.96875 C 183.480469 201.472656 178.207031 199.359375 173.507812 195.769531 C 165.519531 196.757812 158.171875 197.503906 151.566406 202.699219 C 139.296875 211.488281 137.203125 229.992188 145.09375 242.332031 C 150.195312 251.023438 158.765625 256.015625 168.574219 257.574219 C 165.371094 261.925781 162.105469 266.011719 162.035156 271.6875 C 162.027344 278.761719 166.921875 284.429688 172.640625 287.996094 C 180.382812 292.972656 189.085938 293.746094 197.964844 295.242188 C 212.484375 292.683594 226.96875 285.785156 237.179688 275.023438 C 243.628906 268.183594 247.628906 259.523438 246.234375 249.972656 C 233.257812 258.871094 217.410156 262.660156 201.972656 259.027344 C 191.875 257.144531 180.710938 252.933594 175.21875 243.664062 Z M 175.21875 243.664062 " fill-opacity="1" fill-rule="nonzero"/></g></g></g></g><g clip-path="url(#42319ef75d)"><g clip-path="url(#9957b0f9db)"><g clip-path="url(#1b7adbbde4)"><g clip-path="url(#4edb4883b7)"><path fill="#ffffff" d="M 137.816406 162.191406 C 142.6875 164.289062 147.144531 163.074219 152.019531 161.769531 C 141.386719 149.164062 135.4375 133.214844 132.695312 117.097656 C 132.023438 113.183594 132.144531 109.253906 131.714844 105.324219 C 127.578125 106.25 124.007812 108.238281 120.507812 110.546875 C 117.242188 123.363281 118.046875 136.8125 124.578125 148.5 C 127.621094 153.773438 132.097656 159.65625 137.816406 162.191406 Z M 137.816406 162.191406 " fill-opacity="1" fill-rule="nonzero"/></g></g></g></g><g clip-path="url(#54d16c5edb)"><g clip-path="url(#6b830ec7ce)"><g clip-path="url(#91b8c29493)"><g clip-path="url(#6ebe32b5ff)"><path fill="#ffffff" d="M 98.617188 173.609375 C 101.648438 178.4375 106.648438 183.855469 112.699219 184.351562 C 116.140625 184.691406 118.382812 182.074219 120.863281 180.140625 C 114.480469 175.949219 111.867188 169.722656 108.851562 163.011719 C 106.28125 157.097656 104.808594 150.925781 102.867188 144.816406 C 98.984375 147.722656 95.722656 151.054688 92.800781 154.914062 C 93.859375 161.5625 94.839844 167.824219 98.617188 173.609375 Z M 98.617188 173.609375 " fill-opacity="1" fill-rule="nonzero"/></g></g></g></g><g clip-path="url(#2a9e0456f6)"><path fill="#000000" d="M 447.632812 193.378906 C 450.742188 178.371094 447.3125 164.140625 424.414062 164.140625 C 419.617188 164.140625 415.230469 164.808594 411.292969 166.0625 L 391.304688 210.996094 C 394.179688 214.980469 398.808594 218.535156 405.402344 222.347656 C 415.671875 228.238281 418.214844 232.214844 416.730469 238.980469 C 415.511719 244.53125 412.441406 248.921875 405.886719 248.921875 C 399.140625 248.921875 398.058594 243.398438 399.25 235.371094 L 376.964844 235.371094 C 373.800781 251.964844 378.121094 265.507812 402.019531 265.507812 C 424.078125 265.507812 436.402344 252.632812 439.949219 236.480469 C 443.558594 220.046875 437.519531 212.332031 421.308594 203.210938 C 411.785156 197.902344 410.226562 195.011719 411.457031 189.414062 C 412.648438 183.960938 415.609375 180.722656 420.632812 180.722656 C 427.042969 180.722656 427.015625 186.574219 425.898438 193.378906 L 447.632812 193.378906 " fill-opacity="1" fill-rule="nonzero"/></g><g clip-path="url(#3b123c2533)"><path fill="#000000" d="M 435.726562 90.9375 C 427.644531 106.664062 419.804688 122.515625 412.207031 138.480469 L 391.707031 138.480469 L 380.652344 167.664062 C 375.925781 180.050781 370.617188 193.183594 367.046875 204.832031 L 366.398438 204.832031 C 367.867188 193.546875 369 179.910156 369.648438 167.382812 L 371.554688 138.828125 L 347.617188 138.828125 L 347.429688 227.128906 L 372.96875 227.128906 C 365.203125 246.058594 357.765625 265.121094 350.660156 284.308594 C 382.835938 221.625 411.285156 157.03125 435.726562 90.9375 " fill-opacity="1" fill-rule="nonzero"/></g><g fill="#ffffff" fill-opacity="1"><g transform="translate(137.532985, 48.229974)"><g><path d="M 13.125 -10.46875 C 13.125 -9.570312 12.914062 -8.753906 12.5 -8.015625 C 12.09375 -7.273438 11.460938 -6.675781 10.609375 -6.21875 C 9.765625 -5.769531 8.710938 -5.546875 7.453125 -5.546875 L 5.125 -5.546875 L 5.125 0 L 1.359375 0 L 1.359375 -15.4375 L 7.453125 -15.4375 C 8.679688 -15.4375 9.71875 -15.222656 10.5625 -14.796875 C 11.414062 -14.367188 12.054688 -13.78125 12.484375 -13.03125 C 12.910156 -12.289062 13.125 -11.4375 13.125 -10.46875 Z M 7.171875 -8.53125 C 7.890625 -8.53125 8.421875 -8.695312 8.765625 -9.03125 C 9.117188 -9.375 9.296875 -9.851562 9.296875 -10.46875 C 9.296875 -11.082031 9.117188 -11.554688 8.765625 -11.890625 C 8.421875 -12.234375 7.890625 -12.40625 7.171875 -12.40625 L 5.125 -12.40625 L 5.125 -8.53125 Z M 7.171875 -8.53125 "/></g></g></g><g fill="#ffffff" fill-opacity="1"><g transform="translate(151.249826, 48.229974)"><g><path d="M 12.921875 -6.328125 C 12.921875 -5.972656 12.898438 -5.609375 12.859375 -5.234375 L 4.359375 -5.234375 C 4.410156 -4.472656 4.648438 -3.890625 5.078125 -3.484375 C 5.515625 -3.078125 6.050781 -2.875 6.6875 -2.875 C 7.625 -2.875 8.273438 -3.269531 8.640625 -4.0625 L 12.640625 -4.0625 C 12.429688 -3.257812 12.0625 -2.535156 11.53125 -1.890625 C 11 -1.242188 10.328125 -0.738281 9.515625 -0.375 C 8.710938 -0.0078125 7.8125 0.171875 6.8125 0.171875 C 5.613281 0.171875 4.546875 -0.0820312 3.609375 -0.59375 C 2.671875 -1.101562 1.9375 -1.832031 1.40625 -2.78125 C 0.875 -3.738281 0.609375 -4.859375 0.609375 -6.140625 C 0.609375 -7.410156 0.867188 -8.519531 1.390625 -9.46875 C 1.910156 -10.425781 2.640625 -11.160156 3.578125 -11.671875 C 4.515625 -12.179688 5.59375 -12.4375 6.8125 -12.4375 C 8 -12.4375 9.050781 -12.1875 9.96875 -11.6875 C 10.894531 -11.195312 11.617188 -10.488281 12.140625 -9.5625 C 12.660156 -8.632812 12.921875 -7.554688 12.921875 -6.328125 Z M 9.078125 -7.328125 C 9.078125 -7.960938 8.859375 -8.472656 8.421875 -8.859375 C 7.984375 -9.242188 7.429688 -9.4375 6.765625 -9.4375 C 6.140625 -9.4375 5.609375 -9.25 5.171875 -8.875 C 4.742188 -8.507812 4.476562 -7.992188 4.375 -7.328125 Z M 9.078125 -7.328125 "/></g></g></g><g fill="#ffffff" fill-opacity="1"><g transform="translate(164.790815, 48.229974)"><g><path d="M 17.015625 -12.40625 C 18.535156 -12.40625 19.742188 -11.941406 20.640625 -11.015625 C 21.546875 -10.085938 22 -8.804688 22 -7.171875 L 22 0 L 18.265625 0 L 18.265625 -6.65625 C 18.265625 -7.445312 18.054688 -8.054688 17.640625 -8.484375 C 17.222656 -8.921875 16.648438 -9.140625 15.921875 -9.140625 C 15.179688 -9.140625 14.601562 -8.921875 14.1875 -8.484375 C 13.769531 -8.054688 13.5625 -7.445312 13.5625 -6.65625 L 13.5625 0 L 9.828125 0 L 9.828125 -6.65625 C 9.828125 -7.445312 9.617188 -8.054688 9.203125 -8.484375 C 8.785156 -8.921875 8.207031 -9.140625 7.46875 -9.140625 C 6.738281 -9.140625 6.164062 -8.921875 5.75 -8.484375 C 5.332031 -8.054688 5.125 -7.445312 5.125 -6.65625 L 5.125 0 L 1.359375 0 L 1.359375 -12.265625 L 5.125 -12.265625 L 5.125 -10.734375 C 5.5 -11.242188 5.992188 -11.648438 6.609375 -11.953125 C 7.234375 -12.253906 7.929688 -12.40625 8.703125 -12.40625 C 9.628906 -12.40625 10.453125 -12.207031 11.171875 -11.8125 C 11.898438 -11.414062 12.472656 -10.847656 12.890625 -10.109375 C 13.304688 -10.785156 13.878906 -11.335938 14.609375 -11.765625 C 15.347656 -12.191406 16.148438 -12.40625 17.015625 -12.40625 Z M 17.015625 -12.40625 "/></g></g></g><g fill="#ffffff" fill-opacity="1"><g transform="translate(188.069888, 48.229974)"><g><path d="M 0.609375 -6.15625 C 0.609375 -7.414062 0.847656 -8.519531 1.328125 -9.46875 C 1.804688 -10.425781 2.453125 -11.160156 3.265625 -11.671875 C 4.085938 -12.179688 5.007812 -12.4375 6.03125 -12.4375 C 6.894531 -12.4375 7.648438 -12.257812 8.296875 -11.90625 C 8.953125 -11.5625 9.457031 -11.101562 9.8125 -10.53125 L 9.8125 -12.265625 L 13.5625 -12.265625 L 13.5625 0 L 9.8125 0 L 9.8125 -1.734375 C 9.4375 -1.160156 8.921875 -0.695312 8.265625 -0.34375 C 7.617188 0 6.863281 0.171875 6 0.171875 C 5 0.171875 4.085938 -0.0859375 3.265625 -0.609375 C 2.453125 -1.128906 1.804688 -1.867188 1.328125 -2.828125 C 0.847656 -3.785156 0.609375 -4.894531 0.609375 -6.15625 Z M 9.8125 -6.140625 C 9.8125 -7.078125 9.550781 -7.816406 9.03125 -8.359375 C 8.507812 -8.898438 7.875 -9.171875 7.125 -9.171875 C 6.375 -9.171875 5.738281 -8.898438 5.21875 -8.359375 C 4.695312 -7.828125 4.4375 -7.09375 4.4375 -6.15625 C 4.4375 -5.21875 4.695312 -4.472656 5.21875 -3.921875 C 5.738281 -3.367188 6.375 -3.09375 7.125 -3.09375 C 7.875 -3.09375 8.507812 -3.363281 9.03125 -3.90625 C 9.550781 -4.457031 9.8125 -5.203125 9.8125 -6.140625 Z M 9.8125 -6.140625 "/></g></g></g><g fill="#ffffff" fill-opacity="1"><g transform="translate(202.995751, 48.229974)"><g><path d="M 3.25 -13.546875 C 2.59375 -13.546875 2.054688 -13.738281 1.640625 -14.125 C 1.222656 -14.507812 1.015625 -14.988281 1.015625 -15.5625 C 1.015625 -16.144531 1.222656 -16.628906 1.640625 -17.015625 C 2.054688 -17.410156 2.59375 -17.609375 3.25 -17.609375 C 3.894531 -17.609375 4.425781 -17.410156 4.84375 -17.015625 C 5.257812 -16.628906 5.46875 -16.144531 5.46875 -15.5625 C 5.46875 -14.988281 5.257812 -14.507812 4.84375 -14.125 C 4.425781 -13.738281 3.894531 -13.546875 3.25 -13.546875 Z M 5.125 -12.265625 L 5.125 0 L 1.359375 0 L 1.359375 -12.265625 Z M 5.125 -12.265625 "/></g></g></g><g fill="#ffffff" fill-opacity="1"><g transform="translate(209.48048, 48.229974)"><g><path d="M 8.84375 -12.40625 C 10.269531 -12.40625 11.410156 -11.9375 12.265625 -11 C 13.128906 -10.070312 13.5625 -8.796875 13.5625 -7.171875 L 13.5625 0 L 9.828125 0 L 9.828125 -6.65625 C 9.828125 -7.476562 9.613281 -8.113281 9.1875 -8.5625 C 8.757812 -9.019531 8.1875 -9.25 7.46875 -9.25 C 6.75 -9.25 6.175781 -9.019531 5.75 -8.5625 C 5.332031 -8.113281 5.125 -7.476562 5.125 -6.65625 L 5.125 0 L 1.359375 0 L 1.359375 -12.265625 L 5.125 -12.265625 L 5.125 -10.640625 C 5.5 -11.179688 6.007812 -11.609375 6.65625 -11.921875 C 7.300781 -12.242188 8.03125 -12.40625 8.84375 -12.40625 Z M 8.84375 -12.40625 "/></g></g></g><g fill="#ffffff" fill-opacity="1"><g transform="translate(224.296435, 48.229974)"><g/></g></g><g fill="#ffffff" fill-opacity="1"><g transform="translate(228.956646, 48.229974)"><g><path d="M 0.59375 -12.546875 L 0.59375 -16.046875 L 6.6875 -16.046875 L 6.6875 0 L 2.765625 0 L 2.765625 -12.546875 Z M 0.59375 -12.546875 "/></g></g></g><g fill="#ffffff" fill-opacity="1"><g transform="translate(547.630403, 48.229974)"><g><path d="M 13.125 -10.46875 C 13.125 -9.570312 12.914062 -8.753906 12.5 -8.015625 C 12.09375 -7.273438 11.460938 -6.675781 10.609375 -6.21875 C 9.765625 -5.769531 8.710938 -5.546875 7.453125 -5.546875 L 5.125 -5.546875 L 5.125 0 L 1.359375 0 L 1.359375 -15.4375 L 7.453125 -15.4375 C 8.679688 -15.4375 9.71875 -15.222656 10.5625 -14.796875 C 11.414062 -14.367188 12.054688 -13.78125 12.484375 -13.03125 C 12.910156 -12.289062 13.125 -11.4375 13.125 -10.46875 Z M 7.171875 -8.53125 C 7.890625 -8.53125 8.421875 -8.695312 8.765625 -9.03125 C 9.117188 -9.375 9.296875 -9.851562 9.296875 -10.46875 C 9.296875 -11.082031 9.117188 -11.554688 8.765625 -11.890625 C 8.421875 -12.234375 7.890625 -12.40625 7.171875 -12.40625 L 5.125 -12.40625 L 5.125 -8.53125 Z M 7.171875 -8.53125 "/></g></g></g><g fill="#ffffff" fill-opacity="1"><g transform="translate(561.347245, 48.229974)"><g><path d="M 12.921875 -6.328125 C 12.921875 -5.972656 12.898438 -5.609375 12.859375 -5.234375 L 4.359375 -5.234375 C 4.410156 -4.472656 4.648438 -3.890625 5.078125 -3.484375 C 5.515625 -3.078125 6.050781 -2.875 6.6875 -2.875 C 7.625 -2.875 8.273438 -3.269531 8.640625 -4.0625 L 12.640625 -4.0625 C 12.429688 -3.257812 12.0625 -2.535156 11.53125 -1.890625 C 11 -1.242188 10.328125 -0.738281 9.515625 -0.375 C 8.710938 -0.0078125 7.8125 0.171875 6.8125 0.171875 C 5.613281 0.171875 4.546875 -0.0820312 3.609375 -0.59375 C 2.671875 -1.101562 1.9375 -1.832031 1.40625 -2.78125 C 0.875 -3.738281 0.609375 -4.859375 0.609375 -6.140625 C 0.609375 -7.410156 0.867188 -8.519531 1.390625 -9.46875 C 1.910156 -10.425781 2.640625 -11.160156 3.578125 -11.671875 C 4.515625 -12.179688 5.59375 -12.4375 6.8125 -12.4375 C 8 -12.4375 9.050781 -12.1875 9.96875 -11.6875 C 10.894531 -11.195312 11.617188 -10.488281 12.140625 -9.5625 C 12.660156 -8.632812 12.921875 -7.554688 12.921875 -6.328125 Z M 9.078125 -7.328125 C 9.078125 -7.960938 8.859375 -8.472656 8.421875 -8.859375 C 7.984375 -9.242188 7.429688 -9.4375 6.765625 -9.4375 C 6.140625 -9.4375 5.609375 -9.25 5.171875 -8.875 C 4.742188 -8.507812 4.476562 -7.992188 4.375 -7.328125 Z M 9.078125 -7.328125 "/></g></g></g><g fill="#ffffff" fill-opacity="1"><g transform="translate(574.888234, 48.229974)"><g><path d="M 17.015625 -12.40625 C 18.535156 -12.40625 19.742188 -11.941406 20.640625 -11.015625 C 21.546875 -10.085938 22 -8.804688 22 -7.171875 L 22 0 L 18.265625 0 L 18.265625 -6.65625 C 18.265625 -7.445312 18.054688 -8.054688 17.640625 -8.484375 C 17.222656 -8.921875 16.648438 -9.140625 15.921875 -9.140625 C 15.179688 -9.140625 14.601562 -8.921875 14.1875 -8.484375 C 13.769531 -8.054688 13.5625 -7.445312 13.5625 -6.65625 L 13.5625 0 L 9.828125 0 L 9.828125 -6.65625 C 9.828125 -7.445312 9.617188 -8.054688 9.203125 -8.484375 C 8.785156 -8.921875 8.207031 -9.140625 7.46875 -9.140625 C 6.738281 -9.140625 6.164062 -8.921875 5.75 -8.484375 C 5.332031 -8.054688 5.125 -7.445312 5.125 -6.65625 L 5.125 0 L 1.359375 0 L 1.359375 -12.265625 L 5.125 -12.265625 L 5.125 -10.734375 C 5.5 -11.242188 5.992188 -11.648438 6.609375 -11.953125 C 7.234375 -12.253906 7.929688 -12.40625 8.703125 -12.40625 C 9.628906 -12.40625 10.453125 -12.207031 11.171875 -11.8125 C 11.898438 -11.414062 12.472656 -10.847656 12.890625 -10.109375 C 13.304688 -10.785156 13.878906 -11.335938 14.609375 -11.765625 C 15.347656 -12.191406 16.148438 -12.40625 17.015625 -12.40625 Z M 17.015625 -12.40625 "/></g></g></g><g fill="#ffffff" fill-opacity="1"><g transform="translate(598.167307, 48.229974)"><g><path d="M 0.609375 -6.15625 C 0.609375 -7.414062 0.847656 -8.519531 1.328125 -9.46875 C 1.804688 -10.425781 2.453125 -11.160156 3.265625 -11.671875 C 4.085938 -12.179688 5.007812 -12.4375 6.03125 -12.4375 C 6.894531 -12.4375 7.648438 -12.257812 8.296875 -11.90625 C 8.953125 -11.5625 9.457031 -11.101562 9.8125 -10.53125 L 9.8125 -12.265625 L 13.5625 -12.265625 L 13.5625 0 L 9.8125 0 L 9.8125 -1.734375 C 9.4375 -1.160156 8.921875 -0.695312 8.265625 -0.34375 C 7.617188 0 6.863281 0.171875 6 0.171875 C 5 0.171875 4.085938 -0.0859375 3.265625 -0.609375 C 2.453125 -1.128906 1.804688 -1.867188 1.328125 -2.828125 C 0.847656 -3.785156 0.609375 -4.894531 0.609375 -6.15625 Z M 9.8125 -6.140625 C 9.8125 -7.078125 9.550781 -7.816406 9.03125 -8.359375 C 8.507812 -8.898438 7.875 -9.171875 7.125 -9.171875 C 6.375 -9.171875 5.738281 -8.898438 5.21875 -8.359375 C 4.695312 -7.828125 4.4375 -7.09375 4.4375 -6.15625 C 4.4375 -5.21875 4.695312 -4.472656 5.21875 -3.921875 C 5.738281 -3.367188 6.375 -3.09375 7.125 -3.09375 C 7.875 -3.09375 8.507812 -3.363281 9.03125 -3.90625 C 9.550781 -4.457031 9.8125 -5.203125 9.8125 -6.140625 Z M 9.8125 -6.140625 "/></g></g></g><g fill="#ffffff" fill-opacity="1"><g transform="translate(613.09317, 48.229974)"><g><path d="M 3.25 -13.546875 C 2.59375 -13.546875 2.054688 -13.738281 1.640625 -14.125 C 1.222656 -14.507812 1.015625 -14.988281 1.015625 -15.5625 C 1.015625 -16.144531 1.222656 -16.628906 1.640625 -17.015625 C 2.054688 -17.410156 2.59375 -17.609375 3.25 -17.609375 C 3.894531 -17.609375 4.425781 -17.410156 4.84375 -17.015625 C 5.257812 -16.628906 5.46875 -16.144531 5.46875 -15.5625 C 5.46875 -14.988281 5.257812 -14.507812 4.84375 -14.125 C 4.425781 -13.738281 3.894531 -13.546875 3.25 -13.546875 Z M 5.125 -12.265625 L 5.125 0 L 1.359375 0 L 1.359375 -12.265625 Z M 5.125 -12.265625 "/></g></g></g><g fill="#ffffff" fill-opacity="1"><g transform="translate(619.577898, 48.229974)"><g><path d="M 8.84375 -12.40625 C 10.269531 -12.40625 11.410156 -11.9375 12.265625 -11 C 13.128906 -10.070312 13.5625 -8.796875 13.5625 -7.171875 L 13.5625 0 L 9.828125 0 L 9.828125 -6.65625 C 9.828125 -7.476562 9.613281 -8.113281 9.1875 -8.5625 C 8.757812 -9.019531 8.1875 -9.25 7.46875 -9.25 C 6.75 -9.25 6.175781 -9.019531 5.75 -8.5625 C 5.332031 -8.113281 5.125 -7.476562 5.125 -6.65625 L 5.125 0 L 1.359375 0 L 1.359375 -12.265625 L 5.125 -12.265625 L 5.125 -10.640625 C 5.5 -11.179688 6.007812 -11.609375 6.65625 -11.921875 C 7.300781 -12.242188 8.03125 -12.40625 8.84375 -12.40625 Z M 8.84375 -12.40625 "/></g></g></g><g fill="#ffffff" fill-opacity="1"><g transform="translate(634.393854, 48.229974)"><g/></g></g><g fill="#ffffff" fill-opacity="1"><g transform="translate(639.054065, 48.229974)"><g><path d="M 0.859375 -3.015625 C 1.359375 -3.410156 1.582031 -3.59375 1.53125 -3.5625 C 2.96875 -4.75 4.097656 -5.722656 4.921875 -6.484375 C 5.753906 -7.242188 6.457031 -8.039062 7.03125 -8.875 C 7.601562 -9.71875 7.890625 -10.535156 7.890625 -11.328125 C 7.890625 -11.921875 7.75 -12.382812 7.46875 -12.71875 C 7.195312 -13.0625 6.78125 -13.234375 6.21875 -13.234375 C 5.664062 -13.234375 5.226562 -13.023438 4.90625 -12.609375 C 4.59375 -12.191406 4.4375 -11.601562 4.4375 -10.84375 L 0.8125 -10.84375 C 0.84375 -12.082031 1.109375 -13.117188 1.609375 -13.953125 C 2.117188 -14.796875 2.785156 -15.414062 3.609375 -15.8125 C 4.441406 -16.207031 5.363281 -16.40625 6.375 -16.40625 C 8.113281 -16.40625 9.425781 -15.957031 10.3125 -15.0625 C 11.207031 -14.164062 11.65625 -13 11.65625 -11.5625 C 11.65625 -10 11.117188 -8.546875 10.046875 -7.203125 C 8.972656 -5.859375 7.609375 -4.550781 5.953125 -3.28125 L 11.890625 -3.28125 L 11.890625 -0.21875 L 0.859375 -0.21875 Z M 0.859375 -3.015625 "/></g></g></g></svg>