<svg xmlns="http://www.w3.org/2000/svg" xmlns:xlink="http://www.w3.org/1999/xlink" width="1050" zoomAndPan="magnify" viewBox="0 0 787.5 374.999991" height="500" preserveAspectRatio="xMidYMid meet" version="1.0"><defs><g/><clipPath id="f83a228a88"><path d="M 0 0.117188 L 374.761719 0.117188 L 374.761719 374.878906 L 0 374.878906 Z M 0 0.117188 " clip-rule="nonzero"/></clipPath><clipPath id="f4b47a7a66"><path d="M 187.382812 0.117188 C 83.894531 0.117188 0 84.011719 0 187.5 C 0 290.988281 83.894531 374.882812 187.382812 374.882812 C 290.867188 374.882812 374.761719 290.988281 374.761719 187.5 C 374.761719 84.011719 290.867188 0.117188 187.382812 0.117188 Z M 187.382812 0.117188 " clip-rule="nonzero"/></clipPath><clipPath id="696de35e36"><path d="M 76 68 L 282 68 L 282 309 L 76 309 Z M 76 68 " clip-rule="nonzero"/></clipPath><clipPath id="a504805f22"><path d="M 219.175781 35.59375 L 334.8125 235.953125 L 155.492188 339.449219 L 39.855469 139.089844 Z M 219.175781 35.59375 " clip-rule="nonzero"/></clipPath><clipPath id="a12064c2e6"><path d="M 219.175781 35.59375 L 334.8125 235.953125 L 155.492188 339.449219 L 39.855469 139.089844 Z M 219.175781 35.59375 " clip-rule="nonzero"/></clipPath><clipPath id="d796b15b41"><path d="M 219.175781 35.59375 L 334.8125 235.953125 L 155.492188 339.449219 L 39.855469 139.089844 Z M 219.175781 35.59375 " clip-rule="nonzero"/></clipPath><clipPath id="ca1690c0ad"><path d="M 201 78 L 250 78 L 250 139 L 201 139 Z M 201 78 " clip-rule="nonzero"/></clipPath><clipPath id="3f64e1e3a0"><path d="M 219.175781 35.59375 L 334.8125 235.953125 L 155.492188 339.449219 L 39.855469 139.089844 Z M 219.175781 35.59375 " clip-rule="nonzero"/></clipPath><clipPath id="f67cf318fa"><path d="M 219.175781 35.59375 L 334.8125 235.953125 L 155.492188 339.449219 L 39.855469 139.089844 Z M 219.175781 35.59375 " clip-rule="nonzero"/></clipPath><clipPath id="acab47ef21"><path d="M 219.175781 35.59375 L 334.8125 235.953125 L 155.492188 339.449219 L 39.855469 139.089844 Z M 219.175781 35.59375 " clip-rule="nonzero"/></clipPath><clipPath id="308d0607f9"><path d="M 141 79 L 201 79 L 201 160 L 141 160 Z M 141 79 " clip-rule="nonzero"/></clipPath><clipPath id="3d5a45abbe"><path d="M 219.175781 35.59375 L 334.8125 235.953125 L 155.492188 339.449219 L 39.855469 139.089844 Z M 219.175781 35.59375 " clip-rule="nonzero"/></clipPath><clipPath id="2a3371399e"><path d="M 219.175781 35.59375 L 334.8125 235.953125 L 155.492188 339.449219 L 39.855469 139.089844 Z M 219.175781 35.59375 " clip-rule="nonzero"/></clipPath><clipPath id="92788800ad"><path d="M 219.175781 35.59375 L 334.8125 235.953125 L 155.492188 339.449219 L 39.855469 139.089844 Z M 219.175781 35.59375 " clip-rule="nonzero"/></clipPath><clipPath id="673e817a01"><path d="M 100 144 L 270 144 L 270 298 L 100 298 Z M 100 144 " clip-rule="nonzero"/></clipPath><clipPath id="a95f96163a"><path d="M 219.175781 35.59375 L 334.8125 235.953125 L 155.492188 339.449219 L 39.855469 139.089844 Z M 219.175781 35.59375 " clip-rule="nonzero"/></clipPath><clipPath id="ef49e9c40a"><path d="M 219.175781 35.59375 L 334.8125 235.953125 L 155.492188 339.449219 L 39.855469 139.089844 Z M 219.175781 35.59375 " clip-rule="nonzero"/></clipPath><clipPath id="a6ac23caf9"><path d="M 219.175781 35.59375 L 334.8125 235.953125 L 155.492188 339.449219 L 39.855469 139.089844 Z M 219.175781 35.59375 " clip-rule="nonzero"/></clipPath><clipPath id="b7bcd0c64e"><path d="M 110 105 L 162 105 L 162 183 L 110 183 Z M 110 105 " clip-rule="nonzero"/></clipPath><clipPath id="2dda72683b"><path d="M 219.175781 35.59375 L 334.8125 235.953125 L 155.492188 339.449219 L 39.855469 139.089844 Z M 219.175781 35.59375 " clip-rule="nonzero"/></clipPath><clipPath id="a7eceb5fd5"><path d="M 219.175781 35.59375 L 334.8125 235.953125 L 155.492188 339.449219 L 39.855469 139.089844 Z M 219.175781 35.59375 " clip-rule="nonzero"/></clipPath><clipPath id="d3cc0a7cdd"><path d="M 219.175781 35.59375 L 334.8125 235.953125 L 155.492188 339.449219 L 39.855469 139.089844 Z M 219.175781 35.59375 " clip-rule="nonzero"/></clipPath><clipPath id="07c6e62004"><path d="M 86 144 L 141 144 L 141 204 L 86 204 Z M 86 144 " clip-rule="nonzero"/></clipPath><clipPath id="a8f57c8053"><path d="M 219.175781 35.59375 L 334.8125 235.953125 L 155.492188 339.449219 L 39.855469 139.089844 Z M 219.175781 35.59375 " clip-rule="nonzero"/></clipPath><clipPath id="b61b5f72eb"><path d="M 219.175781 35.59375 L 334.8125 235.953125 L 155.492188 339.449219 L 39.855469 139.089844 Z M 219.175781 35.59375 " clip-rule="nonzero"/></clipPath><clipPath id="e667f6e3e3"><path d="M 219.175781 35.59375 L 334.8125 235.953125 L 155.492188 339.449219 L 39.855469 139.089844 Z M 219.175781 35.59375 " clip-rule="nonzero"/></clipPath><clipPath id="6cbb4ac27b"><path d="M 215 78 L 250 78 L 250 136 L 215 136 Z M 215 78 " clip-rule="nonzero"/></clipPath><clipPath id="16785c213e"><path d="M 219.175781 35.59375 L 334.8125 235.953125 L 155.492188 339.449219 L 39.855469 139.089844 Z M 219.175781 35.59375 " clip-rule="nonzero"/></clipPath><clipPath id="6b6a365662"><path d="M 219.175781 35.59375 L 334.8125 235.953125 L 155.492188 339.449219 L 39.855469 139.089844 Z M 219.175781 35.59375 " clip-rule="nonzero"/></clipPath><clipPath id="4a50534755"><path d="M 219.175781 35.59375 L 334.8125 235.953125 L 155.492188 339.449219 L 39.855469 139.089844 Z M 219.175781 35.59375 " clip-rule="nonzero"/></clipPath><clipPath id="4be7bd94af"><path d="M 179 144 L 270 144 L 270 255 L 179 255 Z M 179 144 " clip-rule="nonzero"/></clipPath><clipPath id="0f62117255"><path d="M 219.175781 35.59375 L 334.8125 235.953125 L 155.492188 339.449219 L 39.855469 139.089844 Z M 219.175781 35.59375 " clip-rule="nonzero"/></clipPath><clipPath id="b3d50f2428"><path d="M 219.175781 35.59375 L 334.8125 235.953125 L 155.492188 339.449219 L 39.855469 139.089844 Z M 219.175781 35.59375 " clip-rule="nonzero"/></clipPath><clipPath id="d46db81ef9"><path d="M 219.175781 35.59375 L 334.8125 235.953125 L 155.492188 339.449219 L 39.855469 139.089844 Z M 219.175781 35.59375 " clip-rule="nonzero"/></clipPath><clipPath id="c51c98f92a"><path d="M 158 79 L 201 79 L 201 149 L 158 149 Z M 158 79 " clip-rule="nonzero"/></clipPath><clipPath id="4d142fc582"><path d="M 219.175781 35.59375 L 334.8125 235.953125 L 155.492188 339.449219 L 39.855469 139.089844 Z M 219.175781 35.59375 " clip-rule="nonzero"/></clipPath><clipPath id="c3fa71eeaf"><path d="M 219.175781 35.59375 L 334.8125 235.953125 L 155.492188 339.449219 L 39.855469 139.089844 Z M 219.175781 35.59375 " clip-rule="nonzero"/></clipPath><clipPath id="a2d899f92e"><path d="M 219.175781 35.59375 L 334.8125 235.953125 L 155.492188 339.449219 L 39.855469 139.089844 Z M 219.175781 35.59375 " clip-rule="nonzero"/></clipPath><clipPath id="72fcd0ee71"><path d="M 140 195 L 247 195 L 247 296 L 140 296 Z M 140 195 " clip-rule="nonzero"/></clipPath><clipPath id="99a9bf2a76"><path d="M 219.175781 35.59375 L 334.8125 235.953125 L 155.492188 339.449219 L 39.855469 139.089844 Z M 219.175781 35.59375 " clip-rule="nonzero"/></clipPath><clipPath id="2d3ea9c510"><path d="M 219.175781 35.59375 L 334.8125 235.953125 L 155.492188 339.449219 L 39.855469 139.089844 Z M 219.175781 35.59375 " clip-rule="nonzero"/></clipPath><clipPath id="847ef84e53"><path d="M 219.175781 35.59375 L 334.8125 235.953125 L 155.492188 339.449219 L 39.855469 139.089844 Z M 219.175781 35.59375 " clip-rule="nonzero"/></clipPath><clipPath id="4eed15fb68"><path d="M 118 105 L 153 105 L 153 164 L 118 164 Z M 118 105 " clip-rule="nonzero"/></clipPath><clipPath id="1613c95018"><path d="M 219.175781 35.59375 L 334.8125 235.953125 L 155.492188 339.449219 L 39.855469 139.089844 Z M 219.175781 35.59375 " clip-rule="nonzero"/></clipPath><clipPath id="d73c41577c"><path d="M 219.175781 35.59375 L 334.8125 235.953125 L 155.492188 339.449219 L 39.855469 139.089844 Z M 219.175781 35.59375 " clip-rule="nonzero"/></clipPath><clipPath id="21e26f4d31"><path d="M 219.175781 35.59375 L 334.8125 235.953125 L 155.492188 339.449219 L 39.855469 139.089844 Z M 219.175781 35.59375 " clip-rule="nonzero"/></clipPath><clipPath id="99825878e0"><path d="M 92 144 L 121 144 L 121 185 L 92 185 Z M 92 144 " clip-rule="nonzero"/></clipPath><clipPath id="c23a9ae4d4"><path d="M 219.175781 35.59375 L 334.8125 235.953125 L 155.492188 339.449219 L 39.855469 139.089844 Z M 219.175781 35.59375 " clip-rule="nonzero"/></clipPath><clipPath id="c6a5daf2e8"><path d="M 219.175781 35.59375 L 334.8125 235.953125 L 155.492188 339.449219 L 39.855469 139.089844 Z M 219.175781 35.59375 " clip-rule="nonzero"/></clipPath><clipPath id="1411661839"><path d="M 219.175781 35.59375 L 334.8125 235.953125 L 155.492188 339.449219 L 39.855469 139.089844 Z M 219.175781 35.59375 " clip-rule="nonzero"/></clipPath><clipPath id="e4ffd22319"><path d="M 412.238281 0.117188 L 787 0.117188 L 787 374.878906 L 412.238281 374.878906 Z M 412.238281 0.117188 " clip-rule="nonzero"/></clipPath><clipPath id="51dc0f3202"><path d="M 599.621094 0.117188 C 496.132812 0.117188 412.238281 84.011719 412.238281 187.5 C 412.238281 290.988281 496.132812 374.882812 599.621094 374.882812 C 703.105469 374.882812 787 290.988281 787 187.5 C 787 84.011719 703.105469 0.117188 599.621094 0.117188 Z M 599.621094 0.117188 " clip-rule="nonzero"/></clipPath><clipPath id="56a02d1af6"><path d="M 497 68 L 709 68 L 709 315 L 497 315 Z M 497 68 " clip-rule="nonzero"/></clipPath><clipPath id="116a2c3741"><path d="M 654.46875 41.113281 L 749.539062 252.007812 L 568.167969 333.769531 L 473.097656 122.875 Z M 654.46875 41.113281 " clip-rule="nonzero"/></clipPath><clipPath id="e783134bfd"><path d="M 654.46875 41.113281 L 749.539062 252.007812 L 568.167969 333.769531 L 473.097656 122.875 Z M 654.46875 41.113281 " clip-rule="nonzero"/></clipPath><clipPath id="3b59e3fe07"><path d="M 654.46875 41.113281 L 749.539062 252.007812 L 568.167969 333.769531 L 473.097656 122.875 Z M 654.46875 41.113281 " clip-rule="nonzero"/></clipPath><clipPath id="1f5b20fd7c"><path d="M 505 76 L 699 76 L 699 306 L 505 306 Z M 505 76 " clip-rule="nonzero"/></clipPath><clipPath id="7f86897945"><path d="M 654.46875 41.113281 L 749.539062 252.007812 L 568.167969 333.769531 L 473.097656 122.875 Z M 654.46875 41.113281 " clip-rule="nonzero"/></clipPath><clipPath id="d312f18039"><path d="M 654.46875 41.113281 L 749.539062 252.007812 L 568.167969 333.769531 L 473.097656 122.875 Z M 654.46875 41.113281 " clip-rule="nonzero"/></clipPath><clipPath id="9f44fd387f"><path d="M 654.46875 41.113281 L 749.539062 252.007812 L 568.167969 333.769531 L 473.097656 122.875 Z M 654.46875 41.113281 " clip-rule="nonzero"/></clipPath><clipPath id="86a680b7af"><path d="M 541 91 L 699 91 L 699 295 L 541 295 Z M 541 91 " clip-rule="nonzero"/></clipPath><clipPath id="0153dda6ab"><path d="M 654.46875 41.113281 L 749.539062 252.007812 L 568.167969 333.769531 L 473.097656 122.875 Z M 654.46875 41.113281 " clip-rule="nonzero"/></clipPath><clipPath id="f6bf0f9eb6"><path d="M 654.46875 41.113281 L 749.539062 252.007812 L 568.167969 333.769531 L 473.097656 122.875 Z M 654.46875 41.113281 " clip-rule="nonzero"/></clipPath><clipPath id="cd45d74b18"><path d="M 654.46875 41.113281 L 749.539062 252.007812 L 568.167969 333.769531 L 473.097656 122.875 Z M 654.46875 41.113281 " clip-rule="nonzero"/></clipPath><clipPath id="afdc7bd743"><path d="M 594 80 L 616 80 L 616 170 L 594 170 Z M 594 80 " clip-rule="nonzero"/></clipPath><clipPath id="fb3d7f197b"><path d="M 654.46875 41.113281 L 749.539062 252.007812 L 568.167969 333.769531 L 473.097656 122.875 Z M 654.46875 41.113281 " clip-rule="nonzero"/></clipPath><clipPath id="f4a43c7551"><path d="M 654.46875 41.113281 L 749.539062 252.007812 L 568.167969 333.769531 L 473.097656 122.875 Z M 654.46875 41.113281 " clip-rule="nonzero"/></clipPath><clipPath id="d33c39cea4"><path d="M 654.46875 41.113281 L 749.539062 252.007812 L 568.167969 333.769531 L 473.097656 122.875 Z M 654.46875 41.113281 " clip-rule="nonzero"/></clipPath><clipPath id="285151f1d5"><path d="M 547 98 L 575 98 L 575 179 L 547 179 Z M 547 98 " clip-rule="nonzero"/></clipPath><clipPath id="84ce873562"><path d="M 654.46875 41.113281 L 749.539062 252.007812 L 568.167969 333.769531 L 473.097656 122.875 Z M 654.46875 41.113281 " clip-rule="nonzero"/></clipPath><clipPath id="c7b95703aa"><path d="M 654.46875 41.113281 L 749.539062 252.007812 L 568.167969 333.769531 L 473.097656 122.875 Z M 654.46875 41.113281 " clip-rule="nonzero"/></clipPath><clipPath id="5fda755bcd"><path d="M 654.46875 41.113281 L 749.539062 252.007812 L 568.167969 333.769531 L 473.097656 122.875 Z M 654.46875 41.113281 " clip-rule="nonzero"/></clipPath><clipPath id="f839b39815"><path d="M 510 135 L 543 135 L 543 203 L 510 203 Z M 510 135 " clip-rule="nonzero"/></clipPath><clipPath id="2afcceccfb"><path d="M 654.46875 41.113281 L 749.539062 252.007812 L 568.167969 333.769531 L 473.097656 122.875 Z M 654.46875 41.113281 " clip-rule="nonzero"/></clipPath><clipPath id="5d513f6846"><path d="M 654.46875 41.113281 L 749.539062 252.007812 L 568.167969 333.769531 L 473.097656 122.875 Z M 654.46875 41.113281 " clip-rule="nonzero"/></clipPath><clipPath id="69bfb38e28"><path d="M 654.46875 41.113281 L 749.539062 252.007812 L 568.167969 333.769531 L 473.097656 122.875 Z M 654.46875 41.113281 " clip-rule="nonzero"/></clipPath><clipPath id="c76ebb336d"><path d="M 376 164.101562 L 448.609375 164.101562 L 448.609375 265.546875 L 376 265.546875 Z M 376 164.101562 " clip-rule="nonzero"/></clipPath><clipPath id="2fc361cb89"><path d="M 347.429688 90.9375 L 435.945312 90.9375 L 435.945312 284.308594 L 347.429688 284.308594 Z M 347.429688 90.9375 " clip-rule="nonzero"/></clipPath></defs><g clip-path="url(#f83a228a88)"><g clip-path="url(#f4b47a7a66)"><path fill="#ff9441" d="M 0 0.117188 L 374.761719 0.117188 L 374.761719 374.882812 L 0 374.882812 Z M 0 0.117188 " fill-opacity="1" fill-rule="nonzero"/></g></g><g clip-path="url(#696de35e36)"><g clip-path="url(#a504805f22)"><g clip-path="url(#a12064c2e6)"><g clip-path="url(#d796b15b41)"><path fill="#232323" d="M 108.1875 108.941406 C 104.289062 113.152344 102.042969 118.132812 101.484375 123.839844 C 100.964844 127.5625 101.511719 131.386719 100.859375 135.054688 C 91.335938 139.722656 84.210938 147.707031 79.34375 156.996094 C 76.53125 162.480469 75.578125 168.664062 77.042969 174.6875 C 79.40625 185 85.417969 192.949219 90.808594 201.484375 C 89.894531 212.027344 91.285156 222.089844 95.820312 231.714844 C 101.609375 246.019531 113.296875 257.285156 127.765625 262.597656 C 126.203125 269.8125 126.464844 277.070312 130.039062 283.675781 C 134.902344 293.609375 143.953125 299.910156 154.074219 303.730469 C 169.867188 309.507812 187.777344 309.296875 203.972656 305.296875 C 219.863281 301.34375 235.617188 293.246094 246.4375 280.75 C 253.707031 272.453125 258.675781 261.222656 257.183594 250.042969 C 256.882812 246.734375 255.113281 243.515625 255.121094 240.253906 C 264.894531 231.128906 272.480469 220.046875 277.582031 207.691406 C 283.152344 193.988281 283.273438 178.105469 278.03125 164.289062 C 274.210938 154.027344 266.949219 145.855469 257.988281 139.769531 C 261.324219 123.414062 256.988281 107.023438 250.816406 91.90625 C 247.617188 84.835938 242.820312 77.023438 235.945312 73.007812 C 228.386719 68.171875 218.371094 67.351562 209.859375 69.832031 C 203.105469 72.019531 198.441406 76.761719 194.96875 82.753906 C 192.550781 79.003906 190.503906 75.480469 186.394531 73.351562 C 178.695312 69.152344 168.59375 69.789062 160.46875 72.328125 C 149.46875 75.859375 138.535156 84.066406 134.046875 94.972656 C 124.644531 97.242188 114.792969 101.71875 108.1875 108.941406 Z M 108.1875 108.941406 " fill-opacity="1" fill-rule="nonzero"/></g></g></g></g><g clip-path="url(#ca1690c0ad)"><g clip-path="url(#3f64e1e3a0)"><g clip-path="url(#f67cf318fa)"><g clip-path="url(#acab47ef21)"><path fill="#ababab" d="M 201.601562 100.398438 C 201.363281 113.113281 202.777344 125.921875 204.558594 138.492188 C 209.980469 137.074219 215.347656 135.597656 220.84375 134.5 C 226.546875 133.371094 232.320312 132.757812 238.128906 133.230469 C 241.871094 133.496094 245.695312 134.710938 249.371094 135.609375 C 250.351562 124.050781 247.699219 113.367188 244.503906 102.339844 C 242.6875 96.121094 239.804688 90.273438 235.730469 85.21875 C 232.828125 81.734375 228.824219 79.792969 224.476562 78.78125 C 218.851562 78.039062 212.449219 78.265625 208.003906 82.25 C 202.847656 86.773438 201.824219 93.917969 201.601562 100.398438 Z M 201.601562 100.398438 " fill-opacity="1" fill-rule="nonzero"/></g></g></g></g><g clip-path="url(#308d0607f9)"><g clip-path="url(#3d5a45abbe)"><g clip-path="url(#2a3371399e)"><g clip-path="url(#92788800ad)"><path fill="#ababab" d="M 142.5625 116.445312 C 145.691406 132.113281 151.78125 148.183594 163.167969 159.738281 C 166.589844 155.246094 170.585938 151.570312 175.089844 148.1875 C 182.5 143.800781 191.949219 141.945312 200.195312 139.589844 C 197.066406 128.109375 194.113281 116.316406 192.960938 104.464844 C 192.496094 100.144531 193.042969 96.257812 191.257812 92.269531 C 189.515625 88.203125 186.789062 83.238281 182.699219 81.144531 C 176.8125 78.378906 170.019531 79.78125 164.007812 81.378906 C 157.046875 84.238281 149.570312 88.617188 145.128906 94.855469 C 140.941406 101.078125 141.246094 109.371094 142.5625 116.445312 Z M 142.5625 116.445312 " fill-opacity="1" fill-rule="nonzero"/></g></g></g></g><g clip-path="url(#673e817a01)"><g clip-path="url(#a95f96163a)"><g clip-path="url(#ef49e9c40a)"><g clip-path="url(#a6ac23caf9)"><path fill="#ababab" d="M 246.234375 249.972656 C 233.257812 258.871094 217.410156 262.660156 201.972656 259.027344 C 208.011719 257.429688 214.082031 256.871094 219.914062 254.460938 C 233.738281 248.996094 245.484375 238.191406 253.878906 226.089844 C 260.089844 216.566406 266.503906 206.226562 268.730469 194.953125 C 270.699219 185.125 269.675781 174.457031 265.414062 165.34375 C 260.675781 155.589844 251.84375 147.980469 241.25 145.351562 C 230.566406 142.824219 219.503906 146.292969 209.160156 148.867188 C 199.613281 151.472656 189.214844 153.234375 180.195312 157.269531 C 176.097656 159.242188 172.976562 162.1875 171.332031 166.472656 C 169.203125 171.375 170.605469 176.4375 173.167969 180.859375 C 176.175781 185.980469 181.230469 189.199219 186.597656 191.410156 C 195.867188 195.132812 206.007812 196.394531 215.917969 195.179688 C 223.652344 194.429688 230.644531 191.9375 238.046875 189.78125 C 233.316406 193.554688 228.191406 196.625 222.300781 198.214844 C 211.253906 201.320312 200.203125 205.875 190.722656 212.386719 C 184.335938 216.78125 179.253906 222.214844 173.363281 227.011719 C 174.335938 222.222656 174.785156 217.8125 177.558594 213.609375 C 180.492188 208.945312 184.671875 206.003906 189.152344 202.96875 C 183.480469 201.472656 178.207031 199.359375 173.507812 195.769531 C 170.257812 192.953125 167.550781 189.660156 164.949219 186.246094 C 159.5625 188.925781 154.351562 190.648438 148.304688 190.917969 C 144.925781 197.601562 140.226562 204.007812 134.324219 208.675781 C 129.25 212.722656 122.457031 213.035156 116.238281 212.773438 C 110.761719 212.550781 105.992188 210.675781 100.90625 208.867188 C 102.011719 219.324219 105.238281 229.347656 110.953125 238.199219 C 116.5625 246.171875 124.75 253.144531 134.144531 256.136719 C 142.886719 258.839844 151.613281 259.261719 160.667969 259.722656 C 153.257812 264.464844 145.214844 265.003906 136.691406 264.742188 C 136.964844 270.683594 137.316406 276.15625 140.945312 281.179688 C 147.074219 289.945312 158.578125 294.636719 168.828125 296.28125 C 178.5 297.796875 188.425781 297.574219 197.964844 295.242188 C 212.484375 292.683594 226.96875 285.785156 237.179688 275.023438 C 243.628906 268.183594 247.628906 259.523438 246.234375 249.972656 Z M 246.234375 249.972656 " fill-opacity="1" fill-rule="nonzero"/></g></g></g></g><g clip-path="url(#b7bcd0c64e)"><g clip-path="url(#2dda72683b)"><g clip-path="url(#a7eceb5fd5)"><g clip-path="url(#d3cc0a7cdd)"><path fill="#ababab" d="M 152.019531 161.769531 C 141.386719 149.164062 135.4375 133.214844 132.695312 117.097656 C 132.023438 113.183594 132.144531 109.253906 131.714844 105.324219 C 127.578125 106.25 124.007812 108.238281 120.507812 110.546875 C 116.257812 113.71875 112.257812 116.992188 110.972656 122.375 C 109.398438 129.132812 110.257812 136.6875 111.902344 143.351562 C 113.96875 151.554688 116.582031 159.769531 120.300781 167.386719 C 123.257812 173.625 129.753906 176.332031 135.664062 179.046875 C 139.980469 180.882812 145.039062 183.058594 149.804688 182.945312 C 154.089844 182.863281 157.828125 180.554688 161.507812 178.621094 C 160.765625 175.351562 160.488281 171.886719 159.417969 168.71875 C 157.117188 166.238281 154.375 164.195312 152.019531 161.769531 Z M 152.019531 161.769531 " fill-opacity="1" fill-rule="nonzero"/></g></g></g></g><g clip-path="url(#07c6e62004)"><g clip-path="url(#a8f57c8053)"><g clip-path="url(#b61b5f72eb)"><g clip-path="url(#e667f6e3e3)"><path fill="#ababab" d="M 108.851562 163.011719 C 106.28125 157.097656 104.808594 150.925781 102.867188 144.816406 C 98.984375 147.722656 95.722656 151.054688 92.800781 154.914062 C 89.3125 159.445312 85.5 164.789062 86.460938 170.839844 C 87.492188 177.113281 91.179688 183.222656 94.421875 188.621094 C 99.359375 196.4375 106.980469 202.355469 116.328125 203.527344 C 120.632812 204.007812 126.222656 204.34375 129.832031 201.519531 C 134.09375 198.328125 137.550781 193.765625 140.507812 189.382812 C 133.855469 186.316406 127.171875 184.109375 120.863281 180.140625 C 114.480469 175.949219 111.867188 169.722656 108.851562 163.011719 Z M 108.851562 163.011719 " fill-opacity="1" fill-rule="nonzero"/></g></g></g></g><g clip-path="url(#6cbb4ac27b)"><g clip-path="url(#16785c213e)"><g clip-path="url(#6b6a365662)"><g clip-path="url(#4a50534755)"><path fill="#ffffff" d="M 220.84375 134.5 C 226.546875 133.371094 232.320312 132.757812 238.128906 133.230469 C 241.871094 133.496094 245.695312 134.710938 249.371094 135.609375 C 250.351562 124.050781 247.699219 113.367188 244.503906 102.339844 C 242.6875 96.121094 239.804688 90.273438 235.730469 85.21875 C 232.828125 81.734375 228.824219 79.792969 224.476562 78.78125 C 221.613281 81.339844 218.785156 83.246094 217.761719 87.160156 C 213.820312 103.410156 216.675781 118.667969 220.84375 134.5 Z M 220.84375 134.5 " fill-opacity="1" fill-rule="nonzero"/></g></g></g></g><g clip-path="url(#4be7bd94af)"><g clip-path="url(#0f62117255)"><g clip-path="url(#b3d50f2428)"><g clip-path="url(#d46db81ef9)"><path fill="#ffffff" d="M 180.195312 157.269531 C 179.414062 161.695312 178.089844 166.296875 180.035156 170.621094 C 182.816406 176.6875 188.597656 179.941406 194.847656 181.480469 C 203.019531 183.40625 211.707031 183.523438 220.039062 182.765625 C 226.796875 182.171875 233.183594 180.308594 239.8125 179.125 C 242.726562 183.605469 244.050781 188.339844 240.878906 193.074219 C 232.5625 205.136719 215.117188 211 206.566406 222.980469 C 202.742188 228.242188 200.667969 234.613281 202.53125 241.046875 C 204.691406 248.804688 211.953125 254.1875 219.914062 254.460938 C 233.738281 248.996094 245.484375 238.191406 253.878906 226.089844 C 260.089844 216.566406 266.503906 206.226562 268.730469 194.953125 C 270.699219 185.125 269.675781 174.457031 265.414062 165.34375 C 260.675781 155.589844 251.84375 147.980469 241.25 145.351562 C 230.566406 142.824219 219.503906 146.292969 209.160156 148.867188 C 199.613281 151.472656 189.214844 153.234375 180.195312 157.269531 Z M 180.195312 157.269531 " fill-opacity="1" fill-rule="nonzero"/></g></g></g></g><g clip-path="url(#c51c98f92a)"><g clip-path="url(#4d142fc582)"><g clip-path="url(#c3fa71eeaf)"><g clip-path="url(#a2d899f92e)"><path fill="#ffffff" d="M 158.289062 99.949219 C 160.203125 117.398438 166.601562 132.976562 175.089844 148.1875 C 182.5 143.800781 191.949219 141.945312 200.195312 139.589844 C 197.066406 128.109375 194.113281 116.316406 192.960938 104.464844 C 192.496094 100.144531 193.042969 96.257812 191.257812 92.269531 C 189.515625 88.203125 186.789062 83.238281 182.699219 81.144531 C 176.8125 78.378906 170.019531 79.78125 164.007812 81.378906 C 159.203125 87.144531 157.6875 92.523438 158.289062 99.949219 Z M 158.289062 99.949219 " fill-opacity="1" fill-rule="nonzero"/></g></g></g></g><g clip-path="url(#72fcd0ee71)"><g clip-path="url(#99a9bf2a76)"><g clip-path="url(#2d3ea9c510)"><g clip-path="url(#847ef84e53)"><path fill="#ffffff" d="M 175.21875 243.664062 C 171.996094 238.46875 172.050781 232.785156 173.363281 227.011719 C 174.335938 222.222656 174.785156 217.8125 177.558594 213.609375 C 180.492188 208.945312 184.671875 206.003906 189.152344 202.96875 C 183.480469 201.472656 178.207031 199.359375 173.507812 195.769531 C 165.519531 196.757812 158.171875 197.503906 151.566406 202.699219 C 139.296875 211.488281 137.203125 229.992188 145.09375 242.332031 C 150.195312 251.023438 158.765625 256.015625 168.574219 257.574219 C 165.371094 261.925781 162.105469 266.011719 162.035156 271.6875 C 162.027344 278.761719 166.921875 284.429688 172.640625 287.996094 C 180.382812 292.972656 189.085938 293.746094 197.964844 295.242188 C 212.484375 292.683594 226.96875 285.785156 237.179688 275.023438 C 243.628906 268.183594 247.628906 259.523438 246.234375 249.972656 C 233.257812 258.871094 217.410156 262.660156 201.972656 259.027344 C 191.875 257.144531 180.710938 252.933594 175.21875 243.664062 Z M 175.21875 243.664062 " fill-opacity="1" fill-rule="nonzero"/></g></g></g></g><g clip-path="url(#4eed15fb68)"><g clip-path="url(#1613c95018)"><g clip-path="url(#d73c41577c)"><g clip-path="url(#21e26f4d31)"><path fill="#ffffff" d="M 137.816406 162.191406 C 142.6875 164.289062 147.144531 163.074219 152.019531 161.769531 C 141.386719 149.164062 135.4375 133.214844 132.695312 117.097656 C 132.023438 113.183594 132.144531 109.253906 131.714844 105.324219 C 127.578125 106.25 124.007812 108.238281 120.507812 110.546875 C 117.242188 123.363281 118.046875 136.8125 124.578125 148.5 C 127.621094 153.773438 132.097656 159.65625 137.816406 162.191406 Z M 137.816406 162.191406 " fill-opacity="1" fill-rule="nonzero"/></g></g></g></g><g clip-path="url(#99825878e0)"><g clip-path="url(#c23a9ae4d4)"><g clip-path="url(#c6a5daf2e8)"><g clip-path="url(#1411661839)"><path fill="#ffffff" d="M 98.617188 173.609375 C 101.648438 178.4375 106.648438 183.855469 112.699219 184.351562 C 116.140625 184.691406 118.382812 182.074219 120.863281 180.140625 C 114.480469 175.949219 111.867188 169.722656 108.851562 163.011719 C 106.28125 157.097656 104.808594 150.925781 102.867188 144.816406 C 98.984375 147.722656 95.722656 151.054688 92.800781 154.914062 C 93.859375 161.5625 94.839844 167.824219 98.617188 173.609375 Z M 98.617188 173.609375 " fill-opacity="1" fill-rule="nonzero"/></g></g></g></g><g clip-path="url(#e4ffd22319)"><g clip-path="url(#51dc0f3202)"><path fill="#05a552" d="M 412.238281 0.117188 L 787 0.117188 L 787 374.882812 L 412.238281 374.882812 Z M 412.238281 0.117188 " fill-opacity="1" fill-rule="nonzero"/></g></g><g clip-path="url(#56a02d1af6)"><g clip-path="url(#116a2c3741)"><g clip-path="url(#e783134bfd)"><g clip-path="url(#3b59e3fe07)"><path fill="#232323" d="M 569.339844 99.542969 C 566.785156 93.363281 560.765625 89.351562 554.113281 89.285156 C 547.597656 89.285156 542.019531 92.945312 538.160156 97.984375 C 533.25 104.292969 531.492188 112.292969 531.398438 120.15625 C 531.402344 130.132812 533.277344 139.980469 535.65625 149.636719 C 532.734375 143.785156 530.128906 136.535156 525.269531 132.074219 C 521.59375 128.59375 516.273438 127.183594 511.425781 128.714844 C 505.277344 130.550781 500.769531 136.777344 498.96875 142.703125 C 496.464844 150.90625 497.226562 160.417969 498.855469 168.738281 C 500.601562 178.441406 505.292969 187.625 510.019531 196.222656 C 513.136719 202.078125 517.734375 206.566406 520.285156 212.738281 C 526.539062 225.183594 525.972656 238.328125 532.023438 250.71875 C 536.085938 258.722656 542.339844 265.003906 549.71875 269.996094 C 546.640625 276.554688 546.351562 284.128906 549.183594 290.835938 C 552.125 298.179688 558.015625 303.703125 564.8125 307.492188 C 574.585938 312.765625 585.492188 314.621094 596.511719 314.183594 C 608.585938 313.632812 620.464844 310.164062 630.703125 303.699219 C 638.933594 298.371094 646 290.914062 648.882812 281.351562 C 650.195312 277.375 650.261719 273.289062 649.703125 269.167969 C 654.910156 265.027344 658.753906 259.734375 662.109375 254.035156 C 666.015625 247.113281 667.625 239.816406 670.375 232.460938 C 673.441406 224.25 676.582031 215.96875 681.910156 208.933594 C 686.734375 200.847656 693.121094 194.207031 698.871094 186.839844 C 702.460938 181.78125 706.867188 176.214844 707.839844 169.953125 C 708.847656 163.671875 706.703125 157.011719 701.75 152.898438 C 696.992188 148.847656 690.289062 148.082031 684.3125 149.007812 C 674.804688 150.535156 666.238281 155.867188 659.171875 162.226562 C 655.582031 165.308594 652.757812 168.992188 649.867188 172.707031 C 652.03125 162.382812 654.5625 152.160156 658.070312 142.214844 C 662.082031 129.042969 667.175781 117.554688 669.542969 104.078125 C 670.550781 97.566406 668.929688 90.773438 663.425781 86.675781 C 659.25 83.5625 653.695312 82.761719 648.777344 84.40625 C 641.441406 86.839844 635.835938 92.238281 631.683594 98.601562 C 626.707031 106.007812 623.847656 114.085938 620.683594 122.339844 C 621.171875 111.703125 623.3125 99.964844 622.113281 89.335938 C 621.359375 82.507812 618.515625 75.324219 612.945312 71.015625 C 608.117188 67.378906 601.664062 67.390625 596.449219 70.191406 C 589.300781 73.9375 584.902344 81.339844 582.691406 88.886719 C 577.246094 106.121094 578.144531 125.679688 578.097656 143.589844 C 576.203125 135.472656 574.71875 127.234375 573.40625 119 C 572.339844 112.601562 571.726562 105.589844 569.339844 99.542969 Z M 569.339844 99.542969 " fill-opacity="1" fill-rule="nonzero"/></g></g></g></g><g clip-path="url(#1f5b20fd7c)"><g clip-path="url(#7f86897945)"><g clip-path="url(#d312f18039)"><g clip-path="url(#9f44fd387f)"><path fill="#ababab" d="M 547.203125 174.839844 C 548.171875 179.113281 549.742188 182.777344 549.488281 187.042969 C 544.972656 181.984375 541.882812 175.453125 538.730469 169.496094 C 535.117188 161.933594 531.425781 154.414062 527.554688 146.988281 C 525.535156 143.324219 523.082031 138.375 519.210938 136.414062 C 516.941406 135.226562 514.746094 135.738281 512.480469 136.605469 C 508.140625 139.730469 506.078125 144.449219 505.617188 149.664062 C 504.628906 161.066406 507.304688 173 512.097656 183.324219 C 515.316406 190.789062 519.148438 197.941406 523.171875 204.996094 C 525.894531 210.402344 529.089844 215.285156 530.894531 220.882812 C 534.46875 230.746094 535.476562 241.625 541.445312 250.5 C 545.378906 256.109375 550.75 261.414062 557.101562 264.175781 C 563.859375 266.859375 571.46875 267.515625 578.589844 265.988281 C 583.546875 265.023438 587.839844 262.820312 592.691406 261.460938 C 589.398438 266.957031 583.074219 270.683594 577.125 272.582031 C 570.367188 274.710938 563.5 274.398438 556.613281 273.164062 C 555.804688 277.972656 555.277344 282.53125 557.210938 287.191406 C 560.460938 294.945312 567.910156 299.792969 575.582031 302.445312 C 587.257812 306.429688 600.597656 305.917969 612.261719 302.242188 C 621.191406 299.226562 629.652344 294.679688 635.40625 287.003906 C 638.46875 283.445312 640.042969 279.128906 640.835938 274.546875 C 634.46875 276.304688 628.742188 278.105469 622.070312 276.640625 C 619.074219 276.023438 616.394531 274.5625 614.003906 272.683594 C 623.96875 272.046875 633.316406 270.464844 641.746094 264.6875 C 647.089844 260.925781 650.507812 255.816406 653.660156 250.207031 C 657.777344 242.648438 659.472656 233.898438 662.984375 225.855469 C 666.59375 216.882812 671.496094 208.640625 677.03125 200.742188 C 683.308594 190.515625 691.886719 182.929688 697.589844 172.402344 C 699.085938 169.566406 699.316406 166.699219 698.554688 163.601562 C 697.453125 161.199219 695.953125 159.199219 693.359375 158.355469 C 687.996094 156.546875 681.5625 158.308594 676.597656 160.546875 C 665.902344 165.84375 656.839844 174.578125 651.765625 185.457031 C 649.320312 190.445312 647.121094 195.925781 643.003906 199.796875 C 641.355469 201.292969 639.597656 203.246094 637.433594 203.882812 C 634.113281 204.9375 630.644531 205.453125 627.300781 206.433594 C 614.832031 210.019531 603.210938 215.703125 594.289062 225.328125 C 597.300781 217.898438 602.574219 211.746094 609.117188 207.1875 C 617.40625 200.929688 627.140625 197.398438 637.410156 196.226562 C 637.796875 185.574219 640.9375 174.863281 643.089844 164.417969 C 645.78125 151.335938 650.148438 138.847656 654.28125 126.183594 C 656.964844 119.132812 659.164062 111.949219 660.898438 104.605469 C 661.550781 101.671875 661.863281 98.089844 660.296875 95.382812 C 659 93.363281 657.042969 92.53125 654.890625 91.726562 C 648.207031 91.925781 643.140625 95.847656 639.011719 100.753906 C 633.449219 107.566406 629.683594 116.378906 626.425781 124.496094 C 620.316406 140.457031 617.214844 156.914062 613.5 173.496094 C 612.496094 173.265625 611.492188 173.039062 610.488281 172.800781 C 610.617188 168.75 611.074219 164.726562 611.664062 160.714844 C 612.207031 158.171875 612.710938 155.605469 613.078125 153.03125 C 613.730469 148.511719 613.425781 143.964844 613.914062 139.402344 C 615.25 127.917969 615.109375 115.984375 615.15625 104.367188 C 614.984375 96.136719 615.140625 87.824219 610.582031 80.605469 C 608.941406 78.664062 607.292969 76.65625 604.578125 76.464844 C 600.128906 76.132812 596.449219 79.078125 593.789062 82.339844 C 589.546875 87.582031 587.667969 95.136719 586.167969 101.609375 C 583.699219 113.625 583.136719 126.097656 582.671875 138.332031 C 582.472656 145.691406 582.195312 153.03125 582.378906 160.402344 C 582.4375 165.039062 582.820312 169.53125 582.363281 174.171875 C 577.964844 170.875 576.621094 163.632812 574.847656 158.652344 C 570.535156 142.652344 566.636719 126.5625 563.664062 110.265625 C 562.59375 105.796875 561.609375 100.25 556.859375 98.269531 C 554.648438 97.792969 552.5 97.59375 550.367188 98.527344 C 545.597656 100.578125 542.195312 105.507812 540.542969 110.300781 C 538.175781 117.191406 538.386719 125.238281 538.902344 132.441406 C 539.996094 147.117188 543.703125 160.554688 547.203125 174.839844 Z M 606.605469 176.722656 C 611.515625 177.207031 617.34375 178.269531 620.300781 182.6875 C 615.34375 181.746094 610.355469 181.457031 605.320312 181.785156 C 592.867188 182.714844 580.433594 185.882812 568.816406 190.402344 C 564.144531 192.265625 559.457031 193.707031 555.105469 196.285156 C 553.890625 196.808594 552.664062 197.285156 551.417969 197.746094 C 556.046875 192.464844 562.082031 188.421875 568.273438 185.199219 C 579.925781 179.253906 593.460938 175.839844 606.605469 176.722656 Z M 606.605469 176.722656 " fill-opacity="1" fill-rule="nonzero"/></g></g></g></g><g clip-path="url(#86a680b7af)"><g clip-path="url(#0153dda6ab)"><g clip-path="url(#f6bf0f9eb6)"><g clip-path="url(#cd45d74b18)"><path fill="#ffffff" d="M 627.746094 146.546875 C 626.890625 153.042969 626.035156 159.253906 626.710938 165.828125 C 627.203125 172.304688 629.773438 178.25 630.304688 184.726562 C 626.875 184.453125 623.621094 183.515625 620.300781 182.6875 C 615.34375 181.746094 610.355469 181.457031 605.320312 181.785156 C 592.867188 182.714844 580.433594 185.882812 568.816406 190.402344 C 564.144531 192.265625 559.457031 193.707031 555.105469 196.285156 C 551.269531 198.699219 547.628906 200.6875 545.070312 204.554688 C 540.3125 211.421875 540.105469 220.992188 542.5625 228.746094 C 545.148438 235.914062 548.164062 242.578125 553.722656 247.957031 C 559.578125 253.902344 567.175781 257.808594 575.6875 256.898438 C 584.683594 255.703125 592.632812 251.339844 599.878906 246.101562 C 598.574219 251.808594 595.613281 256.492188 592.691406 261.460938 C 589.398438 266.957031 583.074219 270.683594 577.125 272.582031 C 577.6875 275.925781 578.265625 279.070312 580.164062 281.96875 C 583.742188 287.46875 589.539062 290.910156 595.746094 292.65625 C 602.410156 294.511719 609.773438 295.503906 616.640625 294.425781 C 623.097656 293.492188 629.296875 289.574219 635.40625 287.003906 C 638.46875 283.445312 640.042969 279.128906 640.835938 274.546875 C 634.46875 276.304688 628.738281 278.105469 622.070312 276.640625 C 619.074219 276.023438 616.394531 274.5625 614.003906 272.683594 C 610.371094 269.574219 607.035156 266.523438 605.539062 261.796875 C 604.398438 258.511719 604.792969 255.328125 605.34375 251.984375 C 608.570312 254.578125 611.433594 257.546875 615.613281 258.480469 C 622.449219 260.035156 629.777344 257.476562 635.195312 253.3125 C 640.5625 249.101562 643.503906 243.351562 646.046875 237.171875 C 648.324219 231.46875 651.292969 226.089844 653.648438 220.410156 C 655.671875 215.605469 657.457031 210.863281 660.25 206.421875 C 667.476562 194.21875 680.324219 184.507812 690.542969 174.804688 C 693.945312 171.53125 696.121094 167.578125 698.554688 163.601562 C 697.453125 161.199219 695.953125 159.199219 693.359375 158.355469 C 687.996094 156.546875 681.5625 158.308594 676.597656 160.546875 C 665.902344 165.84375 656.839844 174.578125 651.765625 185.457031 C 649.320312 190.445312 647.121094 195.925781 643.003906 199.796875 C 641.355469 201.292969 639.597656 203.246094 637.433594 203.882812 C 634.113281 204.9375 630.644531 205.453125 627.300781 206.433594 C 614.832031 210.019531 603.210938 215.703125 594.289062 225.328125 C 597.300781 217.898438 602.574219 211.746094 609.117188 207.1875 C 617.40625 200.929688 627.140625 197.398438 637.410156 196.226562 C 637.796875 185.574219 640.9375 174.863281 643.089844 164.417969 C 645.78125 151.335938 650.148438 138.847656 654.28125 126.183594 C 656.964844 119.132812 659.164062 111.949219 660.898438 104.605469 C 661.550781 101.671875 661.863281 98.089844 660.296875 95.382812 C 659 93.363281 657.042969 92.53125 654.890625 91.726562 C 648.484375 95.574219 644.46875 101.421875 640.925781 107.8125 C 634.390625 119.933594 629.628906 132.863281 627.746094 146.546875 Z M 592.617188 213.253906 C 591.472656 215.058594 590.234375 216.777344 588.980469 218.5 C 583.742188 214.6875 578.320312 211.28125 572.273438 208.910156 C 568.472656 207.394531 564.632812 206.558594 560.742188 205.347656 C 565.335938 204.160156 569.855469 203.835938 574.554688 204.515625 C 581.535156 205.535156 588.109375 207.394531 592.617188 213.253906 Z M 592.617188 213.253906 " fill-opacity="1" fill-rule="nonzero"/></g></g></g></g><g clip-path="url(#afdc7bd743)"><g clip-path="url(#fb3d7f197b)"><g clip-path="url(#f4a43c7551)"><g clip-path="url(#d33c39cea4)"><path fill="#ffffff" d="M 601.199219 83.25 C 596.84375 89.492188 596.292969 98.453125 595.597656 105.824219 C 594.328125 121.429688 594.132812 137.28125 595.9375 152.855469 C 596.636719 158.507812 597.585938 164.078125 599.730469 169.40625 C 605.144531 168.082031 608.484375 165.101562 611.664062 160.714844 C 612.207031 158.171875 612.710938 155.605469 613.078125 153.03125 C 613.730469 148.511719 613.425781 143.964844 613.914062 139.402344 C 615.25 127.917969 615.109375 115.984375 615.15625 104.367188 C 614.984375 96.136719 615.140625 87.824219 610.582031 80.605469 C 607.089844 80.707031 603.46875 79.851562 601.199219 83.25 Z M 601.199219 83.25 " fill-opacity="1" fill-rule="nonzero"/></g></g></g></g><g clip-path="url(#285151f1d5)"><g clip-path="url(#84ce873562)"><g clip-path="url(#c7b95703aa)"><g clip-path="url(#5fda755bcd)"><path fill="#ffffff" d="M 547.363281 121.761719 C 547.40625 130.660156 549 139.1875 550.894531 147.835938 C 552.992188 157.050781 555.925781 166.152344 559.917969 174.722656 C 560.730469 176.152344 561.558594 178.460938 563.445312 178.652344 C 566.9375 179.242188 569.722656 176.761719 571.449219 174.003906 C 574.097656 169.628906 574.539062 163.660156 574.847656 158.652344 C 570.535156 142.652344 566.636719 126.5625 563.664062 110.265625 C 562.59375 105.796875 561.609375 100.25 556.859375 98.269531 C 553.804688 100.707031 550.671875 102.84375 549.09375 106.5625 C 547.171875 111.121094 547.359375 116.878906 547.363281 121.761719 Z M 547.363281 121.761719 " fill-opacity="1" fill-rule="nonzero"/></g></g></g></g><g clip-path="url(#f839b39815)"><g clip-path="url(#2afcceccfb)"><g clip-path="url(#5d513f6846)"><g clip-path="url(#69bfb38e28)"><path fill="#ffffff" d="M 522.441406 190.328125 C 524.507812 194.015625 526.324219 198.007812 528.898438 201.375 C 529.800781 203.066406 532.234375 202.144531 533.652344 201.707031 C 538.105469 199.820312 540.96875 194.617188 542.089844 190.117188 C 543.867188 182.832031 541.835938 176.101562 538.730469 169.496094 C 535.117188 161.933594 531.425781 154.414062 527.554688 146.988281 C 525.535156 143.324219 523.082031 138.375 519.210938 136.414062 C 516.941406 135.226562 514.746094 135.738281 512.480469 136.605469 C 511.164062 141.503906 509.902344 146.269531 510.167969 151.402344 C 510.320312 165.503906 516.058594 178.042969 522.441406 190.328125 Z M 522.441406 190.328125 " fill-opacity="1" fill-rule="nonzero"/></g></g></g></g><g clip-path="url(#c76ebb336d)"><path fill="#000000" d="M 447.632812 193.378906 C 450.742188 178.371094 447.3125 164.140625 424.414062 164.140625 C 419.617188 164.140625 415.230469 164.808594 411.292969 166.0625 L 391.304688 210.996094 C 394.179688 214.980469 398.808594 218.535156 405.402344 222.347656 C 415.671875 228.238281 418.214844 232.214844 416.730469 238.980469 C 415.511719 244.53125 412.441406 248.921875 405.886719 248.921875 C 399.140625 248.921875 398.058594 243.398438 399.25 235.371094 L 376.964844 235.371094 C 373.800781 251.964844 378.121094 265.507812 402.019531 265.507812 C 424.078125 265.507812 436.402344 252.632812 439.949219 236.480469 C 443.558594 220.046875 437.519531 212.332031 421.308594 203.210938 C 411.785156 197.902344 410.226562 195.011719 411.457031 189.414062 C 412.648438 183.960938 415.609375 180.722656 420.632812 180.722656 C 427.042969 180.722656 427.015625 186.574219 425.898438 193.378906 L 447.632812 193.378906 " fill-opacity="1" fill-rule="nonzero"/></g><g clip-path="url(#2fc361cb89)"><path fill="#000000" d="M 435.726562 90.9375 C 427.644531 106.664062 419.804688 122.515625 412.207031 138.480469 L 391.707031 138.480469 L 380.652344 167.664062 C 375.925781 180.050781 370.617188 193.183594 367.046875 204.832031 L 366.398438 204.832031 C 367.867188 193.546875 369 179.910156 369.648438 167.382812 L 371.554688 138.828125 L 347.617188 138.828125 L 347.429688 227.128906 L 372.96875 227.128906 C 365.203125 246.058594 357.765625 265.121094 350.660156 284.308594 C 382.835938 221.625 411.285156 157.03125 435.726562 90.9375 " fill-opacity="1" fill-rule="nonzero"/></g><g fill="#ffffff" fill-opacity="1"><g transform="translate(137.532985, 48.229974)"><g><path d="M 13.125 -10.46875 C 13.125 -9.570312 12.914062 -8.753906 12.5 -8.015625 C 12.09375 -7.273438 11.460938 -6.675781 10.609375 -6.21875 C 9.765625 -5.769531 8.710938 -5.546875 7.453125 -5.546875 L 5.125 -5.546875 L 5.125 0 L 1.359375 0 L 1.359375 -15.4375 L 7.453125 -15.4375 C 8.679688 -15.4375 9.71875 -15.222656 10.5625 -14.796875 C 11.414062 -14.367188 12.054688 -13.78125 12.484375 -13.03125 C 12.910156 -12.289062 13.125 -11.4375 13.125 -10.46875 Z M 7.171875 -8.53125 C 7.890625 -8.53125 8.421875 -8.695312 8.765625 -9.03125 C 9.117188 -9.375 9.296875 -9.851562 9.296875 -10.46875 C 9.296875 -11.082031 9.117188 -11.554688 8.765625 -11.890625 C 8.421875 -12.234375 7.890625 -12.40625 7.171875 -12.40625 L 5.125 -12.40625 L 5.125 -8.53125 Z M 7.171875 -8.53125 "/></g></g></g><g fill="#ffffff" fill-opacity="1"><g transform="translate(151.249826, 48.229974)"><g><path d="M 12.921875 -6.328125 C 12.921875 -5.972656 12.898438 -5.609375 12.859375 -5.234375 L 4.359375 -5.234375 C 4.410156 -4.472656 4.648438 -3.890625 5.078125 -3.484375 C 5.515625 -3.078125 6.050781 -2.875 6.6875 -2.875 C 7.625 -2.875 8.273438 -3.269531 8.640625 -4.0625 L 12.640625 -4.0625 C 12.429688 -3.257812 12.0625 -2.535156 11.53125 -1.890625 C 11 -1.242188 10.328125 -0.738281 9.515625 -0.375 C 8.710938 -0.0078125 7.8125 0.171875 6.8125 0.171875 C 5.613281 0.171875 4.546875 -0.0820312 3.609375 -0.59375 C 2.671875 -1.101562 1.9375 -1.832031 1.40625 -2.78125 C 0.875 -3.738281 0.609375 -4.859375 0.609375 -6.140625 C 0.609375 -7.410156 0.867188 -8.519531 1.390625 -9.46875 C 1.910156 -10.425781 2.640625 -11.160156 3.578125 -11.671875 C 4.515625 -12.179688 5.59375 -12.4375 6.8125 -12.4375 C 8 -12.4375 9.050781 -12.1875 9.96875 -11.6875 C 10.894531 -11.195312 11.617188 -10.488281 12.140625 -9.5625 C 12.660156 -8.632812 12.921875 -7.554688 12.921875 -6.328125 Z M 9.078125 -7.328125 C 9.078125 -7.960938 8.859375 -8.472656 8.421875 -8.859375 C 7.984375 -9.242188 7.429688 -9.4375 6.765625 -9.4375 C 6.140625 -9.4375 5.609375 -9.25 5.171875 -8.875 C 4.742188 -8.507812 4.476562 -7.992188 4.375 -7.328125 Z M 9.078125 -7.328125 "/></g></g></g><g fill="#ffffff" fill-opacity="1"><g transform="translate(164.790815, 48.229974)"><g><path d="M 17.015625 -12.40625 C 18.535156 -12.40625 19.742188 -11.941406 20.640625 -11.015625 C 21.546875 -10.085938 22 -8.804688 22 -7.171875 L 22 0 L 18.265625 0 L 18.265625 -6.65625 C 18.265625 -7.445312 18.054688 -8.054688 17.640625 -8.484375 C 17.222656 -8.921875 16.648438 -9.140625 15.921875 -9.140625 C 15.179688 -9.140625 14.601562 -8.921875 14.1875 -8.484375 C 13.769531 -8.054688 13.5625 -7.445312 13.5625 -6.65625 L 13.5625 0 L 9.828125 0 L 9.828125 -6.65625 C 9.828125 -7.445312 9.617188 -8.054688 9.203125 -8.484375 C 8.785156 -8.921875 8.207031 -9.140625 7.46875 -9.140625 C 6.738281 -9.140625 6.164062 -8.921875 5.75 -8.484375 C 5.332031 -8.054688 5.125 -7.445312 5.125 -6.65625 L 5.125 0 L 1.359375 0 L 1.359375 -12.265625 L 5.125 -12.265625 L 5.125 -10.734375 C 5.5 -11.242188 5.992188 -11.648438 6.609375 -11.953125 C 7.234375 -12.253906 7.929688 -12.40625 8.703125 -12.40625 C 9.628906 -12.40625 10.453125 -12.207031 11.171875 -11.8125 C 11.898438 -11.414062 12.472656 -10.847656 12.890625 -10.109375 C 13.304688 -10.785156 13.878906 -11.335938 14.609375 -11.765625 C 15.347656 -12.191406 16.148438 -12.40625 17.015625 -12.40625 Z M 17.015625 -12.40625 "/></g></g></g><g fill="#ffffff" fill-opacity="1"><g transform="translate(188.069888, 48.229974)"><g><path d="M 0.609375 -6.15625 C 0.609375 -7.414062 0.847656 -8.519531 1.328125 -9.46875 C 1.804688 -10.425781 2.453125 -11.160156 3.265625 -11.671875 C 4.085938 -12.179688 5.007812 -12.4375 6.03125 -12.4375 C 6.894531 -12.4375 7.648438 -12.257812 8.296875 -11.90625 C 8.953125 -11.5625 9.457031 -11.101562 9.8125 -10.53125 L 9.8125 -12.265625 L 13.5625 -12.265625 L 13.5625 0 L 9.8125 0 L 9.8125 -1.734375 C 9.4375 -1.160156 8.921875 -0.695312 8.265625 -0.34375 C 7.617188 0 6.863281 0.171875 6 0.171875 C 5 0.171875 4.085938 -0.0859375 3.265625 -0.609375 C 2.453125 -1.128906 1.804688 -1.867188 1.328125 -2.828125 C 0.847656 -3.785156 0.609375 -4.894531 0.609375 -6.15625 Z M 9.8125 -6.140625 C 9.8125 -7.078125 9.550781 -7.816406 9.03125 -8.359375 C 8.507812 -8.898438 7.875 -9.171875 7.125 -9.171875 C 6.375 -9.171875 5.738281 -8.898438 5.21875 -8.359375 C 4.695312 -7.828125 4.4375 -7.09375 4.4375 -6.15625 C 4.4375 -5.21875 4.695312 -4.472656 5.21875 -3.921875 C 5.738281 -3.367188 6.375 -3.09375 7.125 -3.09375 C 7.875 -3.09375 8.507812 -3.363281 9.03125 -3.90625 C 9.550781 -4.457031 9.8125 -5.203125 9.8125 -6.140625 Z M 9.8125 -6.140625 "/></g></g></g><g fill="#ffffff" fill-opacity="1"><g transform="translate(202.995751, 48.229974)"><g><path d="M 3.25 -13.546875 C 2.59375 -13.546875 2.054688 -13.738281 1.640625 -14.125 C 1.222656 -14.507812 1.015625 -14.988281 1.015625 -15.5625 C 1.015625 -16.144531 1.222656 -16.628906 1.640625 -17.015625 C 2.054688 -17.410156 2.59375 -17.609375 3.25 -17.609375 C 3.894531 -17.609375 4.425781 -17.410156 4.84375 -17.015625 C 5.257812 -16.628906 5.46875 -16.144531 5.46875 -15.5625 C 5.46875 -14.988281 5.257812 -14.507812 4.84375 -14.125 C 4.425781 -13.738281 3.894531 -13.546875 3.25 -13.546875 Z M 5.125 -12.265625 L 5.125 0 L 1.359375 0 L 1.359375 -12.265625 Z M 5.125 -12.265625 "/></g></g></g><g fill="#ffffff" fill-opacity="1"><g transform="translate(209.48048, 48.229974)"><g><path d="M 8.84375 -12.40625 C 10.269531 -12.40625 11.410156 -11.9375 12.265625 -11 C 13.128906 -10.070312 13.5625 -8.796875 13.5625 -7.171875 L 13.5625 0 L 9.828125 0 L 9.828125 -6.65625 C 9.828125 -7.476562 9.613281 -8.113281 9.1875 -8.5625 C 8.757812 -9.019531 8.1875 -9.25 7.46875 -9.25 C 6.75 -9.25 6.175781 -9.019531 5.75 -8.5625 C 5.332031 -8.113281 5.125 -7.476562 5.125 -6.65625 L 5.125 0 L 1.359375 0 L 1.359375 -12.265625 L 5.125 -12.265625 L 5.125 -10.640625 C 5.5 -11.179688 6.007812 -11.609375 6.65625 -11.921875 C 7.300781 -12.242188 8.03125 -12.40625 8.84375 -12.40625 Z M 8.84375 -12.40625 "/></g></g></g><g fill="#ffffff" fill-opacity="1"><g transform="translate(224.296435, 48.229974)"><g/></g></g><g fill="#ffffff" fill-opacity="1"><g transform="translate(228.956646, 48.229974)"><g><path d="M 0.59375 -12.546875 L 0.59375 -16.046875 L 6.6875 -16.046875 L 6.6875 0 L 2.765625 0 L 2.765625 -12.546875 Z M 0.59375 -12.546875 "/></g></g></g><g fill="#ffffff" fill-opacity="1"><g transform="translate(547.630403, 48.229974)"><g><path d="M 13.125 -10.46875 C 13.125 -9.570312 12.914062 -8.753906 12.5 -8.015625 C 12.09375 -7.273438 11.460938 -6.675781 10.609375 -6.21875 C 9.765625 -5.769531 8.710938 -5.546875 7.453125 -5.546875 L 5.125 -5.546875 L 5.125 0 L 1.359375 0 L 1.359375 -15.4375 L 7.453125 -15.4375 C 8.679688 -15.4375 9.71875 -15.222656 10.5625 -14.796875 C 11.414062 -14.367188 12.054688 -13.78125 12.484375 -13.03125 C 12.910156 -12.289062 13.125 -11.4375 13.125 -10.46875 Z M 7.171875 -8.53125 C 7.890625 -8.53125 8.421875 -8.695312 8.765625 -9.03125 C 9.117188 -9.375 9.296875 -9.851562 9.296875 -10.46875 C 9.296875 -11.082031 9.117188 -11.554688 8.765625 -11.890625 C 8.421875 -12.234375 7.890625 -12.40625 7.171875 -12.40625 L 5.125 -12.40625 L 5.125 -8.53125 Z M 7.171875 -8.53125 "/></g></g></g><g fill="#ffffff" fill-opacity="1"><g transform="translate(561.347245, 48.229974)"><g><path d="M 12.921875 -6.328125 C 12.921875 -5.972656 12.898438 -5.609375 12.859375 -5.234375 L 4.359375 -5.234375 C 4.410156 -4.472656 4.648438 -3.890625 5.078125 -3.484375 C 5.515625 -3.078125 6.050781 -2.875 6.6875 -2.875 C 7.625 -2.875 8.273438 -3.269531 8.640625 -4.0625 L 12.640625 -4.0625 C 12.429688 -3.257812 12.0625 -2.535156 11.53125 -1.890625 C 11 -1.242188 10.328125 -0.738281 9.515625 -0.375 C 8.710938 -0.0078125 7.8125 0.171875 6.8125 0.171875 C 5.613281 0.171875 4.546875 -0.0820312 3.609375 -0.59375 C 2.671875 -1.101562 1.9375 -1.832031 1.40625 -2.78125 C 0.875 -3.738281 0.609375 -4.859375 0.609375 -6.140625 C 0.609375 -7.410156 0.867188 -8.519531 1.390625 -9.46875 C 1.910156 -10.425781 2.640625 -11.160156 3.578125 -11.671875 C 4.515625 -12.179688 5.59375 -12.4375 6.8125 -12.4375 C 8 -12.4375 9.050781 -12.1875 9.96875 -11.6875 C 10.894531 -11.195312 11.617188 -10.488281 12.140625 -9.5625 C 12.660156 -8.632812 12.921875 -7.554688 12.921875 -6.328125 Z M 9.078125 -7.328125 C 9.078125 -7.960938 8.859375 -8.472656 8.421875 -8.859375 C 7.984375 -9.242188 7.429688 -9.4375 6.765625 -9.4375 C 6.140625 -9.4375 5.609375 -9.25 5.171875 -8.875 C 4.742188 -8.507812 4.476562 -7.992188 4.375 -7.328125 Z M 9.078125 -7.328125 "/></g></g></g><g fill="#ffffff" fill-opacity="1"><g transform="translate(574.888234, 48.229974)"><g><path d="M 17.015625 -12.40625 C 18.535156 -12.40625 19.742188 -11.941406 20.640625 -11.015625 C 21.546875 -10.085938 22 -8.804688 22 -7.171875 L 22 0 L 18.265625 0 L 18.265625 -6.65625 C 18.265625 -7.445312 18.054688 -8.054688 17.640625 -8.484375 C 17.222656 -8.921875 16.648438 -9.140625 15.921875 -9.140625 C 15.179688 -9.140625 14.601562 -8.921875 14.1875 -8.484375 C 13.769531 -8.054688 13.5625 -7.445312 13.5625 -6.65625 L 13.5625 0 L 9.828125 0 L 9.828125 -6.65625 C 9.828125 -7.445312 9.617188 -8.054688 9.203125 -8.484375 C 8.785156 -8.921875 8.207031 -9.140625 7.46875 -9.140625 C 6.738281 -9.140625 6.164062 -8.921875 5.75 -8.484375 C 5.332031 -8.054688 5.125 -7.445312 5.125 -6.65625 L 5.125 0 L 1.359375 0 L 1.359375 -12.265625 L 5.125 -12.265625 L 5.125 -10.734375 C 5.5 -11.242188 5.992188 -11.648438 6.609375 -11.953125 C 7.234375 -12.253906 7.929688 -12.40625 8.703125 -12.40625 C 9.628906 -12.40625 10.453125 -12.207031 11.171875 -11.8125 C 11.898438 -11.414062 12.472656 -10.847656 12.890625 -10.109375 C 13.304688 -10.785156 13.878906 -11.335938 14.609375 -11.765625 C 15.347656 -12.191406 16.148438 -12.40625 17.015625 -12.40625 Z M 17.015625 -12.40625 "/></g></g></g><g fill="#ffffff" fill-opacity="1"><g transform="translate(598.167307, 48.229974)"><g><path d="M 0.609375 -6.15625 C 0.609375 -7.414062 0.847656 -8.519531 1.328125 -9.46875 C 1.804688 -10.425781 2.453125 -11.160156 3.265625 -11.671875 C 4.085938 -12.179688 5.007812 -12.4375 6.03125 -12.4375 C 6.894531 -12.4375 7.648438 -12.257812 8.296875 -11.90625 C 8.953125 -11.5625 9.457031 -11.101562 9.8125 -10.53125 L 9.8125 -12.265625 L 13.5625 -12.265625 L 13.5625 0 L 9.8125 0 L 9.8125 -1.734375 C 9.4375 -1.160156 8.921875 -0.695312 8.265625 -0.34375 C 7.617188 0 6.863281 0.171875 6 0.171875 C 5 0.171875 4.085938 -0.0859375 3.265625 -0.609375 C 2.453125 -1.128906 1.804688 -1.867188 1.328125 -2.828125 C 0.847656 -3.785156 0.609375 -4.894531 0.609375 -6.15625 Z M 9.8125 -6.140625 C 9.8125 -7.078125 9.550781 -7.816406 9.03125 -8.359375 C 8.507812 -8.898438 7.875 -9.171875 7.125 -9.171875 C 6.375 -9.171875 5.738281 -8.898438 5.21875 -8.359375 C 4.695312 -7.828125 4.4375 -7.09375 4.4375 -6.15625 C 4.4375 -5.21875 4.695312 -4.472656 5.21875 -3.921875 C 5.738281 -3.367188 6.375 -3.09375 7.125 -3.09375 C 7.875 -3.09375 8.507812 -3.363281 9.03125 -3.90625 C 9.550781 -4.457031 9.8125 -5.203125 9.8125 -6.140625 Z M 9.8125 -6.140625 "/></g></g></g><g fill="#ffffff" fill-opacity="1"><g transform="translate(613.09317, 48.229974)"><g><path d="M 3.25 -13.546875 C 2.59375 -13.546875 2.054688 -13.738281 1.640625 -14.125 C 1.222656 -14.507812 1.015625 -14.988281 1.015625 -15.5625 C 1.015625 -16.144531 1.222656 -16.628906 1.640625 -17.015625 C 2.054688 -17.410156 2.59375 -17.609375 3.25 -17.609375 C 3.894531 -17.609375 4.425781 -17.410156 4.84375 -17.015625 C 5.257812 -16.628906 5.46875 -16.144531 5.46875 -15.5625 C 5.46875 -14.988281 5.257812 -14.507812 4.84375 -14.125 C 4.425781 -13.738281 3.894531 -13.546875 3.25 -13.546875 Z M 5.125 -12.265625 L 5.125 0 L 1.359375 0 L 1.359375 -12.265625 Z M 5.125 -12.265625 "/></g></g></g><g fill="#ffffff" fill-opacity="1"><g transform="translate(619.577898, 48.229974)"><g><path d="M 8.84375 -12.40625 C 10.269531 -12.40625 11.410156 -11.9375 12.265625 -11 C 13.128906 -10.070312 13.5625 -8.796875 13.5625 -7.171875 L 13.5625 0 L 9.828125 0 L 9.828125 -6.65625 C 9.828125 -7.476562 9.613281 -8.113281 9.1875 -8.5625 C 8.757812 -9.019531 8.1875 -9.25 7.46875 -9.25 C 6.75 -9.25 6.175781 -9.019531 5.75 -8.5625 C 5.332031 -8.113281 5.125 -7.476562 5.125 -6.65625 L 5.125 0 L 1.359375 0 L 1.359375 -12.265625 L 5.125 -12.265625 L 5.125 -10.640625 C 5.5 -11.179688 6.007812 -11.609375 6.65625 -11.921875 C 7.300781 -12.242188 8.03125 -12.40625 8.84375 -12.40625 Z M 8.84375 -12.40625 "/></g></g></g><g fill="#ffffff" fill-opacity="1"><g transform="translate(634.393854, 48.229974)"><g/></g></g><g fill="#ffffff" fill-opacity="1"><g transform="translate(639.054065, 48.229974)"><g><path d="M 0.859375 -3.015625 C 1.359375 -3.410156 1.582031 -3.59375 1.53125 -3.5625 C 2.96875 -4.75 4.097656 -5.722656 4.921875 -6.484375 C 5.753906 -7.242188 6.457031 -8.039062 7.03125 -8.875 C 7.601562 -9.71875 7.890625 -10.535156 7.890625 -11.328125 C 7.890625 -11.921875 7.75 -12.382812 7.46875 -12.71875 C 7.195312 -13.0625 6.78125 -13.234375 6.21875 -13.234375 C 5.664062 -13.234375 5.226562 -13.023438 4.90625 -12.609375 C 4.59375 -12.191406 4.4375 -11.601562 4.4375 -10.84375 L 0.8125 -10.84375 C 0.84375 -12.082031 1.109375 -13.117188 1.609375 -13.953125 C 2.117188 -14.796875 2.785156 -15.414062 3.609375 -15.8125 C 4.441406 -16.207031 5.363281 -16.40625 6.375 -16.40625 C 8.113281 -16.40625 9.425781 -15.957031 10.3125 -15.0625 C 11.207031 -14.164062 11.65625 -13 11.65625 -11.5625 C 11.65625 -10 11.117188 -8.546875 10.046875 -7.203125 C 8.972656 -5.859375 7.609375 -4.550781 5.953125 -3.28125 L 11.890625 -3.28125 L 11.890625 -0.21875 L 0.859375 -0.21875 Z M 0.859375 -3.015625 "/></g></g></g></svg>