<svg xmlns="http://www.w3.org/2000/svg" xmlns:xlink="http://www.w3.org/1999/xlink" width="1050" zoomAndPan="magnify" viewBox="0 0 787.5 374.999991" height="500" preserveAspectRatio="xMidYMid meet" version="1.0"><defs><g/><clipPath id="cac3dd10eb"><path d="M 412.238281 0.117188 L 787 0.117188 L 787 374.878906 L 412.238281 374.878906 Z M 412.238281 0.117188 " clip-rule="nonzero"/></clipPath><clipPath id="c355e8b2a0"><path d="M 599.621094 0.117188 C 496.132812 0.117188 412.238281 84.011719 412.238281 187.5 C 412.238281 290.988281 496.132812 374.882812 599.621094 374.882812 C 703.105469 374.882812 787 290.988281 787 187.5 C 787 84.011719 703.105469 0.117188 599.621094 0.117188 Z M 599.621094 0.117188 " clip-rule="nonzero"/></clipPath><clipPath id="a7a3059bca"><path d="M 520 70 L 669 70 L 669 311 L 520 311 Z M 520 70 " clip-rule="nonzero"/></clipPath><clipPath id="1129eed1af"><path d="M 622.945312 41.886719 L 735.925781 243.757812 L 576.453125 333.011719 L 463.46875 131.144531 Z M 622.945312 41.886719 " clip-rule="nonzero"/></clipPath><clipPath id="732a293383"><path d="M 622.945312 41.886719 L 735.925781 243.757812 L 576.453125 333.011719 L 463.46875 131.144531 Z M 622.945312 41.886719 " clip-rule="nonzero"/></clipPath><clipPath id="e525abec45"><path d="M 622.945312 41.886719 L 735.925781 243.757812 L 576.453125 333.011719 L 463.46875 131.144531 Z M 622.945312 41.886719 " clip-rule="nonzero"/></clipPath><clipPath id="d661298aff"><path d="M 545 80 L 643 80 L 643 220 L 545 220 Z M 545 80 " clip-rule="nonzero"/></clipPath><clipPath id="9b736c8499"><path d="M 622.945312 41.886719 L 735.925781 243.757812 L 576.453125 333.011719 L 463.46875 131.144531 Z M 622.945312 41.886719 " clip-rule="nonzero"/></clipPath><clipPath id="9922f5a63d"><path d="M 622.945312 41.886719 L 735.925781 243.757812 L 576.453125 333.011719 L 463.46875 131.144531 Z M 622.945312 41.886719 " clip-rule="nonzero"/></clipPath><clipPath id="769306d9ae"><path d="M 622.945312 41.886719 L 735.925781 243.757812 L 576.453125 333.011719 L 463.46875 131.144531 Z M 622.945312 41.886719 " clip-rule="nonzero"/></clipPath><clipPath id="2ecc7ae094"><path d="M 537 193 L 660 193 L 660 304 L 537 304 Z M 537 193 " clip-rule="nonzero"/></clipPath><clipPath id="e266ca256d"><path d="M 622.945312 41.886719 L 735.925781 243.757812 L 576.453125 333.011719 L 463.46875 131.144531 Z M 622.945312 41.886719 " clip-rule="nonzero"/></clipPath><clipPath id="e841edfa03"><path d="M 622.945312 41.886719 L 735.925781 243.757812 L 576.453125 333.011719 L 463.46875 131.144531 Z M 622.945312 41.886719 " clip-rule="nonzero"/></clipPath><clipPath id="36a1b8923d"><path d="M 622.945312 41.886719 L 735.925781 243.757812 L 576.453125 333.011719 L 463.46875 131.144531 Z M 622.945312 41.886719 " clip-rule="nonzero"/></clipPath><clipPath id="386444eea3"><path d="M 527 191 L 567 191 L 567 235 L 527 235 Z M 527 191 " clip-rule="nonzero"/></clipPath><clipPath id="f67928fd25"><path d="M 622.945312 41.886719 L 735.925781 243.757812 L 576.453125 333.011719 L 463.46875 131.144531 Z M 622.945312 41.886719 " clip-rule="nonzero"/></clipPath><clipPath id="3c2cc55ebf"><path d="M 622.945312 41.886719 L 735.925781 243.757812 L 576.453125 333.011719 L 463.46875 131.144531 Z M 622.945312 41.886719 " clip-rule="nonzero"/></clipPath><clipPath id="a5b2b71956"><path d="M 622.945312 41.886719 L 735.925781 243.757812 L 576.453125 333.011719 L 463.46875 131.144531 Z M 622.945312 41.886719 " clip-rule="nonzero"/></clipPath><clipPath id="d2865a21d5"><path d="M 570 82 L 643 82 L 643 195 L 570 195 Z M 570 82 " clip-rule="nonzero"/></clipPath><clipPath id="d80e9d44b2"><path d="M 622.945312 41.886719 L 735.925781 243.757812 L 576.453125 333.011719 L 463.46875 131.144531 Z M 622.945312 41.886719 " clip-rule="nonzero"/></clipPath><clipPath id="452fa78c46"><path d="M 622.945312 41.886719 L 735.925781 243.757812 L 576.453125 333.011719 L 463.46875 131.144531 Z M 622.945312 41.886719 " clip-rule="nonzero"/></clipPath><clipPath id="3efb08c203"><path d="M 622.945312 41.886719 L 735.925781 243.757812 L 576.453125 333.011719 L 463.46875 131.144531 Z M 622.945312 41.886719 " clip-rule="nonzero"/></clipPath><clipPath id="f3d0c82e53"><path d="M 594 193 L 660 193 L 660 273 L 594 273 Z M 594 193 " clip-rule="nonzero"/></clipPath><clipPath id="e74e1bcd4b"><path d="M 622.945312 41.886719 L 735.925781 243.757812 L 576.453125 333.011719 L 463.46875 131.144531 Z M 622.945312 41.886719 " clip-rule="nonzero"/></clipPath><clipPath id="e2043e3b3c"><path d="M 622.945312 41.886719 L 735.925781 243.757812 L 576.453125 333.011719 L 463.46875 131.144531 Z M 622.945312 41.886719 " clip-rule="nonzero"/></clipPath><clipPath id="34da9426ee"><path d="M 622.945312 41.886719 L 735.925781 243.757812 L 576.453125 333.011719 L 463.46875 131.144531 Z M 622.945312 41.886719 " clip-rule="nonzero"/></clipPath><clipPath id="0f3ac6b24f"><path d="M 565 229 L 643 229 L 643 301 L 565 301 Z M 565 229 " clip-rule="nonzero"/></clipPath><clipPath id="daf258b9bc"><path d="M 622.945312 41.886719 L 735.925781 243.757812 L 576.453125 333.011719 L 463.46875 131.144531 Z M 622.945312 41.886719 " clip-rule="nonzero"/></clipPath><clipPath id="1a47cbcbe7"><path d="M 622.945312 41.886719 L 735.925781 243.757812 L 576.453125 333.011719 L 463.46875 131.144531 Z M 622.945312 41.886719 " clip-rule="nonzero"/></clipPath><clipPath id="ddfee082a9"><path d="M 622.945312 41.886719 L 735.925781 243.757812 L 576.453125 333.011719 L 463.46875 131.144531 Z M 622.945312 41.886719 " clip-rule="nonzero"/></clipPath><clipPath id="289102f6cc"><path d="M 550 163 L 575 163 L 575 206 L 550 206 Z M 550 163 " clip-rule="nonzero"/></clipPath><clipPath id="43f2e680c0"><path d="M 622.945312 41.886719 L 735.925781 243.757812 L 576.453125 333.011719 L 463.46875 131.144531 Z M 622.945312 41.886719 " clip-rule="nonzero"/></clipPath><clipPath id="9daac312f0"><path d="M 622.945312 41.886719 L 735.925781 243.757812 L 576.453125 333.011719 L 463.46875 131.144531 Z M 622.945312 41.886719 " clip-rule="nonzero"/></clipPath><clipPath id="7586a024c8"><path d="M 622.945312 41.886719 L 735.925781 243.757812 L 576.453125 333.011719 L 463.46875 131.144531 Z M 622.945312 41.886719 " clip-rule="nonzero"/></clipPath><clipPath id="254edd8440"><path d="M 531 191 L 552 191 L 552 220 L 531 220 Z M 531 191 " clip-rule="nonzero"/></clipPath><clipPath id="4097f1cf74"><path d="M 622.945312 41.886719 L 735.925781 243.757812 L 576.453125 333.011719 L 463.46875 131.144531 Z M 622.945312 41.886719 " clip-rule="nonzero"/></clipPath><clipPath id="aff561c26d"><path d="M 622.945312 41.886719 L 735.925781 243.757812 L 576.453125 333.011719 L 463.46875 131.144531 Z M 622.945312 41.886719 " clip-rule="nonzero"/></clipPath><clipPath id="39c84fff17"><path d="M 622.945312 41.886719 L 735.925781 243.757812 L 576.453125 333.011719 L 463.46875 131.144531 Z M 622.945312 41.886719 " clip-rule="nonzero"/></clipPath><clipPath id="f4122ae566"><path d="M 0 0.117188 L 374.761719 0.117188 L 374.761719 374.878906 L 0 374.878906 Z M 0 0.117188 " clip-rule="nonzero"/></clipPath><clipPath id="d5ba88e0d8"><path d="M 187.382812 0.117188 C 83.894531 0.117188 0 84.011719 0 187.5 C 0 290.988281 83.894531 374.882812 187.382812 374.882812 C 290.867188 374.882812 374.761719 290.988281 374.761719 187.5 C 374.761719 84.011719 290.867188 0.117188 187.382812 0.117188 Z M 187.382812 0.117188 " clip-rule="nonzero"/></clipPath><clipPath id="7e1a2e1bde"><path d="M 108 70 L 257 70 L 257 311 L 108 311 Z M 108 70 " clip-rule="nonzero"/></clipPath><clipPath id="cca2d5c1a1"><path d="M 210.707031 41.886719 L 323.6875 243.757812 L 164.214844 333.011719 L 51.230469 131.144531 Z M 210.707031 41.886719 " clip-rule="nonzero"/></clipPath><clipPath id="05e2ea83d2"><path d="M 210.707031 41.886719 L 323.6875 243.757812 L 164.214844 333.011719 L 51.230469 131.144531 Z M 210.707031 41.886719 " clip-rule="nonzero"/></clipPath><clipPath id="03d87a0bd6"><path d="M 210.707031 41.886719 L 323.6875 243.757812 L 164.214844 333.011719 L 51.230469 131.144531 Z M 210.707031 41.886719 " clip-rule="nonzero"/></clipPath><clipPath id="cf30bb931e"><path d="M 132 80 L 231 80 L 231 220 L 132 220 Z M 132 80 " clip-rule="nonzero"/></clipPath><clipPath id="660a4ff79a"><path d="M 210.707031 41.886719 L 323.6875 243.757812 L 164.214844 333.011719 L 51.230469 131.144531 Z M 210.707031 41.886719 " clip-rule="nonzero"/></clipPath><clipPath id="0422c3d358"><path d="M 210.707031 41.886719 L 323.6875 243.757812 L 164.214844 333.011719 L 51.230469 131.144531 Z M 210.707031 41.886719 " clip-rule="nonzero"/></clipPath><clipPath id="6b9d7d8643"><path d="M 210.707031 41.886719 L 323.6875 243.757812 L 164.214844 333.011719 L 51.230469 131.144531 Z M 210.707031 41.886719 " clip-rule="nonzero"/></clipPath><clipPath id="6ea04f593e"><path d="M 125 193 L 248 193 L 248 304 L 125 304 Z M 125 193 " clip-rule="nonzero"/></clipPath><clipPath id="b2c9e0e33b"><path d="M 210.707031 41.886719 L 323.6875 243.757812 L 164.214844 333.011719 L 51.230469 131.144531 Z M 210.707031 41.886719 " clip-rule="nonzero"/></clipPath><clipPath id="7f986b9269"><path d="M 210.707031 41.886719 L 323.6875 243.757812 L 164.214844 333.011719 L 51.230469 131.144531 Z M 210.707031 41.886719 " clip-rule="nonzero"/></clipPath><clipPath id="83662f2147"><path d="M 210.707031 41.886719 L 323.6875 243.757812 L 164.214844 333.011719 L 51.230469 131.144531 Z M 210.707031 41.886719 " clip-rule="nonzero"/></clipPath><clipPath id="d75c6ebc26"><path d="M 115 191 L 155 191 L 155 235 L 115 235 Z M 115 191 " clip-rule="nonzero"/></clipPath><clipPath id="5b5d458702"><path d="M 210.707031 41.886719 L 323.6875 243.757812 L 164.214844 333.011719 L 51.230469 131.144531 Z M 210.707031 41.886719 " clip-rule="nonzero"/></clipPath><clipPath id="5e9537a2b2"><path d="M 210.707031 41.886719 L 323.6875 243.757812 L 164.214844 333.011719 L 51.230469 131.144531 Z M 210.707031 41.886719 " clip-rule="nonzero"/></clipPath><clipPath id="6232a669fa"><path d="M 210.707031 41.886719 L 323.6875 243.757812 L 164.214844 333.011719 L 51.230469 131.144531 Z M 210.707031 41.886719 " clip-rule="nonzero"/></clipPath><clipPath id="cd6fee751a"><path d="M 158 82 L 231 82 L 231 195 L 158 195 Z M 158 82 " clip-rule="nonzero"/></clipPath><clipPath id="1fa7733c46"><path d="M 210.707031 41.886719 L 323.6875 243.757812 L 164.214844 333.011719 L 51.230469 131.144531 Z M 210.707031 41.886719 " clip-rule="nonzero"/></clipPath><clipPath id="2c6ef2130a"><path d="M 210.707031 41.886719 L 323.6875 243.757812 L 164.214844 333.011719 L 51.230469 131.144531 Z M 210.707031 41.886719 " clip-rule="nonzero"/></clipPath><clipPath id="d368dd6cca"><path d="M 210.707031 41.886719 L 323.6875 243.757812 L 164.214844 333.011719 L 51.230469 131.144531 Z M 210.707031 41.886719 " clip-rule="nonzero"/></clipPath><clipPath id="444c530b90"><path d="M 181 193 L 248 193 L 248 273 L 181 273 Z M 181 193 " clip-rule="nonzero"/></clipPath><clipPath id="42d9c721f8"><path d="M 210.707031 41.886719 L 323.6875 243.757812 L 164.214844 333.011719 L 51.230469 131.144531 Z M 210.707031 41.886719 " clip-rule="nonzero"/></clipPath><clipPath id="f2815f17e0"><path d="M 210.707031 41.886719 L 323.6875 243.757812 L 164.214844 333.011719 L 51.230469 131.144531 Z M 210.707031 41.886719 " clip-rule="nonzero"/></clipPath><clipPath id="bee8ca8b2e"><path d="M 210.707031 41.886719 L 323.6875 243.757812 L 164.214844 333.011719 L 51.230469 131.144531 Z M 210.707031 41.886719 " clip-rule="nonzero"/></clipPath><clipPath id="d1b7c43681"><path d="M 153 229 L 231 229 L 231 301 L 153 301 Z M 153 229 " clip-rule="nonzero"/></clipPath><clipPath id="fa0ca617fa"><path d="M 210.707031 41.886719 L 323.6875 243.757812 L 164.214844 333.011719 L 51.230469 131.144531 Z M 210.707031 41.886719 " clip-rule="nonzero"/></clipPath><clipPath id="b1293c23ba"><path d="M 210.707031 41.886719 L 323.6875 243.757812 L 164.214844 333.011719 L 51.230469 131.144531 Z M 210.707031 41.886719 " clip-rule="nonzero"/></clipPath><clipPath id="14d50fe2ed"><path d="M 210.707031 41.886719 L 323.6875 243.757812 L 164.214844 333.011719 L 51.230469 131.144531 Z M 210.707031 41.886719 " clip-rule="nonzero"/></clipPath><clipPath id="92a4f17b21"><path d="M 138 163 L 163 163 L 163 206 L 138 206 Z M 138 163 " clip-rule="nonzero"/></clipPath><clipPath id="b4a2df8d47"><path d="M 210.707031 41.886719 L 323.6875 243.757812 L 164.214844 333.011719 L 51.230469 131.144531 Z M 210.707031 41.886719 " clip-rule="nonzero"/></clipPath><clipPath id="a5d771a266"><path d="M 210.707031 41.886719 L 323.6875 243.757812 L 164.214844 333.011719 L 51.230469 131.144531 Z M 210.707031 41.886719 " clip-rule="nonzero"/></clipPath><clipPath id="f00f19f5fc"><path d="M 210.707031 41.886719 L 323.6875 243.757812 L 164.214844 333.011719 L 51.230469 131.144531 Z M 210.707031 41.886719 " clip-rule="nonzero"/></clipPath><clipPath id="37c53de427"><path d="M 119 191 L 139 191 L 139 220 L 119 220 Z M 119 191 " clip-rule="nonzero"/></clipPath><clipPath id="19720798a0"><path d="M 210.707031 41.886719 L 323.6875 243.757812 L 164.214844 333.011719 L 51.230469 131.144531 Z M 210.707031 41.886719 " clip-rule="nonzero"/></clipPath><clipPath id="5e8f32c929"><path d="M 210.707031 41.886719 L 323.6875 243.757812 L 164.214844 333.011719 L 51.230469 131.144531 Z M 210.707031 41.886719 " clip-rule="nonzero"/></clipPath><clipPath id="41b7274ef4"><path d="M 210.707031 41.886719 L 323.6875 243.757812 L 164.214844 333.011719 L 51.230469 131.144531 Z M 210.707031 41.886719 " clip-rule="nonzero"/></clipPath><clipPath id="8722145ba2"><path d="M 376 164.101562 L 448.609375 164.101562 L 448.609375 265.546875 L 376 265.546875 Z M 376 164.101562 " clip-rule="nonzero"/></clipPath><clipPath id="ffd0041bb0"><path d="M 347.429688 90.9375 L 435.945312 90.9375 L 435.945312 284.308594 L 347.429688 284.308594 Z M 347.429688 90.9375 " clip-rule="nonzero"/></clipPath></defs><g clip-path="url(#cac3dd10eb)"><g clip-path="url(#c355e8b2a0)"><path fill="#ffde59" d="M 412.238281 0.117188 L 787 0.117188 L 787 374.882812 L 412.238281 374.882812 Z M 412.238281 0.117188 " fill-opacity="1" fill-rule="nonzero"/></g></g><g clip-path="url(#a7a3059bca)"><g clip-path="url(#1129eed1af)"><g clip-path="url(#732a293383)"><g clip-path="url(#e525abec45)"><path fill="#232323" d="M 552.316406 92.941406 C 550.375 98.894531 550.3125 104.832031 550.667969 111.015625 C 551.605469 126.761719 554.871094 142.34375 560.867188 156.960938 C 553.65625 158.308594 546.425781 162.304688 542.058594 168.28125 C 538.566406 173.109375 538.429688 179.007812 538.691406 184.722656 C 531.738281 187.824219 526.640625 193.417969 522.902344 199.921875 C 520.652344 203.984375 519.695312 208.632812 520.726562 213.214844 C 522.21875 220.445312 526.644531 226.773438 530.46875 232.769531 C 530.03125 238.355469 530.097656 243.867188 531.789062 249.277344 C 533.796875 255.546875 536.78125 262.101562 541.3125 266.953125 C 545.578125 271.542969 550.734375 275.222656 556.613281 277.429688 C 555.511719 282.589844 555.542969 287.761719 558 292.558594 C 561.386719 299.839844 567.867188 304.558594 575.160156 307.425781 C 586.515625 311.785156 599.390625 311.890625 611.140625 309.167969 C 622.160156 306.605469 633.199219 301.269531 641.109375 293.054688 C 646.457031 287.492188 650.398438 280.398438 650.5 272.511719 C 650.582031 269.09375 649.660156 265.929688 648.558594 262.734375 C 654.96875 257.371094 659.820312 250.597656 663.632812 243.203125 C 668.152344 234.542969 669.878906 224.601562 668.109375 214.953125 C 666.675781 206.101562 662.054688 197.929688 655.078125 192.269531 C 652.398438 190.109375 649.488281 188.609375 646.464844 187.011719 C 646.734375 182.820312 646.328125 178.71875 646.179688 174.53125 C 645.5 159.3125 646.566406 143.917969 648.378906 128.808594 C 649.332031 121.304688 649.960938 113.777344 650.535156 106.230469 C 651.34375 100.128906 650.988281 94.035156 648.292969 88.402344 C 645.324219 81.855469 639.558594 76.730469 632.550781 74.984375 C 625.675781 73.175781 618.316406 74.886719 612.726562 79.226562 C 609.542969 81.804688 606.296875 84.714844 604.921875 88.695312 C 602.792969 94.894531 601.460938 101.296875 600.78125 107.808594 C 600.339844 111.605469 600.273438 115.441406 599.792969 119.226562 C 598.261719 109.796875 598.28125 100.097656 597.277344 90.59375 C 596.613281 85.570312 594.894531 80.785156 591.445312 76.980469 C 588.296875 73.210938 583.601562 70.933594 578.691406 70.839844 C 573.160156 70.738281 567.558594 72.894531 563.296875 76.367188 C 558.113281 80.695312 554.324219 86.503906 552.316406 92.941406 Z M 552.316406 92.941406 " fill-opacity="1" fill-rule="nonzero"/></g></g></g></g><g clip-path="url(#d661298aff)"><g clip-path="url(#9b736c8499)"><g clip-path="url(#9922f5a63d)"><g clip-path="url(#769306d9ae)"><path fill="#ababab" d="M 558.816406 106.363281 C 559.222656 121.332031 561.910156 136.171875 566.773438 150.335938 C 569.722656 160.121094 574.046875 169.34375 577.355469 178.972656 C 573.460938 174.011719 571.792969 168.707031 566.257812 165.042969 C 564.0625 163.976562 561.652344 163.417969 559.238281 164.027344 C 554.414062 165.988281 548.699219 169.183594 546.378906 174.109375 C 544.5625 178.460938 544.984375 183.929688 545.730469 188.492188 C 547.09375 195.269531 549.121094 202.007812 552 208.296875 C 554.210938 213.144531 558.988281 215.117188 563.5 217.238281 C 567.792969 219.082031 572.066406 221.003906 576.785156 219.402344 C 578.242188 218.828125 580.761719 218.132812 581.484375 216.644531 C 581.390625 214.320312 580.640625 211.738281 581.136719 209.445312 C 581.816406 206.433594 583.804688 203.449219 584.898438 200.625 C 585.878906 198.953125 583.953125 196.777344 583.167969 195.335938 C 580.875 191.726562 577.480469 190.988281 573.910156 189.226562 C 576.34375 189.050781 578.742188 189.097656 581.101562 189.757812 C 584.753906 190.707031 587.71875 193.175781 590.503906 195.605469 C 591.203125 195.285156 591.902344 194.96875 592.585938 194.648438 C 599.863281 191.144531 608.578125 189.753906 616.394531 187.648438 C 623.699219 185.722656 630.96875 184.238281 638.570312 184.929688 C 636.507812 166.097656 637.597656 147.453125 639.828125 128.703125 C 641.039062 118.957031 642.082031 109.109375 642.375 99.28125 C 642.539062 95.59375 641.398438 91.992188 639.351562 88.933594 C 637.328125 85.863281 634.628906 83.449219 630.859375 83.019531 C 622.617188 82.183594 614.722656 87.085938 611.332031 94.570312 C 609.175781 99.449219 608.691406 105.195312 608.097656 110.457031 C 607.054688 122.324219 606.679688 134.355469 607.464844 146.246094 C 608.042969 156.464844 609.5625 166.597656 610.136719 176.804688 C 612.816406 177.058594 615.4375 177.367188 617.976562 178.324219 C 611.699219 181.238281 604.398438 182.285156 597.519531 182.015625 C 599.882812 180.1875 602.570312 179.132812 605.332031 178.066406 C 604.15625 172.894531 602.195312 168.007812 600.8125 162.90625 C 595.34375 143.9375 592.886719 123.527344 591.035156 103.898438 C 590.480469 98.894531 591.0625 93.65625 588.703125 89.210938 C 587.292969 86.3125 584.992188 84.164062 582.234375 82.582031 C 574.804688 78.257812 564.644531 82.851562 561.171875 90.21875 C 558.554688 95.019531 558.847656 101.03125 558.816406 106.363281 Z M 558.816406 106.363281 " fill-opacity="1" fill-rule="nonzero"/></g></g></g></g><g clip-path="url(#2ecc7ae094)"><g clip-path="url(#e266ca256d)"><g clip-path="url(#e841edfa03)"><g clip-path="url(#36a1b8923d)"><path fill="#ababab" d="M 642.554688 272.015625 C 642.515625 271.1875 642.457031 270.359375 642.390625 269.527344 C 633.210938 275.589844 622.066406 278.316406 611.230469 275.796875 C 615.230469 274.605469 619.328125 274.183594 623.207031 272.527344 C 633.496094 268.59375 641.929688 261.070312 648.25 252.183594 C 653.152344 244.800781 658.121094 237.046875 659.539062 228.136719 C 660.878906 219.59375 659.25 209.839844 653.683594 203.023438 C 649.34375 197.367188 642.363281 193.355469 635.191406 193.058594 C 628.585938 192.730469 621.503906 194.789062 615.105469 196.300781 C 608.316406 197.984375 601.074219 199.242188 594.71875 202.070312 C 592.054688 203.617188 589.914062 205.78125 588.890625 208.730469 C 586.976562 213.453125 589.660156 219.363281 593.261719 222.527344 C 598.621094 227.113281 606.378906 229.132812 613.277344 229.710938 C 621.402344 230.351562 628.742188 228.234375 636.464844 226.109375 C 633.203125 228.894531 629.613281 230.738281 625.464844 231.832031 C 616.6875 234.140625 608.339844 237.71875 600.902344 242.949219 C 597.035156 245.710938 593.800781 249.433594 589.742188 251.863281 C 590.714844 248.679688 591.027344 245.734375 592.859375 242.875 C 595.046875 239.328125 598.160156 237.160156 601.527344 234.851562 C 597.320312 233.789062 593.441406 232.109375 590.113281 229.273438 C 587.824219 227.296875 585.996094 224.96875 584.191406 222.570312 C 580.113281 224.554688 576.621094 225.550781 572.113281 225.882812 C 569.175781 231.300781 564.882812 237.199219 559.28125 240 C 552.554688 242.636719 544.332031 241.289062 537.898438 238.328125 C 538.136719 245.613281 540.585938 252.507812 544.160156 258.796875 C 548.023438 264.824219 553.847656 270.152344 560.652344 272.597656 C 567.15625 274.84375 573.636719 275.300781 580.429688 275.632812 C 575.070312 279.136719 569.285156 279.320312 563.121094 279.136719 C 563.21875 283.347656 563.425781 287.246094 565.894531 290.863281 C 570.199219 297.304688 577.992188 300.636719 585.34375 302.109375 C 593.832031 303.703125 602.960938 303.300781 611.25 300.859375 C 619.546875 298.917969 627.617188 294.992188 633.933594 289.238281 C 638.746094 284.765625 642.710938 278.832031 642.554688 272.015625 Z M 642.554688 272.015625 " fill-opacity="1" fill-rule="nonzero"/></g></g></g></g><g clip-path="url(#386444eea3)"><g clip-path="url(#f67928fd25)"><g clip-path="url(#3c2cc55ebf)"><g clip-path="url(#a5b2b71956)"><path fill="#ababab" d="M 550.546875 216.199219 C 547.558594 213.636719 545.9375 209.898438 544.355469 206.382812 C 542.285156 201.683594 541.109375 196.820312 539.714844 191.894531 C 536.828125 194.144531 534.207031 196.621094 531.992188 199.542969 C 529.617188 202.671875 527.082031 206.289062 527.5625 210.4375 C 528.121094 214.726562 530.582031 219 532.679688 222.726562 C 536.0625 228.625 541.382812 233.292969 548.230469 234.460938 C 551.519531 234.980469 555.816406 235.394531 558.644531 233.28125 C 561.804688 231.023438 564.378906 227.746094 566.5 224.515625 C 560.890625 221.933594 555.402344 220.214844 550.546875 216.199219 Z M 550.546875 216.199219 " fill-opacity="1" fill-rule="nonzero"/></g></g></g></g><g clip-path="url(#d2865a21d5)"><g clip-path="url(#d80e9d44b2)"><g clip-path="url(#452fa78c46)"><g clip-path="url(#3efb08c203)"><path fill="#ffffff" d="M 574.992188 87.195312 C 571.113281 93.253906 570.324219 101.476562 570.558594 108.523438 C 571.019531 119.871094 572.917969 131.296875 575.457031 142.355469 C 578.199219 154.320312 581.511719 166.277344 585.878906 177.753906 C 587.996094 183.457031 590.796875 188.816406 592.585938 194.648438 C 599.863281 191.144531 608.578125 189.753906 616.394531 187.648438 C 623.699219 185.722656 630.96875 184.238281 638.570312 184.929688 C 636.507812 166.097656 637.597656 147.453125 639.828125 128.703125 C 641.039062 118.957031 642.082031 109.109375 642.375 99.28125 C 642.539062 95.59375 641.398438 91.992188 639.351562 88.933594 C 637.164062 88.105469 634.066406 86.648438 631.734375 87.472656 C 628.675781 88.796875 626.480469 92.070312 625.03125 94.96875 C 621.355469 102.359375 620.074219 111.203125 619.003906 119.332031 C 617.585938 131.234375 617.300781 143.308594 617.050781 155.292969 C 617.058594 160.175781 616.992188 165.394531 618.289062 170.136719 C 619.566406 174.484375 622.371094 177.707031 625.144531 181.160156 C 621.15625 182.308594 617.132812 183.222656 612.980469 183.496094 C 606.929688 183.890625 601.285156 184.535156 595.261719 183.964844 C 596.003906 183.308594 596.746094 182.648438 597.519531 182.015625 C 599.882812 180.1875 602.570312 179.132812 605.332031 178.066406 C 604.15625 172.894531 602.195312 168.007812 600.8125 162.90625 C 595.34375 143.9375 592.886719 123.527344 591.035156 103.898438 C 590.480469 98.894531 591.0625 93.65625 588.703125 89.210938 C 587.292969 86.3125 584.992188 84.164062 582.234375 82.582031 C 579.445312 83.808594 576.699219 84.421875 574.992188 87.195312 Z M 574.992188 87.195312 " fill-opacity="1" fill-rule="nonzero"/></g></g></g></g><g clip-path="url(#f3d0c82e53)"><g clip-path="url(#e74e1bcd4b)"><g clip-path="url(#e2043e3b3c)"><g clip-path="url(#34da9426ee)"><path fill="#ffffff" d="M 594.71875 202.070312 C 594.25 205.847656 593.5 209.25 595.917969 212.617188 C 599.601562 217.894531 606.003906 219.230469 611.996094 219.871094 C 620.835938 220.882812 629.300781 219.371094 637.890625 217.472656 C 639.042969 219.304688 640.109375 220.984375 640.101562 223.226562 C 640.113281 226.136719 638.417969 228.316406 636.488281 230.308594 C 631.195312 235.621094 623.996094 239.324219 618.527344 243.804688 C 614.753906 246.9375 611.289062 250.992188 610.339844 255.945312 C 609.464844 260.269531 610.875 264.917969 614.097656 267.960938 C 616.648438 270.410156 619.960938 271.386719 623.207031 272.527344 C 633.496094 268.59375 641.929688 261.070312 648.25 252.183594 C 653.152344 244.800781 658.121094 237.046875 659.539062 228.136719 C 660.878906 219.59375 659.25 209.839844 653.683594 203.023438 C 649.34375 197.367188 642.363281 193.355469 635.191406 193.058594 C 628.585938 192.730469 621.503906 194.789062 615.105469 196.300781 C 608.316406 197.984375 601.074219 199.242188 594.71875 202.070312 Z M 594.71875 202.070312 " fill-opacity="1" fill-rule="nonzero"/></g></g></g></g><g clip-path="url(#0f3ac6b24f)"><g clip-path="url(#daf258b9bc)"><g clip-path="url(#1a47cbcbe7)"><g clip-path="url(#ddfee082a9)"><path fill="#ffffff" d="M 602.335938 272.671875 C 596.769531 270.628906 591.738281 266.835938 589.621094 261.121094 C 588.453125 258.042969 588.757812 254.925781 589.742188 251.863281 C 590.714844 248.679688 591.027344 245.734375 592.859375 242.875 C 595.046875 239.328125 598.160156 237.160156 601.527344 234.851562 C 597.320312 233.789062 593.441406 232.109375 590.113281 229.273438 C 584.21875 229.089844 578.523438 230.152344 573.792969 233.867188 C 564.855469 240.25 563.417969 253.867188 569.265625 262.78125 C 572.953125 268.886719 578.917969 272.375 585.847656 273.546875 C 583.371094 276.789062 580.921875 279.832031 580.976562 284.140625 C 581.058594 289.453125 585.015625 293.585938 589.339844 296.144531 C 596.0625 300.140625 603.644531 300.582031 611.25 300.859375 C 619.546875 298.917969 627.617188 294.992188 633.933594 289.238281 C 638.746094 284.765625 642.710938 278.832031 642.554688 272.015625 C 642.515625 271.1875 642.457031 270.359375 642.390625 269.527344 C 633.210938 275.589844 622.066406 278.316406 611.230469 275.796875 C 608.167969 275.277344 605.265625 273.691406 602.335938 272.671875 Z M 602.335938 272.671875 " fill-opacity="1" fill-rule="nonzero"/></g></g></g></g><g clip-path="url(#289102f6cc)"><g clip-path="url(#43f2e680c0)"><g clip-path="url(#9daac312f0)"><g clip-path="url(#7586a024c8)"><path fill="#ffffff" d="M 551.574219 170.386719 C 549.453125 180.910156 552.101562 192.546875 559.515625 200.5 C 561.957031 203.09375 565 205.234375 568.714844 205.0625 C 572.132812 204.957031 574.777344 201.679688 574.90625 198.40625 C 574.785156 196.285156 573.382812 194.152344 572.480469 192.269531 C 569.839844 187.375 568.089844 182 567.160156 176.515625 C 566.511719 172.695312 566.679688 168.882812 566.257812 165.042969 C 564.0625 163.976562 561.652344 163.417969 559.238281 164.027344 C 556.675781 165.433594 552.003906 167.074219 551.574219 170.386719 Z M 551.574219 170.386719 " fill-opacity="1" fill-rule="nonzero"/></g></g></g></g><g clip-path="url(#254edd8440)"><g clip-path="url(#4097f1cf74)"><g clip-path="url(#aff561c26d)"><g clip-path="url(#39c84fff17)"><path fill="#ffffff" d="M 535.878906 211.90625 C 537.871094 215.207031 540.9375 218.816406 544.839844 219.796875 C 546.960938 220.382812 549.125 219.289062 551.109375 218.628906 C 550.925781 217.8125 550.734375 217.003906 550.546875 216.199219 C 547.558594 213.636719 545.9375 209.898438 544.355469 206.382812 C 542.285156 201.683594 541.109375 196.820312 539.714844 191.894531 C 536.828125 194.144531 534.207031 196.621094 531.992188 199.542969 C 532.730469 203.90625 533.511719 208.066406 535.878906 211.90625 Z M 535.878906 211.90625 " fill-opacity="1" fill-rule="nonzero"/></g></g></g></g><g clip-path="url(#f4122ae566)"><g clip-path="url(#d5ba88e0d8)"><path fill="#fa0644" d="M 0 0.117188 L 374.761719 0.117188 L 374.761719 374.882812 L 0 374.882812 Z M 0 0.117188 " fill-opacity="1" fill-rule="nonzero"/></g></g><g clip-path="url(#7e1a2e1bde)"><g clip-path="url(#cca2d5c1a1)"><g clip-path="url(#05e2ea83d2)"><g clip-path="url(#03d87a0bd6)"><path fill="#232323" d="M 140.078125 92.941406 C 138.136719 98.894531 138.074219 104.832031 138.429688 111.015625 C 139.367188 126.761719 142.632812 142.34375 148.628906 156.960938 C 141.417969 158.308594 134.1875 162.304688 129.820312 168.28125 C 126.328125 173.109375 126.191406 179.007812 126.453125 184.722656 C 119.5 187.824219 114.402344 193.417969 110.664062 199.921875 C 108.414062 203.984375 107.457031 208.632812 108.488281 213.214844 C 109.980469 220.445312 114.40625 226.773438 118.230469 232.769531 C 117.792969 238.355469 117.859375 243.867188 119.550781 249.277344 C 121.558594 255.546875 124.542969 262.101562 129.074219 266.953125 C 133.339844 271.542969 138.496094 275.222656 144.375 277.429688 C 143.273438 282.589844 143.304688 287.761719 145.761719 292.558594 C 149.148438 299.839844 155.628906 304.558594 162.921875 307.425781 C 174.277344 311.785156 187.152344 311.890625 198.902344 309.167969 C 209.921875 306.605469 220.960938 301.269531 228.871094 293.054688 C 234.21875 287.492188 238.160156 280.398438 238.261719 272.511719 C 238.34375 269.09375 237.421875 265.929688 236.320312 262.734375 C 242.730469 257.371094 247.582031 250.597656 251.398438 243.203125 C 255.914062 234.542969 257.640625 224.601562 255.871094 214.953125 C 254.4375 206.101562 249.816406 197.929688 242.839844 192.269531 C 240.160156 190.109375 237.25 188.609375 234.226562 187.011719 C 234.496094 182.820312 234.089844 178.71875 233.941406 174.53125 C 233.261719 159.3125 234.328125 143.917969 236.140625 128.808594 C 237.09375 121.304688 237.722656 113.777344 238.296875 106.230469 C 239.105469 100.128906 238.75 94.035156 236.054688 88.402344 C 233.085938 81.855469 227.320312 76.730469 220.3125 74.984375 C 213.4375 73.175781 206.078125 74.886719 200.488281 79.226562 C 197.304688 81.804688 194.058594 84.714844 192.683594 88.695312 C 190.554688 94.894531 189.222656 101.296875 188.542969 107.808594 C 188.101562 111.605469 188.035156 115.441406 187.554688 119.226562 C 186.023438 109.796875 186.042969 100.097656 185.039062 90.59375 C 184.375 85.570312 182.65625 80.785156 179.207031 76.980469 C 176.058594 73.210938 171.363281 70.933594 166.453125 70.839844 C 160.921875 70.738281 155.320312 72.894531 151.058594 76.367188 C 145.875 80.695312 142.085938 86.503906 140.078125 92.941406 Z M 140.078125 92.941406 " fill-opacity="1" fill-rule="nonzero"/></g></g></g></g><g clip-path="url(#cf30bb931e)"><g clip-path="url(#660a4ff79a)"><g clip-path="url(#0422c3d358)"><g clip-path="url(#6b9d7d8643)"><path fill="#ababab" d="M 146.578125 106.363281 C 146.984375 121.332031 149.671875 136.171875 154.539062 150.335938 C 157.484375 160.121094 161.808594 169.34375 165.117188 178.972656 C 161.222656 174.011719 159.554688 168.707031 154.019531 165.042969 C 151.824219 163.976562 149.414062 163.417969 147 164.027344 C 142.175781 165.988281 136.460938 169.183594 134.140625 174.109375 C 132.324219 178.460938 132.746094 183.929688 133.492188 188.492188 C 134.855469 195.269531 136.882812 202.007812 139.761719 208.296875 C 141.972656 213.144531 146.75 215.117188 151.261719 217.238281 C 155.554688 219.082031 159.828125 221.003906 164.546875 219.402344 C 166.003906 218.828125 168.523438 218.132812 169.246094 216.644531 C 169.152344 214.320312 168.402344 211.738281 168.898438 209.445312 C 169.578125 206.433594 171.566406 203.449219 172.660156 200.625 C 173.640625 198.953125 171.714844 196.777344 170.929688 195.335938 C 168.636719 191.726562 165.242188 190.988281 161.671875 189.226562 C 164.105469 189.050781 166.503906 189.097656 168.863281 189.757812 C 172.515625 190.707031 175.480469 193.175781 178.265625 195.605469 C 178.964844 195.285156 179.664062 194.96875 180.347656 194.648438 C 187.628906 191.144531 196.339844 189.753906 204.15625 187.648438 C 211.460938 185.722656 218.730469 184.238281 226.332031 184.929688 C 224.273438 166.097656 225.359375 147.453125 227.589844 128.703125 C 228.800781 118.957031 229.84375 109.109375 230.136719 99.28125 C 230.300781 95.59375 229.160156 91.992188 227.113281 88.933594 C 225.089844 85.863281 222.390625 83.449219 218.621094 83.019531 C 210.378906 82.183594 202.484375 87.085938 199.09375 94.570312 C 196.9375 99.449219 196.453125 105.195312 195.859375 110.457031 C 194.816406 122.324219 194.441406 134.355469 195.226562 146.246094 C 195.804688 156.464844 197.324219 166.597656 197.898438 176.804688 C 200.578125 177.058594 203.199219 177.367188 205.738281 178.324219 C 199.460938 181.238281 192.160156 182.285156 185.28125 182.015625 C 187.644531 180.1875 190.332031 179.132812 193.097656 178.066406 C 191.917969 172.894531 189.957031 168.007812 188.574219 162.90625 C 183.105469 143.9375 180.648438 123.527344 178.796875 103.898438 C 178.242188 98.894531 178.824219 93.65625 176.464844 89.210938 C 175.058594 86.3125 172.753906 84.164062 169.996094 82.582031 C 162.566406 78.257812 152.40625 82.851562 148.933594 90.21875 C 146.316406 95.019531 146.609375 101.03125 146.578125 106.363281 Z M 146.578125 106.363281 " fill-opacity="1" fill-rule="nonzero"/></g></g></g></g><g clip-path="url(#6ea04f593e)"><g clip-path="url(#b2c9e0e33b)"><g clip-path="url(#7f986b9269)"><g clip-path="url(#83662f2147)"><path fill="#ababab" d="M 230.316406 272.015625 C 230.277344 271.1875 230.21875 270.359375 230.152344 269.527344 C 220.972656 275.589844 209.828125 278.316406 198.992188 275.796875 C 202.992188 274.605469 207.089844 274.183594 210.96875 272.527344 C 221.257812 268.59375 229.691406 261.070312 236.011719 252.183594 C 240.914062 244.800781 245.882812 237.046875 247.300781 228.136719 C 248.640625 219.59375 247.011719 209.839844 241.445312 203.023438 C 237.105469 197.367188 230.125 193.355469 222.953125 193.058594 C 216.347656 192.730469 209.265625 194.789062 202.867188 196.300781 C 196.078125 197.984375 188.835938 199.242188 182.480469 202.070312 C 179.816406 203.617188 177.675781 205.78125 176.652344 208.730469 C 174.738281 213.453125 177.421875 219.363281 181.023438 222.527344 C 186.382812 227.113281 194.140625 229.132812 201.039062 229.710938 C 209.164062 230.351562 216.503906 228.234375 224.226562 226.109375 C 220.964844 228.894531 217.375 230.738281 213.226562 231.832031 C 204.449219 234.140625 196.101562 237.71875 188.664062 242.949219 C 184.796875 245.710938 181.5625 249.433594 177.503906 251.863281 C 178.476562 248.679688 178.789062 245.734375 180.621094 242.875 C 182.808594 239.328125 185.921875 237.160156 189.289062 234.851562 C 185.082031 233.789062 181.203125 232.109375 177.875 229.273438 C 175.585938 227.296875 173.757812 224.96875 171.953125 222.570312 C 167.875 224.554688 164.382812 225.550781 159.875 225.882812 C 156.9375 231.300781 152.644531 237.199219 147.042969 240 C 140.316406 242.636719 132.09375 241.289062 125.660156 238.328125 C 125.898438 245.613281 128.347656 252.507812 131.921875 258.796875 C 135.785156 264.824219 141.609375 270.152344 148.417969 272.597656 C 154.917969 274.84375 161.398438 275.300781 168.191406 275.632812 C 162.832031 279.136719 157.046875 279.320312 150.882812 279.136719 C 150.980469 283.347656 151.1875 287.246094 153.65625 290.863281 C 157.960938 297.304688 165.753906 300.636719 173.105469 302.109375 C 181.59375 303.703125 190.722656 303.300781 199.011719 300.859375 C 207.308594 298.917969 215.378906 294.992188 221.695312 289.238281 C 226.507812 284.765625 230.472656 278.832031 230.316406 272.015625 Z M 230.316406 272.015625 " fill-opacity="1" fill-rule="nonzero"/></g></g></g></g><g clip-path="url(#d75c6ebc26)"><g clip-path="url(#5b5d458702)"><g clip-path="url(#5e9537a2b2)"><g clip-path="url(#6232a669fa)"><path fill="#ababab" d="M 138.308594 216.199219 C 135.320312 213.636719 133.699219 209.898438 132.117188 206.382812 C 130.046875 201.683594 128.871094 196.820312 127.476562 191.894531 C 124.589844 194.144531 121.96875 196.621094 119.753906 199.542969 C 117.378906 202.671875 114.84375 206.289062 115.324219 210.4375 C 115.882812 214.726562 118.34375 219 120.441406 222.726562 C 123.824219 228.625 129.144531 233.292969 135.992188 234.460938 C 139.28125 234.980469 143.578125 235.394531 146.40625 233.28125 C 149.566406 231.023438 152.140625 227.746094 154.261719 224.515625 C 148.652344 221.933594 143.164062 220.214844 138.308594 216.199219 Z M 138.308594 216.199219 " fill-opacity="1" fill-rule="nonzero"/></g></g></g></g><g clip-path="url(#cd6fee751a)"><g clip-path="url(#1fa7733c46)"><g clip-path="url(#2c6ef2130a)"><g clip-path="url(#d368dd6cca)"><path fill="#ffffff" d="M 162.753906 87.195312 C 158.875 93.253906 158.085938 101.476562 158.320312 108.523438 C 158.78125 119.871094 160.679688 131.296875 163.21875 142.355469 C 165.960938 154.320312 169.273438 166.277344 173.640625 177.753906 C 175.757812 183.457031 178.558594 188.816406 180.347656 194.648438 C 187.628906 191.144531 196.339844 189.753906 204.15625 187.648438 C 211.460938 185.722656 218.730469 184.238281 226.332031 184.929688 C 224.269531 166.097656 225.359375 147.453125 227.589844 128.703125 C 228.800781 118.957031 229.84375 109.109375 230.136719 99.28125 C 230.300781 95.59375 229.160156 91.992188 227.113281 88.933594 C 224.925781 88.105469 221.828125 86.648438 219.496094 87.472656 C 216.4375 88.796875 214.242188 92.070312 212.792969 94.96875 C 209.117188 102.359375 207.835938 111.203125 206.765625 119.332031 C 205.347656 131.234375 205.0625 143.308594 204.8125 155.292969 C 204.820312 160.175781 204.753906 165.394531 206.050781 170.136719 C 207.328125 174.484375 210.132812 177.707031 212.90625 181.160156 C 208.917969 182.308594 204.894531 183.222656 200.742188 183.496094 C 194.691406 183.890625 189.050781 184.535156 183.023438 183.964844 C 183.765625 183.308594 184.507812 182.648438 185.28125 182.015625 C 187.644531 180.1875 190.332031 179.132812 193.097656 178.066406 C 191.917969 172.894531 189.957031 168.007812 188.574219 162.90625 C 183.105469 143.9375 180.648438 123.527344 178.796875 103.898438 C 178.242188 98.894531 178.824219 93.65625 176.464844 89.210938 C 175.058594 86.3125 172.753906 84.164062 169.996094 82.582031 C 167.207031 83.808594 164.460938 84.421875 162.753906 87.195312 Z M 162.753906 87.195312 " fill-opacity="1" fill-rule="nonzero"/></g></g></g></g><g clip-path="url(#444c530b90)"><g clip-path="url(#42d9c721f8)"><g clip-path="url(#f2815f17e0)"><g clip-path="url(#bee8ca8b2e)"><path fill="#ffffff" d="M 182.480469 202.070312 C 182.011719 205.847656 181.261719 209.25 183.679688 212.617188 C 187.363281 217.894531 193.765625 219.230469 199.757812 219.871094 C 208.597656 220.882812 217.0625 219.371094 225.652344 217.472656 C 226.804688 219.304688 227.871094 220.984375 227.863281 223.226562 C 227.875 226.136719 226.179688 228.316406 224.25 230.308594 C 218.957031 235.621094 211.757812 239.324219 206.289062 243.804688 C 202.515625 246.9375 199.050781 250.992188 198.101562 255.945312 C 197.226562 260.269531 198.636719 264.917969 201.859375 267.960938 C 204.410156 270.410156 207.722656 271.386719 210.96875 272.527344 C 221.257812 268.59375 229.691406 261.070312 236.011719 252.183594 C 240.914062 244.800781 245.882812 237.046875 247.300781 228.136719 C 248.640625 219.59375 247.011719 209.839844 241.445312 203.023438 C 237.105469 197.367188 230.125 193.355469 222.953125 193.058594 C 216.347656 192.730469 209.265625 194.789062 202.867188 196.300781 C 196.078125 197.984375 188.835938 199.242188 182.480469 202.070312 Z M 182.480469 202.070312 " fill-opacity="1" fill-rule="nonzero"/></g></g></g></g><g clip-path="url(#d1b7c43681)"><g clip-path="url(#fa0ca617fa)"><g clip-path="url(#b1293c23ba)"><g clip-path="url(#14d50fe2ed)"><path fill="#ffffff" d="M 190.097656 272.671875 C 184.53125 270.628906 179.5 266.835938 177.382812 261.121094 C 176.214844 258.042969 176.519531 254.925781 177.503906 251.863281 C 178.476562 248.679688 178.789062 245.734375 180.621094 242.875 C 182.808594 239.328125 185.921875 237.160156 189.289062 234.851562 C 185.082031 233.789062 181.203125 232.109375 177.875 229.273438 C 171.980469 229.089844 166.285156 230.152344 161.554688 233.867188 C 152.617188 240.25 151.179688 253.867188 157.027344 262.78125 C 160.714844 268.886719 166.679688 272.375 173.609375 273.546875 C 171.132812 276.789062 168.683594 279.832031 168.738281 284.140625 C 168.820312 289.453125 172.777344 293.585938 177.101562 296.144531 C 183.824219 300.140625 191.40625 300.582031 199.011719 300.859375 C 207.308594 298.917969 215.378906 294.992188 221.695312 289.238281 C 226.507812 284.765625 230.472656 278.832031 230.316406 272.015625 C 230.277344 271.1875 230.21875 270.359375 230.152344 269.527344 C 220.972656 275.589844 209.828125 278.316406 198.992188 275.796875 C 195.929688 275.277344 193.027344 273.691406 190.097656 272.671875 Z M 190.097656 272.671875 " fill-opacity="1" fill-rule="nonzero"/></g></g></g></g><g clip-path="url(#92a4f17b21)"><g clip-path="url(#b4a2df8d47)"><g clip-path="url(#a5d771a266)"><g clip-path="url(#f00f19f5fc)"><path fill="#ffffff" d="M 139.335938 170.386719 C 137.214844 180.910156 139.863281 192.546875 147.277344 200.5 C 149.71875 203.09375 152.761719 205.234375 156.476562 205.0625 C 159.894531 204.957031 162.539062 201.679688 162.667969 198.40625 C 162.546875 196.285156 161.144531 194.152344 160.242188 192.269531 C 157.601562 187.375 155.851562 182 154.921875 176.515625 C 154.273438 172.695312 154.441406 168.882812 154.019531 165.042969 C 151.824219 163.976562 149.414062 163.417969 147 164.027344 C 144.4375 165.433594 139.765625 167.074219 139.335938 170.386719 Z M 139.335938 170.386719 " fill-opacity="1" fill-rule="nonzero"/></g></g></g></g><g clip-path="url(#37c53de427)"><g clip-path="url(#19720798a0)"><g clip-path="url(#5e8f32c929)"><g clip-path="url(#41b7274ef4)"><path fill="#ffffff" d="M 123.640625 211.90625 C 125.632812 215.207031 128.699219 218.816406 132.601562 219.796875 C 134.722656 220.382812 136.886719 219.289062 138.875 218.628906 C 138.6875 217.8125 138.496094 217.003906 138.308594 216.199219 C 135.320312 213.636719 133.699219 209.898438 132.117188 206.382812 C 130.046875 201.683594 128.871094 196.820312 127.476562 191.894531 C 124.589844 194.144531 121.96875 196.621094 119.753906 199.542969 C 120.492188 203.90625 121.273438 208.066406 123.640625 211.90625 Z M 123.640625 211.90625 " fill-opacity="1" fill-rule="nonzero"/></g></g></g></g><g clip-path="url(#8722145ba2)"><path fill="#000000" d="M 447.632812 193.378906 C 450.742188 178.371094 447.3125 164.140625 424.414062 164.140625 C 419.617188 164.140625 415.230469 164.808594 411.292969 166.0625 L 391.304688 210.996094 C 394.179688 214.980469 398.808594 218.535156 405.402344 222.347656 C 415.671875 228.238281 418.214844 232.214844 416.730469 238.980469 C 415.511719 244.53125 412.441406 248.921875 405.886719 248.921875 C 399.140625 248.921875 398.058594 243.398438 399.25 235.371094 L 376.964844 235.371094 C 373.800781 251.964844 378.121094 265.507812 402.019531 265.507812 C 424.078125 265.507812 436.402344 252.632812 439.949219 236.480469 C 443.558594 220.046875 437.519531 212.332031 421.308594 203.210938 C 411.785156 197.902344 410.226562 195.011719 411.457031 189.414062 C 412.648438 183.960938 415.609375 180.722656 420.632812 180.722656 C 427.042969 180.722656 427.015625 186.574219 425.898438 193.378906 L 447.632812 193.378906 " fill-opacity="1" fill-rule="nonzero"/></g><g clip-path="url(#ffd0041bb0)"><path fill="#000000" d="M 435.726562 90.9375 C 427.644531 106.664062 419.804688 122.515625 412.207031 138.480469 L 391.707031 138.480469 L 380.652344 167.664062 C 375.925781 180.050781 370.617188 193.183594 367.046875 204.832031 L 366.398438 204.832031 C 367.867188 193.546875 369 179.910156 369.648438 167.382812 L 371.554688 138.828125 L 347.617188 138.828125 L 347.429688 227.128906 L 372.96875 227.128906 C 365.203125 246.058594 357.765625 265.121094 350.660156 284.308594 C 382.835938 221.625 411.285156 157.03125 435.726562 90.9375 " fill-opacity="1" fill-rule="nonzero"/></g><g fill="#ffffff" fill-opacity="1"><g transform="translate(137.532985, 48.229952)"><g><path d="M 13.125 -10.46875 C 13.125 -9.570312 12.914062 -8.753906 12.5 -8.015625 C 12.09375 -7.273438 11.460938 -6.675781 10.609375 -6.21875 C 9.765625 -5.769531 8.710938 -5.546875 7.453125 -5.546875 L 5.125 -5.546875 L 5.125 0 L 1.359375 0 L 1.359375 -15.4375 L 7.453125 -15.4375 C 8.679688 -15.4375 9.71875 -15.222656 10.5625 -14.796875 C 11.414062 -14.367188 12.054688 -13.78125 12.484375 -13.03125 C 12.910156 -12.289062 13.125 -11.4375 13.125 -10.46875 Z M 7.171875 -8.53125 C 7.890625 -8.53125 8.421875 -8.695312 8.765625 -9.03125 C 9.117188 -9.375 9.296875 -9.851562 9.296875 -10.46875 C 9.296875 -11.082031 9.117188 -11.554688 8.765625 -11.890625 C 8.421875 -12.234375 7.890625 -12.40625 7.171875 -12.40625 L 5.125 -12.40625 L 5.125 -8.53125 Z M 7.171875 -8.53125 "/></g></g></g><g fill="#ffffff" fill-opacity="1"><g transform="translate(151.249826, 48.229952)"><g><path d="M 12.921875 -6.328125 C 12.921875 -5.972656 12.898438 -5.609375 12.859375 -5.234375 L 4.359375 -5.234375 C 4.410156 -4.472656 4.648438 -3.890625 5.078125 -3.484375 C 5.515625 -3.078125 6.050781 -2.875 6.6875 -2.875 C 7.625 -2.875 8.273438 -3.269531 8.640625 -4.0625 L 12.640625 -4.0625 C 12.429688 -3.257812 12.0625 -2.535156 11.53125 -1.890625 C 11 -1.242188 10.328125 -0.738281 9.515625 -0.375 C 8.710938 -0.0078125 7.8125 0.171875 6.8125 0.171875 C 5.613281 0.171875 4.546875 -0.0820312 3.609375 -0.59375 C 2.671875 -1.101562 1.9375 -1.832031 1.40625 -2.78125 C 0.875 -3.738281 0.609375 -4.859375 0.609375 -6.140625 C 0.609375 -7.410156 0.867188 -8.519531 1.390625 -9.46875 C 1.910156 -10.425781 2.640625 -11.160156 3.578125 -11.671875 C 4.515625 -12.179688 5.59375 -12.4375 6.8125 -12.4375 C 8 -12.4375 9.050781 -12.1875 9.96875 -11.6875 C 10.894531 -11.195312 11.617188 -10.488281 12.140625 -9.5625 C 12.660156 -8.632812 12.921875 -7.554688 12.921875 -6.328125 Z M 9.078125 -7.328125 C 9.078125 -7.960938 8.859375 -8.472656 8.421875 -8.859375 C 7.984375 -9.242188 7.429688 -9.4375 6.765625 -9.4375 C 6.140625 -9.4375 5.609375 -9.25 5.171875 -8.875 C 4.742188 -8.507812 4.476562 -7.992188 4.375 -7.328125 Z M 9.078125 -7.328125 "/></g></g></g><g fill="#ffffff" fill-opacity="1"><g transform="translate(164.790815, 48.229952)"><g><path d="M 17.015625 -12.40625 C 18.535156 -12.40625 19.742188 -11.941406 20.640625 -11.015625 C 21.546875 -10.085938 22 -8.804688 22 -7.171875 L 22 0 L 18.265625 0 L 18.265625 -6.65625 C 18.265625 -7.445312 18.054688 -8.054688 17.640625 -8.484375 C 17.222656 -8.921875 16.648438 -9.140625 15.921875 -9.140625 C 15.179688 -9.140625 14.601562 -8.921875 14.1875 -8.484375 C 13.769531 -8.054688 13.5625 -7.445312 13.5625 -6.65625 L 13.5625 0 L 9.828125 0 L 9.828125 -6.65625 C 9.828125 -7.445312 9.617188 -8.054688 9.203125 -8.484375 C 8.785156 -8.921875 8.207031 -9.140625 7.46875 -9.140625 C 6.738281 -9.140625 6.164062 -8.921875 5.75 -8.484375 C 5.332031 -8.054688 5.125 -7.445312 5.125 -6.65625 L 5.125 0 L 1.359375 0 L 1.359375 -12.265625 L 5.125 -12.265625 L 5.125 -10.734375 C 5.5 -11.242188 5.992188 -11.648438 6.609375 -11.953125 C 7.234375 -12.253906 7.929688 -12.40625 8.703125 -12.40625 C 9.628906 -12.40625 10.453125 -12.207031 11.171875 -11.8125 C 11.898438 -11.414062 12.472656 -10.847656 12.890625 -10.109375 C 13.304688 -10.785156 13.878906 -11.335938 14.609375 -11.765625 C 15.347656 -12.191406 16.148438 -12.40625 17.015625 -12.40625 Z M 17.015625 -12.40625 "/></g></g></g><g fill="#ffffff" fill-opacity="1"><g transform="translate(188.069888, 48.229952)"><g><path d="M 0.609375 -6.15625 C 0.609375 -7.414062 0.847656 -8.519531 1.328125 -9.46875 C 1.804688 -10.425781 2.453125 -11.160156 3.265625 -11.671875 C 4.085938 -12.179688 5.007812 -12.4375 6.03125 -12.4375 C 6.894531 -12.4375 7.648438 -12.257812 8.296875 -11.90625 C 8.953125 -11.5625 9.457031 -11.101562 9.8125 -10.53125 L 9.8125 -12.265625 L 13.5625 -12.265625 L 13.5625 0 L 9.8125 0 L 9.8125 -1.734375 C 9.4375 -1.160156 8.921875 -0.695312 8.265625 -0.34375 C 7.617188 0 6.863281 0.171875 6 0.171875 C 5 0.171875 4.085938 -0.0859375 3.265625 -0.609375 C 2.453125 -1.128906 1.804688 -1.867188 1.328125 -2.828125 C 0.847656 -3.785156 0.609375 -4.894531 0.609375 -6.15625 Z M 9.8125 -6.140625 C 9.8125 -7.078125 9.550781 -7.816406 9.03125 -8.359375 C 8.507812 -8.898438 7.875 -9.171875 7.125 -9.171875 C 6.375 -9.171875 5.738281 -8.898438 5.21875 -8.359375 C 4.695312 -7.828125 4.4375 -7.09375 4.4375 -6.15625 C 4.4375 -5.21875 4.695312 -4.472656 5.21875 -3.921875 C 5.738281 -3.367188 6.375 -3.09375 7.125 -3.09375 C 7.875 -3.09375 8.507812 -3.363281 9.03125 -3.90625 C 9.550781 -4.457031 9.8125 -5.203125 9.8125 -6.140625 Z M 9.8125 -6.140625 "/></g></g></g><g fill="#ffffff" fill-opacity="1"><g transform="translate(202.995751, 48.229952)"><g><path d="M 3.25 -13.546875 C 2.59375 -13.546875 2.054688 -13.738281 1.640625 -14.125 C 1.222656 -14.507812 1.015625 -14.988281 1.015625 -15.5625 C 1.015625 -16.144531 1.222656 -16.628906 1.640625 -17.015625 C 2.054688 -17.410156 2.59375 -17.609375 3.25 -17.609375 C 3.894531 -17.609375 4.425781 -17.410156 4.84375 -17.015625 C 5.257812 -16.628906 5.46875 -16.144531 5.46875 -15.5625 C 5.46875 -14.988281 5.257812 -14.507812 4.84375 -14.125 C 4.425781 -13.738281 3.894531 -13.546875 3.25 -13.546875 Z M 5.125 -12.265625 L 5.125 0 L 1.359375 0 L 1.359375 -12.265625 Z M 5.125 -12.265625 "/></g></g></g><g fill="#ffffff" fill-opacity="1"><g transform="translate(209.48048, 48.229952)"><g><path d="M 8.84375 -12.40625 C 10.269531 -12.40625 11.410156 -11.9375 12.265625 -11 C 13.128906 -10.070312 13.5625 -8.796875 13.5625 -7.171875 L 13.5625 0 L 9.828125 0 L 9.828125 -6.65625 C 9.828125 -7.476562 9.613281 -8.113281 9.1875 -8.5625 C 8.757812 -9.019531 8.1875 -9.25 7.46875 -9.25 C 6.75 -9.25 6.175781 -9.019531 5.75 -8.5625 C 5.332031 -8.113281 5.125 -7.476562 5.125 -6.65625 L 5.125 0 L 1.359375 0 L 1.359375 -12.265625 L 5.125 -12.265625 L 5.125 -10.640625 C 5.5 -11.179688 6.007812 -11.609375 6.65625 -11.921875 C 7.300781 -12.242188 8.03125 -12.40625 8.84375 -12.40625 Z M 8.84375 -12.40625 "/></g></g></g><g fill="#ffffff" fill-opacity="1"><g transform="translate(224.296435, 48.229952)"><g/></g></g><g fill="#ffffff" fill-opacity="1"><g transform="translate(228.956646, 48.229952)"><g><path d="M 0.59375 -12.546875 L 0.59375 -16.046875 L 6.6875 -16.046875 L 6.6875 0 L 2.765625 0 L 2.765625 -12.546875 Z M 0.59375 -12.546875 "/></g></g></g><g fill="#ffffff" fill-opacity="1"><g transform="translate(547.630403, 48.229952)"><g><path d="M 13.125 -10.46875 C 13.125 -9.570312 12.914062 -8.753906 12.5 -8.015625 C 12.09375 -7.273438 11.460938 -6.675781 10.609375 -6.21875 C 9.765625 -5.769531 8.710938 -5.546875 7.453125 -5.546875 L 5.125 -5.546875 L 5.125 0 L 1.359375 0 L 1.359375 -15.4375 L 7.453125 -15.4375 C 8.679688 -15.4375 9.71875 -15.222656 10.5625 -14.796875 C 11.414062 -14.367188 12.054688 -13.78125 12.484375 -13.03125 C 12.910156 -12.289062 13.125 -11.4375 13.125 -10.46875 Z M 7.171875 -8.53125 C 7.890625 -8.53125 8.421875 -8.695312 8.765625 -9.03125 C 9.117188 -9.375 9.296875 -9.851562 9.296875 -10.46875 C 9.296875 -11.082031 9.117188 -11.554688 8.765625 -11.890625 C 8.421875 -12.234375 7.890625 -12.40625 7.171875 -12.40625 L 5.125 -12.40625 L 5.125 -8.53125 Z M 7.171875 -8.53125 "/></g></g></g><g fill="#ffffff" fill-opacity="1"><g transform="translate(561.347245, 48.229952)"><g><path d="M 12.921875 -6.328125 C 12.921875 -5.972656 12.898438 -5.609375 12.859375 -5.234375 L 4.359375 -5.234375 C 4.410156 -4.472656 4.648438 -3.890625 5.078125 -3.484375 C 5.515625 -3.078125 6.050781 -2.875 6.6875 -2.875 C 7.625 -2.875 8.273438 -3.269531 8.640625 -4.0625 L 12.640625 -4.0625 C 12.429688 -3.257812 12.0625 -2.535156 11.53125 -1.890625 C 11 -1.242188 10.328125 -0.738281 9.515625 -0.375 C 8.710938 -0.0078125 7.8125 0.171875 6.8125 0.171875 C 5.613281 0.171875 4.546875 -0.0820312 3.609375 -0.59375 C 2.671875 -1.101562 1.9375 -1.832031 1.40625 -2.78125 C 0.875 -3.738281 0.609375 -4.859375 0.609375 -6.140625 C 0.609375 -7.410156 0.867188 -8.519531 1.390625 -9.46875 C 1.910156 -10.425781 2.640625 -11.160156 3.578125 -11.671875 C 4.515625 -12.179688 5.59375 -12.4375 6.8125 -12.4375 C 8 -12.4375 9.050781 -12.1875 9.96875 -11.6875 C 10.894531 -11.195312 11.617188 -10.488281 12.140625 -9.5625 C 12.660156 -8.632812 12.921875 -7.554688 12.921875 -6.328125 Z M 9.078125 -7.328125 C 9.078125 -7.960938 8.859375 -8.472656 8.421875 -8.859375 C 7.984375 -9.242188 7.429688 -9.4375 6.765625 -9.4375 C 6.140625 -9.4375 5.609375 -9.25 5.171875 -8.875 C 4.742188 -8.507812 4.476562 -7.992188 4.375 -7.328125 Z M 9.078125 -7.328125 "/></g></g></g><g fill="#ffffff" fill-opacity="1"><g transform="translate(574.888234, 48.229952)"><g><path d="M 17.015625 -12.40625 C 18.535156 -12.40625 19.742188 -11.941406 20.640625 -11.015625 C 21.546875 -10.085938 22 -8.804688 22 -7.171875 L 22 0 L 18.265625 0 L 18.265625 -6.65625 C 18.265625 -7.445312 18.054688 -8.054688 17.640625 -8.484375 C 17.222656 -8.921875 16.648438 -9.140625 15.921875 -9.140625 C 15.179688 -9.140625 14.601562 -8.921875 14.1875 -8.484375 C 13.769531 -8.054688 13.5625 -7.445312 13.5625 -6.65625 L 13.5625 0 L 9.828125 0 L 9.828125 -6.65625 C 9.828125 -7.445312 9.617188 -8.054688 9.203125 -8.484375 C 8.785156 -8.921875 8.207031 -9.140625 7.46875 -9.140625 C 6.738281 -9.140625 6.164062 -8.921875 5.75 -8.484375 C 5.332031 -8.054688 5.125 -7.445312 5.125 -6.65625 L 5.125 0 L 1.359375 0 L 1.359375 -12.265625 L 5.125 -12.265625 L 5.125 -10.734375 C 5.5 -11.242188 5.992188 -11.648438 6.609375 -11.953125 C 7.234375 -12.253906 7.929688 -12.40625 8.703125 -12.40625 C 9.628906 -12.40625 10.453125 -12.207031 11.171875 -11.8125 C 11.898438 -11.414062 12.472656 -10.847656 12.890625 -10.109375 C 13.304688 -10.785156 13.878906 -11.335938 14.609375 -11.765625 C 15.347656 -12.191406 16.148438 -12.40625 17.015625 -12.40625 Z M 17.015625 -12.40625 "/></g></g></g><g fill="#ffffff" fill-opacity="1"><g transform="translate(598.167307, 48.229952)"><g><path d="M 0.609375 -6.15625 C 0.609375 -7.414062 0.847656 -8.519531 1.328125 -9.46875 C 1.804688 -10.425781 2.453125 -11.160156 3.265625 -11.671875 C 4.085938 -12.179688 5.007812 -12.4375 6.03125 -12.4375 C 6.894531 -12.4375 7.648438 -12.257812 8.296875 -11.90625 C 8.953125 -11.5625 9.457031 -11.101562 9.8125 -10.53125 L 9.8125 -12.265625 L 13.5625 -12.265625 L 13.5625 0 L 9.8125 0 L 9.8125 -1.734375 C 9.4375 -1.160156 8.921875 -0.695312 8.265625 -0.34375 C 7.617188 0 6.863281 0.171875 6 0.171875 C 5 0.171875 4.085938 -0.0859375 3.265625 -0.609375 C 2.453125 -1.128906 1.804688 -1.867188 1.328125 -2.828125 C 0.847656 -3.785156 0.609375 -4.894531 0.609375 -6.15625 Z M 9.8125 -6.140625 C 9.8125 -7.078125 9.550781 -7.816406 9.03125 -8.359375 C 8.507812 -8.898438 7.875 -9.171875 7.125 -9.171875 C 6.375 -9.171875 5.738281 -8.898438 5.21875 -8.359375 C 4.695312 -7.828125 4.4375 -7.09375 4.4375 -6.15625 C 4.4375 -5.21875 4.695312 -4.472656 5.21875 -3.921875 C 5.738281 -3.367188 6.375 -3.09375 7.125 -3.09375 C 7.875 -3.09375 8.507812 -3.363281 9.03125 -3.90625 C 9.550781 -4.457031 9.8125 -5.203125 9.8125 -6.140625 Z M 9.8125 -6.140625 "/></g></g></g><g fill="#ffffff" fill-opacity="1"><g transform="translate(613.09317, 48.229952)"><g><path d="M 3.25 -13.546875 C 2.59375 -13.546875 2.054688 -13.738281 1.640625 -14.125 C 1.222656 -14.507812 1.015625 -14.988281 1.015625 -15.5625 C 1.015625 -16.144531 1.222656 -16.628906 1.640625 -17.015625 C 2.054688 -17.410156 2.59375 -17.609375 3.25 -17.609375 C 3.894531 -17.609375 4.425781 -17.410156 4.84375 -17.015625 C 5.257812 -16.628906 5.46875 -16.144531 5.46875 -15.5625 C 5.46875 -14.988281 5.257812 -14.507812 4.84375 -14.125 C 4.425781 -13.738281 3.894531 -13.546875 3.25 -13.546875 Z M 5.125 -12.265625 L 5.125 0 L 1.359375 0 L 1.359375 -12.265625 Z M 5.125 -12.265625 "/></g></g></g><g fill="#ffffff" fill-opacity="1"><g transform="translate(619.577898, 48.229952)"><g><path d="M 8.84375 -12.40625 C 10.269531 -12.40625 11.410156 -11.9375 12.265625 -11 C 13.128906 -10.070312 13.5625 -8.796875 13.5625 -7.171875 L 13.5625 0 L 9.828125 0 L 9.828125 -6.65625 C 9.828125 -7.476562 9.613281 -8.113281 9.1875 -8.5625 C 8.757812 -9.019531 8.1875 -9.25 7.46875 -9.25 C 6.75 -9.25 6.175781 -9.019531 5.75 -8.5625 C 5.332031 -8.113281 5.125 -7.476562 5.125 -6.65625 L 5.125 0 L 1.359375 0 L 1.359375 -12.265625 L 5.125 -12.265625 L 5.125 -10.640625 C 5.5 -11.179688 6.007812 -11.609375 6.65625 -11.921875 C 7.300781 -12.242188 8.03125 -12.40625 8.84375 -12.40625 Z M 8.84375 -12.40625 "/></g></g></g><g fill="#ffffff" fill-opacity="1"><g transform="translate(634.393854, 48.229952)"><g/></g></g><g fill="#ffffff" fill-opacity="1"><g transform="translate(639.054065, 48.229952)"><g><path d="M 0.859375 -3.015625 C 1.359375 -3.410156 1.582031 -3.59375 1.53125 -3.5625 C 2.96875 -4.75 4.097656 -5.722656 4.921875 -6.484375 C 5.753906 -7.242188 6.457031 -8.039062 7.03125 -8.875 C 7.601562 -9.71875 7.890625 -10.535156 7.890625 -11.328125 C 7.890625 -11.921875 7.75 -12.382812 7.46875 -12.71875 C 7.195312 -13.0625 6.78125 -13.234375 6.21875 -13.234375 C 5.664062 -13.234375 5.226562 -13.023438 4.90625 -12.609375 C 4.59375 -12.191406 4.4375 -11.601562 4.4375 -10.84375 L 0.8125 -10.84375 C 0.84375 -12.082031 1.109375 -13.117188 1.609375 -13.953125 C 2.117188 -14.796875 2.785156 -15.414062 3.609375 -15.8125 C 4.441406 -16.207031 5.363281 -16.40625 6.375 -16.40625 C 8.113281 -16.40625 9.425781 -15.957031 10.3125 -15.0625 C 11.207031 -14.164062 11.65625 -13 11.65625 -11.5625 C 11.65625 -10 11.117188 -8.546875 10.046875 -7.203125 C 8.972656 -5.859375 7.609375 -4.550781 5.953125 -3.28125 L 11.890625 -3.28125 L 11.890625 -0.21875 L 0.859375 -0.21875 Z M 0.859375 -3.015625 "/></g></g></g></svg>