<svg xmlns="http://www.w3.org/2000/svg" xmlns:xlink="http://www.w3.org/1999/xlink" width="1050" zoomAndPan="magnify" viewBox="0 0 787.5 374.999991" height="500" preserveAspectRatio="xMidYMid meet" version="1.0"><defs><g/><clipPath id="97c79f3d27"><path d="M 412.238281 0.117188 L 787 0.117188 L 787 374.878906 L 412.238281 374.878906 Z M 412.238281 0.117188 " clip-rule="nonzero"/></clipPath><clipPath id="8cca7aa24a"><path d="M 599.621094 0.117188 C 496.132812 0.117188 412.238281 84.011719 412.238281 187.5 C 412.238281 290.988281 496.132812 374.882812 599.621094 374.882812 C 703.105469 374.882812 787 290.988281 787 187.5 C 787 84.011719 703.105469 0.117188 599.621094 0.117188 Z M 599.621094 0.117188 " clip-rule="nonzero"/></clipPath><clipPath id="12d418508b"><path d="M 488 68 L 695 68 L 695 309 L 488 309 Z M 488 68 " clip-rule="nonzero"/></clipPath><clipPath id="ba4cd87892"><path d="M 631.414062 35.59375 L 747.050781 235.953125 L 567.730469 339.449219 L 452.09375 139.089844 Z M 631.414062 35.59375 " clip-rule="nonzero"/></clipPath><clipPath id="c16bf39b5a"><path d="M 631.414062 35.59375 L 747.050781 235.953125 L 567.730469 339.449219 L 452.09375 139.089844 Z M 631.414062 35.59375 " clip-rule="nonzero"/></clipPath><clipPath id="1e511ea8e7"><path d="M 631.414062 35.59375 L 747.050781 235.953125 L 567.730469 339.449219 L 452.09375 139.089844 Z M 631.414062 35.59375 " clip-rule="nonzero"/></clipPath><clipPath id="04ce1abd41"><path d="M 613 78 L 662 78 L 662 139 L 613 139 Z M 613 78 " clip-rule="nonzero"/></clipPath><clipPath id="7e77afb54f"><path d="M 631.414062 35.59375 L 747.050781 235.953125 L 567.730469 339.449219 L 452.09375 139.089844 Z M 631.414062 35.59375 " clip-rule="nonzero"/></clipPath><clipPath id="881752e99e"><path d="M 631.414062 35.59375 L 747.050781 235.953125 L 567.730469 339.449219 L 452.09375 139.089844 Z M 631.414062 35.59375 " clip-rule="nonzero"/></clipPath><clipPath id="729aa370eb"><path d="M 631.414062 35.59375 L 747.050781 235.953125 L 567.730469 339.449219 L 452.09375 139.089844 Z M 631.414062 35.59375 " clip-rule="nonzero"/></clipPath><clipPath id="f2d9526b88"><path d="M 553 79 L 613 79 L 613 160 L 553 160 Z M 553 79 " clip-rule="nonzero"/></clipPath><clipPath id="9190995ebc"><path d="M 631.414062 35.59375 L 747.050781 235.953125 L 567.730469 339.449219 L 452.09375 139.089844 Z M 631.414062 35.59375 " clip-rule="nonzero"/></clipPath><clipPath id="7382c55178"><path d="M 631.414062 35.59375 L 747.050781 235.953125 L 567.730469 339.449219 L 452.09375 139.089844 Z M 631.414062 35.59375 " clip-rule="nonzero"/></clipPath><clipPath id="19ac5e49a9"><path d="M 631.414062 35.59375 L 747.050781 235.953125 L 567.730469 339.449219 L 452.09375 139.089844 Z M 631.414062 35.59375 " clip-rule="nonzero"/></clipPath><clipPath id="27a6b1f440"><path d="M 513 144 L 682 144 L 682 298 L 513 298 Z M 513 144 " clip-rule="nonzero"/></clipPath><clipPath id="a6a0022091"><path d="M 631.414062 35.59375 L 747.050781 235.953125 L 567.730469 339.449219 L 452.09375 139.089844 Z M 631.414062 35.59375 " clip-rule="nonzero"/></clipPath><clipPath id="9f1cb5ad89"><path d="M 631.414062 35.59375 L 747.050781 235.953125 L 567.730469 339.449219 L 452.09375 139.089844 Z M 631.414062 35.59375 " clip-rule="nonzero"/></clipPath><clipPath id="c428ca1ea6"><path d="M 631.414062 35.59375 L 747.050781 235.953125 L 567.730469 339.449219 L 452.09375 139.089844 Z M 631.414062 35.59375 " clip-rule="nonzero"/></clipPath><clipPath id="09b42f0459"><path d="M 522 105 L 574 105 L 574 183 L 522 183 Z M 522 105 " clip-rule="nonzero"/></clipPath><clipPath id="c7750a0945"><path d="M 631.414062 35.59375 L 747.050781 235.953125 L 567.730469 339.449219 L 452.09375 139.089844 Z M 631.414062 35.59375 " clip-rule="nonzero"/></clipPath><clipPath id="9a8c1d0d32"><path d="M 631.414062 35.59375 L 747.050781 235.953125 L 567.730469 339.449219 L 452.09375 139.089844 Z M 631.414062 35.59375 " clip-rule="nonzero"/></clipPath><clipPath id="6407a8e2d8"><path d="M 631.414062 35.59375 L 747.050781 235.953125 L 567.730469 339.449219 L 452.09375 139.089844 Z M 631.414062 35.59375 " clip-rule="nonzero"/></clipPath><clipPath id="72163cee91"><path d="M 498 144 L 553 144 L 553 204 L 498 204 Z M 498 144 " clip-rule="nonzero"/></clipPath><clipPath id="139f47f9af"><path d="M 631.414062 35.59375 L 747.050781 235.953125 L 567.730469 339.449219 L 452.09375 139.089844 Z M 631.414062 35.59375 " clip-rule="nonzero"/></clipPath><clipPath id="53362b912f"><path d="M 631.414062 35.59375 L 747.050781 235.953125 L 567.730469 339.449219 L 452.09375 139.089844 Z M 631.414062 35.59375 " clip-rule="nonzero"/></clipPath><clipPath id="ad182257f8"><path d="M 631.414062 35.59375 L 747.050781 235.953125 L 567.730469 339.449219 L 452.09375 139.089844 Z M 631.414062 35.59375 " clip-rule="nonzero"/></clipPath><clipPath id="0f95b97238"><path d="M 628 78 L 662 78 L 662 136 L 628 136 Z M 628 78 " clip-rule="nonzero"/></clipPath><clipPath id="9e282b3140"><path d="M 631.414062 35.59375 L 747.050781 235.953125 L 567.730469 339.449219 L 452.09375 139.089844 Z M 631.414062 35.59375 " clip-rule="nonzero"/></clipPath><clipPath id="dcc56ded4f"><path d="M 631.414062 35.59375 L 747.050781 235.953125 L 567.730469 339.449219 L 452.09375 139.089844 Z M 631.414062 35.59375 " clip-rule="nonzero"/></clipPath><clipPath id="81019fd2e3"><path d="M 631.414062 35.59375 L 747.050781 235.953125 L 567.730469 339.449219 L 452.09375 139.089844 Z M 631.414062 35.59375 " clip-rule="nonzero"/></clipPath><clipPath id="2ee6755537"><path d="M 591 144 L 682 144 L 682 255 L 591 255 Z M 591 144 " clip-rule="nonzero"/></clipPath><clipPath id="ddb24d417d"><path d="M 631.414062 35.59375 L 747.050781 235.953125 L 567.730469 339.449219 L 452.09375 139.089844 Z M 631.414062 35.59375 " clip-rule="nonzero"/></clipPath><clipPath id="8db2a8ea6a"><path d="M 631.414062 35.59375 L 747.050781 235.953125 L 567.730469 339.449219 L 452.09375 139.089844 Z M 631.414062 35.59375 " clip-rule="nonzero"/></clipPath><clipPath id="d0b85059a5"><path d="M 631.414062 35.59375 L 747.050781 235.953125 L 567.730469 339.449219 L 452.09375 139.089844 Z M 631.414062 35.59375 " clip-rule="nonzero"/></clipPath><clipPath id="51f974a3f3"><path d="M 570 79 L 613 79 L 613 149 L 570 149 Z M 570 79 " clip-rule="nonzero"/></clipPath><clipPath id="cc9891e1b6"><path d="M 631.414062 35.59375 L 747.050781 235.953125 L 567.730469 339.449219 L 452.09375 139.089844 Z M 631.414062 35.59375 " clip-rule="nonzero"/></clipPath><clipPath id="3b5178a5e7"><path d="M 631.414062 35.59375 L 747.050781 235.953125 L 567.730469 339.449219 L 452.09375 139.089844 Z M 631.414062 35.59375 " clip-rule="nonzero"/></clipPath><clipPath id="0c7b12757e"><path d="M 631.414062 35.59375 L 747.050781 235.953125 L 567.730469 339.449219 L 452.09375 139.089844 Z M 631.414062 35.59375 " clip-rule="nonzero"/></clipPath><clipPath id="c304ca7de0"><path d="M 552 195 L 659 195 L 659 296 L 552 296 Z M 552 195 " clip-rule="nonzero"/></clipPath><clipPath id="4e9effb0af"><path d="M 631.414062 35.59375 L 747.050781 235.953125 L 567.730469 339.449219 L 452.09375 139.089844 Z M 631.414062 35.59375 " clip-rule="nonzero"/></clipPath><clipPath id="fd485a8594"><path d="M 631.414062 35.59375 L 747.050781 235.953125 L 567.730469 339.449219 L 452.09375 139.089844 Z M 631.414062 35.59375 " clip-rule="nonzero"/></clipPath><clipPath id="4a405f04b0"><path d="M 631.414062 35.59375 L 747.050781 235.953125 L 567.730469 339.449219 L 452.09375 139.089844 Z M 631.414062 35.59375 " clip-rule="nonzero"/></clipPath><clipPath id="27fd393494"><path d="M 530 105 L 565 105 L 565 164 L 530 164 Z M 530 105 " clip-rule="nonzero"/></clipPath><clipPath id="117320e749"><path d="M 631.414062 35.59375 L 747.050781 235.953125 L 567.730469 339.449219 L 452.09375 139.089844 Z M 631.414062 35.59375 " clip-rule="nonzero"/></clipPath><clipPath id="3b62d9d056"><path d="M 631.414062 35.59375 L 747.050781 235.953125 L 567.730469 339.449219 L 452.09375 139.089844 Z M 631.414062 35.59375 " clip-rule="nonzero"/></clipPath><clipPath id="3ea2d951c8"><path d="M 631.414062 35.59375 L 747.050781 235.953125 L 567.730469 339.449219 L 452.09375 139.089844 Z M 631.414062 35.59375 " clip-rule="nonzero"/></clipPath><clipPath id="a9a3a258cd"><path d="M 505 144 L 534 144 L 534 185 L 505 185 Z M 505 144 " clip-rule="nonzero"/></clipPath><clipPath id="717a2a2cd4"><path d="M 631.414062 35.59375 L 747.050781 235.953125 L 567.730469 339.449219 L 452.09375 139.089844 Z M 631.414062 35.59375 " clip-rule="nonzero"/></clipPath><clipPath id="6e7bc0e6a9"><path d="M 631.414062 35.59375 L 747.050781 235.953125 L 567.730469 339.449219 L 452.09375 139.089844 Z M 631.414062 35.59375 " clip-rule="nonzero"/></clipPath><clipPath id="6677e487d6"><path d="M 631.414062 35.59375 L 747.050781 235.953125 L 567.730469 339.449219 L 452.09375 139.089844 Z M 631.414062 35.59375 " clip-rule="nonzero"/></clipPath><clipPath id="9b3824c9b5"><path d="M 0 0.117188 L 374.761719 0.117188 L 374.761719 374.878906 L 0 374.878906 Z M 0 0.117188 " clip-rule="nonzero"/></clipPath><clipPath id="399e42d598"><path d="M 187.382812 0.117188 C 83.894531 0.117188 0 84.011719 0 187.5 C 0 290.988281 83.894531 374.882812 187.382812 374.882812 C 290.867188 374.882812 374.761719 290.988281 374.761719 187.5 C 374.761719 84.011719 290.867188 0.117188 187.382812 0.117188 Z M 187.382812 0.117188 " clip-rule="nonzero"/></clipPath><clipPath id="983314d2da"><path d="M 108 70 L 257 70 L 257 311 L 108 311 Z M 108 70 " clip-rule="nonzero"/></clipPath><clipPath id="1fc7b024e2"><path d="M 210.707031 41.886719 L 323.6875 243.757812 L 164.214844 333.011719 L 51.230469 131.144531 Z M 210.707031 41.886719 " clip-rule="nonzero"/></clipPath><clipPath id="9d86ce31bf"><path d="M 210.707031 41.886719 L 323.6875 243.757812 L 164.214844 333.011719 L 51.230469 131.144531 Z M 210.707031 41.886719 " clip-rule="nonzero"/></clipPath><clipPath id="40d6dd8ff6"><path d="M 210.707031 41.886719 L 323.6875 243.757812 L 164.214844 333.011719 L 51.230469 131.144531 Z M 210.707031 41.886719 " clip-rule="nonzero"/></clipPath><clipPath id="df593f0e38"><path d="M 132 80 L 231 80 L 231 220 L 132 220 Z M 132 80 " clip-rule="nonzero"/></clipPath><clipPath id="22c98d87fd"><path d="M 210.707031 41.886719 L 323.6875 243.757812 L 164.214844 333.011719 L 51.230469 131.144531 Z M 210.707031 41.886719 " clip-rule="nonzero"/></clipPath><clipPath id="037e170c3e"><path d="M 210.707031 41.886719 L 323.6875 243.757812 L 164.214844 333.011719 L 51.230469 131.144531 Z M 210.707031 41.886719 " clip-rule="nonzero"/></clipPath><clipPath id="5104e5bf02"><path d="M 210.707031 41.886719 L 323.6875 243.757812 L 164.214844 333.011719 L 51.230469 131.144531 Z M 210.707031 41.886719 " clip-rule="nonzero"/></clipPath><clipPath id="8473653b8b"><path d="M 125 193 L 248 193 L 248 304 L 125 304 Z M 125 193 " clip-rule="nonzero"/></clipPath><clipPath id="8dfae77229"><path d="M 210.707031 41.886719 L 323.6875 243.757812 L 164.214844 333.011719 L 51.230469 131.144531 Z M 210.707031 41.886719 " clip-rule="nonzero"/></clipPath><clipPath id="8385b5c7d5"><path d="M 210.707031 41.886719 L 323.6875 243.757812 L 164.214844 333.011719 L 51.230469 131.144531 Z M 210.707031 41.886719 " clip-rule="nonzero"/></clipPath><clipPath id="1c808aa845"><path d="M 210.707031 41.886719 L 323.6875 243.757812 L 164.214844 333.011719 L 51.230469 131.144531 Z M 210.707031 41.886719 " clip-rule="nonzero"/></clipPath><clipPath id="b3d6a35cc6"><path d="M 115 191 L 155 191 L 155 235 L 115 235 Z M 115 191 " clip-rule="nonzero"/></clipPath><clipPath id="8c2ac468cb"><path d="M 210.707031 41.886719 L 323.6875 243.757812 L 164.214844 333.011719 L 51.230469 131.144531 Z M 210.707031 41.886719 " clip-rule="nonzero"/></clipPath><clipPath id="913ff5a50a"><path d="M 210.707031 41.886719 L 323.6875 243.757812 L 164.214844 333.011719 L 51.230469 131.144531 Z M 210.707031 41.886719 " clip-rule="nonzero"/></clipPath><clipPath id="21ad5d65e9"><path d="M 210.707031 41.886719 L 323.6875 243.757812 L 164.214844 333.011719 L 51.230469 131.144531 Z M 210.707031 41.886719 " clip-rule="nonzero"/></clipPath><clipPath id="dfd93960e4"><path d="M 158 82 L 231 82 L 231 195 L 158 195 Z M 158 82 " clip-rule="nonzero"/></clipPath><clipPath id="892ef87abb"><path d="M 210.707031 41.886719 L 323.6875 243.757812 L 164.214844 333.011719 L 51.230469 131.144531 Z M 210.707031 41.886719 " clip-rule="nonzero"/></clipPath><clipPath id="53d3f2676a"><path d="M 210.707031 41.886719 L 323.6875 243.757812 L 164.214844 333.011719 L 51.230469 131.144531 Z M 210.707031 41.886719 " clip-rule="nonzero"/></clipPath><clipPath id="5ce3f87358"><path d="M 210.707031 41.886719 L 323.6875 243.757812 L 164.214844 333.011719 L 51.230469 131.144531 Z M 210.707031 41.886719 " clip-rule="nonzero"/></clipPath><clipPath id="95376d668c"><path d="M 181 193 L 248 193 L 248 273 L 181 273 Z M 181 193 " clip-rule="nonzero"/></clipPath><clipPath id="5bcbd111bf"><path d="M 210.707031 41.886719 L 323.6875 243.757812 L 164.214844 333.011719 L 51.230469 131.144531 Z M 210.707031 41.886719 " clip-rule="nonzero"/></clipPath><clipPath id="d8b87cf12d"><path d="M 210.707031 41.886719 L 323.6875 243.757812 L 164.214844 333.011719 L 51.230469 131.144531 Z M 210.707031 41.886719 " clip-rule="nonzero"/></clipPath><clipPath id="4ab92fbdad"><path d="M 210.707031 41.886719 L 323.6875 243.757812 L 164.214844 333.011719 L 51.230469 131.144531 Z M 210.707031 41.886719 " clip-rule="nonzero"/></clipPath><clipPath id="c39947eae5"><path d="M 153 229 L 231 229 L 231 301 L 153 301 Z M 153 229 " clip-rule="nonzero"/></clipPath><clipPath id="b2c4e09156"><path d="M 210.707031 41.886719 L 323.6875 243.757812 L 164.214844 333.011719 L 51.230469 131.144531 Z M 210.707031 41.886719 " clip-rule="nonzero"/></clipPath><clipPath id="0f126fda53"><path d="M 210.707031 41.886719 L 323.6875 243.757812 L 164.214844 333.011719 L 51.230469 131.144531 Z M 210.707031 41.886719 " clip-rule="nonzero"/></clipPath><clipPath id="886ac88c7b"><path d="M 210.707031 41.886719 L 323.6875 243.757812 L 164.214844 333.011719 L 51.230469 131.144531 Z M 210.707031 41.886719 " clip-rule="nonzero"/></clipPath><clipPath id="8885d00876"><path d="M 138 163 L 163 163 L 163 206 L 138 206 Z M 138 163 " clip-rule="nonzero"/></clipPath><clipPath id="8fe1e0adb3"><path d="M 210.707031 41.886719 L 323.6875 243.757812 L 164.214844 333.011719 L 51.230469 131.144531 Z M 210.707031 41.886719 " clip-rule="nonzero"/></clipPath><clipPath id="f2f329cd08"><path d="M 210.707031 41.886719 L 323.6875 243.757812 L 164.214844 333.011719 L 51.230469 131.144531 Z M 210.707031 41.886719 " clip-rule="nonzero"/></clipPath><clipPath id="88cc7cf6b2"><path d="M 210.707031 41.886719 L 323.6875 243.757812 L 164.214844 333.011719 L 51.230469 131.144531 Z M 210.707031 41.886719 " clip-rule="nonzero"/></clipPath><clipPath id="d3106999ca"><path d="M 119 191 L 139 191 L 139 220 L 119 220 Z M 119 191 " clip-rule="nonzero"/></clipPath><clipPath id="9f9e4e4317"><path d="M 210.707031 41.886719 L 323.6875 243.757812 L 164.214844 333.011719 L 51.230469 131.144531 Z M 210.707031 41.886719 " clip-rule="nonzero"/></clipPath><clipPath id="39a3520705"><path d="M 210.707031 41.886719 L 323.6875 243.757812 L 164.214844 333.011719 L 51.230469 131.144531 Z M 210.707031 41.886719 " clip-rule="nonzero"/></clipPath><clipPath id="24820a5b78"><path d="M 210.707031 41.886719 L 323.6875 243.757812 L 164.214844 333.011719 L 51.230469 131.144531 Z M 210.707031 41.886719 " clip-rule="nonzero"/></clipPath><clipPath id="e85021df7e"><path d="M 376 164.101562 L 448.609375 164.101562 L 448.609375 265.546875 L 376 265.546875 Z M 376 164.101562 " clip-rule="nonzero"/></clipPath><clipPath id="d70c8cb92a"><path d="M 347.429688 90.9375 L 435.945312 90.9375 L 435.945312 284.308594 L 347.429688 284.308594 Z M 347.429688 90.9375 " clip-rule="nonzero"/></clipPath></defs><g clip-path="url(#97c79f3d27)"><g clip-path="url(#8cca7aa24a)"><path fill="#3a5dc4" d="M 412.238281 0.117188 L 787 0.117188 L 787 374.882812 L 412.238281 374.882812 Z M 412.238281 0.117188 " fill-opacity="1" fill-rule="nonzero"/></g></g><g clip-path="url(#12d418508b)"><g clip-path="url(#ba4cd87892)"><g clip-path="url(#c16bf39b5a)"><g clip-path="url(#1e511ea8e7)"><path fill="#232323" d="M 520.425781 108.941406 C 516.527344 113.152344 514.28125 118.132812 513.722656 123.839844 C 513.203125 127.5625 513.75 131.386719 513.097656 135.054688 C 503.570312 139.722656 496.449219 147.707031 491.582031 156.996094 C 488.769531 162.480469 487.816406 168.664062 489.28125 174.6875 C 491.644531 185 497.65625 192.949219 503.046875 201.484375 C 502.132812 212.027344 503.523438 222.089844 508.058594 231.714844 C 513.847656 246.019531 525.535156 257.285156 540.003906 262.597656 C 538.441406 269.8125 538.703125 277.070312 542.277344 283.675781 C 547.140625 293.609375 556.191406 299.910156 566.3125 303.730469 C 582.105469 309.507812 600.015625 309.296875 616.210938 305.296875 C 632.101562 301.34375 647.855469 293.246094 658.675781 280.75 C 665.945312 272.453125 670.914062 261.222656 669.421875 250.042969 C 669.121094 246.734375 667.351562 243.515625 667.359375 240.253906 C 677.132812 231.128906 684.71875 220.046875 689.820312 207.691406 C 695.390625 193.988281 695.511719 178.105469 690.269531 164.289062 C 686.449219 154.027344 679.1875 145.855469 670.226562 139.769531 C 673.5625 123.414062 669.226562 107.023438 663.054688 91.90625 C 659.855469 84.835938 655.058594 77.023438 648.183594 73.007812 C 640.625 68.171875 630.609375 67.351562 622.097656 69.832031 C 615.34375 72.019531 610.679688 76.761719 607.207031 82.753906 C 604.789062 79.003906 602.742188 75.480469 598.632812 73.351562 C 590.933594 69.152344 580.832031 69.789062 572.707031 72.328125 C 561.707031 75.859375 550.773438 84.066406 546.285156 94.972656 C 536.882812 97.242188 527.03125 101.71875 520.425781 108.941406 Z M 520.425781 108.941406 " fill-opacity="1" fill-rule="nonzero"/></g></g></g></g><g clip-path="url(#04ce1abd41)"><g clip-path="url(#7e77afb54f)"><g clip-path="url(#881752e99e)"><g clip-path="url(#729aa370eb)"><path fill="#ababab" d="M 613.839844 100.398438 C 613.601562 113.113281 615.015625 125.921875 616.796875 138.492188 C 622.21875 137.074219 627.585938 135.597656 633.082031 134.5 C 638.785156 133.371094 644.558594 132.757812 650.367188 133.230469 C 654.109375 133.496094 657.933594 134.710938 661.609375 135.609375 C 662.589844 124.050781 659.9375 113.367188 656.742188 102.339844 C 654.925781 96.121094 652.042969 90.273438 647.96875 85.21875 C 645.066406 81.734375 641.0625 79.792969 636.714844 78.78125 C 631.089844 78.039062 624.6875 78.265625 620.242188 82.25 C 615.085938 86.773438 614.0625 93.917969 613.839844 100.398438 Z M 613.839844 100.398438 " fill-opacity="1" fill-rule="nonzero"/></g></g></g></g><g clip-path="url(#f2d9526b88)"><g clip-path="url(#9190995ebc)"><g clip-path="url(#7382c55178)"><g clip-path="url(#19ac5e49a9)"><path fill="#ababab" d="M 554.800781 116.445312 C 557.929688 132.113281 564.019531 148.183594 575.40625 159.738281 C 578.828125 155.246094 582.824219 151.570312 587.328125 148.1875 C 594.738281 143.800781 604.1875 141.945312 612.433594 139.589844 C 609.304688 128.109375 606.351562 116.316406 605.199219 104.464844 C 604.734375 100.144531 605.28125 96.257812 603.496094 92.269531 C 601.753906 88.203125 599.027344 83.238281 594.9375 81.144531 C 589.050781 78.378906 582.257812 79.78125 576.246094 81.378906 C 569.285156 84.238281 561.808594 88.617188 557.367188 94.855469 C 553.179688 101.078125 553.484375 109.371094 554.800781 116.445312 Z M 554.800781 116.445312 " fill-opacity="1" fill-rule="nonzero"/></g></g></g></g><g clip-path="url(#27a6b1f440)"><g clip-path="url(#a6a0022091)"><g clip-path="url(#9f1cb5ad89)"><g clip-path="url(#c428ca1ea6)"><path fill="#ababab" d="M 658.472656 249.972656 C 645.496094 258.871094 629.648438 262.660156 614.210938 259.027344 C 620.25 257.429688 626.320312 256.871094 632.152344 254.460938 C 645.976562 248.996094 657.722656 238.191406 666.117188 226.089844 C 672.328125 216.566406 678.742188 206.226562 680.96875 194.953125 C 682.9375 185.125 681.914062 174.457031 677.652344 165.34375 C 672.914062 155.589844 664.082031 147.980469 653.488281 145.351562 C 642.804688 142.824219 631.742188 146.292969 621.398438 148.867188 C 611.851562 151.472656 601.453125 153.234375 592.433594 157.269531 C 588.335938 159.242188 585.214844 162.1875 583.570312 166.472656 C 581.441406 171.375 582.84375 176.4375 585.40625 180.859375 C 588.414062 185.980469 593.46875 189.199219 598.835938 191.410156 C 608.105469 195.132812 618.246094 196.394531 628.15625 195.179688 C 635.890625 194.429688 642.882812 191.9375 650.285156 189.78125 C 645.554688 193.554688 640.429688 196.625 634.539062 198.214844 C 623.492188 201.320312 612.441406 205.875 602.960938 212.386719 C 596.574219 216.78125 591.492188 222.214844 585.601562 227.011719 C 586.574219 222.222656 587.023438 217.8125 589.796875 213.609375 C 592.730469 208.945312 596.910156 206.003906 601.390625 202.96875 C 595.71875 201.472656 590.445312 199.359375 585.746094 195.769531 C 582.496094 192.953125 579.789062 189.660156 577.1875 186.246094 C 571.800781 188.925781 566.589844 190.648438 560.542969 190.917969 C 557.160156 197.601562 552.464844 204.007812 546.5625 208.675781 C 541.488281 212.722656 534.695312 213.035156 528.476562 212.773438 C 523 212.550781 518.230469 210.675781 513.144531 208.867188 C 514.25 219.324219 517.476562 229.347656 523.191406 238.199219 C 528.800781 246.171875 536.988281 253.144531 546.382812 256.136719 C 555.125 258.839844 563.851562 259.261719 572.902344 259.722656 C 565.496094 264.464844 557.453125 265.003906 548.929688 264.742188 C 549.203125 270.683594 549.554688 276.15625 553.183594 281.179688 C 559.3125 289.945312 570.816406 294.636719 581.066406 296.28125 C 590.738281 297.796875 600.664062 297.574219 610.203125 295.242188 C 624.722656 292.683594 639.207031 285.785156 649.417969 275.023438 C 655.867188 268.183594 659.867188 259.523438 658.472656 249.972656 Z M 658.472656 249.972656 " fill-opacity="1" fill-rule="nonzero"/></g></g></g></g><g clip-path="url(#09b42f0459)"><g clip-path="url(#c7750a0945)"><g clip-path="url(#9a8c1d0d32)"><g clip-path="url(#6407a8e2d8)"><path fill="#ababab" d="M 564.257812 161.769531 C 553.625 149.164062 547.675781 133.214844 544.933594 117.097656 C 544.261719 113.183594 544.382812 109.253906 543.953125 105.324219 C 539.816406 106.25 536.246094 108.238281 532.746094 110.546875 C 528.496094 113.71875 524.496094 116.992188 523.210938 122.375 C 521.636719 129.132812 522.496094 136.6875 524.140625 143.351562 C 526.207031 151.554688 528.820312 159.769531 532.535156 167.386719 C 535.496094 173.625 541.992188 176.332031 547.902344 179.046875 C 552.21875 180.882812 557.277344 183.058594 562.042969 182.945312 C 566.328125 182.863281 570.066406 180.554688 573.746094 178.621094 C 573.003906 175.351562 572.726562 171.886719 571.65625 168.71875 C 569.355469 166.238281 566.613281 164.195312 564.257812 161.769531 Z M 564.257812 161.769531 " fill-opacity="1" fill-rule="nonzero"/></g></g></g></g><g clip-path="url(#72163cee91)"><g clip-path="url(#139f47f9af)"><g clip-path="url(#53362b912f)"><g clip-path="url(#ad182257f8)"><path fill="#ababab" d="M 521.089844 163.011719 C 518.519531 157.097656 517.046875 150.925781 515.105469 144.816406 C 511.222656 147.722656 507.960938 151.054688 505.039062 154.914062 C 501.550781 159.445312 497.738281 164.789062 498.699219 170.839844 C 499.726562 177.113281 503.417969 183.222656 506.660156 188.621094 C 511.597656 196.4375 519.21875 202.355469 528.566406 203.527344 C 532.871094 204.007812 538.460938 204.34375 542.070312 201.519531 C 546.332031 198.328125 549.789062 193.765625 552.746094 189.382812 C 546.09375 186.316406 539.410156 184.109375 533.101562 180.140625 C 526.71875 175.949219 524.105469 169.722656 521.089844 163.011719 Z M 521.089844 163.011719 " fill-opacity="1" fill-rule="nonzero"/></g></g></g></g><g clip-path="url(#0f95b97238)"><g clip-path="url(#9e282b3140)"><g clip-path="url(#dcc56ded4f)"><g clip-path="url(#81019fd2e3)"><path fill="#ffffff" d="M 633.082031 134.5 C 638.785156 133.371094 644.558594 132.757812 650.367188 133.230469 C 654.109375 133.496094 657.933594 134.710938 661.609375 135.609375 C 662.589844 124.050781 659.9375 113.367188 656.742188 102.339844 C 654.925781 96.121094 652.042969 90.273438 647.96875 85.21875 C 645.066406 81.734375 641.0625 79.792969 636.714844 78.78125 C 633.851562 81.339844 631.023438 83.246094 630 87.160156 C 626.058594 103.410156 628.914062 118.667969 633.082031 134.5 Z M 633.082031 134.5 " fill-opacity="1" fill-rule="nonzero"/></g></g></g></g><g clip-path="url(#2ee6755537)"><g clip-path="url(#ddb24d417d)"><g clip-path="url(#8db2a8ea6a)"><g clip-path="url(#d0b85059a5)"><path fill="#ffffff" d="M 592.433594 157.269531 C 591.652344 161.695312 590.328125 166.296875 592.273438 170.621094 C 595.054688 176.6875 600.835938 179.941406 607.085938 181.480469 C 615.257812 183.40625 623.945312 183.523438 632.277344 182.765625 C 639.035156 182.171875 645.421875 180.308594 652.050781 179.125 C 654.964844 183.605469 656.289062 188.339844 653.117188 193.074219 C 644.800781 205.136719 627.355469 211 618.804688 222.980469 C 614.980469 228.242188 612.90625 234.613281 614.769531 241.046875 C 616.929688 248.804688 624.191406 254.1875 632.152344 254.460938 C 645.976562 248.996094 657.722656 238.191406 666.117188 226.089844 C 672.328125 216.566406 678.742188 206.226562 680.96875 194.953125 C 682.9375 185.125 681.914062 174.457031 677.652344 165.34375 C 672.914062 155.589844 664.082031 147.980469 653.488281 145.351562 C 642.804688 142.824219 631.742188 146.292969 621.398438 148.867188 C 611.851562 151.472656 601.453125 153.234375 592.433594 157.269531 Z M 592.433594 157.269531 " fill-opacity="1" fill-rule="nonzero"/></g></g></g></g><g clip-path="url(#51f974a3f3)"><g clip-path="url(#cc9891e1b6)"><g clip-path="url(#3b5178a5e7)"><g clip-path="url(#0c7b12757e)"><path fill="#ffffff" d="M 570.527344 99.949219 C 572.441406 117.398438 578.839844 132.976562 587.328125 148.1875 C 594.738281 143.800781 604.1875 141.945312 612.433594 139.589844 C 609.304688 128.109375 606.351562 116.316406 605.199219 104.464844 C 604.734375 100.144531 605.28125 96.257812 603.496094 92.269531 C 601.753906 88.203125 599.027344 83.238281 594.9375 81.144531 C 589.050781 78.378906 582.257812 79.78125 576.246094 81.378906 C 571.441406 87.144531 569.925781 92.523438 570.527344 99.949219 Z M 570.527344 99.949219 " fill-opacity="1" fill-rule="nonzero"/></g></g></g></g><g clip-path="url(#c304ca7de0)"><g clip-path="url(#4e9effb0af)"><g clip-path="url(#fd485a8594)"><g clip-path="url(#4a405f04b0)"><path fill="#ffffff" d="M 587.457031 243.664062 C 584.234375 238.46875 584.289062 232.785156 585.601562 227.011719 C 586.574219 222.222656 587.023438 217.8125 589.796875 213.609375 C 592.730469 208.945312 596.910156 206.003906 601.390625 202.96875 C 595.71875 201.472656 590.445312 199.359375 585.746094 195.769531 C 577.757812 196.757812 570.410156 197.503906 563.804688 202.699219 C 551.535156 211.488281 549.441406 229.992188 557.332031 242.332031 C 562.433594 251.023438 571.003906 256.015625 580.8125 257.574219 C 577.609375 261.925781 574.34375 266.011719 574.273438 271.6875 C 574.265625 278.761719 579.160156 284.429688 584.878906 287.996094 C 592.621094 292.972656 601.324219 293.746094 610.203125 295.242188 C 624.722656 292.683594 639.207031 285.785156 649.417969 275.023438 C 655.867188 268.183594 659.867188 259.523438 658.472656 249.972656 C 645.496094 258.871094 629.648438 262.660156 614.210938 259.027344 C 604.113281 257.144531 592.949219 252.933594 587.457031 243.664062 Z M 587.457031 243.664062 " fill-opacity="1" fill-rule="nonzero"/></g></g></g></g><g clip-path="url(#27fd393494)"><g clip-path="url(#117320e749)"><g clip-path="url(#3b62d9d056)"><g clip-path="url(#3ea2d951c8)"><path fill="#ffffff" d="M 550.054688 162.191406 C 554.925781 164.289062 559.382812 163.074219 564.257812 161.769531 C 553.625 149.164062 547.675781 133.214844 544.933594 117.097656 C 544.261719 113.183594 544.382812 109.253906 543.953125 105.324219 C 539.816406 106.25 536.246094 108.238281 532.746094 110.546875 C 529.480469 123.363281 530.285156 136.8125 536.816406 148.5 C 539.859375 153.773438 544.335938 159.65625 550.054688 162.191406 Z M 550.054688 162.191406 " fill-opacity="1" fill-rule="nonzero"/></g></g></g></g><g clip-path="url(#a9a3a258cd)"><g clip-path="url(#717a2a2cd4)"><g clip-path="url(#6e7bc0e6a9)"><g clip-path="url(#6677e487d6)"><path fill="#ffffff" d="M 510.855469 173.609375 C 513.886719 178.4375 518.886719 183.855469 524.9375 184.351562 C 528.378906 184.691406 530.621094 182.074219 533.101562 180.140625 C 526.71875 175.949219 524.105469 169.722656 521.089844 163.011719 C 518.519531 157.097656 517.046875 150.925781 515.105469 144.816406 C 511.222656 147.722656 507.960938 151.054688 505.039062 154.914062 C 506.097656 161.5625 507.078125 167.824219 510.855469 173.609375 Z M 510.855469 173.609375 " fill-opacity="1" fill-rule="nonzero"/></g></g></g></g><g clip-path="url(#9b3824c9b5)"><g clip-path="url(#399e42d598)"><path fill="#fa0644" d="M 0 0.117188 L 374.761719 0.117188 L 374.761719 374.882812 L 0 374.882812 Z M 0 0.117188 " fill-opacity="1" fill-rule="nonzero"/></g></g><g clip-path="url(#983314d2da)"><g clip-path="url(#1fc7b024e2)"><g clip-path="url(#9d86ce31bf)"><g clip-path="url(#40d6dd8ff6)"><path fill="#232323" d="M 140.078125 92.941406 C 138.136719 98.894531 138.074219 104.832031 138.429688 111.015625 C 139.367188 126.761719 142.632812 142.34375 148.628906 156.960938 C 141.417969 158.308594 134.1875 162.304688 129.820312 168.28125 C 126.328125 173.109375 126.191406 179.007812 126.453125 184.722656 C 119.5 187.824219 114.402344 193.417969 110.664062 199.921875 C 108.414062 203.984375 107.457031 208.632812 108.488281 213.214844 C 109.980469 220.445312 114.40625 226.773438 118.230469 232.769531 C 117.792969 238.355469 117.859375 243.867188 119.550781 249.277344 C 121.558594 255.546875 124.542969 262.101562 129.074219 266.953125 C 133.339844 271.542969 138.496094 275.222656 144.375 277.429688 C 143.273438 282.589844 143.304688 287.761719 145.761719 292.558594 C 149.148438 299.839844 155.628906 304.558594 162.921875 307.425781 C 174.277344 311.785156 187.152344 311.890625 198.902344 309.167969 C 209.921875 306.605469 220.960938 301.269531 228.871094 293.054688 C 234.21875 287.492188 238.160156 280.398438 238.261719 272.511719 C 238.34375 269.09375 237.421875 265.929688 236.320312 262.734375 C 242.730469 257.371094 247.582031 250.597656 251.398438 243.203125 C 255.914062 234.542969 257.640625 224.601562 255.871094 214.953125 C 254.4375 206.101562 249.816406 197.929688 242.839844 192.269531 C 240.160156 190.109375 237.25 188.609375 234.226562 187.011719 C 234.496094 182.820312 234.089844 178.71875 233.941406 174.53125 C 233.261719 159.3125 234.328125 143.917969 236.140625 128.808594 C 237.09375 121.304688 237.722656 113.777344 238.296875 106.230469 C 239.105469 100.128906 238.75 94.035156 236.054688 88.402344 C 233.085938 81.855469 227.320312 76.730469 220.3125 74.984375 C 213.4375 73.175781 206.078125 74.886719 200.488281 79.226562 C 197.304688 81.804688 194.058594 84.714844 192.683594 88.695312 C 190.554688 94.894531 189.222656 101.296875 188.542969 107.808594 C 188.101562 111.605469 188.035156 115.441406 187.554688 119.226562 C 186.023438 109.796875 186.042969 100.097656 185.039062 90.59375 C 184.375 85.570312 182.65625 80.785156 179.207031 76.980469 C 176.058594 73.210938 171.363281 70.933594 166.453125 70.839844 C 160.921875 70.738281 155.320312 72.894531 151.058594 76.367188 C 145.875 80.695312 142.085938 86.503906 140.078125 92.941406 Z M 140.078125 92.941406 " fill-opacity="1" fill-rule="nonzero"/></g></g></g></g><g clip-path="url(#df593f0e38)"><g clip-path="url(#22c98d87fd)"><g clip-path="url(#037e170c3e)"><g clip-path="url(#5104e5bf02)"><path fill="#ababab" d="M 146.578125 106.363281 C 146.984375 121.332031 149.671875 136.171875 154.539062 150.335938 C 157.484375 160.121094 161.808594 169.34375 165.117188 178.972656 C 161.222656 174.011719 159.554688 168.707031 154.019531 165.042969 C 151.824219 163.976562 149.414062 163.417969 147 164.027344 C 142.175781 165.988281 136.460938 169.183594 134.140625 174.109375 C 132.324219 178.460938 132.746094 183.929688 133.492188 188.492188 C 134.855469 195.269531 136.882812 202.007812 139.761719 208.296875 C 141.972656 213.144531 146.75 215.117188 151.261719 217.238281 C 155.554688 219.082031 159.828125 221.003906 164.546875 219.402344 C 166.003906 218.828125 168.523438 218.132812 169.246094 216.644531 C 169.152344 214.320312 168.402344 211.738281 168.898438 209.445312 C 169.578125 206.433594 171.566406 203.449219 172.660156 200.625 C 173.640625 198.953125 171.714844 196.777344 170.929688 195.335938 C 168.636719 191.726562 165.242188 190.988281 161.671875 189.226562 C 164.105469 189.050781 166.503906 189.097656 168.863281 189.757812 C 172.515625 190.707031 175.480469 193.175781 178.265625 195.605469 C 178.964844 195.285156 179.664062 194.96875 180.347656 194.648438 C 187.628906 191.144531 196.339844 189.753906 204.15625 187.648438 C 211.460938 185.722656 218.730469 184.238281 226.332031 184.929688 C 224.273438 166.097656 225.359375 147.453125 227.589844 128.703125 C 228.800781 118.957031 229.84375 109.109375 230.136719 99.28125 C 230.300781 95.59375 229.160156 91.992188 227.113281 88.933594 C 225.089844 85.863281 222.390625 83.449219 218.621094 83.019531 C 210.378906 82.183594 202.484375 87.085938 199.09375 94.570312 C 196.9375 99.449219 196.453125 105.195312 195.859375 110.457031 C 194.816406 122.324219 194.441406 134.355469 195.226562 146.246094 C 195.804688 156.464844 197.324219 166.597656 197.898438 176.804688 C 200.578125 177.058594 203.199219 177.367188 205.738281 178.324219 C 199.460938 181.238281 192.160156 182.285156 185.28125 182.015625 C 187.644531 180.1875 190.332031 179.132812 193.097656 178.066406 C 191.917969 172.894531 189.957031 168.007812 188.574219 162.90625 C 183.105469 143.9375 180.648438 123.527344 178.796875 103.898438 C 178.242188 98.894531 178.824219 93.65625 176.464844 89.210938 C 175.058594 86.3125 172.753906 84.164062 169.996094 82.582031 C 162.566406 78.257812 152.40625 82.851562 148.933594 90.21875 C 146.316406 95.019531 146.609375 101.03125 146.578125 106.363281 Z M 146.578125 106.363281 " fill-opacity="1" fill-rule="nonzero"/></g></g></g></g><g clip-path="url(#8473653b8b)"><g clip-path="url(#8dfae77229)"><g clip-path="url(#8385b5c7d5)"><g clip-path="url(#1c808aa845)"><path fill="#ababab" d="M 230.316406 272.015625 C 230.277344 271.1875 230.21875 270.359375 230.152344 269.527344 C 220.972656 275.589844 209.828125 278.316406 198.992188 275.796875 C 202.992188 274.605469 207.089844 274.183594 210.96875 272.527344 C 221.257812 268.59375 229.691406 261.070312 236.011719 252.183594 C 240.914062 244.800781 245.882812 237.046875 247.300781 228.136719 C 248.640625 219.59375 247.011719 209.839844 241.445312 203.023438 C 237.105469 197.367188 230.125 193.355469 222.953125 193.058594 C 216.347656 192.730469 209.265625 194.789062 202.867188 196.300781 C 196.078125 197.984375 188.835938 199.242188 182.480469 202.070312 C 179.816406 203.617188 177.675781 205.78125 176.652344 208.730469 C 174.738281 213.453125 177.421875 219.363281 181.023438 222.527344 C 186.382812 227.113281 194.140625 229.132812 201.039062 229.710938 C 209.164062 230.351562 216.503906 228.234375 224.226562 226.109375 C 220.964844 228.894531 217.375 230.738281 213.226562 231.832031 C 204.449219 234.140625 196.101562 237.71875 188.664062 242.949219 C 184.796875 245.710938 181.5625 249.433594 177.503906 251.863281 C 178.476562 248.679688 178.789062 245.734375 180.621094 242.875 C 182.808594 239.328125 185.921875 237.160156 189.289062 234.851562 C 185.082031 233.789062 181.203125 232.109375 177.875 229.273438 C 175.585938 227.296875 173.757812 224.96875 171.953125 222.570312 C 167.875 224.554688 164.382812 225.550781 159.875 225.882812 C 156.9375 231.300781 152.644531 237.199219 147.042969 240 C 140.316406 242.636719 132.09375 241.289062 125.660156 238.328125 C 125.898438 245.613281 128.347656 252.507812 131.921875 258.796875 C 135.785156 264.824219 141.609375 270.152344 148.417969 272.597656 C 154.917969 274.84375 161.398438 275.300781 168.191406 275.632812 C 162.832031 279.136719 157.046875 279.320312 150.882812 279.136719 C 150.980469 283.347656 151.1875 287.246094 153.65625 290.863281 C 157.960938 297.304688 165.753906 300.636719 173.105469 302.109375 C 181.59375 303.703125 190.722656 303.300781 199.011719 300.859375 C 207.308594 298.917969 215.378906 294.992188 221.695312 289.238281 C 226.507812 284.765625 230.472656 278.832031 230.316406 272.015625 Z M 230.316406 272.015625 " fill-opacity="1" fill-rule="nonzero"/></g></g></g></g><g clip-path="url(#b3d6a35cc6)"><g clip-path="url(#8c2ac468cb)"><g clip-path="url(#913ff5a50a)"><g clip-path="url(#21ad5d65e9)"><path fill="#ababab" d="M 138.308594 216.199219 C 135.320312 213.636719 133.699219 209.898438 132.117188 206.382812 C 130.046875 201.683594 128.871094 196.820312 127.476562 191.894531 C 124.589844 194.144531 121.96875 196.621094 119.753906 199.542969 C 117.378906 202.671875 114.84375 206.289062 115.324219 210.4375 C 115.882812 214.726562 118.34375 219 120.441406 222.726562 C 123.824219 228.625 129.144531 233.292969 135.992188 234.460938 C 139.28125 234.980469 143.578125 235.394531 146.40625 233.28125 C 149.566406 231.023438 152.140625 227.746094 154.261719 224.515625 C 148.652344 221.933594 143.164062 220.214844 138.308594 216.199219 Z M 138.308594 216.199219 " fill-opacity="1" fill-rule="nonzero"/></g></g></g></g><g clip-path="url(#dfd93960e4)"><g clip-path="url(#892ef87abb)"><g clip-path="url(#53d3f2676a)"><g clip-path="url(#5ce3f87358)"><path fill="#ffffff" d="M 162.753906 87.195312 C 158.875 93.253906 158.085938 101.476562 158.320312 108.523438 C 158.78125 119.871094 160.679688 131.296875 163.21875 142.355469 C 165.960938 154.320312 169.273438 166.277344 173.640625 177.753906 C 175.757812 183.457031 178.558594 188.816406 180.347656 194.648438 C 187.628906 191.144531 196.339844 189.753906 204.15625 187.648438 C 211.460938 185.722656 218.730469 184.238281 226.332031 184.929688 C 224.269531 166.097656 225.359375 147.453125 227.589844 128.703125 C 228.800781 118.957031 229.84375 109.109375 230.136719 99.28125 C 230.300781 95.59375 229.160156 91.992188 227.113281 88.933594 C 224.925781 88.105469 221.828125 86.648438 219.496094 87.472656 C 216.4375 88.796875 214.242188 92.070312 212.792969 94.96875 C 209.117188 102.359375 207.835938 111.203125 206.765625 119.332031 C 205.347656 131.234375 205.0625 143.308594 204.8125 155.292969 C 204.820312 160.175781 204.753906 165.394531 206.050781 170.136719 C 207.328125 174.484375 210.132812 177.707031 212.90625 181.160156 C 208.917969 182.308594 204.894531 183.222656 200.742188 183.496094 C 194.691406 183.890625 189.050781 184.535156 183.023438 183.964844 C 183.765625 183.308594 184.507812 182.648438 185.28125 182.015625 C 187.644531 180.1875 190.332031 179.132812 193.097656 178.066406 C 191.917969 172.894531 189.957031 168.007812 188.574219 162.90625 C 183.105469 143.9375 180.648438 123.527344 178.796875 103.898438 C 178.242188 98.894531 178.824219 93.65625 176.464844 89.210938 C 175.058594 86.3125 172.753906 84.164062 169.996094 82.582031 C 167.207031 83.808594 164.460938 84.421875 162.753906 87.195312 Z M 162.753906 87.195312 " fill-opacity="1" fill-rule="nonzero"/></g></g></g></g><g clip-path="url(#95376d668c)"><g clip-path="url(#5bcbd111bf)"><g clip-path="url(#d8b87cf12d)"><g clip-path="url(#4ab92fbdad)"><path fill="#ffffff" d="M 182.480469 202.070312 C 182.011719 205.847656 181.261719 209.25 183.679688 212.617188 C 187.363281 217.894531 193.765625 219.230469 199.757812 219.871094 C 208.597656 220.882812 217.0625 219.371094 225.652344 217.472656 C 226.804688 219.304688 227.871094 220.984375 227.863281 223.226562 C 227.875 226.136719 226.179688 228.316406 224.25 230.308594 C 218.957031 235.621094 211.757812 239.324219 206.289062 243.804688 C 202.515625 246.9375 199.050781 250.992188 198.101562 255.945312 C 197.226562 260.269531 198.636719 264.917969 201.859375 267.960938 C 204.410156 270.410156 207.722656 271.386719 210.96875 272.527344 C 221.257812 268.59375 229.691406 261.070312 236.011719 252.183594 C 240.914062 244.800781 245.882812 237.046875 247.300781 228.136719 C 248.640625 219.59375 247.011719 209.839844 241.445312 203.023438 C 237.105469 197.367188 230.125 193.355469 222.953125 193.058594 C 216.347656 192.730469 209.265625 194.789062 202.867188 196.300781 C 196.078125 197.984375 188.835938 199.242188 182.480469 202.070312 Z M 182.480469 202.070312 " fill-opacity="1" fill-rule="nonzero"/></g></g></g></g><g clip-path="url(#c39947eae5)"><g clip-path="url(#b2c4e09156)"><g clip-path="url(#0f126fda53)"><g clip-path="url(#886ac88c7b)"><path fill="#ffffff" d="M 190.097656 272.671875 C 184.53125 270.628906 179.5 266.835938 177.382812 261.121094 C 176.214844 258.042969 176.519531 254.925781 177.503906 251.863281 C 178.476562 248.679688 178.789062 245.734375 180.621094 242.875 C 182.808594 239.328125 185.921875 237.160156 189.289062 234.851562 C 185.082031 233.789062 181.203125 232.109375 177.875 229.273438 C 171.980469 229.089844 166.285156 230.152344 161.554688 233.867188 C 152.617188 240.25 151.179688 253.867188 157.027344 262.78125 C 160.714844 268.886719 166.679688 272.375 173.609375 273.546875 C 171.132812 276.789062 168.683594 279.832031 168.738281 284.140625 C 168.820312 289.453125 172.777344 293.585938 177.101562 296.144531 C 183.824219 300.140625 191.40625 300.582031 199.011719 300.859375 C 207.308594 298.917969 215.378906 294.992188 221.695312 289.238281 C 226.507812 284.765625 230.472656 278.832031 230.316406 272.015625 C 230.277344 271.1875 230.21875 270.359375 230.152344 269.527344 C 220.972656 275.589844 209.828125 278.316406 198.992188 275.796875 C 195.929688 275.277344 193.027344 273.691406 190.097656 272.671875 Z M 190.097656 272.671875 " fill-opacity="1" fill-rule="nonzero"/></g></g></g></g><g clip-path="url(#8885d00876)"><g clip-path="url(#8fe1e0adb3)"><g clip-path="url(#f2f329cd08)"><g clip-path="url(#88cc7cf6b2)"><path fill="#ffffff" d="M 139.335938 170.386719 C 137.214844 180.910156 139.863281 192.546875 147.277344 200.5 C 149.71875 203.09375 152.761719 205.234375 156.476562 205.0625 C 159.894531 204.957031 162.539062 201.679688 162.667969 198.40625 C 162.546875 196.285156 161.144531 194.152344 160.242188 192.269531 C 157.601562 187.375 155.851562 182 154.921875 176.515625 C 154.273438 172.695312 154.441406 168.882812 154.019531 165.042969 C 151.824219 163.976562 149.414062 163.417969 147 164.027344 C 144.4375 165.433594 139.765625 167.074219 139.335938 170.386719 Z M 139.335938 170.386719 " fill-opacity="1" fill-rule="nonzero"/></g></g></g></g><g clip-path="url(#d3106999ca)"><g clip-path="url(#9f9e4e4317)"><g clip-path="url(#39a3520705)"><g clip-path="url(#24820a5b78)"><path fill="#ffffff" d="M 123.640625 211.90625 C 125.632812 215.207031 128.699219 218.816406 132.601562 219.796875 C 134.722656 220.382812 136.886719 219.289062 138.875 218.628906 C 138.6875 217.8125 138.496094 217.003906 138.308594 216.199219 C 135.320312 213.636719 133.699219 209.898438 132.117188 206.382812 C 130.046875 201.683594 128.871094 196.820312 127.476562 191.894531 C 124.589844 194.144531 121.96875 196.621094 119.753906 199.542969 C 120.492188 203.90625 121.273438 208.066406 123.640625 211.90625 Z M 123.640625 211.90625 " fill-opacity="1" fill-rule="nonzero"/></g></g></g></g><g clip-path="url(#e85021df7e)"><path fill="#000000" d="M 447.632812 193.378906 C 450.742188 178.371094 447.3125 164.140625 424.414062 164.140625 C 419.617188 164.140625 415.230469 164.808594 411.292969 166.0625 L 391.304688 210.996094 C 394.179688 214.980469 398.808594 218.535156 405.402344 222.347656 C 415.671875 228.238281 418.214844 232.214844 416.730469 238.980469 C 415.511719 244.53125 412.441406 248.921875 405.886719 248.921875 C 399.140625 248.921875 398.058594 243.398438 399.25 235.371094 L 376.964844 235.371094 C 373.800781 251.964844 378.121094 265.507812 402.019531 265.507812 C 424.078125 265.507812 436.402344 252.632812 439.949219 236.480469 C 443.558594 220.046875 437.519531 212.332031 421.308594 203.210938 C 411.785156 197.902344 410.226562 195.011719 411.457031 189.414062 C 412.648438 183.960938 415.609375 180.722656 420.632812 180.722656 C 427.042969 180.722656 427.015625 186.574219 425.898438 193.378906 L 447.632812 193.378906 " fill-opacity="1" fill-rule="nonzero"/></g><g clip-path="url(#d70c8cb92a)"><path fill="#000000" d="M 435.726562 90.9375 C 427.644531 106.664062 419.804688 122.515625 412.207031 138.480469 L 391.707031 138.480469 L 380.652344 167.664062 C 375.925781 180.050781 370.617188 193.183594 367.046875 204.832031 L 366.398438 204.832031 C 367.867188 193.546875 369 179.910156 369.648438 167.382812 L 371.554688 138.828125 L 347.617188 138.828125 L 347.429688 227.128906 L 372.96875 227.128906 C 365.203125 246.058594 357.765625 265.121094 350.660156 284.308594 C 382.835938 221.625 411.285156 157.03125 435.726562 90.9375 " fill-opacity="1" fill-rule="nonzero"/></g><g fill="#ffffff" fill-opacity="1"><g transform="translate(137.532985, 48.229952)"><g><path d="M 13.125 -10.46875 C 13.125 -9.570312 12.914062 -8.753906 12.5 -8.015625 C 12.09375 -7.273438 11.460938 -6.675781 10.609375 -6.21875 C 9.765625 -5.769531 8.710938 -5.546875 7.453125 -5.546875 L 5.125 -5.546875 L 5.125 0 L 1.359375 0 L 1.359375 -15.4375 L 7.453125 -15.4375 C 8.679688 -15.4375 9.71875 -15.222656 10.5625 -14.796875 C 11.414062 -14.367188 12.054688 -13.78125 12.484375 -13.03125 C 12.910156 -12.289062 13.125 -11.4375 13.125 -10.46875 Z M 7.171875 -8.53125 C 7.890625 -8.53125 8.421875 -8.695312 8.765625 -9.03125 C 9.117188 -9.375 9.296875 -9.851562 9.296875 -10.46875 C 9.296875 -11.082031 9.117188 -11.554688 8.765625 -11.890625 C 8.421875 -12.234375 7.890625 -12.40625 7.171875 -12.40625 L 5.125 -12.40625 L 5.125 -8.53125 Z M 7.171875 -8.53125 "/></g></g></g><g fill="#ffffff" fill-opacity="1"><g transform="translate(151.249826, 48.229952)"><g><path d="M 12.921875 -6.328125 C 12.921875 -5.972656 12.898438 -5.609375 12.859375 -5.234375 L 4.359375 -5.234375 C 4.410156 -4.472656 4.648438 -3.890625 5.078125 -3.484375 C 5.515625 -3.078125 6.050781 -2.875 6.6875 -2.875 C 7.625 -2.875 8.273438 -3.269531 8.640625 -4.0625 L 12.640625 -4.0625 C 12.429688 -3.257812 12.0625 -2.535156 11.53125 -1.890625 C 11 -1.242188 10.328125 -0.738281 9.515625 -0.375 C 8.710938 -0.0078125 7.8125 0.171875 6.8125 0.171875 C 5.613281 0.171875 4.546875 -0.0820312 3.609375 -0.59375 C 2.671875 -1.101562 1.9375 -1.832031 1.40625 -2.78125 C 0.875 -3.738281 0.609375 -4.859375 0.609375 -6.140625 C 0.609375 -7.410156 0.867188 -8.519531 1.390625 -9.46875 C 1.910156 -10.425781 2.640625 -11.160156 3.578125 -11.671875 C 4.515625 -12.179688 5.59375 -12.4375 6.8125 -12.4375 C 8 -12.4375 9.050781 -12.1875 9.96875 -11.6875 C 10.894531 -11.195312 11.617188 -10.488281 12.140625 -9.5625 C 12.660156 -8.632812 12.921875 -7.554688 12.921875 -6.328125 Z M 9.078125 -7.328125 C 9.078125 -7.960938 8.859375 -8.472656 8.421875 -8.859375 C 7.984375 -9.242188 7.429688 -9.4375 6.765625 -9.4375 C 6.140625 -9.4375 5.609375 -9.25 5.171875 -8.875 C 4.742188 -8.507812 4.476562 -7.992188 4.375 -7.328125 Z M 9.078125 -7.328125 "/></g></g></g><g fill="#ffffff" fill-opacity="1"><g transform="translate(164.790815, 48.229952)"><g><path d="M 17.015625 -12.40625 C 18.535156 -12.40625 19.742188 -11.941406 20.640625 -11.015625 C 21.546875 -10.085938 22 -8.804688 22 -7.171875 L 22 0 L 18.265625 0 L 18.265625 -6.65625 C 18.265625 -7.445312 18.054688 -8.054688 17.640625 -8.484375 C 17.222656 -8.921875 16.648438 -9.140625 15.921875 -9.140625 C 15.179688 -9.140625 14.601562 -8.921875 14.1875 -8.484375 C 13.769531 -8.054688 13.5625 -7.445312 13.5625 -6.65625 L 13.5625 0 L 9.828125 0 L 9.828125 -6.65625 C 9.828125 -7.445312 9.617188 -8.054688 9.203125 -8.484375 C 8.785156 -8.921875 8.207031 -9.140625 7.46875 -9.140625 C 6.738281 -9.140625 6.164062 -8.921875 5.75 -8.484375 C 5.332031 -8.054688 5.125 -7.445312 5.125 -6.65625 L 5.125 0 L 1.359375 0 L 1.359375 -12.265625 L 5.125 -12.265625 L 5.125 -10.734375 C 5.5 -11.242188 5.992188 -11.648438 6.609375 -11.953125 C 7.234375 -12.253906 7.929688 -12.40625 8.703125 -12.40625 C 9.628906 -12.40625 10.453125 -12.207031 11.171875 -11.8125 C 11.898438 -11.414062 12.472656 -10.847656 12.890625 -10.109375 C 13.304688 -10.785156 13.878906 -11.335938 14.609375 -11.765625 C 15.347656 -12.191406 16.148438 -12.40625 17.015625 -12.40625 Z M 17.015625 -12.40625 "/></g></g></g><g fill="#ffffff" fill-opacity="1"><g transform="translate(188.069888, 48.229952)"><g><path d="M 0.609375 -6.15625 C 0.609375 -7.414062 0.847656 -8.519531 1.328125 -9.46875 C 1.804688 -10.425781 2.453125 -11.160156 3.265625 -11.671875 C 4.085938 -12.179688 5.007812 -12.4375 6.03125 -12.4375 C 6.894531 -12.4375 7.648438 -12.257812 8.296875 -11.90625 C 8.953125 -11.5625 9.457031 -11.101562 9.8125 -10.53125 L 9.8125 -12.265625 L 13.5625 -12.265625 L 13.5625 0 L 9.8125 0 L 9.8125 -1.734375 C 9.4375 -1.160156 8.921875 -0.695312 8.265625 -0.34375 C 7.617188 0 6.863281 0.171875 6 0.171875 C 5 0.171875 4.085938 -0.0859375 3.265625 -0.609375 C 2.453125 -1.128906 1.804688 -1.867188 1.328125 -2.828125 C 0.847656 -3.785156 0.609375 -4.894531 0.609375 -6.15625 Z M 9.8125 -6.140625 C 9.8125 -7.078125 9.550781 -7.816406 9.03125 -8.359375 C 8.507812 -8.898438 7.875 -9.171875 7.125 -9.171875 C 6.375 -9.171875 5.738281 -8.898438 5.21875 -8.359375 C 4.695312 -7.828125 4.4375 -7.09375 4.4375 -6.15625 C 4.4375 -5.21875 4.695312 -4.472656 5.21875 -3.921875 C 5.738281 -3.367188 6.375 -3.09375 7.125 -3.09375 C 7.875 -3.09375 8.507812 -3.363281 9.03125 -3.90625 C 9.550781 -4.457031 9.8125 -5.203125 9.8125 -6.140625 Z M 9.8125 -6.140625 "/></g></g></g><g fill="#ffffff" fill-opacity="1"><g transform="translate(202.995751, 48.229952)"><g><path d="M 3.25 -13.546875 C 2.59375 -13.546875 2.054688 -13.738281 1.640625 -14.125 C 1.222656 -14.507812 1.015625 -14.988281 1.015625 -15.5625 C 1.015625 -16.144531 1.222656 -16.628906 1.640625 -17.015625 C 2.054688 -17.410156 2.59375 -17.609375 3.25 -17.609375 C 3.894531 -17.609375 4.425781 -17.410156 4.84375 -17.015625 C 5.257812 -16.628906 5.46875 -16.144531 5.46875 -15.5625 C 5.46875 -14.988281 5.257812 -14.507812 4.84375 -14.125 C 4.425781 -13.738281 3.894531 -13.546875 3.25 -13.546875 Z M 5.125 -12.265625 L 5.125 0 L 1.359375 0 L 1.359375 -12.265625 Z M 5.125 -12.265625 "/></g></g></g><g fill="#ffffff" fill-opacity="1"><g transform="translate(209.48048, 48.229952)"><g><path d="M 8.84375 -12.40625 C 10.269531 -12.40625 11.410156 -11.9375 12.265625 -11 C 13.128906 -10.070312 13.5625 -8.796875 13.5625 -7.171875 L 13.5625 0 L 9.828125 0 L 9.828125 -6.65625 C 9.828125 -7.476562 9.613281 -8.113281 9.1875 -8.5625 C 8.757812 -9.019531 8.1875 -9.25 7.46875 -9.25 C 6.75 -9.25 6.175781 -9.019531 5.75 -8.5625 C 5.332031 -8.113281 5.125 -7.476562 5.125 -6.65625 L 5.125 0 L 1.359375 0 L 1.359375 -12.265625 L 5.125 -12.265625 L 5.125 -10.640625 C 5.5 -11.179688 6.007812 -11.609375 6.65625 -11.921875 C 7.300781 -12.242188 8.03125 -12.40625 8.84375 -12.40625 Z M 8.84375 -12.40625 "/></g></g></g><g fill="#ffffff" fill-opacity="1"><g transform="translate(224.296435, 48.229952)"><g/></g></g><g fill="#ffffff" fill-opacity="1"><g transform="translate(228.956646, 48.229952)"><g><path d="M 0.59375 -12.546875 L 0.59375 -16.046875 L 6.6875 -16.046875 L 6.6875 0 L 2.765625 0 L 2.765625 -12.546875 Z M 0.59375 -12.546875 "/></g></g></g><g fill="#ffffff" fill-opacity="1"><g transform="translate(547.630403, 48.229952)"><g><path d="M 13.125 -10.46875 C 13.125 -9.570312 12.914062 -8.753906 12.5 -8.015625 C 12.09375 -7.273438 11.460938 -6.675781 10.609375 -6.21875 C 9.765625 -5.769531 8.710938 -5.546875 7.453125 -5.546875 L 5.125 -5.546875 L 5.125 0 L 1.359375 0 L 1.359375 -15.4375 L 7.453125 -15.4375 C 8.679688 -15.4375 9.71875 -15.222656 10.5625 -14.796875 C 11.414062 -14.367188 12.054688 -13.78125 12.484375 -13.03125 C 12.910156 -12.289062 13.125 -11.4375 13.125 -10.46875 Z M 7.171875 -8.53125 C 7.890625 -8.53125 8.421875 -8.695312 8.765625 -9.03125 C 9.117188 -9.375 9.296875 -9.851562 9.296875 -10.46875 C 9.296875 -11.082031 9.117188 -11.554688 8.765625 -11.890625 C 8.421875 -12.234375 7.890625 -12.40625 7.171875 -12.40625 L 5.125 -12.40625 L 5.125 -8.53125 Z M 7.171875 -8.53125 "/></g></g></g><g fill="#ffffff" fill-opacity="1"><g transform="translate(561.347245, 48.229952)"><g><path d="M 12.921875 -6.328125 C 12.921875 -5.972656 12.898438 -5.609375 12.859375 -5.234375 L 4.359375 -5.234375 C 4.410156 -4.472656 4.648438 -3.890625 5.078125 -3.484375 C 5.515625 -3.078125 6.050781 -2.875 6.6875 -2.875 C 7.625 -2.875 8.273438 -3.269531 8.640625 -4.0625 L 12.640625 -4.0625 C 12.429688 -3.257812 12.0625 -2.535156 11.53125 -1.890625 C 11 -1.242188 10.328125 -0.738281 9.515625 -0.375 C 8.710938 -0.0078125 7.8125 0.171875 6.8125 0.171875 C 5.613281 0.171875 4.546875 -0.0820312 3.609375 -0.59375 C 2.671875 -1.101562 1.9375 -1.832031 1.40625 -2.78125 C 0.875 -3.738281 0.609375 -4.859375 0.609375 -6.140625 C 0.609375 -7.410156 0.867188 -8.519531 1.390625 -9.46875 C 1.910156 -10.425781 2.640625 -11.160156 3.578125 -11.671875 C 4.515625 -12.179688 5.59375 -12.4375 6.8125 -12.4375 C 8 -12.4375 9.050781 -12.1875 9.96875 -11.6875 C 10.894531 -11.195312 11.617188 -10.488281 12.140625 -9.5625 C 12.660156 -8.632812 12.921875 -7.554688 12.921875 -6.328125 Z M 9.078125 -7.328125 C 9.078125 -7.960938 8.859375 -8.472656 8.421875 -8.859375 C 7.984375 -9.242188 7.429688 -9.4375 6.765625 -9.4375 C 6.140625 -9.4375 5.609375 -9.25 5.171875 -8.875 C 4.742188 -8.507812 4.476562 -7.992188 4.375 -7.328125 Z M 9.078125 -7.328125 "/></g></g></g><g fill="#ffffff" fill-opacity="1"><g transform="translate(574.888234, 48.229952)"><g><path d="M 17.015625 -12.40625 C 18.535156 -12.40625 19.742188 -11.941406 20.640625 -11.015625 C 21.546875 -10.085938 22 -8.804688 22 -7.171875 L 22 0 L 18.265625 0 L 18.265625 -6.65625 C 18.265625 -7.445312 18.054688 -8.054688 17.640625 -8.484375 C 17.222656 -8.921875 16.648438 -9.140625 15.921875 -9.140625 C 15.179688 -9.140625 14.601562 -8.921875 14.1875 -8.484375 C 13.769531 -8.054688 13.5625 -7.445312 13.5625 -6.65625 L 13.5625 0 L 9.828125 0 L 9.828125 -6.65625 C 9.828125 -7.445312 9.617188 -8.054688 9.203125 -8.484375 C 8.785156 -8.921875 8.207031 -9.140625 7.46875 -9.140625 C 6.738281 -9.140625 6.164062 -8.921875 5.75 -8.484375 C 5.332031 -8.054688 5.125 -7.445312 5.125 -6.65625 L 5.125 0 L 1.359375 0 L 1.359375 -12.265625 L 5.125 -12.265625 L 5.125 -10.734375 C 5.5 -11.242188 5.992188 -11.648438 6.609375 -11.953125 C 7.234375 -12.253906 7.929688 -12.40625 8.703125 -12.40625 C 9.628906 -12.40625 10.453125 -12.207031 11.171875 -11.8125 C 11.898438 -11.414062 12.472656 -10.847656 12.890625 -10.109375 C 13.304688 -10.785156 13.878906 -11.335938 14.609375 -11.765625 C 15.347656 -12.191406 16.148438 -12.40625 17.015625 -12.40625 Z M 17.015625 -12.40625 "/></g></g></g><g fill="#ffffff" fill-opacity="1"><g transform="translate(598.167307, 48.229952)"><g><path d="M 0.609375 -6.15625 C 0.609375 -7.414062 0.847656 -8.519531 1.328125 -9.46875 C 1.804688 -10.425781 2.453125 -11.160156 3.265625 -11.671875 C 4.085938 -12.179688 5.007812 -12.4375 6.03125 -12.4375 C 6.894531 -12.4375 7.648438 -12.257812 8.296875 -11.90625 C 8.953125 -11.5625 9.457031 -11.101562 9.8125 -10.53125 L 9.8125 -12.265625 L 13.5625 -12.265625 L 13.5625 0 L 9.8125 0 L 9.8125 -1.734375 C 9.4375 -1.160156 8.921875 -0.695312 8.265625 -0.34375 C 7.617188 0 6.863281 0.171875 6 0.171875 C 5 0.171875 4.085938 -0.0859375 3.265625 -0.609375 C 2.453125 -1.128906 1.804688 -1.867188 1.328125 -2.828125 C 0.847656 -3.785156 0.609375 -4.894531 0.609375 -6.15625 Z M 9.8125 -6.140625 C 9.8125 -7.078125 9.550781 -7.816406 9.03125 -8.359375 C 8.507812 -8.898438 7.875 -9.171875 7.125 -9.171875 C 6.375 -9.171875 5.738281 -8.898438 5.21875 -8.359375 C 4.695312 -7.828125 4.4375 -7.09375 4.4375 -6.15625 C 4.4375 -5.21875 4.695312 -4.472656 5.21875 -3.921875 C 5.738281 -3.367188 6.375 -3.09375 7.125 -3.09375 C 7.875 -3.09375 8.507812 -3.363281 9.03125 -3.90625 C 9.550781 -4.457031 9.8125 -5.203125 9.8125 -6.140625 Z M 9.8125 -6.140625 "/></g></g></g><g fill="#ffffff" fill-opacity="1"><g transform="translate(613.09317, 48.229952)"><g><path d="M 3.25 -13.546875 C 2.59375 -13.546875 2.054688 -13.738281 1.640625 -14.125 C 1.222656 -14.507812 1.015625 -14.988281 1.015625 -15.5625 C 1.015625 -16.144531 1.222656 -16.628906 1.640625 -17.015625 C 2.054688 -17.410156 2.59375 -17.609375 3.25 -17.609375 C 3.894531 -17.609375 4.425781 -17.410156 4.84375 -17.015625 C 5.257812 -16.628906 5.46875 -16.144531 5.46875 -15.5625 C 5.46875 -14.988281 5.257812 -14.507812 4.84375 -14.125 C 4.425781 -13.738281 3.894531 -13.546875 3.25 -13.546875 Z M 5.125 -12.265625 L 5.125 0 L 1.359375 0 L 1.359375 -12.265625 Z M 5.125 -12.265625 "/></g></g></g><g fill="#ffffff" fill-opacity="1"><g transform="translate(619.577898, 48.229952)"><g><path d="M 8.84375 -12.40625 C 10.269531 -12.40625 11.410156 -11.9375 12.265625 -11 C 13.128906 -10.070312 13.5625 -8.796875 13.5625 -7.171875 L 13.5625 0 L 9.828125 0 L 9.828125 -6.65625 C 9.828125 -7.476562 9.613281 -8.113281 9.1875 -8.5625 C 8.757812 -9.019531 8.1875 -9.25 7.46875 -9.25 C 6.75 -9.25 6.175781 -9.019531 5.75 -8.5625 C 5.332031 -8.113281 5.125 -7.476562 5.125 -6.65625 L 5.125 0 L 1.359375 0 L 1.359375 -12.265625 L 5.125 -12.265625 L 5.125 -10.640625 C 5.5 -11.179688 6.007812 -11.609375 6.65625 -11.921875 C 7.300781 -12.242188 8.03125 -12.40625 8.84375 -12.40625 Z M 8.84375 -12.40625 "/></g></g></g><g fill="#ffffff" fill-opacity="1"><g transform="translate(634.393854, 48.229952)"><g/></g></g><g fill="#ffffff" fill-opacity="1"><g transform="translate(639.054065, 48.229952)"><g><path d="M 0.859375 -3.015625 C 1.359375 -3.410156 1.582031 -3.59375 1.53125 -3.5625 C 2.96875 -4.75 4.097656 -5.722656 4.921875 -6.484375 C 5.753906 -7.242188 6.457031 -8.039062 7.03125 -8.875 C 7.601562 -9.71875 7.890625 -10.535156 7.890625 -11.328125 C 7.890625 -11.921875 7.75 -12.382812 7.46875 -12.71875 C 7.195312 -13.0625 6.78125 -13.234375 6.21875 -13.234375 C 5.664062 -13.234375 5.226562 -13.023438 4.90625 -12.609375 C 4.59375 -12.191406 4.4375 -11.601562 4.4375 -10.84375 L 0.8125 -10.84375 C 0.84375 -12.082031 1.109375 -13.117188 1.609375 -13.953125 C 2.117188 -14.796875 2.785156 -15.414062 3.609375 -15.8125 C 4.441406 -16.207031 5.363281 -16.40625 6.375 -16.40625 C 8.113281 -16.40625 9.425781 -15.957031 10.3125 -15.0625 C 11.207031 -14.164062 11.65625 -13 11.65625 -11.5625 C 11.65625 -10 11.117188 -8.546875 10.046875 -7.203125 C 8.972656 -5.859375 7.609375 -4.550781 5.953125 -3.28125 L 11.890625 -3.28125 L 11.890625 -0.21875 L 0.859375 -0.21875 Z M 0.859375 -3.015625 "/></g></g></g></svg>