<svg xmlns="http://www.w3.org/2000/svg" xmlns:xlink="http://www.w3.org/1999/xlink" width="1050" zoomAndPan="magnify" viewBox="0 0 787.5 374.999991" height="500" preserveAspectRatio="xMidYMid meet" version="1.0"><defs><g/><clipPath id="077fd4eb9a"><path d="M 414.691406 0.117188 L 787 0.117188 L 787 374.878906 L 414.691406 374.878906 Z M 414.691406 0.117188 " clip-rule="nonzero"/></clipPath><clipPath id="91564b1a7d"><path d="M 602.070312 0.117188 C 498.582031 0.117188 414.691406 84.011719 414.691406 187.5 C 414.691406 290.988281 498.582031 374.882812 602.070312 374.882812 C 705.558594 374.882812 789.453125 290.988281 789.453125 187.5 C 789.453125 84.011719 705.558594 0.117188 602.070312 0.117188 Z M 602.070312 0.117188 " clip-rule="nonzero"/></clipPath><clipPath id="402ec5f523"><path d="M 499 68 L 711 68 L 711 315 L 499 315 Z M 499 68 " clip-rule="nonzero"/></clipPath><clipPath id="9a1f1fb0ef"><path d="M 656.917969 41.113281 L 751.992188 252.007812 L 570.621094 333.769531 L 475.546875 122.875 Z M 656.917969 41.113281 " clip-rule="nonzero"/></clipPath><clipPath id="79910127f0"><path d="M 656.917969 41.113281 L 751.992188 252.007812 L 570.621094 333.769531 L 475.546875 122.875 Z M 656.917969 41.113281 " clip-rule="nonzero"/></clipPath><clipPath id="85a4e2e35b"><path d="M 656.917969 41.113281 L 751.992188 252.007812 L 570.621094 333.769531 L 475.546875 122.875 Z M 656.917969 41.113281 " clip-rule="nonzero"/></clipPath><clipPath id="6872d61874"><path d="M 507 76 L 702 76 L 702 306 L 507 306 Z M 507 76 " clip-rule="nonzero"/></clipPath><clipPath id="e8c6d36e7c"><path d="M 656.917969 41.113281 L 751.992188 252.007812 L 570.621094 333.769531 L 475.546875 122.875 Z M 656.917969 41.113281 " clip-rule="nonzero"/></clipPath><clipPath id="8bd11669b1"><path d="M 656.917969 41.113281 L 751.992188 252.007812 L 570.621094 333.769531 L 475.546875 122.875 Z M 656.917969 41.113281 " clip-rule="nonzero"/></clipPath><clipPath id="5adc5559f3"><path d="M 656.917969 41.113281 L 751.992188 252.007812 L 570.621094 333.769531 L 475.546875 122.875 Z M 656.917969 41.113281 " clip-rule="nonzero"/></clipPath><clipPath id="f25307ef8c"><path d="M 543 91 L 702 91 L 702 295 L 543 295 Z M 543 91 " clip-rule="nonzero"/></clipPath><clipPath id="35c95c8417"><path d="M 656.917969 41.113281 L 751.992188 252.007812 L 570.621094 333.769531 L 475.546875 122.875 Z M 656.917969 41.113281 " clip-rule="nonzero"/></clipPath><clipPath id="dfac0a5715"><path d="M 656.917969 41.113281 L 751.992188 252.007812 L 570.621094 333.769531 L 475.546875 122.875 Z M 656.917969 41.113281 " clip-rule="nonzero"/></clipPath><clipPath id="8b49974760"><path d="M 656.917969 41.113281 L 751.992188 252.007812 L 570.621094 333.769531 L 475.546875 122.875 Z M 656.917969 41.113281 " clip-rule="nonzero"/></clipPath><clipPath id="3d01a571e5"><path d="M 597 80 L 618 80 L 618 170 L 597 170 Z M 597 80 " clip-rule="nonzero"/></clipPath><clipPath id="91eb929101"><path d="M 656.917969 41.113281 L 751.992188 252.007812 L 570.621094 333.769531 L 475.546875 122.875 Z M 656.917969 41.113281 " clip-rule="nonzero"/></clipPath><clipPath id="d88251070b"><path d="M 656.917969 41.113281 L 751.992188 252.007812 L 570.621094 333.769531 L 475.546875 122.875 Z M 656.917969 41.113281 " clip-rule="nonzero"/></clipPath><clipPath id="bbd281bf7b"><path d="M 656.917969 41.113281 L 751.992188 252.007812 L 570.621094 333.769531 L 475.546875 122.875 Z M 656.917969 41.113281 " clip-rule="nonzero"/></clipPath><clipPath id="5fa3184121"><path d="M 549 98 L 578 98 L 578 179 L 549 179 Z M 549 98 " clip-rule="nonzero"/></clipPath><clipPath id="6f178012c9"><path d="M 656.917969 41.113281 L 751.992188 252.007812 L 570.621094 333.769531 L 475.546875 122.875 Z M 656.917969 41.113281 " clip-rule="nonzero"/></clipPath><clipPath id="3f5663b288"><path d="M 656.917969 41.113281 L 751.992188 252.007812 L 570.621094 333.769531 L 475.546875 122.875 Z M 656.917969 41.113281 " clip-rule="nonzero"/></clipPath><clipPath id="116eaf2c8c"><path d="M 656.917969 41.113281 L 751.992188 252.007812 L 570.621094 333.769531 L 475.546875 122.875 Z M 656.917969 41.113281 " clip-rule="nonzero"/></clipPath><clipPath id="5d56f31489"><path d="M 512 135 L 546 135 L 546 203 L 512 203 Z M 512 135 " clip-rule="nonzero"/></clipPath><clipPath id="976582531d"><path d="M 656.917969 41.113281 L 751.992188 252.007812 L 570.621094 333.769531 L 475.546875 122.875 Z M 656.917969 41.113281 " clip-rule="nonzero"/></clipPath><clipPath id="b932cd6b50"><path d="M 656.917969 41.113281 L 751.992188 252.007812 L 570.621094 333.769531 L 475.546875 122.875 Z M 656.917969 41.113281 " clip-rule="nonzero"/></clipPath><clipPath id="72bd3e0dda"><path d="M 656.917969 41.113281 L 751.992188 252.007812 L 570.621094 333.769531 L 475.546875 122.875 Z M 656.917969 41.113281 " clip-rule="nonzero"/></clipPath><clipPath id="47f9cc801f"><path d="M 0 0.117188 L 374.761719 0.117188 L 374.761719 374.878906 L 0 374.878906 Z M 0 0.117188 " clip-rule="nonzero"/></clipPath><clipPath id="b646cf5d9b"><path d="M 187.382812 0.117188 C 83.894531 0.117188 0 84.011719 0 187.5 C 0 290.988281 83.894531 374.882812 187.382812 374.882812 C 290.867188 374.882812 374.761719 290.988281 374.761719 187.5 C 374.761719 84.011719 290.867188 0.117188 187.382812 0.117188 Z M 187.382812 0.117188 " clip-rule="nonzero"/></clipPath><clipPath id="0b56ea6e42"><path d="M 108 70 L 257 70 L 257 311 L 108 311 Z M 108 70 " clip-rule="nonzero"/></clipPath><clipPath id="80e1ffcc2d"><path d="M 210.707031 41.886719 L 323.6875 243.757812 L 164.214844 333.011719 L 51.230469 131.144531 Z M 210.707031 41.886719 " clip-rule="nonzero"/></clipPath><clipPath id="af5d9b4fed"><path d="M 210.707031 41.886719 L 323.6875 243.757812 L 164.214844 333.011719 L 51.230469 131.144531 Z M 210.707031 41.886719 " clip-rule="nonzero"/></clipPath><clipPath id="9e236e0c35"><path d="M 210.707031 41.886719 L 323.6875 243.757812 L 164.214844 333.011719 L 51.230469 131.144531 Z M 210.707031 41.886719 " clip-rule="nonzero"/></clipPath><clipPath id="7365367e73"><path d="M 132 80 L 231 80 L 231 220 L 132 220 Z M 132 80 " clip-rule="nonzero"/></clipPath><clipPath id="47d5b7a44f"><path d="M 210.707031 41.886719 L 323.6875 243.757812 L 164.214844 333.011719 L 51.230469 131.144531 Z M 210.707031 41.886719 " clip-rule="nonzero"/></clipPath><clipPath id="89ac0e7d08"><path d="M 210.707031 41.886719 L 323.6875 243.757812 L 164.214844 333.011719 L 51.230469 131.144531 Z M 210.707031 41.886719 " clip-rule="nonzero"/></clipPath><clipPath id="1936d45890"><path d="M 210.707031 41.886719 L 323.6875 243.757812 L 164.214844 333.011719 L 51.230469 131.144531 Z M 210.707031 41.886719 " clip-rule="nonzero"/></clipPath><clipPath id="b150a9b918"><path d="M 125 193 L 248 193 L 248 304 L 125 304 Z M 125 193 " clip-rule="nonzero"/></clipPath><clipPath id="20b6f05584"><path d="M 210.707031 41.886719 L 323.6875 243.757812 L 164.214844 333.011719 L 51.230469 131.144531 Z M 210.707031 41.886719 " clip-rule="nonzero"/></clipPath><clipPath id="2531946f5a"><path d="M 210.707031 41.886719 L 323.6875 243.757812 L 164.214844 333.011719 L 51.230469 131.144531 Z M 210.707031 41.886719 " clip-rule="nonzero"/></clipPath><clipPath id="00210588f1"><path d="M 210.707031 41.886719 L 323.6875 243.757812 L 164.214844 333.011719 L 51.230469 131.144531 Z M 210.707031 41.886719 " clip-rule="nonzero"/></clipPath><clipPath id="0dc008f59b"><path d="M 115 191 L 155 191 L 155 235 L 115 235 Z M 115 191 " clip-rule="nonzero"/></clipPath><clipPath id="8a7c10e668"><path d="M 210.707031 41.886719 L 323.6875 243.757812 L 164.214844 333.011719 L 51.230469 131.144531 Z M 210.707031 41.886719 " clip-rule="nonzero"/></clipPath><clipPath id="e340513183"><path d="M 210.707031 41.886719 L 323.6875 243.757812 L 164.214844 333.011719 L 51.230469 131.144531 Z M 210.707031 41.886719 " clip-rule="nonzero"/></clipPath><clipPath id="b783da27f4"><path d="M 210.707031 41.886719 L 323.6875 243.757812 L 164.214844 333.011719 L 51.230469 131.144531 Z M 210.707031 41.886719 " clip-rule="nonzero"/></clipPath><clipPath id="bae97e873e"><path d="M 158 82 L 231 82 L 231 195 L 158 195 Z M 158 82 " clip-rule="nonzero"/></clipPath><clipPath id="1485c772ac"><path d="M 210.707031 41.886719 L 323.6875 243.757812 L 164.214844 333.011719 L 51.230469 131.144531 Z M 210.707031 41.886719 " clip-rule="nonzero"/></clipPath><clipPath id="11c6da3a73"><path d="M 210.707031 41.886719 L 323.6875 243.757812 L 164.214844 333.011719 L 51.230469 131.144531 Z M 210.707031 41.886719 " clip-rule="nonzero"/></clipPath><clipPath id="b17723f07b"><path d="M 210.707031 41.886719 L 323.6875 243.757812 L 164.214844 333.011719 L 51.230469 131.144531 Z M 210.707031 41.886719 " clip-rule="nonzero"/></clipPath><clipPath id="5f601ac41b"><path d="M 181 193 L 248 193 L 248 273 L 181 273 Z M 181 193 " clip-rule="nonzero"/></clipPath><clipPath id="a245d384c7"><path d="M 210.707031 41.886719 L 323.6875 243.757812 L 164.214844 333.011719 L 51.230469 131.144531 Z M 210.707031 41.886719 " clip-rule="nonzero"/></clipPath><clipPath id="0eb3fb7f89"><path d="M 210.707031 41.886719 L 323.6875 243.757812 L 164.214844 333.011719 L 51.230469 131.144531 Z M 210.707031 41.886719 " clip-rule="nonzero"/></clipPath><clipPath id="f32e1180b1"><path d="M 210.707031 41.886719 L 323.6875 243.757812 L 164.214844 333.011719 L 51.230469 131.144531 Z M 210.707031 41.886719 " clip-rule="nonzero"/></clipPath><clipPath id="88ad41752b"><path d="M 153 229 L 231 229 L 231 301 L 153 301 Z M 153 229 " clip-rule="nonzero"/></clipPath><clipPath id="aaf008e310"><path d="M 210.707031 41.886719 L 323.6875 243.757812 L 164.214844 333.011719 L 51.230469 131.144531 Z M 210.707031 41.886719 " clip-rule="nonzero"/></clipPath><clipPath id="23f91fe040"><path d="M 210.707031 41.886719 L 323.6875 243.757812 L 164.214844 333.011719 L 51.230469 131.144531 Z M 210.707031 41.886719 " clip-rule="nonzero"/></clipPath><clipPath id="97fe2f293d"><path d="M 210.707031 41.886719 L 323.6875 243.757812 L 164.214844 333.011719 L 51.230469 131.144531 Z M 210.707031 41.886719 " clip-rule="nonzero"/></clipPath><clipPath id="7418b7454e"><path d="M 138 163 L 163 163 L 163 206 L 138 206 Z M 138 163 " clip-rule="nonzero"/></clipPath><clipPath id="5b3b60cda4"><path d="M 210.707031 41.886719 L 323.6875 243.757812 L 164.214844 333.011719 L 51.230469 131.144531 Z M 210.707031 41.886719 " clip-rule="nonzero"/></clipPath><clipPath id="1dbf31f94f"><path d="M 210.707031 41.886719 L 323.6875 243.757812 L 164.214844 333.011719 L 51.230469 131.144531 Z M 210.707031 41.886719 " clip-rule="nonzero"/></clipPath><clipPath id="24f9527628"><path d="M 210.707031 41.886719 L 323.6875 243.757812 L 164.214844 333.011719 L 51.230469 131.144531 Z M 210.707031 41.886719 " clip-rule="nonzero"/></clipPath><clipPath id="69aab89c88"><path d="M 119 191 L 139 191 L 139 220 L 119 220 Z M 119 191 " clip-rule="nonzero"/></clipPath><clipPath id="7a5f3d98a2"><path d="M 210.707031 41.886719 L 323.6875 243.757812 L 164.214844 333.011719 L 51.230469 131.144531 Z M 210.707031 41.886719 " clip-rule="nonzero"/></clipPath><clipPath id="ce6aa94078"><path d="M 210.707031 41.886719 L 323.6875 243.757812 L 164.214844 333.011719 L 51.230469 131.144531 Z M 210.707031 41.886719 " clip-rule="nonzero"/></clipPath><clipPath id="adc0042966"><path d="M 210.707031 41.886719 L 323.6875 243.757812 L 164.214844 333.011719 L 51.230469 131.144531 Z M 210.707031 41.886719 " clip-rule="nonzero"/></clipPath><clipPath id="b5f53ed173"><path d="M 376 164.101562 L 448.609375 164.101562 L 448.609375 265.546875 L 376 265.546875 Z M 376 164.101562 " clip-rule="nonzero"/></clipPath><clipPath id="4384891904"><path d="M 347.429688 90.9375 L 435.945312 90.9375 L 435.945312 284.308594 L 347.429688 284.308594 Z M 347.429688 90.9375 " clip-rule="nonzero"/></clipPath></defs><g clip-path="url(#077fd4eb9a)"><g clip-path="url(#91564b1a7d)"><path fill="#05a552" d="M 414.691406 0.117188 L 789.453125 0.117188 L 789.453125 374.882812 L 414.691406 374.882812 Z M 414.691406 0.117188 " fill-opacity="1" fill-rule="nonzero"/></g></g><g clip-path="url(#402ec5f523)"><g clip-path="url(#9a1f1fb0ef)"><g clip-path="url(#79910127f0)"><g clip-path="url(#85a4e2e35b)"><path fill="#232323" d="M 571.792969 99.542969 C 569.234375 93.363281 563.21875 89.351562 556.566406 89.285156 C 550.050781 89.285156 544.46875 92.945312 540.613281 97.984375 C 535.703125 104.292969 533.941406 112.292969 533.847656 120.15625 C 533.855469 130.132812 535.730469 139.980469 538.109375 149.636719 C 535.1875 143.785156 532.578125 136.535156 527.71875 132.074219 C 524.046875 128.59375 518.726562 127.183594 513.875 128.714844 C 507.730469 130.550781 503.222656 136.777344 501.421875 142.703125 C 498.917969 150.90625 499.675781 160.417969 501.304688 168.738281 C 503.050781 178.441406 507.742188 187.625 512.472656 196.222656 C 515.589844 202.078125 520.1875 206.566406 522.738281 212.738281 C 528.992188 225.183594 528.421875 238.328125 534.476562 250.71875 C 538.535156 258.722656 544.792969 265.003906 552.171875 269.996094 C 549.089844 276.554688 548.800781 284.128906 551.632812 290.835938 C 554.574219 298.179688 560.464844 303.703125 567.265625 307.492188 C 577.039062 312.765625 587.945312 314.621094 598.964844 314.183594 C 611.035156 313.632812 622.914062 310.164062 633.15625 303.699219 C 641.382812 298.371094 648.453125 290.914062 651.335938 281.351562 C 652.648438 277.375 652.714844 273.289062 652.152344 269.167969 C 657.363281 265.027344 661.203125 259.734375 664.5625 254.035156 C 668.46875 247.113281 670.078125 239.816406 672.824219 232.460938 C 675.894531 224.25 679.035156 215.96875 684.359375 208.933594 C 689.1875 200.847656 695.574219 194.207031 701.320312 186.839844 C 704.910156 181.78125 709.320312 176.214844 710.292969 169.953125 C 711.300781 163.671875 709.152344 157.011719 704.203125 152.898438 C 699.445312 148.847656 692.742188 148.082031 686.765625 149.007812 C 677.253906 150.535156 668.691406 155.867188 661.625 162.226562 C 658.035156 165.308594 655.210938 168.992188 652.320312 172.707031 C 654.480469 162.382812 657.011719 152.160156 660.523438 142.214844 C 664.535156 129.042969 669.628906 117.554688 671.996094 104.078125 C 673.003906 97.566406 671.382812 90.773438 665.878906 86.675781 C 661.699219 83.5625 656.148438 82.761719 651.230469 84.40625 C 643.894531 86.839844 638.289062 92.238281 634.136719 98.601562 C 629.160156 106.007812 626.296875 114.085938 623.136719 122.339844 C 623.625 111.703125 625.765625 99.964844 624.566406 89.335938 C 623.8125 82.507812 620.96875 75.324219 615.398438 71.015625 C 610.570312 67.378906 604.117188 67.390625 598.902344 70.191406 C 591.753906 73.9375 587.355469 81.339844 585.144531 88.886719 C 579.699219 106.121094 580.597656 125.679688 580.546875 143.589844 C 578.652344 135.472656 577.171875 127.234375 575.859375 119 C 574.792969 112.601562 574.175781 105.589844 571.792969 99.542969 Z M 571.792969 99.542969 " fill-opacity="1" fill-rule="nonzero"/></g></g></g></g><g clip-path="url(#6872d61874)"><g clip-path="url(#e8c6d36e7c)"><g clip-path="url(#8bd11669b1)"><g clip-path="url(#5adc5559f3)"><path fill="#ababab" d="M 549.65625 174.839844 C 550.625 179.113281 552.195312 182.777344 551.9375 187.042969 C 547.425781 181.984375 544.335938 175.453125 541.179688 169.496094 C 537.570312 161.933594 533.878906 154.414062 530.003906 146.988281 C 527.988281 143.324219 525.535156 138.375 521.664062 136.414062 C 519.394531 135.226562 517.199219 135.738281 514.933594 136.605469 C 510.589844 139.730469 508.527344 144.449219 508.066406 149.664062 C 507.082031 161.066406 509.757812 173 514.550781 183.324219 C 517.769531 190.789062 521.597656 197.941406 525.625 204.996094 C 528.347656 210.402344 531.539062 215.285156 533.347656 220.882812 C 536.921875 230.746094 537.929688 241.625 543.898438 250.5 C 547.828125 256.109375 553.199219 261.414062 559.550781 264.175781 C 566.3125 266.859375 573.921875 267.515625 581.042969 265.988281 C 586 265.023438 590.289062 262.820312 595.144531 261.460938 C 591.851562 266.957031 585.527344 270.683594 579.578125 272.582031 C 572.816406 274.710938 565.953125 274.398438 559.066406 273.164062 C 558.253906 277.972656 557.730469 282.53125 559.664062 287.191406 C 562.914062 294.945312 570.363281 299.792969 578.035156 302.445312 C 589.707031 306.429688 603.046875 305.917969 614.710938 302.242188 C 623.644531 299.226562 632.101562 294.679688 637.859375 287.003906 C 640.921875 283.445312 642.496094 279.128906 643.285156 274.546875 C 636.921875 276.304688 631.191406 278.105469 624.523438 276.640625 C 621.523438 276.023438 618.84375 274.5625 616.457031 272.683594 C 626.421875 272.046875 635.769531 270.464844 644.199219 264.6875 C 649.539062 260.925781 652.960938 255.816406 656.109375 250.207031 C 660.226562 242.648438 661.921875 233.898438 665.4375 225.855469 C 669.046875 216.882812 673.949219 208.640625 679.484375 200.742188 C 685.761719 190.515625 694.339844 182.929688 700.039062 172.402344 C 701.535156 169.566406 701.769531 166.699219 701.007812 163.601562 C 699.90625 161.199219 698.40625 159.199219 695.8125 158.355469 C 690.449219 156.546875 684.011719 158.308594 679.050781 160.546875 C 668.355469 165.84375 659.289062 174.578125 654.21875 185.457031 C 651.769531 190.445312 649.574219 195.925781 645.457031 199.796875 C 643.808594 201.292969 642.050781 203.246094 639.882812 203.882812 C 636.566406 204.9375 633.09375 205.453125 629.753906 206.433594 C 617.285156 210.019531 605.660156 215.703125 596.742188 225.328125 C 599.75 217.898438 605.027344 211.746094 611.570312 207.1875 C 619.859375 200.929688 629.59375 197.398438 639.863281 196.226562 C 640.25 185.574219 643.386719 174.863281 645.542969 164.417969 C 648.234375 151.335938 652.601562 138.847656 656.730469 126.183594 C 659.414062 119.132812 661.617188 111.949219 663.347656 104.605469 C 664 101.671875 664.316406 98.089844 662.746094 95.382812 C 661.449219 93.363281 659.496094 92.53125 657.34375 91.726562 C 650.660156 91.925781 645.59375 95.847656 641.464844 100.753906 C 635.898438 107.566406 632.136719 116.378906 628.878906 124.496094 C 622.769531 140.457031 619.667969 156.914062 615.953125 173.496094 C 614.949219 173.265625 613.945312 173.039062 612.9375 172.800781 C 613.070312 168.75 613.523438 164.726562 614.113281 160.714844 C 614.65625 158.171875 615.164062 155.605469 615.527344 153.03125 C 616.183594 148.511719 615.878906 143.964844 616.367188 139.402344 C 617.703125 127.917969 617.558594 115.984375 617.605469 104.367188 C 617.433594 96.136719 617.589844 87.824219 613.03125 80.605469 C 611.394531 78.664062 609.746094 76.65625 607.03125 76.464844 C 602.582031 76.132812 598.902344 79.078125 596.238281 82.339844 C 591.996094 87.582031 590.117188 95.136719 588.617188 101.609375 C 586.152344 113.625 585.589844 126.097656 585.125 138.332031 C 584.921875 145.691406 584.648438 153.03125 584.828125 160.402344 C 584.890625 165.039062 585.269531 169.53125 584.816406 174.171875 C 580.417969 170.875 579.074219 163.632812 577.296875 158.652344 C 572.988281 142.652344 569.085938 126.5625 566.113281 110.265625 C 565.046875 105.796875 564.0625 100.25 559.308594 98.269531 C 557.101562 97.792969 554.953125 97.59375 552.820312 98.527344 C 548.046875 100.578125 544.648438 105.507812 542.996094 110.300781 C 540.625 117.191406 540.835938 125.238281 541.355469 132.441406 C 542.449219 147.117188 546.15625 160.554688 549.65625 174.839844 Z M 609.054688 176.722656 C 613.96875 177.207031 619.792969 178.269531 622.75 182.6875 C 617.796875 181.746094 612.804688 181.457031 607.773438 181.785156 C 595.320312 182.714844 582.882812 185.882812 571.269531 190.402344 C 566.597656 192.265625 561.910156 193.707031 557.558594 196.285156 C 556.339844 196.808594 555.113281 197.285156 553.871094 197.746094 C 558.5 192.464844 564.53125 188.421875 570.722656 185.199219 C 582.375 179.253906 595.914062 175.839844 609.054688 176.722656 Z M 609.054688 176.722656 " fill-opacity="1" fill-rule="nonzero"/></g></g></g></g><g clip-path="url(#f25307ef8c)"><g clip-path="url(#35c95c8417)"><g clip-path="url(#dfac0a5715)"><g clip-path="url(#8b49974760)"><path fill="#ffffff" d="M 630.199219 146.546875 C 629.34375 153.042969 628.484375 159.253906 629.164062 165.828125 C 629.65625 172.304688 632.226562 178.25 632.757812 184.726562 C 629.324219 184.453125 626.074219 183.515625 622.75 182.6875 C 617.796875 181.746094 612.804688 181.457031 607.773438 181.785156 C 595.320312 182.714844 582.882812 185.882812 571.269531 190.402344 C 566.597656 192.265625 561.910156 193.707031 557.558594 196.285156 C 553.71875 198.699219 550.078125 200.6875 547.523438 204.554688 C 542.761719 211.421875 542.554688 220.992188 545.011719 228.746094 C 547.601562 235.914062 550.617188 242.578125 556.171875 247.957031 C 562.03125 253.902344 569.628906 257.808594 578.136719 256.898438 C 587.136719 255.703125 595.082031 251.339844 602.332031 246.101562 C 601.027344 251.808594 598.066406 256.492188 595.144531 261.460938 C 591.851562 266.957031 585.527344 270.683594 579.578125 272.582031 C 580.136719 275.925781 580.71875 279.070312 582.613281 281.96875 C 586.195312 287.46875 591.992188 290.910156 598.199219 292.65625 C 604.859375 294.511719 612.226562 295.503906 619.089844 294.425781 C 625.550781 293.492188 631.75 289.574219 637.859375 287.003906 C 640.921875 283.445312 642.496094 279.128906 643.285156 274.546875 C 636.921875 276.304688 631.191406 278.105469 624.523438 276.640625 C 621.523438 276.023438 618.84375 274.5625 616.457031 272.683594 C 612.820312 269.574219 609.488281 266.523438 607.992188 261.796875 C 606.851562 258.511719 607.242188 255.328125 607.796875 251.984375 C 611.023438 254.578125 613.886719 257.546875 618.0625 258.480469 C 624.902344 260.035156 632.230469 257.476562 637.648438 253.3125 C 643.015625 249.101562 645.953125 243.351562 648.496094 237.171875 C 650.777344 231.46875 653.746094 226.089844 656.101562 220.410156 C 658.125 215.605469 659.910156 210.863281 662.703125 206.421875 C 669.929688 194.21875 682.777344 184.507812 692.992188 174.804688 C 696.394531 171.53125 698.574219 167.578125 701.007812 163.601562 C 699.90625 161.199219 698.40625 159.199219 695.8125 158.355469 C 690.449219 156.546875 684.011719 158.308594 679.050781 160.546875 C 668.355469 165.84375 659.289062 174.578125 654.21875 185.457031 C 651.769531 190.445312 649.574219 195.925781 645.457031 199.796875 C 643.808594 201.292969 642.050781 203.246094 639.882812 203.882812 C 636.566406 204.9375 633.09375 205.453125 629.753906 206.433594 C 617.285156 210.019531 605.660156 215.703125 596.742188 225.328125 C 599.75 217.898438 605.027344 211.746094 611.570312 207.1875 C 619.859375 200.929688 629.59375 197.398438 639.863281 196.226562 C 640.25 185.574219 643.386719 174.863281 645.542969 164.417969 C 648.234375 151.335938 652.601562 138.847656 656.730469 126.183594 C 659.414062 119.132812 661.617188 111.949219 663.347656 104.605469 C 664 101.671875 664.316406 98.089844 662.746094 95.382812 C 661.449219 93.363281 659.496094 92.53125 657.34375 91.726562 C 650.933594 95.574219 646.921875 101.421875 643.378906 107.8125 C 636.84375 119.933594 632.078125 132.863281 630.199219 146.546875 Z M 595.066406 213.253906 C 593.921875 215.058594 592.683594 216.777344 591.433594 218.5 C 586.195312 214.6875 580.773438 211.28125 574.722656 208.910156 C 570.925781 207.394531 567.085938 206.558594 563.195312 205.347656 C 567.789062 204.160156 572.308594 203.835938 577.003906 204.515625 C 583.988281 205.535156 590.558594 207.394531 595.066406 213.253906 Z M 595.066406 213.253906 " fill-opacity="1" fill-rule="nonzero"/></g></g></g></g><g clip-path="url(#3d01a571e5)"><g clip-path="url(#91eb929101)"><g clip-path="url(#d88251070b)"><g clip-path="url(#bbd281bf7b)"><path fill="#ffffff" d="M 603.648438 83.25 C 599.296875 89.492188 598.742188 98.453125 598.050781 105.824219 C 596.78125 121.429688 596.585938 137.28125 598.386719 152.855469 C 599.089844 158.507812 600.039062 164.078125 602.183594 169.40625 C 607.59375 168.082031 610.9375 165.101562 614.113281 160.714844 C 614.65625 158.171875 615.164062 155.605469 615.527344 153.03125 C 616.183594 148.511719 615.878906 143.964844 616.367188 139.402344 C 617.703125 127.917969 617.558594 115.984375 617.605469 104.367188 C 617.433594 96.136719 617.589844 87.824219 613.03125 80.605469 C 609.539062 80.707031 605.921875 79.851562 603.648438 83.25 Z M 603.648438 83.25 " fill-opacity="1" fill-rule="nonzero"/></g></g></g></g><g clip-path="url(#5fa3184121)"><g clip-path="url(#6f178012c9)"><g clip-path="url(#3f5663b288)"><g clip-path="url(#116eaf2c8c)"><path fill="#ffffff" d="M 549.816406 121.761719 C 549.859375 130.660156 551.453125 139.1875 553.347656 147.835938 C 555.441406 157.050781 558.378906 166.152344 562.371094 174.722656 C 563.179688 176.152344 564.011719 178.460938 565.898438 178.652344 C 569.386719 179.242188 572.175781 176.761719 573.898438 174.003906 C 576.546875 169.628906 576.992188 163.660156 577.296875 158.652344 C 572.988281 142.652344 569.085938 126.5625 566.113281 110.265625 C 565.046875 105.796875 564.0625 100.25 559.308594 98.269531 C 556.253906 100.707031 553.121094 102.84375 551.546875 106.5625 C 549.621094 111.121094 549.8125 116.878906 549.816406 121.761719 Z M 549.816406 121.761719 " fill-opacity="1" fill-rule="nonzero"/></g></g></g></g><g clip-path="url(#5d56f31489)"><g clip-path="url(#976582531d)"><g clip-path="url(#b932cd6b50)"><g clip-path="url(#72bd3e0dda)"><path fill="#ffffff" d="M 524.894531 190.328125 C 526.960938 194.015625 528.777344 198.007812 531.351562 201.375 C 532.253906 203.066406 534.683594 202.144531 536.105469 201.707031 C 540.554688 199.820312 543.417969 194.617188 544.542969 190.117188 C 546.320312 182.832031 544.289062 176.101562 541.179688 169.496094 C 537.570312 161.933594 533.878906 154.414062 530.003906 146.988281 C 527.988281 143.324219 525.535156 138.375 521.664062 136.414062 C 519.394531 135.226562 517.199219 135.738281 514.933594 136.605469 C 513.613281 141.503906 512.351562 146.269531 512.617188 151.402344 C 512.773438 165.503906 518.507812 178.042969 524.894531 190.328125 Z M 524.894531 190.328125 " fill-opacity="1" fill-rule="nonzero"/></g></g></g></g><g clip-path="url(#47f9cc801f)"><g clip-path="url(#b646cf5d9b)"><path fill="#fa0644" d="M 0 0.117188 L 374.761719 0.117188 L 374.761719 374.882812 L 0 374.882812 Z M 0 0.117188 " fill-opacity="1" fill-rule="nonzero"/></g></g><g clip-path="url(#0b56ea6e42)"><g clip-path="url(#80e1ffcc2d)"><g clip-path="url(#af5d9b4fed)"><g clip-path="url(#9e236e0c35)"><path fill="#232323" d="M 140.078125 92.941406 C 138.136719 98.894531 138.074219 104.832031 138.429688 111.015625 C 139.367188 126.761719 142.632812 142.34375 148.628906 156.960938 C 141.417969 158.308594 134.1875 162.304688 129.820312 168.28125 C 126.328125 173.109375 126.191406 179.007812 126.453125 184.722656 C 119.5 187.824219 114.402344 193.417969 110.664062 199.921875 C 108.414062 203.984375 107.457031 208.632812 108.488281 213.214844 C 109.980469 220.445312 114.40625 226.773438 118.230469 232.765625 C 117.792969 238.355469 117.859375 243.867188 119.550781 249.277344 C 121.558594 255.546875 124.542969 262.101562 129.074219 266.953125 C 133.339844 271.542969 138.496094 275.222656 144.375 277.429688 C 143.273438 282.589844 143.304688 287.761719 145.761719 292.558594 C 149.148438 299.839844 155.628906 304.558594 162.921875 307.425781 C 174.277344 311.785156 187.152344 311.890625 198.902344 309.167969 C 209.921875 306.605469 220.960938 301.269531 228.871094 293.054688 C 234.21875 287.492188 238.160156 280.398438 238.261719 272.511719 C 238.34375 269.09375 237.421875 265.929688 236.320312 262.734375 C 242.730469 257.371094 247.582031 250.597656 251.398438 243.203125 C 255.914062 234.542969 257.640625 224.601562 255.871094 214.953125 C 254.4375 206.101562 249.816406 197.929688 242.839844 192.269531 C 240.160156 190.109375 237.25 188.609375 234.226562 187.011719 C 234.496094 182.820312 234.089844 178.71875 233.941406 174.53125 C 233.261719 159.3125 234.328125 143.917969 236.140625 128.808594 C 237.09375 121.304688 237.722656 113.777344 238.296875 106.230469 C 239.105469 100.128906 238.75 94.035156 236.054688 88.402344 C 233.085938 81.855469 227.320312 76.730469 220.3125 74.984375 C 213.4375 73.175781 206.078125 74.886719 200.488281 79.226562 C 197.304688 81.804688 194.058594 84.714844 192.683594 88.695312 C 190.554688 94.894531 189.222656 101.296875 188.542969 107.808594 C 188.101562 111.605469 188.035156 115.441406 187.554688 119.226562 C 186.023438 109.796875 186.042969 100.097656 185.039062 90.59375 C 184.375 85.570312 182.65625 80.785156 179.207031 76.980469 C 176.058594 73.210938 171.363281 70.933594 166.453125 70.839844 C 160.921875 70.738281 155.320312 72.894531 151.058594 76.367188 C 145.875 80.695312 142.085938 86.503906 140.078125 92.941406 Z M 140.078125 92.941406 " fill-opacity="1" fill-rule="nonzero"/></g></g></g></g><g clip-path="url(#7365367e73)"><g clip-path="url(#47d5b7a44f)"><g clip-path="url(#89ac0e7d08)"><g clip-path="url(#1936d45890)"><path fill="#ababab" d="M 146.578125 106.363281 C 146.984375 121.332031 149.671875 136.171875 154.539062 150.335938 C 157.484375 160.121094 161.808594 169.34375 165.117188 178.972656 C 161.222656 174.011719 159.554688 168.707031 154.019531 165.042969 C 151.824219 163.976562 149.414062 163.417969 147 164.027344 C 142.175781 165.988281 136.460938 169.183594 134.140625 174.109375 C 132.324219 178.460938 132.746094 183.929688 133.492188 188.492188 C 134.855469 195.269531 136.882812 202.007812 139.761719 208.296875 C 141.972656 213.144531 146.75 215.117188 151.261719 217.238281 C 155.554688 219.082031 159.828125 221.003906 164.546875 219.402344 C 166.003906 218.828125 168.523438 218.132812 169.246094 216.644531 C 169.152344 214.320312 168.402344 211.738281 168.898438 209.445312 C 169.578125 206.433594 171.566406 203.449219 172.660156 200.625 C 173.640625 198.953125 171.714844 196.777344 170.929688 195.335938 C 168.636719 191.726562 165.242188 190.988281 161.671875 189.226562 C 164.105469 189.050781 166.503906 189.097656 168.863281 189.757812 C 172.515625 190.707031 175.480469 193.175781 178.265625 195.605469 C 178.964844 195.285156 179.664062 194.96875 180.347656 194.648438 C 187.628906 191.144531 196.339844 189.753906 204.15625 187.648438 C 211.460938 185.722656 218.730469 184.238281 226.332031 184.929688 C 224.273438 166.097656 225.359375 147.453125 227.589844 128.703125 C 228.800781 118.957031 229.84375 109.109375 230.136719 99.28125 C 230.300781 95.59375 229.160156 91.992188 227.113281 88.933594 C 225.089844 85.863281 222.390625 83.449219 218.621094 83.019531 C 210.378906 82.183594 202.484375 87.085938 199.09375 94.570312 C 196.9375 99.449219 196.453125 105.195312 195.859375 110.457031 C 194.816406 122.324219 194.441406 134.355469 195.226562 146.246094 C 195.804688 156.464844 197.324219 166.597656 197.898438 176.804688 C 200.578125 177.058594 203.199219 177.367188 205.738281 178.324219 C 199.460938 181.238281 192.160156 182.285156 185.28125 182.015625 C 187.644531 180.1875 190.332031 179.132812 193.097656 178.066406 C 191.917969 172.894531 189.957031 168.007812 188.574219 162.90625 C 183.105469 143.9375 180.648438 123.527344 178.796875 103.898438 C 178.242188 98.894531 178.824219 93.65625 176.464844 89.210938 C 175.058594 86.3125 172.753906 84.164062 169.996094 82.582031 C 162.566406 78.257812 152.40625 82.851562 148.933594 90.21875 C 146.316406 95.019531 146.609375 101.03125 146.578125 106.363281 Z M 146.578125 106.363281 " fill-opacity="1" fill-rule="nonzero"/></g></g></g></g><g clip-path="url(#b150a9b918)"><g clip-path="url(#20b6f05584)"><g clip-path="url(#2531946f5a)"><g clip-path="url(#00210588f1)"><path fill="#ababab" d="M 230.316406 272.015625 C 230.277344 271.1875 230.21875 270.359375 230.152344 269.527344 C 220.972656 275.589844 209.828125 278.316406 198.992188 275.796875 C 202.992188 274.605469 207.089844 274.183594 210.96875 272.527344 C 221.257812 268.59375 229.691406 261.070312 236.011719 252.183594 C 240.914062 244.800781 245.882812 237.046875 247.300781 228.136719 C 248.640625 219.59375 247.011719 209.839844 241.445312 203.023438 C 237.105469 197.367188 230.125 193.355469 222.953125 193.058594 C 216.347656 192.730469 209.265625 194.789062 202.867188 196.300781 C 196.078125 197.984375 188.835938 199.242188 182.480469 202.070312 C 179.816406 203.617188 177.675781 205.78125 176.652344 208.730469 C 174.738281 213.453125 177.421875 219.363281 181.023438 222.527344 C 186.382812 227.113281 194.140625 229.132812 201.039062 229.710938 C 209.164062 230.351562 216.503906 228.234375 224.226562 226.109375 C 220.964844 228.894531 217.375 230.738281 213.226562 231.832031 C 204.449219 234.140625 196.101562 237.71875 188.664062 242.949219 C 184.796875 245.710938 181.5625 249.433594 177.503906 251.863281 C 178.476562 248.679688 178.789062 245.734375 180.621094 242.875 C 182.808594 239.328125 185.921875 237.160156 189.289062 234.851562 C 185.082031 233.789062 181.203125 232.109375 177.875 229.273438 C 175.585938 227.296875 173.757812 224.96875 171.953125 222.570312 C 167.875 224.554688 164.382812 225.550781 159.875 225.882812 C 156.9375 231.300781 152.644531 237.199219 147.042969 240 C 140.316406 242.636719 132.09375 241.289062 125.660156 238.328125 C 125.898438 245.613281 128.347656 252.507812 131.921875 258.796875 C 135.785156 264.824219 141.609375 270.152344 148.417969 272.597656 C 154.917969 274.84375 161.398438 275.300781 168.191406 275.632812 C 162.832031 279.136719 157.046875 279.320312 150.882812 279.136719 C 150.980469 283.347656 151.1875 287.246094 153.65625 290.863281 C 157.960938 297.304688 165.753906 300.636719 173.105469 302.109375 C 181.59375 303.703125 190.722656 303.300781 199.011719 300.859375 C 207.308594 298.917969 215.378906 294.992188 221.695312 289.238281 C 226.507812 284.765625 230.472656 278.832031 230.316406 272.015625 Z M 230.316406 272.015625 " fill-opacity="1" fill-rule="nonzero"/></g></g></g></g><g clip-path="url(#0dc008f59b)"><g clip-path="url(#8a7c10e668)"><g clip-path="url(#e340513183)"><g clip-path="url(#b783da27f4)"><path fill="#ababab" d="M 138.308594 216.199219 C 135.320312 213.636719 133.699219 209.898438 132.117188 206.382812 C 130.046875 201.683594 128.871094 196.820312 127.476562 191.894531 C 124.589844 194.144531 121.96875 196.621094 119.753906 199.542969 C 117.378906 202.671875 114.84375 206.289062 115.324219 210.4375 C 115.882812 214.726562 118.34375 219 120.441406 222.726562 C 123.824219 228.625 129.144531 233.292969 135.992188 234.460938 C 139.28125 234.980469 143.578125 235.394531 146.40625 233.28125 C 149.566406 231.023438 152.140625 227.746094 154.261719 224.515625 C 148.652344 221.933594 143.164062 220.214844 138.308594 216.199219 Z M 138.308594 216.199219 " fill-opacity="1" fill-rule="nonzero"/></g></g></g></g><g clip-path="url(#bae97e873e)"><g clip-path="url(#1485c772ac)"><g clip-path="url(#11c6da3a73)"><g clip-path="url(#b17723f07b)"><path fill="#ffffff" d="M 162.753906 87.195312 C 158.875 93.253906 158.085938 101.476562 158.320312 108.523438 C 158.78125 119.871094 160.679688 131.296875 163.21875 142.355469 C 165.960938 154.320312 169.273438 166.277344 173.640625 177.753906 C 175.757812 183.457031 178.558594 188.816406 180.347656 194.648438 C 187.628906 191.144531 196.339844 189.753906 204.15625 187.648438 C 211.460938 185.722656 218.730469 184.238281 226.332031 184.929688 C 224.269531 166.097656 225.359375 147.453125 227.589844 128.703125 C 228.800781 118.957031 229.84375 109.109375 230.136719 99.28125 C 230.300781 95.59375 229.160156 91.992188 227.113281 88.933594 C 224.925781 88.105469 221.828125 86.648438 219.496094 87.472656 C 216.4375 88.796875 214.242188 92.070312 212.792969 94.96875 C 209.117188 102.359375 207.835938 111.203125 206.765625 119.332031 C 205.347656 131.234375 205.0625 143.308594 204.8125 155.292969 C 204.820312 160.175781 204.753906 165.394531 206.050781 170.136719 C 207.328125 174.484375 210.132812 177.707031 212.90625 181.160156 C 208.917969 182.308594 204.894531 183.222656 200.742188 183.496094 C 194.691406 183.890625 189.050781 184.535156 183.023438 183.964844 C 183.765625 183.308594 184.507812 182.648438 185.28125 182.015625 C 187.644531 180.1875 190.332031 179.132812 193.097656 178.066406 C 191.917969 172.894531 189.957031 168.007812 188.574219 162.90625 C 183.105469 143.9375 180.648438 123.527344 178.796875 103.898438 C 178.242188 98.894531 178.824219 93.65625 176.464844 89.210938 C 175.058594 86.3125 172.753906 84.164062 169.996094 82.582031 C 167.207031 83.808594 164.460938 84.421875 162.753906 87.195312 Z M 162.753906 87.195312 " fill-opacity="1" fill-rule="nonzero"/></g></g></g></g><g clip-path="url(#5f601ac41b)"><g clip-path="url(#a245d384c7)"><g clip-path="url(#0eb3fb7f89)"><g clip-path="url(#f32e1180b1)"><path fill="#ffffff" d="M 182.480469 202.070312 C 182.011719 205.847656 181.261719 209.25 183.679688 212.617188 C 187.363281 217.894531 193.765625 219.230469 199.757812 219.871094 C 208.597656 220.882812 217.0625 219.371094 225.652344 217.472656 C 226.804688 219.304688 227.871094 220.984375 227.863281 223.226562 C 227.875 226.136719 226.179688 228.316406 224.25 230.308594 C 218.957031 235.621094 211.757812 239.324219 206.289062 243.804688 C 202.515625 246.9375 199.050781 250.992188 198.101562 255.945312 C 197.226562 260.269531 198.636719 264.917969 201.859375 267.960938 C 204.410156 270.410156 207.722656 271.386719 210.96875 272.527344 C 221.257812 268.59375 229.691406 261.070312 236.011719 252.183594 C 240.914062 244.800781 245.882812 237.046875 247.300781 228.136719 C 248.640625 219.59375 247.011719 209.839844 241.445312 203.023438 C 237.105469 197.367188 230.125 193.355469 222.953125 193.058594 C 216.347656 192.730469 209.265625 194.789062 202.867188 196.300781 C 196.078125 197.984375 188.835938 199.242188 182.480469 202.070312 Z M 182.480469 202.070312 " fill-opacity="1" fill-rule="nonzero"/></g></g></g></g><g clip-path="url(#88ad41752b)"><g clip-path="url(#aaf008e310)"><g clip-path="url(#23f91fe040)"><g clip-path="url(#97fe2f293d)"><path fill="#ffffff" d="M 190.097656 272.671875 C 184.53125 270.628906 179.5 266.835938 177.382812 261.121094 C 176.214844 258.042969 176.519531 254.925781 177.503906 251.863281 C 178.476562 248.679688 178.789062 245.734375 180.621094 242.875 C 182.808594 239.328125 185.921875 237.160156 189.289062 234.851562 C 185.082031 233.789062 181.203125 232.109375 177.875 229.273438 C 171.980469 229.089844 166.285156 230.152344 161.554688 233.867188 C 152.617188 240.25 151.179688 253.867188 157.027344 262.78125 C 160.714844 268.886719 166.679688 272.375 173.609375 273.546875 C 171.132812 276.789062 168.683594 279.832031 168.738281 284.140625 C 168.820312 289.453125 172.777344 293.585938 177.101562 296.144531 C 183.824219 300.140625 191.40625 300.582031 199.011719 300.859375 C 207.308594 298.917969 215.378906 294.992188 221.695312 289.238281 C 226.507812 284.765625 230.472656 278.832031 230.316406 272.015625 C 230.277344 271.1875 230.21875 270.359375 230.152344 269.527344 C 220.972656 275.589844 209.828125 278.316406 198.992188 275.796875 C 195.929688 275.277344 193.027344 273.691406 190.097656 272.671875 Z M 190.097656 272.671875 " fill-opacity="1" fill-rule="nonzero"/></g></g></g></g><g clip-path="url(#7418b7454e)"><g clip-path="url(#5b3b60cda4)"><g clip-path="url(#1dbf31f94f)"><g clip-path="url(#24f9527628)"><path fill="#ffffff" d="M 139.335938 170.386719 C 137.214844 180.910156 139.863281 192.546875 147.277344 200.5 C 149.71875 203.09375 152.761719 205.234375 156.476562 205.0625 C 159.894531 204.957031 162.539062 201.679688 162.667969 198.40625 C 162.546875 196.285156 161.144531 194.152344 160.242188 192.269531 C 157.601562 187.375 155.851562 182 154.921875 176.515625 C 154.273438 172.695312 154.441406 168.882812 154.019531 165.042969 C 151.824219 163.976562 149.414062 163.417969 147 164.027344 C 144.4375 165.433594 139.765625 167.074219 139.335938 170.386719 Z M 139.335938 170.386719 " fill-opacity="1" fill-rule="nonzero"/></g></g></g></g><g clip-path="url(#69aab89c88)"><g clip-path="url(#7a5f3d98a2)"><g clip-path="url(#ce6aa94078)"><g clip-path="url(#adc0042966)"><path fill="#ffffff" d="M 123.640625 211.90625 C 125.632812 215.207031 128.699219 218.816406 132.601562 219.796875 C 134.722656 220.382812 136.886719 219.289062 138.875 218.628906 C 138.6875 217.8125 138.496094 217.003906 138.308594 216.199219 C 135.320312 213.636719 133.699219 209.898438 132.117188 206.382812 C 130.046875 201.683594 128.871094 196.820312 127.476562 191.894531 C 124.589844 194.144531 121.96875 196.621094 119.753906 199.542969 C 120.492188 203.90625 121.273438 208.066406 123.640625 211.90625 Z M 123.640625 211.90625 " fill-opacity="1" fill-rule="nonzero"/></g></g></g></g><g clip-path="url(#b5f53ed173)"><path fill="#000000" d="M 447.632812 193.378906 C 450.742188 178.371094 447.3125 164.140625 424.414062 164.140625 C 419.617188 164.140625 415.230469 164.808594 411.292969 166.0625 L 391.304688 210.996094 C 394.179688 214.980469 398.808594 218.535156 405.402344 222.347656 C 415.671875 228.238281 418.214844 232.214844 416.730469 238.980469 C 415.511719 244.53125 412.441406 248.921875 405.886719 248.921875 C 399.140625 248.921875 398.058594 243.398438 399.25 235.371094 L 376.964844 235.371094 C 373.800781 251.964844 378.121094 265.507812 402.019531 265.507812 C 424.078125 265.507812 436.402344 252.632812 439.949219 236.480469 C 443.558594 220.046875 437.519531 212.332031 421.308594 203.210938 C 411.785156 197.902344 410.226562 195.011719 411.457031 189.414062 C 412.648438 183.960938 415.609375 180.722656 420.632812 180.722656 C 427.042969 180.722656 427.015625 186.574219 425.898438 193.378906 L 447.632812 193.378906 " fill-opacity="1" fill-rule="nonzero"/></g><g clip-path="url(#4384891904)"><path fill="#000000" d="M 435.726562 90.9375 C 427.644531 106.664062 419.804688 122.515625 412.207031 138.480469 L 391.707031 138.480469 L 380.652344 167.664062 C 375.925781 180.050781 370.617188 193.183594 367.046875 204.832031 L 366.398438 204.832031 C 367.867188 193.546875 369 179.910156 369.648438 167.382812 L 371.554688 138.828125 L 347.617188 138.828125 L 347.429688 227.128906 L 372.96875 227.128906 C 365.203125 246.058594 357.765625 265.121094 350.660156 284.308594 C 382.835938 221.625 411.285156 157.03125 435.726562 90.9375 " fill-opacity="1" fill-rule="nonzero"/></g><g fill="#ffffff" fill-opacity="1"><g transform="translate(137.532985, 48.229974)"><g><path d="M 13.125 -10.46875 C 13.125 -9.570312 12.914062 -8.753906 12.5 -8.015625 C 12.09375 -7.273438 11.460938 -6.675781 10.609375 -6.21875 C 9.765625 -5.769531 8.710938 -5.546875 7.453125 -5.546875 L 5.125 -5.546875 L 5.125 0 L 1.359375 0 L 1.359375 -15.4375 L 7.453125 -15.4375 C 8.679688 -15.4375 9.71875 -15.222656 10.5625 -14.796875 C 11.414062 -14.367188 12.054688 -13.78125 12.484375 -13.03125 C 12.910156 -12.289062 13.125 -11.4375 13.125 -10.46875 Z M 7.171875 -8.53125 C 7.890625 -8.53125 8.421875 -8.695312 8.765625 -9.03125 C 9.117188 -9.375 9.296875 -9.851562 9.296875 -10.46875 C 9.296875 -11.082031 9.117188 -11.554688 8.765625 -11.890625 C 8.421875 -12.234375 7.890625 -12.40625 7.171875 -12.40625 L 5.125 -12.40625 L 5.125 -8.53125 Z M 7.171875 -8.53125 "/></g></g></g><g fill="#ffffff" fill-opacity="1"><g transform="translate(151.249826, 48.229974)"><g><path d="M 12.921875 -6.328125 C 12.921875 -5.972656 12.898438 -5.609375 12.859375 -5.234375 L 4.359375 -5.234375 C 4.410156 -4.472656 4.648438 -3.890625 5.078125 -3.484375 C 5.515625 -3.078125 6.050781 -2.875 6.6875 -2.875 C 7.625 -2.875 8.273438 -3.269531 8.640625 -4.0625 L 12.640625 -4.0625 C 12.429688 -3.257812 12.0625 -2.535156 11.53125 -1.890625 C 11 -1.242188 10.328125 -0.738281 9.515625 -0.375 C 8.710938 -0.0078125 7.8125 0.171875 6.8125 0.171875 C 5.613281 0.171875 4.546875 -0.0820312 3.609375 -0.59375 C 2.671875 -1.101562 1.9375 -1.832031 1.40625 -2.78125 C 0.875 -3.738281 0.609375 -4.859375 0.609375 -6.140625 C 0.609375 -7.410156 0.867188 -8.519531 1.390625 -9.46875 C 1.910156 -10.425781 2.640625 -11.160156 3.578125 -11.671875 C 4.515625 -12.179688 5.59375 -12.4375 6.8125 -12.4375 C 8 -12.4375 9.050781 -12.1875 9.96875 -11.6875 C 10.894531 -11.195312 11.617188 -10.488281 12.140625 -9.5625 C 12.660156 -8.632812 12.921875 -7.554688 12.921875 -6.328125 Z M 9.078125 -7.328125 C 9.078125 -7.960938 8.859375 -8.472656 8.421875 -8.859375 C 7.984375 -9.242188 7.429688 -9.4375 6.765625 -9.4375 C 6.140625 -9.4375 5.609375 -9.25 5.171875 -8.875 C 4.742188 -8.507812 4.476562 -7.992188 4.375 -7.328125 Z M 9.078125 -7.328125 "/></g></g></g><g fill="#ffffff" fill-opacity="1"><g transform="translate(164.790815, 48.229974)"><g><path d="M 17.015625 -12.40625 C 18.535156 -12.40625 19.742188 -11.941406 20.640625 -11.015625 C 21.546875 -10.085938 22 -8.804688 22 -7.171875 L 22 0 L 18.265625 0 L 18.265625 -6.65625 C 18.265625 -7.445312 18.054688 -8.054688 17.640625 -8.484375 C 17.222656 -8.921875 16.648438 -9.140625 15.921875 -9.140625 C 15.179688 -9.140625 14.601562 -8.921875 14.1875 -8.484375 C 13.769531 -8.054688 13.5625 -7.445312 13.5625 -6.65625 L 13.5625 0 L 9.828125 0 L 9.828125 -6.65625 C 9.828125 -7.445312 9.617188 -8.054688 9.203125 -8.484375 C 8.785156 -8.921875 8.207031 -9.140625 7.46875 -9.140625 C 6.738281 -9.140625 6.164062 -8.921875 5.75 -8.484375 C 5.332031 -8.054688 5.125 -7.445312 5.125 -6.65625 L 5.125 0 L 1.359375 0 L 1.359375 -12.265625 L 5.125 -12.265625 L 5.125 -10.734375 C 5.5 -11.242188 5.992188 -11.648438 6.609375 -11.953125 C 7.234375 -12.253906 7.929688 -12.40625 8.703125 -12.40625 C 9.628906 -12.40625 10.453125 -12.207031 11.171875 -11.8125 C 11.898438 -11.414062 12.472656 -10.847656 12.890625 -10.109375 C 13.304688 -10.785156 13.878906 -11.335938 14.609375 -11.765625 C 15.347656 -12.191406 16.148438 -12.40625 17.015625 -12.40625 Z M 17.015625 -12.40625 "/></g></g></g><g fill="#ffffff" fill-opacity="1"><g transform="translate(188.069888, 48.229974)"><g><path d="M 0.609375 -6.15625 C 0.609375 -7.414062 0.847656 -8.519531 1.328125 -9.46875 C 1.804688 -10.425781 2.453125 -11.160156 3.265625 -11.671875 C 4.085938 -12.179688 5.007812 -12.4375 6.03125 -12.4375 C 6.894531 -12.4375 7.648438 -12.257812 8.296875 -11.90625 C 8.953125 -11.5625 9.457031 -11.101562 9.8125 -10.53125 L 9.8125 -12.265625 L 13.5625 -12.265625 L 13.5625 0 L 9.8125 0 L 9.8125 -1.734375 C 9.4375 -1.160156 8.921875 -0.695312 8.265625 -0.34375 C 7.617188 0 6.863281 0.171875 6 0.171875 C 5 0.171875 4.085938 -0.0859375 3.265625 -0.609375 C 2.453125 -1.128906 1.804688 -1.867188 1.328125 -2.828125 C 0.847656 -3.785156 0.609375 -4.894531 0.609375 -6.15625 Z M 9.8125 -6.140625 C 9.8125 -7.078125 9.550781 -7.816406 9.03125 -8.359375 C 8.507812 -8.898438 7.875 -9.171875 7.125 -9.171875 C 6.375 -9.171875 5.738281 -8.898438 5.21875 -8.359375 C 4.695312 -7.828125 4.4375 -7.09375 4.4375 -6.15625 C 4.4375 -5.21875 4.695312 -4.472656 5.21875 -3.921875 C 5.738281 -3.367188 6.375 -3.09375 7.125 -3.09375 C 7.875 -3.09375 8.507812 -3.363281 9.03125 -3.90625 C 9.550781 -4.457031 9.8125 -5.203125 9.8125 -6.140625 Z M 9.8125 -6.140625 "/></g></g></g><g fill="#ffffff" fill-opacity="1"><g transform="translate(202.995751, 48.229974)"><g><path d="M 3.25 -13.546875 C 2.59375 -13.546875 2.054688 -13.738281 1.640625 -14.125 C 1.222656 -14.507812 1.015625 -14.988281 1.015625 -15.5625 C 1.015625 -16.144531 1.222656 -16.628906 1.640625 -17.015625 C 2.054688 -17.410156 2.59375 -17.609375 3.25 -17.609375 C 3.894531 -17.609375 4.425781 -17.410156 4.84375 -17.015625 C 5.257812 -16.628906 5.46875 -16.144531 5.46875 -15.5625 C 5.46875 -14.988281 5.257812 -14.507812 4.84375 -14.125 C 4.425781 -13.738281 3.894531 -13.546875 3.25 -13.546875 Z M 5.125 -12.265625 L 5.125 0 L 1.359375 0 L 1.359375 -12.265625 Z M 5.125 -12.265625 "/></g></g></g><g fill="#ffffff" fill-opacity="1"><g transform="translate(209.48048, 48.229974)"><g><path d="M 8.84375 -12.40625 C 10.269531 -12.40625 11.410156 -11.9375 12.265625 -11 C 13.128906 -10.070312 13.5625 -8.796875 13.5625 -7.171875 L 13.5625 0 L 9.828125 0 L 9.828125 -6.65625 C 9.828125 -7.476562 9.613281 -8.113281 9.1875 -8.5625 C 8.757812 -9.019531 8.1875 -9.25 7.46875 -9.25 C 6.75 -9.25 6.175781 -9.019531 5.75 -8.5625 C 5.332031 -8.113281 5.125 -7.476562 5.125 -6.65625 L 5.125 0 L 1.359375 0 L 1.359375 -12.265625 L 5.125 -12.265625 L 5.125 -10.640625 C 5.5 -11.179688 6.007812 -11.609375 6.65625 -11.921875 C 7.300781 -12.242188 8.03125 -12.40625 8.84375 -12.40625 Z M 8.84375 -12.40625 "/></g></g></g><g fill="#ffffff" fill-opacity="1"><g transform="translate(224.296435, 48.229974)"><g/></g></g><g fill="#ffffff" fill-opacity="1"><g transform="translate(228.956646, 48.229974)"><g><path d="M 0.59375 -12.546875 L 0.59375 -16.046875 L 6.6875 -16.046875 L 6.6875 0 L 2.765625 0 L 2.765625 -12.546875 Z M 0.59375 -12.546875 "/></g></g></g><g fill="#ffffff" fill-opacity="1"><g transform="translate(547.630403, 48.229974)"><g><path d="M 13.125 -10.46875 C 13.125 -9.570312 12.914062 -8.753906 12.5 -8.015625 C 12.09375 -7.273438 11.460938 -6.675781 10.609375 -6.21875 C 9.765625 -5.769531 8.710938 -5.546875 7.453125 -5.546875 L 5.125 -5.546875 L 5.125 0 L 1.359375 0 L 1.359375 -15.4375 L 7.453125 -15.4375 C 8.679688 -15.4375 9.71875 -15.222656 10.5625 -14.796875 C 11.414062 -14.367188 12.054688 -13.78125 12.484375 -13.03125 C 12.910156 -12.289062 13.125 -11.4375 13.125 -10.46875 Z M 7.171875 -8.53125 C 7.890625 -8.53125 8.421875 -8.695312 8.765625 -9.03125 C 9.117188 -9.375 9.296875 -9.851562 9.296875 -10.46875 C 9.296875 -11.082031 9.117188 -11.554688 8.765625 -11.890625 C 8.421875 -12.234375 7.890625 -12.40625 7.171875 -12.40625 L 5.125 -12.40625 L 5.125 -8.53125 Z M 7.171875 -8.53125 "/></g></g></g><g fill="#ffffff" fill-opacity="1"><g transform="translate(561.347245, 48.229974)"><g><path d="M 12.921875 -6.328125 C 12.921875 -5.972656 12.898438 -5.609375 12.859375 -5.234375 L 4.359375 -5.234375 C 4.410156 -4.472656 4.648438 -3.890625 5.078125 -3.484375 C 5.515625 -3.078125 6.050781 -2.875 6.6875 -2.875 C 7.625 -2.875 8.273438 -3.269531 8.640625 -4.0625 L 12.640625 -4.0625 C 12.429688 -3.257812 12.0625 -2.535156 11.53125 -1.890625 C 11 -1.242188 10.328125 -0.738281 9.515625 -0.375 C 8.710938 -0.0078125 7.8125 0.171875 6.8125 0.171875 C 5.613281 0.171875 4.546875 -0.0820312 3.609375 -0.59375 C 2.671875 -1.101562 1.9375 -1.832031 1.40625 -2.78125 C 0.875 -3.738281 0.609375 -4.859375 0.609375 -6.140625 C 0.609375 -7.410156 0.867188 -8.519531 1.390625 -9.46875 C 1.910156 -10.425781 2.640625 -11.160156 3.578125 -11.671875 C 4.515625 -12.179688 5.59375 -12.4375 6.8125 -12.4375 C 8 -12.4375 9.050781 -12.1875 9.96875 -11.6875 C 10.894531 -11.195312 11.617188 -10.488281 12.140625 -9.5625 C 12.660156 -8.632812 12.921875 -7.554688 12.921875 -6.328125 Z M 9.078125 -7.328125 C 9.078125 -7.960938 8.859375 -8.472656 8.421875 -8.859375 C 7.984375 -9.242188 7.429688 -9.4375 6.765625 -9.4375 C 6.140625 -9.4375 5.609375 -9.25 5.171875 -8.875 C 4.742188 -8.507812 4.476562 -7.992188 4.375 -7.328125 Z M 9.078125 -7.328125 "/></g></g></g><g fill="#ffffff" fill-opacity="1"><g transform="translate(574.888234, 48.229974)"><g><path d="M 17.015625 -12.40625 C 18.535156 -12.40625 19.742188 -11.941406 20.640625 -11.015625 C 21.546875 -10.085938 22 -8.804688 22 -7.171875 L 22 0 L 18.265625 0 L 18.265625 -6.65625 C 18.265625 -7.445312 18.054688 -8.054688 17.640625 -8.484375 C 17.222656 -8.921875 16.648438 -9.140625 15.921875 -9.140625 C 15.179688 -9.140625 14.601562 -8.921875 14.1875 -8.484375 C 13.769531 -8.054688 13.5625 -7.445312 13.5625 -6.65625 L 13.5625 0 L 9.828125 0 L 9.828125 -6.65625 C 9.828125 -7.445312 9.617188 -8.054688 9.203125 -8.484375 C 8.785156 -8.921875 8.207031 -9.140625 7.46875 -9.140625 C 6.738281 -9.140625 6.164062 -8.921875 5.75 -8.484375 C 5.332031 -8.054688 5.125 -7.445312 5.125 -6.65625 L 5.125 0 L 1.359375 0 L 1.359375 -12.265625 L 5.125 -12.265625 L 5.125 -10.734375 C 5.5 -11.242188 5.992188 -11.648438 6.609375 -11.953125 C 7.234375 -12.253906 7.929688 -12.40625 8.703125 -12.40625 C 9.628906 -12.40625 10.453125 -12.207031 11.171875 -11.8125 C 11.898438 -11.414062 12.472656 -10.847656 12.890625 -10.109375 C 13.304688 -10.785156 13.878906 -11.335938 14.609375 -11.765625 C 15.347656 -12.191406 16.148438 -12.40625 17.015625 -12.40625 Z M 17.015625 -12.40625 "/></g></g></g><g fill="#ffffff" fill-opacity="1"><g transform="translate(598.167307, 48.229974)"><g><path d="M 0.609375 -6.15625 C 0.609375 -7.414062 0.847656 -8.519531 1.328125 -9.46875 C 1.804688 -10.425781 2.453125 -11.160156 3.265625 -11.671875 C 4.085938 -12.179688 5.007812 -12.4375 6.03125 -12.4375 C 6.894531 -12.4375 7.648438 -12.257812 8.296875 -11.90625 C 8.953125 -11.5625 9.457031 -11.101562 9.8125 -10.53125 L 9.8125 -12.265625 L 13.5625 -12.265625 L 13.5625 0 L 9.8125 0 L 9.8125 -1.734375 C 9.4375 -1.160156 8.921875 -0.695312 8.265625 -0.34375 C 7.617188 0 6.863281 0.171875 6 0.171875 C 5 0.171875 4.085938 -0.0859375 3.265625 -0.609375 C 2.453125 -1.128906 1.804688 -1.867188 1.328125 -2.828125 C 0.847656 -3.785156 0.609375 -4.894531 0.609375 -6.15625 Z M 9.8125 -6.140625 C 9.8125 -7.078125 9.550781 -7.816406 9.03125 -8.359375 C 8.507812 -8.898438 7.875 -9.171875 7.125 -9.171875 C 6.375 -9.171875 5.738281 -8.898438 5.21875 -8.359375 C 4.695312 -7.828125 4.4375 -7.09375 4.4375 -6.15625 C 4.4375 -5.21875 4.695312 -4.472656 5.21875 -3.921875 C 5.738281 -3.367188 6.375 -3.09375 7.125 -3.09375 C 7.875 -3.09375 8.507812 -3.363281 9.03125 -3.90625 C 9.550781 -4.457031 9.8125 -5.203125 9.8125 -6.140625 Z M 9.8125 -6.140625 "/></g></g></g><g fill="#ffffff" fill-opacity="1"><g transform="translate(613.09317, 48.229974)"><g><path d="M 3.25 -13.546875 C 2.59375 -13.546875 2.054688 -13.738281 1.640625 -14.125 C 1.222656 -14.507812 1.015625 -14.988281 1.015625 -15.5625 C 1.015625 -16.144531 1.222656 -16.628906 1.640625 -17.015625 C 2.054688 -17.410156 2.59375 -17.609375 3.25 -17.609375 C 3.894531 -17.609375 4.425781 -17.410156 4.84375 -17.015625 C 5.257812 -16.628906 5.46875 -16.144531 5.46875 -15.5625 C 5.46875 -14.988281 5.257812 -14.507812 4.84375 -14.125 C 4.425781 -13.738281 3.894531 -13.546875 3.25 -13.546875 Z M 5.125 -12.265625 L 5.125 0 L 1.359375 0 L 1.359375 -12.265625 Z M 5.125 -12.265625 "/></g></g></g><g fill="#ffffff" fill-opacity="1"><g transform="translate(619.577898, 48.229974)"><g><path d="M 8.84375 -12.40625 C 10.269531 -12.40625 11.410156 -11.9375 12.265625 -11 C 13.128906 -10.070312 13.5625 -8.796875 13.5625 -7.171875 L 13.5625 0 L 9.828125 0 L 9.828125 -6.65625 C 9.828125 -7.476562 9.613281 -8.113281 9.1875 -8.5625 C 8.757812 -9.019531 8.1875 -9.25 7.46875 -9.25 C 6.75 -9.25 6.175781 -9.019531 5.75 -8.5625 C 5.332031 -8.113281 5.125 -7.476562 5.125 -6.65625 L 5.125 0 L 1.359375 0 L 1.359375 -12.265625 L 5.125 -12.265625 L 5.125 -10.640625 C 5.5 -11.179688 6.007812 -11.609375 6.65625 -11.921875 C 7.300781 -12.242188 8.03125 -12.40625 8.84375 -12.40625 Z M 8.84375 -12.40625 "/></g></g></g><g fill="#ffffff" fill-opacity="1"><g transform="translate(634.393854, 48.229974)"><g/></g></g><g fill="#ffffff" fill-opacity="1"><g transform="translate(639.054065, 48.229974)"><g><path d="M 0.859375 -3.015625 C 1.359375 -3.410156 1.582031 -3.59375 1.53125 -3.5625 C 2.96875 -4.75 4.097656 -5.722656 4.921875 -6.484375 C 5.753906 -7.242188 6.457031 -8.039062 7.03125 -8.875 C 7.601562 -9.71875 7.890625 -10.535156 7.890625 -11.328125 C 7.890625 -11.921875 7.75 -12.382812 7.46875 -12.71875 C 7.195312 -13.0625 6.78125 -13.234375 6.21875 -13.234375 C 5.664062 -13.234375 5.226562 -13.023438 4.90625 -12.609375 C 4.59375 -12.191406 4.4375 -11.601562 4.4375 -10.84375 L 0.8125 -10.84375 C 0.84375 -12.082031 1.109375 -13.117188 1.609375 -13.953125 C 2.117188 -14.796875 2.785156 -15.414062 3.609375 -15.8125 C 4.441406 -16.207031 5.363281 -16.40625 6.375 -16.40625 C 8.113281 -16.40625 9.425781 -15.957031 10.3125 -15.0625 C 11.207031 -14.164062 11.65625 -13 11.65625 -11.5625 C 11.65625 -10 11.117188 -8.546875 10.046875 -7.203125 C 8.972656 -5.859375 7.609375 -4.550781 5.953125 -3.28125 L 11.890625 -3.28125 L 11.890625 -0.21875 L 0.859375 -0.21875 Z M 0.859375 -3.015625 "/></g></g></g></svg>