<svg xmlns="http://www.w3.org/2000/svg" xmlns:xlink="http://www.w3.org/1999/xlink" width="40" zoomAndPan="magnify" viewBox="0 0 30 30.000001" height="40" preserveAspectRatio="xMidYMid meet" version="1.0"><defs><clipPath id="6e29f7af40"><path d="M 2.296875 1.816406 L 27.703125 1.816406 L 27.703125 27.21875 L 2.296875 27.21875 Z M 2.296875 1.816406 " clip-rule="nonzero"/></clipPath></defs><g clip-path="url(#6e29f7af40)"><path fill="#15bc11" d="M 15 1.816406 C 7.984375 1.816406 2.296875 7.5 2.296875 14.515625 C 2.296875 21.53125 7.984375 27.21875 15 27.21875 C 22.015625 27.21875 27.703125 21.53125 27.703125 14.515625 C 27.699219 7.5 22.015625 1.816406 15 1.816406 Z M 22.433594 10.542969 L 15.019531 20.292969 C 14.734375 20.667969 14.304688 20.882812 13.832031 20.882812 C 13.714844 20.882812 13.601562 20.867188 13.488281 20.839844 C 13.058594 20.808594 12.667969 20.601562 12.40625 20.257812 L 8.824219 15.550781 C 8.328125 14.894531 8.457031 13.957031 9.109375 13.460938 C 9.371094 13.261719 9.683594 13.15625 10.011719 13.15625 C 10.480469 13.15625 10.914062 13.371094 11.199219 13.746094 L 13.726562 17.066406 L 20.058594 8.738281 C 20.34375 8.367188 20.777344 8.152344 21.25 8.152344 C 21.574219 8.152344 21.886719 8.253906 22.148438 8.457031 C 22.804688 8.953125 22.929688 9.890625 22.433594 10.542969 Z M 22.433594 10.542969 " fill-opacity="1" fill-rule="nonzero"/></g><path fill="#ffffff" d="M 22.433594 10.542969 L 15.019531 20.292969 C 14.734375 20.667969 14.304688 20.882812 13.832031 20.882812 C 13.714844 20.882812 13.601562 20.867188 13.488281 20.839844 C 13.058594 20.808594 12.667969 20.601562 12.40625 20.257812 L 8.824219 15.550781 C 8.328125 14.894531 8.457031 13.957031 9.109375 13.460938 C 9.371094 13.261719 9.683594 13.15625 10.011719 13.15625 C 10.480469 13.15625 10.914062 13.371094 11.199219 13.746094 L 13.726562 17.066406 L 20.058594 8.738281 C 20.34375 8.367188 20.777344 8.152344 21.25 8.152344 C 21.574219 8.152344 21.886719 8.253906 22.148438 8.457031 C 22.804688 8.953125 22.929688 9.890625 22.433594 10.542969 Z M 22.433594 10.542969 " fill-opacity="1" fill-rule="nonzero"/></svg>