<svg xmlns="http://www.w3.org/2000/svg" xmlns:xlink="http://www.w3.org/1999/xlink" width="868" zoomAndPan="magnify" viewBox="0 0 651 374.999991" height="500" preserveAspectRatio="xMidYMid meet" version="1.0"><path fill="#1a1a1a" d="M 508.074219 183.675781 L 502.925781 14.8125 C 502.902344 13.980469 502.804688 13.160156 502.628906 12.347656 C 502.453125 11.535156 502.207031 10.746094 501.882812 9.984375 C 501.558594 9.21875 501.164062 8.492188 500.703125 7.800781 C 500.242188 7.109375 499.722656 6.46875 499.140625 5.875 C 498.558594 5.28125 497.925781 4.75 497.242188 4.277344 C 496.558594 3.804688 495.839844 3.398438 495.082031 3.0625 C 494.320312 2.722656 493.539062 2.460938 492.730469 2.269531 C 491.921875 2.078125 491.101562 1.96875 490.273438 1.933594 L 329.023438 0 C 327.480469 -0.00390625 325.992188 0.273438 324.554688 0.832031 L 311.675781 5.945312 C 311.398438 6.039062 311.132812 6.152344 310.878906 6.289062 L 304.023438 9.015625 L 266.636719 23.902344 C 266.054688 24.136719 265.492188 24.414062 264.953125 24.738281 C 264.414062 25.058594 263.902344 25.421875 263.417969 25.820312 C 262.933594 26.222656 262.484375 26.660156 262.070312 27.132812 C 261.65625 27.601562 261.277344 28.101562 260.941406 28.632812 C 260.601562 29.164062 260.308594 29.714844 260.058594 30.292969 C 259.804688 30.867188 259.601562 31.460938 259.441406 32.066406 C 259.28125 32.675781 259.167969 33.292969 259.105469 33.917969 C 259.042969 34.542969 259.027344 35.167969 259.0625 35.796875 L 260.917969 97.160156 L 242.355469 92.5 L 241.976562 92.5 C 241.789062 92.484375 241.597656 92.484375 241.410156 92.5 L 237.128906 92.5 L 236.332031 92.726562 L 235.3125 93.144531 C 234.609375 93.453125 233.964844 93.859375 233.378906 94.355469 L 152.28125 161.589844 L 152.28125 161.816406 C 151.257812 162.730469 150.457031 163.808594 149.886719 165.054688 C 149.3125 166.300781 149.011719 167.605469 148.984375 168.976562 L 142.734375 322.386719 C 142.738281 323.195312 142.804688 324 142.9375 324.800781 C 143.066406 325.597656 143.265625 326.378906 143.523438 327.148438 C 143.785156 327.914062 144.105469 328.65625 144.484375 329.371094 C 144.863281 330.085938 145.300781 330.761719 145.792969 331.40625 C 146.28125 332.050781 146.820312 332.652344 147.410156 333.207031 C 148 333.761719 148.628906 334.269531 149.300781 334.722656 C 149.96875 335.175781 150.671875 335.570312 151.410156 335.910156 C 152.144531 336.25 152.902344 336.527344 153.683594 336.742188 L 305.613281 374.660156 C 306.546875 374.886719 307.492188 375 308.453125 375 C 310.601562 375.03125 312.535156 374.398438 314.25 373.105469 L 314.515625 372.878906 L 395.839844 305.53125 C 396.378906 305.082031 396.859375 304.574219 397.28125 304.015625 L 397.507812 303.710938 C 397.714844 303.417969 397.902344 303.117188 398.074219 302.804688 L 398.074219 302.425781 L 396.789062 301.816406 L 398.226562 302.082031 C 398.332031 301.863281 398.421875 301.636719 398.492188 301.402344 C 398.605469 301.105469 398.695312 300.800781 398.757812 300.492188 C 398.757812 300.492188 398.757812 300.1875 398.757812 300.152344 L 398.757812 299.621094 C 398.777344 299.40625 398.777344 299.191406 398.757812 298.976562 L 401.9375 219.054688 L 437.734375 219.46875 C 438.453125 219.546875 439.175781 219.546875 439.894531 219.46875 C 440.632812 219.332031 441.351562 219.128906 442.054688 218.863281 L 500.007812 195.796875 C 501.546875 195.214844 502.882812 194.328125 504.023438 193.144531 C 505.351562 191.933594 506.371094 190.5 507.078125 188.847656 C 507.785156 187.195312 508.117188 185.472656 508.074219 183.675781 Z M 508.074219 183.675781 " fill-opacity="1" fill-rule="nonzero"/><path fill="#e43a19" d="M 396.976562 301.78125 Z M 400.046875 135.304688 Z M 398.984375 134.316406 Z M 423.453125 83.332031 C 422 81.84375 420.3125 80.6875 418.394531 79.875 C 416.476562 79.058594 414.476562 78.648438 412.394531 78.636719 C 410.371094 78.628906 408.4375 79.035156 406.589844 79.851562 C 404.742188 80.671875 403.140625 81.832031 401.789062 83.332031 C 401.101562 84.125 400.5 84.972656 399.972656 85.878906 C 399.449219 86.785156 399.015625 87.730469 398.667969 88.71875 C 398.324219 89.707031 398.074219 90.71875 397.917969 91.753906 C 397.761719 92.789062 397.707031 93.832031 397.75 94.875 C 397.789062 95.921875 397.929688 96.957031 398.167969 97.976562 C 398.402344 98.996094 398.734375 99.984375 399.15625 100.941406 C 399.582031 101.898438 400.089844 102.804688 400.683594 103.667969 C 401.28125 104.527344 401.949219 105.328125 402.695312 106.0625 C 404.144531 107.550781 405.824219 108.699219 407.738281 109.515625 C 409.648438 110.328125 411.640625 110.742188 413.71875 110.757812 C 415.746094 110.769531 417.6875 110.363281 419.542969 109.546875 C 421.398438 108.726562 423.003906 107.566406 424.363281 106.0625 C 425.046875 105.269531 425.648438 104.417969 426.171875 103.511719 C 426.695312 102.605469 427.128906 101.660156 427.472656 100.671875 C 427.816406 99.683594 428.066406 98.671875 428.21875 97.636719 C 428.375 96.601562 428.429688 95.5625 428.386719 94.519531 C 428.347656 93.472656 428.207031 92.441406 427.972656 91.421875 C 427.734375 90.402344 427.40625 89.414062 426.984375 88.457031 C 426.5625 87.5 426.054688 86.589844 425.460938 85.730469 C 424.867188 84.867188 424.199219 84.070312 423.453125 83.332031 Z M 376.332031 36.136719 C 374.878906 34.640625 373.195312 33.480469 371.277344 32.660156 C 369.359375 31.839844 367.359375 31.417969 365.273438 31.402344 C 363.285156 31.421875 361.386719 31.84375 359.574219 32.660156 C 357.761719 33.476562 356.1875 34.621094 354.855469 36.097656 C 354.171875 36.890625 353.566406 37.738281 353.042969 38.644531 C 352.519531 39.550781 352.082031 40.496094 351.738281 41.484375 C 351.390625 42.472656 351.140625 43.484375 350.984375 44.519531 C 350.832031 45.554688 350.773438 46.597656 350.816406 47.640625 C 350.859375 48.6875 351 49.71875 351.234375 50.738281 C 351.472656 51.757812 351.800781 52.746094 352.226562 53.707031 C 352.648438 54.664062 353.160156 55.570312 353.753906 56.433594 C 354.347656 57.292969 355.019531 58.089844 355.765625 58.824219 C 357.214844 60.3125 358.894531 61.464844 360.804688 62.28125 C 362.714844 63.09375 364.710938 63.507812 366.789062 63.523438 C 368.8125 63.539062 370.75 63.140625 372.605469 62.328125 C 374.460938 61.515625 376.070312 60.363281 377.433594 58.863281 C 378.109375 58.066406 378.703125 57.210938 379.21875 56.300781 C 379.734375 55.390625 380.160156 54.4375 380.5 53.445312 C 380.835938 52.457031 381.078125 51.441406 381.222656 50.40625 C 381.367188 49.371094 381.414062 48.328125 381.363281 47.285156 C 381.3125 46.238281 381.167969 45.207031 380.921875 44.1875 C 380.675781 43.171875 380.339844 42.1875 379.910156 41.230469 C 379.476562 40.277344 378.960938 39.371094 378.359375 38.515625 C 377.757812 37.660156 377.082031 36.867188 376.332031 36.136719 Z M 470.574219 130.378906 C 469.121094 128.886719 467.433594 127.734375 465.515625 126.921875 C 463.597656 126.105469 461.597656 125.691406 459.515625 125.683594 C 457.496094 125.667969 455.5625 126.070312 453.714844 126.882812 C 451.867188 127.691406 450.265625 128.847656 448.910156 130.339844 C 448.222656 131.132812 447.621094 131.980469 447.09375 132.886719 C 446.570312 133.792969 446.136719 134.738281 445.789062 135.726562 C 445.445312 136.714844 445.195312 137.726562 445.039062 138.761719 C 444.882812 139.796875 444.828125 140.839844 444.871094 141.882812 C 444.910156 142.929688 445.050781 143.960938 445.289062 144.984375 C 445.523438 146.003906 445.855469 146.992188 446.277344 147.949219 C 446.703125 148.90625 447.210938 149.8125 447.808594 150.675781 C 448.402344 151.535156 449.074219 152.332031 449.816406 153.066406 C 451.269531 154.578125 452.960938 155.746094 454.886719 156.574219 C 456.8125 157.402344 458.820312 157.824219 460.917969 157.839844 C 462.945312 157.851562 464.886719 157.449219 466.738281 156.628906 C 468.59375 155.808594 470.203125 154.648438 471.5625 153.144531 C 472.242188 152.347656 472.847656 151.496094 473.367188 150.585938 C 473.890625 149.675781 474.324219 148.726562 474.664062 147.738281 C 475.007812 146.746094 475.253906 145.730469 475.40625 144.695312 C 475.558594 143.65625 475.613281 142.613281 475.566406 141.566406 C 475.519531 140.519531 475.378906 139.484375 475.136719 138.464844 C 474.898438 137.445312 474.5625 136.457031 474.136719 135.496094 C 473.710938 134.539062 473.195312 133.632812 472.597656 132.769531 C 472 131.910156 471.324219 131.113281 470.574219 130.378906 Z M 470.574219 36.136719 C 469.121094 34.640625 467.4375 33.480469 465.519531 32.660156 C 463.601562 31.839844 461.601562 31.417969 459.515625 31.402344 C 457.496094 31.394531 455.558594 31.804688 453.710938 32.621094 C 451.863281 33.441406 450.261719 34.597656 448.910156 36.097656 C 448.222656 36.890625 447.621094 37.738281 447.09375 38.644531 C 446.570312 39.550781 446.136719 40.496094 445.789062 41.484375 C 445.445312 42.472656 445.195312 43.484375 445.039062 44.519531 C 444.882812 45.554688 444.828125 46.597656 444.871094 47.640625 C 444.910156 48.6875 445.050781 49.71875 445.289062 50.738281 C 445.523438 51.757812 445.855469 52.746094 446.277344 53.707031 C 446.703125 54.664062 447.210938 55.570312 447.808594 56.433594 C 448.402344 57.292969 449.074219 58.089844 449.816406 58.824219 C 451.273438 60.332031 452.964844 61.492188 454.890625 62.316406 C 456.8125 63.136719 458.824219 63.550781 460.917969 63.5625 C 462.941406 63.574219 464.878906 63.175781 466.734375 62.367188 C 468.589844 61.554688 470.199219 60.398438 471.5625 58.902344 C 472.242188 58.105469 472.847656 57.253906 473.367188 56.34375 C 473.890625 55.433594 474.324219 54.484375 474.664062 53.496094 C 475.007812 52.503906 475.253906 51.488281 475.40625 50.453125 C 475.558594 49.414062 475.613281 48.371094 475.566406 47.324219 C 475.519531 46.277344 475.378906 45.242188 475.136719 44.222656 C 474.898438 43.203125 474.5625 42.210938 474.136719 41.253906 C 473.710938 40.296875 473.195312 39.386719 472.597656 38.527344 C 472 37.667969 471.324219 36.871094 470.574219 36.136719 Z M 289.554688 71.96875 C 284.855469 71.96875 279.628906 84.167969 279.25 101.894531 L 299.855469 107.007812 C 299.855469 106.023438 299.855469 104.960938 299.855469 103.9375 C 299.894531 84.886719 294.4375 71.96875 289.554688 71.96875 Z M 396.976562 301.78125 L 395.574219 301.476562 C 395.433594 301.730469 395.269531 301.972656 395.082031 302.195312 C 394.789062 302.640625 394.433594 303.03125 394.023438 303.371094 L 318.265625 366.363281 C 318.285156 366.160156 318.285156 365.960938 318.265625 365.757812 C 318.265625 365.757812 318.265625 365.757812 318.265625 365.53125 L 323.644531 229.167969 L 324.25 212.121094 L 324.25 210.339844 C 324.382812 207.433594 325.03125 204.648438 326.203125 201.984375 C 327.371094 199.316406 328.980469 196.953125 331.03125 194.886719 L 335.3125 191.289062 L 400.878906 138.675781 L 401.144531 139.128906 L 401.144531 139.773438 C 401.261719 139.992188 401.363281 140.21875 401.445312 140.453125 L 402.089844 142.574219 C 402.089844 142.574219 402.089844 142.992188 402.089844 143.066406 L 402.089844 143.9375 L 396.523438 298.257812 L 396.523438 299.582031 C 396.523438 299.582031 396.523438 299.960938 396.523438 300 L 396.523438 300.492188 C 396.449219 300.714844 396.363281 300.929688 396.257812 301.136719 Z M 371.410156 211.515625 C 360.804688 209.316406 349.097656 224.128906 344.894531 245.226562 C 340.6875 266.324219 345.5 284.507812 356.257812 286.667969 C 356.945312 286.816406 357.636719 286.894531 358.339844 286.894531 C 368.378906 286.894531 378.871094 272.652344 382.925781 252.992188 C 387.015625 231.894531 382.054688 213.710938 371.410156 211.515625 Z M 396.976562 301.816406 Z M 333.566406 189.054688 L 331.863281 190.417969 L 331.296875 190.832031 C 330.554688 191.414062 329.863281 192.046875 329.210938 192.726562 C 327.992188 193.742188 326.671875 194.601562 325.25 195.3125 C 323.832031 196.019531 322.347656 196.558594 320.804688 196.921875 C 319.261719 197.285156 317.695312 197.46875 316.109375 197.472656 C 314.519531 197.472656 312.953125 197.292969 311.410156 196.933594 L 309.667969 196.96875 L 161.257812 159.8125 L 161.03125 159.8125 C 160.445312 159.667969 159.851562 159.570312 159.25 159.507812 L 235.195312 96.476562 C 235.597656 96.132812 236.039062 95.855469 236.523438 95.644531 L 237.167969 95.417969 L 237.886719 95.226562 L 240.007812 95.226562 L 393.871094 133.21875 L 395.195312 133.675781 L 395.6875 133.902344 L 396.183594 134.128906 L 397.316406 134.847656 C 397.59375 135.007812 397.847656 135.195312 398.074219 135.417969 L 398.453125 135.757812 L 399.023438 136.324219 Z M 278.566406 134.355469 C 267.8125 134.355469 259.363281 138.597656 259.363281 144.015625 C 259.363281 149.433594 267.8125 153.675781 278.566406 153.675781 C 289.324219 153.675781 297.734375 149.433594 297.734375 144.015625 C 297.734375 138.597656 289.324219 134.355469 278.566406 134.355469 Z M 232.089844 117.992188 C 232.089844 123.410156 240.5 127.652344 251.257812 127.652344 C 262.015625 127.652344 270.460938 123.410156 270.460938 117.992188 C 270.460938 112.574219 262.015625 108.332031 251.257812 108.332031 C 240.5 108.332031 232.089844 112.574219 232.089844 117.992188 Z M 228.039062 150.945312 C 228.039062 145.53125 219.628906 141.289062 208.871094 141.289062 C 198.113281 141.289062 189.667969 145.53125 189.667969 150.945312 C 189.667969 156.363281 198.113281 160.605469 208.871094 160.605469 C 219.628906 160.605469 228.039062 156.363281 228.039062 150.945312 Z M 306.863281 183.710938 C 317.660156 183.710938 326.066406 179.46875 326.066406 174.054688 C 326.066406 168.636719 317.660156 164.394531 306.863281 164.394531 C 296.066406 164.394531 287.695312 168.636719 287.695312 174.242188 C 287.695312 179.847656 296.105469 183.710938 306.863281 183.710938 Z M 345.347656 150.910156 C 356.144531 150.910156 364.554688 146.667969 364.554688 141.25 C 364.554688 135.832031 356.144531 131.589844 345.347656 131.589844 C 334.554688 131.589844 326.183594 135.832031 326.183594 141.25 C 326.183594 146.667969 334.589844 150.910156 345.347656 150.910156 Z M 321.410156 211.515625 L 321.105469 219.089844 L 315.347656 365.417969 C 315.347656 366.476562 315.117188 367.480469 314.648438 368.433594 C 314.183594 369.382812 313.535156 370.183594 312.695312 370.832031 C 312.371094 371.058594 312.027344 371.257812 311.675781 371.4375 C 310.859375 371.824219 310 372.054688 309.101562 372.132812 C 308.203125 372.210938 307.316406 372.132812 306.445312 371.894531 L 300.5 370.417969 L 289.324219 367.613281 L 277.960938 364.847656 L 266.824219 362.046875 L 255.460938 359.28125 L 244.289062 356.476562 L 233.644531 353.710938 L 222.28125 350.910156 L 210.917969 348.144531 L 199.78125 345.339844 L 188.605469 342.574219 L 177.660156 339.773438 L 166.296875 337.007812 L 155.121094 334.203125 L 154.175781 333.976562 C 153.554688 333.804688 152.953125 333.585938 152.367188 333.320312 C 151.78125 333.050781 151.222656 332.738281 150.6875 332.378906 C 150.152344 332.019531 149.652344 331.621094 149.179688 331.183594 C 148.710938 330.742188 148.28125 330.269531 147.886719 329.761719 C 147.492188 329.25 147.140625 328.714844 146.835938 328.148438 C 146.527344 327.582031 146.269531 326.996094 146.054688 326.390625 C 145.84375 325.78125 145.679688 325.164062 145.570312 324.527344 C 145.457031 323.894531 145.394531 323.257812 145.386719 322.613281 L 151.445312 169.203125 C 151.453125 168.136719 151.6875 167.121094 152.152344 166.160156 C 152.617188 165.195312 153.265625 164.378906 154.097656 163.710938 C 154.425781 163.511719 154.769531 163.335938 155.121094 163.183594 C 156.09375 162.675781 157.128906 162.414062 158.226562 162.386719 C 158.960938 162.398438 159.679688 162.5 160.386719 162.6875 L 166.296875 164.167969 L 177.660156 166.933594 L 188.832031 169.734375 L 200.007812 172.5 L 211.144531 175.304688 L 222.28125 178.03125 L 233.453125 180.832031 L 244.628906 183.597656 L 255.804688 186.402344 L 267.167969 189.167969 L 278.304688 191.96875 L 289.667969 194.734375 L 300.839844 197.539062 L 301.105469 197.539062 C 301.222656 197.652344 301.363281 197.726562 301.523438 197.765625 L 308.832031 199.46875 L 309.175781 199.46875 L 312.015625 200.152344 L 313 200.417969 C 313.613281 200.5625 314.207031 200.765625 314.78125 201.023438 C 315.15625 201.1875 315.507812 201.390625 315.839844 201.628906 L 316.445312 201.933594 C 318.484375 203.433594 319.921875 205.378906 320.765625 207.765625 C 320.914062 208.199219 321.039062 208.640625 321.144531 209.089844 L 321.144531 209.582031 C 321.144531 209.925781 321.144531 210.265625 321.144531 210.605469 C 321.261719 210.9375 321.351562 211.28125 321.410156 211.628906 Z M 204.742188 229.960938 C 204.789062 227.335938 204.40625 224.773438 203.59375 222.273438 C 202.785156 219.777344 201.585938 217.476562 200.007812 215.378906 C 199.871094 215.214844 199.757812 215.039062 199.667969 214.847656 C 198.265625 213.023438 196.648438 211.417969 194.808594 210.035156 C 192.96875 208.652344 190.976562 207.542969 188.832031 206.703125 C 188 206.402344 187.167969 206.0625 186.332031 205.832031 C 183.441406 205.121094 180.550781 205.121094 177.660156 205.832031 C 175.652344 206.28125 173.820312 207.113281 172.167969 208.332031 C 170.777344 209.363281 169.597656 210.59375 168.625 212.019531 C 167.648438 213.449219 166.9375 214.996094 166.484375 216.667969 C 166.085938 218.066406 165.84375 219.492188 165.765625 220.945312 C 165.722656 222.988281 165.964844 224.996094 166.484375 226.96875 C 167.316406 230.316406 168.78125 233.359375 170.878906 236.097656 C 172.75 238.625 175.007812 240.734375 177.660156 242.425781 C 179.6875 243.738281 181.871094 244.695312 184.210938 245.304688 C 185.730469 245.675781 187.269531 245.867188 188.832031 245.871094 C 190.527344 245.890625 192.183594 245.648438 193.800781 245.144531 C 195.417969 244.636719 196.921875 243.894531 198.304688 242.917969 C 198.886719 242.441406 199.441406 241.9375 199.96875 241.402344 C 201.472656 239.894531 202.632812 238.164062 203.460938 236.203125 C 204.285156 234.246094 204.714844 232.203125 204.742188 230.074219 Z M 251.863281 277.195312 C 251.925781 274.453125 251.519531 271.78125 250.648438 269.179688 C 249.777344 266.574219 248.492188 264.199219 246.789062 262.046875 C 246.121094 261.226562 245.414062 260.445312 244.667969 259.695312 C 243.167969 258.109375 241.480469 256.75 239.609375 255.625 C 237.738281 254.5 235.75 253.648438 233.644531 253.066406 C 231.761719 252.554688 229.847656 252.359375 227.902344 252.480469 C 225.957031 252.605469 224.082031 253.039062 222.28125 253.789062 C 221.199219 254.242188 220.1875 254.824219 219.25 255.53125 C 218.273438 256.269531 217.390625 257.109375 216.605469 258.050781 C 215.820312 258.988281 215.148438 260.003906 214.59375 261.097656 C 214.039062 262.191406 213.613281 263.332031 213.320312 264.523438 C 213.023438 265.710938 212.867188 266.917969 212.847656 268.144531 C 212.800781 270.886719 213.214844 273.5625 214.09375 276.164062 C 214.972656 278.761719 216.261719 281.140625 217.960938 283.296875 C 219.226562 284.902344 220.664062 286.328125 222.28125 287.574219 C 224.949219 289.785156 227.953125 291.351562 231.296875 292.273438 C 232.007812 292.4375 232.726562 292.5625 233.453125 292.652344 C 234.289062 292.707031 235.121094 292.707031 235.953125 292.652344 C 239.082031 292.664062 241.972656 291.84375 244.628906 290.1875 C 244.894531 290.1875 245.195312 289.886719 245.425781 289.695312 C 246.398438 288.964844 247.277344 288.136719 248.066406 287.207031 C 248.851562 286.277344 249.523438 285.269531 250.082031 284.1875 C 250.636719 283.105469 251.066406 281.972656 251.367188 280.792969 C 251.667969 279.613281 251.835938 278.414062 251.863281 277.195312 Z M 293.910156 309.203125 C 292.578125 307.523438 291.050781 306.046875 289.324219 304.773438 C 286.714844 302.695312 283.800781 301.230469 280.574219 300.378906 C 279.742188 300.378906 278.945312 300.113281 278.152344 300 C 276.21875 299.691406 274.292969 299.734375 272.378906 300.125 C 270.460938 300.515625 268.671875 301.234375 267.015625 302.273438 L 266.410156 302.574219 C 264.6875 303.851562 263.285156 305.414062 262.199219 307.261719 C 261.113281 309.109375 260.433594 311.09375 260.160156 313.21875 C 259.980469 314.734375 259.949219 316.25 260.074219 317.773438 C 260.195312 319.292969 260.464844 320.785156 260.886719 322.253906 C 261.304688 323.71875 261.863281 325.128906 262.566406 326.484375 C 263.265625 327.839844 264.09375 329.113281 265.046875 330.304688 C 265.617188 331.0625 266.25 331.769531 266.9375 332.425781 C 268.4375 334.066406 270.132812 335.472656 272.023438 336.636719 C 273.917969 337.804688 275.933594 338.683594 278.074219 339.28125 L 278.378906 339.28125 C 279.921875 339.664062 281.488281 339.867188 283.074219 339.886719 C 285.21875 339.886719 287.277344 339.46875 289.25 338.636719 C 290.417969 338.191406 291.503906 337.597656 292.507812 336.855469 C 294.226562 335.582031 295.628906 334.019531 296.707031 332.171875 C 297.785156 330.324219 298.457031 328.335938 298.71875 326.210938 C 298.894531 324.707031 298.921875 323.199219 298.800781 321.6875 C 298.679688 320.175781 298.414062 318.691406 298 317.230469 C 297.589844 315.773438 297.039062 314.367188 296.351562 313.015625 C 295.660156 311.667969 294.847656 310.394531 293.910156 309.203125 Z M 293.910156 309.203125 " fill-opacity="1" fill-rule="nonzero"/><path fill="#ffffff" d="M 267.734375 26.515625 L 305.121094 11.628906 L 306.066406 11.25 L 312.242188 8.789062 C 312.804688 8.539062 313.390625 8.414062 314.003906 8.414062 C 314.617188 8.414062 315.203125 8.539062 315.765625 8.789062 C 316.976562 9.355469 316.976562 11.363281 316.976562 12.6875 L 320.007812 111.855469 L 302.582031 107.5 C 302.582031 106.210938 302.582031 104.960938 302.582031 103.710938 C 302.582031 86.816406 297.960938 68.902344 289.402344 68.902344 C 280.839844 68.902344 276.75 84.925781 276.296875 100.945312 L 263.945312 97.878906 L 262.054688 35.71875 C 261.988281 34.753906 262.074219 33.796875 262.308594 32.855469 C 262.539062 31.917969 262.914062 31.035156 263.421875 30.207031 C 263.929688 29.382812 264.554688 28.65625 265.289062 28.023438 C 266.027344 27.394531 266.839844 26.890625 267.734375 26.515625 Z M 491.21875 196.363281 L 403.339844 195.304688 L 402.507812 216.210938 L 438.226562 216.628906 C 438.808594 216.6875 439.390625 216.6875 439.96875 216.628906 C 440.539062 216.449219 441.082031 216.210938 441.597656 215.910156 Z M 502.582031 190.945312 C 501.730469 191.789062 500.75 192.4375 499.640625 192.890625 C 498.53125 193.339844 497.378906 193.566406 496.183594 193.5625 L 403.492188 192.460938 L 405.386719 144.847656 L 405.386719 142.652344 C 405.386719 142.652344 405.386719 142.273438 405.386719 142.195312 L 405.386719 140.945312 L 404.628906 140.152344 L 404.402344 139.582031 C 404.292969 139.285156 404.164062 138.996094 404.023438 138.710938 L 403.683594 138.066406 L 403.683594 137.726562 C 403.398438 137.183594 403.058594 136.679688 402.660156 136.210938 C 402.667969 136.097656 402.667969 135.984375 402.660156 135.871094 L 401.789062 134.847656 L 401.410156 134.46875 L 400.3125 133.523438 L 399.96875 133.21875 C 399.65625 132.921875 399.316406 132.65625 398.945312 132.425781 L 398.339844 132.007812 L 397.660156 131.628906 L 396.824219 131.210938 L 395.839844 130.832031 L 395.3125 130.832031 L 394.515625 130.605469 L 374.589844 125.644531 C 371.761719 123.925781 368.695312 123.054688 365.386719 123.03125 L 364.476562 123.03125 L 322.960938 112.574219 L 319.894531 12.652344 C 319.832031 11.324219 320.035156 10.039062 320.503906 8.796875 C 320.96875 7.550781 321.664062 6.449219 322.582031 5.492188 C 323.410156 4.644531 324.367188 3.992188 325.460938 3.53125 C 326.550781 3.070312 327.6875 2.839844 328.871094 2.839844 L 490.121094 4.773438 C 490.769531 4.804688 491.414062 4.894531 492.046875 5.046875 C 492.679688 5.199219 493.292969 5.410156 493.886719 5.675781 C 494.476562 5.945312 495.039062 6.265625 495.574219 6.640625 C 496.105469 7.015625 496.597656 7.433594 497.050781 7.902344 C 497.503906 8.367188 497.910156 8.875 498.269531 9.417969 C 498.625 9.960938 498.929688 10.535156 499.179688 11.136719 C 499.429688 11.734375 499.621094 12.355469 499.753906 12.992188 C 499.886719 13.628906 499.957031 14.273438 499.96875 14.925781 L 505.234375 183.789062 C 505.296875 185.113281 505.097656 186.394531 504.636719 187.636719 C 504.175781 188.878906 503.492188 189.984375 502.582031 190.945312 Z M 378.339844 34.089844 C 377.492188 33.214844 376.566406 32.429688 375.558594 31.742188 C 374.554688 31.050781 373.492188 30.464844 372.371094 29.988281 C 371.246094 29.507812 370.089844 29.144531 368.894531 28.898438 C 367.699219 28.652344 366.492188 28.527344 365.273438 28.523438 C 364.078125 28.515625 362.898438 28.632812 361.730469 28.875 C 360.558594 29.117188 359.429688 29.480469 358.335938 29.960938 C 357.242188 30.4375 356.210938 31.027344 355.242188 31.722656 C 354.273438 32.417969 353.386719 33.207031 352.582031 34.089844 C 352.179688 34.554688 351.796875 35.035156 351.441406 35.53125 C 351.082031 36.03125 350.75 36.542969 350.4375 37.074219 C 350.128906 37.605469 349.84375 38.148438 349.585938 38.703125 C 349.328125 39.261719 349.097656 39.828125 348.890625 40.40625 C 348.6875 40.984375 348.507812 41.570312 348.359375 42.167969 C 348.210938 42.761719 348.089844 43.363281 347.996094 43.96875 C 347.902344 44.578125 347.839844 45.1875 347.804688 45.800781 C 347.769531 46.410156 347.761719 47.023438 347.785156 47.636719 C 347.808594 48.25 347.859375 48.863281 347.9375 49.472656 C 348.019531 50.078125 348.128906 50.683594 348.265625 51.28125 C 348.402344 51.878906 348.566406 52.46875 348.761719 53.050781 C 348.953125 53.636719 349.175781 54.207031 349.421875 54.769531 C 349.667969 55.332031 349.941406 55.878906 350.238281 56.414062 C 350.539062 56.953125 350.863281 57.472656 351.210938 57.976562 C 351.558594 58.484375 351.929688 58.972656 352.324219 59.441406 C 352.714844 59.914062 353.132812 60.363281 353.566406 60.796875 C 355.285156 62.550781 357.269531 63.90625 359.527344 64.867188 C 361.789062 65.824219 364.144531 66.3125 366.597656 66.324219 C 367.792969 66.332031 368.976562 66.210938 370.148438 65.96875 C 371.320312 65.726562 372.453125 65.367188 373.550781 64.886719 C 374.648438 64.40625 375.679688 63.820312 376.652344 63.125 C 377.628906 62.429688 378.519531 61.640625 379.324219 60.757812 C 379.726562 60.296875 380.109375 59.816406 380.464844 59.316406 C 380.820312 58.820312 381.15625 58.304688 381.464844 57.777344 C 381.773438 57.246094 382.054688 56.707031 382.3125 56.148438 C 382.570312 55.59375 382.800781 55.027344 383.003906 54.449219 C 383.207031 53.871094 383.386719 53.285156 383.535156 52.691406 C 383.683594 52.097656 383.804688 51.496094 383.894531 50.890625 C 383.988281 50.285156 384.050781 49.675781 384.085938 49.066406 C 384.121094 48.453125 384.128906 47.839844 384.105469 47.230469 C 384.082031 46.617188 384.03125 46.007812 383.953125 45.398438 C 383.871094 44.792969 383.761719 44.191406 383.625 43.59375 C 383.488281 42.996094 383.324219 42.40625 383.132812 41.824219 C 382.941406 41.242188 382.722656 40.671875 382.476562 40.109375 C 382.230469 39.550781 381.957031 39 381.660156 38.464844 C 381.363281 37.929688 381.039062 37.410156 380.691406 36.90625 C 380.34375 36.402344 379.976562 35.914062 379.582031 35.441406 C 379.191406 34.972656 378.777344 34.523438 378.339844 34.089844 Z M 425.460938 81.25 C 424.609375 80.378906 423.683594 79.601562 422.675781 78.917969 C 421.667969 78.234375 420.605469 77.65625 419.484375 77.183594 C 418.359375 76.710938 417.203125 76.355469 416.007812 76.117188 C 414.816406 75.875 413.609375 75.757812 412.394531 75.757812 C 411.199219 75.75 410.019531 75.867188 408.851562 76.109375 C 407.679688 76.351562 406.550781 76.710938 405.457031 77.191406 C 404.363281 77.671875 403.332031 78.257812 402.363281 78.957031 C 401.394531 79.652344 400.507812 80.441406 399.703125 81.324219 C 399.300781 81.789062 398.921875 82.269531 398.5625 82.765625 C 398.203125 83.265625 397.871094 83.777344 397.558594 84.308594 C 397.25 84.839844 396.964844 85.382812 396.707031 85.9375 C 396.449219 86.496094 396.21875 87.0625 396.011719 87.640625 C 395.808594 88.21875 395.628906 88.808594 395.480469 89.402344 C 395.332031 89.996094 395.210938 90.597656 395.117188 91.203125 C 395.023438 91.8125 394.960938 92.421875 394.925781 93.035156 C 394.890625 93.648438 394.882812 94.261719 394.90625 94.875 C 394.929688 95.488281 394.980469 96.097656 395.0625 96.707031 C 395.140625 97.3125 395.25 97.917969 395.386719 98.515625 C 395.523438 99.113281 395.6875 99.703125 395.882812 100.285156 C 396.074219 100.871094 396.296875 101.441406 396.542969 102.003906 C 396.789062 102.566406 397.0625 103.113281 397.359375 103.652344 C 397.660156 104.1875 397.984375 104.707031 398.332031 105.214844 C 398.679688 105.71875 399.050781 106.207031 399.445312 106.675781 C 399.835938 107.148438 400.253906 107.597656 400.6875 108.03125 C 401.53125 108.910156 402.453125 109.695312 403.457031 110.390625 C 404.457031 111.085938 405.515625 111.671875 406.636719 112.152344 C 407.753906 112.636719 408.910156 113 410.105469 113.25 C 411.296875 113.5 412.5 113.628906 413.71875 113.636719 C 414.921875 113.632812 416.105469 113.507812 417.28125 113.257812 C 418.453125 113.003906 419.589844 112.636719 420.6875 112.144531 C 421.78125 111.65625 422.816406 111.058594 423.785156 110.351562 C 424.757812 109.644531 425.644531 108.847656 426.445312 107.953125 C 426.847656 107.492188 427.230469 107.011719 427.585938 106.511719 C 427.945312 106.011719 428.277344 105.5 428.585938 104.96875 C 428.894531 104.4375 429.179688 103.894531 429.4375 103.339844 C 429.695312 102.78125 429.925781 102.214844 430.128906 101.636719 C 430.332031 101.058594 430.511719 100.472656 430.660156 99.875 C 430.808594 99.28125 430.929688 98.679688 431.019531 98.074219 C 431.113281 97.46875 431.175781 96.859375 431.210938 96.246094 C 431.246094 95.632812 431.253906 95.019531 431.230469 94.40625 C 431.207031 93.792969 431.15625 93.183594 431.078125 92.574219 C 430.996094 91.96875 430.886719 91.363281 430.75 90.765625 C 430.613281 90.167969 430.449219 89.578125 430.257812 88.996094 C 430.066406 88.414062 429.84375 87.839844 429.597656 87.28125 C 429.351562 86.71875 429.082031 86.167969 428.78125 85.632812 C 428.484375 85.097656 428.164062 84.574219 427.816406 84.070312 C 427.46875 83.5625 427.097656 83.074219 426.703125 82.605469 C 426.3125 82.132812 425.898438 81.683594 425.460938 81.25 Z M 472.582031 128.371094 C 470.863281 126.613281 468.867188 125.253906 466.601562 124.296875 C 464.339844 123.335938 461.976562 122.851562 459.515625 122.839844 C 458.320312 122.835938 457.140625 122.953125 455.972656 123.199219 C 454.804688 123.441406 453.671875 123.800781 452.582031 124.28125 C 451.488281 124.761719 450.457031 125.347656 449.488281 126.042969 C 448.515625 126.738281 447.628906 127.527344 446.824219 128.410156 C 446.414062 128.871094 446.027344 129.355469 445.664062 129.855469 C 445.300781 130.355469 444.957031 130.871094 444.644531 131.40625 C 444.328125 131.9375 444.039062 132.484375 443.777344 133.046875 C 443.511719 133.605469 443.277344 134.175781 443.066406 134.761719 C 442.859375 135.34375 442.679688 135.933594 442.527344 136.535156 C 442.375 137.136719 442.25 137.742188 442.15625 138.351562 C 442.058594 138.964844 441.996094 139.578125 441.957031 140.199219 C 441.921875 140.816406 441.914062 141.433594 441.9375 142.054688 C 441.960938 142.671875 442.011719 143.289062 442.09375 143.902344 C 442.175781 144.515625 442.285156 145.125 442.425781 145.726562 C 442.5625 146.332031 442.730469 146.925781 442.929688 147.511719 C 443.125 148.101562 443.347656 148.675781 443.597656 149.242188 C 443.847656 149.808594 444.125 150.363281 444.429688 150.902344 C 444.734375 151.441406 445.0625 151.964844 445.414062 152.472656 C 445.769531 152.984375 446.144531 153.472656 446.546875 153.945312 C 446.945312 154.417969 447.367188 154.871094 447.8125 155.304688 C 448.667969 156.164062 449.601562 156.933594 450.613281 157.609375 C 451.625 158.285156 452.695312 158.855469 453.820312 159.316406 C 454.945312 159.777344 456.105469 160.125 457.300781 160.351562 C 458.496094 160.582031 459.699219 160.691406 460.917969 160.683594 C 462.113281 160.683594 463.296875 160.5625 464.46875 160.316406 C 465.640625 160.070312 466.777344 159.707031 467.871094 159.222656 C 468.96875 158.738281 470.003906 158.148438 470.976562 157.449219 C 471.945312 156.75 472.835938 155.960938 473.644531 155.074219 C 474.046875 154.613281 474.425781 154.128906 474.78125 153.632812 C 475.140625 153.132812 475.472656 152.617188 475.78125 152.085938 C 476.089844 151.554688 476.371094 151.011719 476.628906 150.453125 C 476.886719 149.898438 477.117188 149.328125 477.320312 148.75 C 477.523438 148.167969 477.699219 147.582031 477.847656 146.988281 C 477.992188 146.390625 478.113281 145.789062 478.203125 145.183594 C 478.296875 144.574219 478.359375 143.964844 478.390625 143.351562 C 478.425781 142.738281 478.429688 142.125 478.40625 141.511719 C 478.378906 140.898438 478.328125 140.289062 478.246094 139.679688 C 478.164062 139.074219 478.054688 138.46875 477.914062 137.871094 C 477.773438 137.273438 477.609375 136.683594 477.414062 136.101562 C 477.21875 135.519531 476.996094 134.949219 476.75 134.386719 C 476.5 133.824219 476.226562 133.277344 475.925781 132.742188 C 475.625 132.207031 475.300781 131.6875 474.949219 131.183594 C 474.601562 130.675781 474.230469 130.191406 473.832031 129.71875 C 473.4375 129.25 473.019531 128.800781 472.582031 128.371094 Z M 472.582031 34.089844 C 471.734375 33.214844 470.808594 32.429688 469.804688 31.738281 C 468.796875 31.050781 467.734375 30.464844 466.613281 29.988281 C 465.488281 29.507812 464.332031 29.144531 463.136719 28.898438 C 461.941406 28.652344 460.734375 28.527344 459.515625 28.523438 C 458.320312 28.519531 457.140625 28.640625 455.972656 28.882812 C 454.804688 29.125 453.675781 29.484375 452.582031 29.964844 C 451.488281 30.445312 450.457031 31.03125 449.488281 31.726562 C 448.519531 32.421875 447.632812 33.210938 446.824219 34.089844 C 446.421875 34.554688 446.042969 35.035156 445.683594 35.53125 C 445.324219 36.03125 444.992188 36.542969 444.679688 37.074219 C 444.371094 37.605469 444.085938 38.148438 443.828125 38.703125 C 443.570312 39.261719 443.339844 39.828125 443.132812 40.40625 C 442.929688 40.984375 442.75 41.570312 442.601562 42.167969 C 442.453125 42.761719 442.332031 43.363281 442.238281 43.96875 C 442.144531 44.578125 442.082031 45.1875 442.046875 45.800781 C 442.011719 46.410156 442.003906 47.023438 442.027344 47.636719 C 442.050781 48.25 442.101562 48.863281 442.183594 49.472656 C 442.261719 50.078125 442.371094 50.683594 442.507812 51.28125 C 442.644531 51.878906 442.808594 52.46875 443.003906 53.050781 C 443.195312 53.632812 443.417969 54.207031 443.664062 54.769531 C 443.910156 55.332031 444.183594 55.878906 444.480469 56.414062 C 444.78125 56.953125 445.105469 57.472656 445.453125 57.976562 C 445.800781 58.484375 446.171875 58.972656 446.566406 59.441406 C 446.957031 59.914062 447.375 60.363281 447.8125 60.796875 C 448.660156 61.675781 449.589844 62.464844 450.597656 63.15625 C 451.605469 63.851562 452.671875 64.441406 453.796875 64.921875 C 454.921875 65.402344 456.085938 65.769531 457.28125 66.015625 C 458.480469 66.265625 459.691406 66.394531 460.917969 66.402344 C 462.113281 66.40625 463.296875 66.289062 464.46875 66.046875 C 465.640625 65.804688 466.773438 65.441406 467.867188 64.964844 C 468.964844 64.484375 470 63.894531 470.972656 63.199219 C 471.945312 62.503906 472.835938 61.714844 473.644531 60.832031 C 474.046875 60.371094 474.429688 59.886719 474.785156 59.386719 C 475.144531 58.886719 475.480469 58.371094 475.789062 57.839844 C 476.097656 57.308594 476.382812 56.765625 476.640625 56.207031 C 476.898438 55.648438 477.128906 55.078125 477.332031 54.5 C 477.535156 53.917969 477.710938 53.332031 477.859375 52.734375 C 478.007812 52.136719 478.128906 51.535156 478.222656 50.925781 C 478.3125 50.320312 478.375 49.707031 478.410156 49.09375 C 478.441406 48.480469 478.445312 47.867188 478.421875 47.25 C 478.398438 46.636719 478.34375 46.023438 478.261719 45.414062 C 478.179688 44.804688 478.070312 44.203125 477.929688 43.601562 C 477.792969 43.003906 477.625 42.414062 477.429688 41.832031 C 477.234375 41.246094 477.011719 40.675781 476.761719 40.113281 C 476.511719 39.550781 476.238281 39 475.9375 38.464844 C 475.632812 37.929688 475.308594 37.410156 474.957031 36.902344 C 474.605469 36.398438 474.234375 35.910156 473.835938 35.441406 C 473.441406 34.972656 473.023438 34.519531 472.582031 34.089844 Z M 185.652344 208.710938 C 184.316406 208.425781 182.964844 208.296875 181.597656 208.332031 C 180.242188 208.320312 178.914062 208.519531 177.621094 208.925781 C 176.328125 209.332031 175.128906 209.933594 174.023438 210.71875 C 173.214844 211.332031 172.484375 212.027344 171.832031 212.804688 C 171.183594 213.585938 170.628906 214.429688 170.175781 215.335938 C 169.71875 216.242188 169.371094 217.1875 169.128906 218.171875 C 168.890625 219.160156 168.765625 220.160156 168.757812 221.175781 C 168.699219 223.558594 169.035156 225.882812 169.769531 228.148438 C 170.503906 230.417969 171.59375 232.5 173.039062 234.394531 C 174.511719 236.355469 176.265625 238.023438 178.296875 239.398438 C 180.328125 240.773438 182.527344 241.78125 184.894531 242.425781 C 185.886719 242.707031 186.898438 242.878906 187.925781 242.9375 C 188.957031 242.996094 189.980469 242.941406 191 242.773438 C 192.019531 242.609375 193.007812 242.332031 193.964844 241.945312 C 194.921875 241.5625 195.824219 241.078125 196.675781 240.492188 C 197.488281 239.882812 198.222656 239.1875 198.875 238.40625 C 199.527344 237.625 200.082031 236.777344 200.535156 235.867188 C 200.988281 234.957031 201.332031 234.003906 201.5625 233.015625 C 201.792969 232.023438 201.90625 231.019531 201.902344 230 C 201.953125 227.59375 201.59375 225.25 200.816406 222.972656 C 200.042969 220.695312 198.902344 218.617188 197.394531 216.742188 C 195.945312 214.78125 194.214844 213.113281 192.199219 211.734375 C 190.1875 210.359375 188.003906 209.351562 185.652344 208.710938 Z M 243.796875 287.574219 C 242.941406 288.15625 242.039062 288.636719 241.082031 289.019531 C 240.125 289.402344 239.136719 289.675781 238.117188 289.84375 C 237.101562 290.011719 236.078125 290.066406 235.046875 290.007812 C 234.019531 289.953125 233.007812 289.785156 232.015625 289.507812 C 229.664062 288.867188 227.476562 287.859375 225.460938 286.492188 C 223.441406 285.121094 221.699219 283.464844 220.234375 281.515625 C 218.742188 279.617188 217.609375 277.523438 216.835938 275.234375 C 216.0625 272.949219 215.691406 270.597656 215.726562 268.183594 C 215.726562 267.15625 215.839844 266.144531 216.074219 265.144531 C 216.304688 264.148438 216.648438 263.1875 217.101562 262.269531 C 217.554688 261.347656 218.105469 260.492188 218.757812 259.699219 C 219.40625 258.90625 220.140625 258.199219 220.953125 257.574219 C 222.089844 256.769531 223.316406 256.160156 224.644531 255.746094 C 225.972656 255.332031 227.328125 255.136719 228.71875 255.152344 C 230.089844 255.152344 231.441406 255.316406 232.773438 255.644531 C 235.128906 256.277344 237.3125 257.285156 239.324219 258.664062 C 241.339844 260.039062 243.070312 261.710938 244.515625 263.675781 C 246.015625 265.554688 247.15625 267.632812 247.929688 269.910156 C 248.703125 272.1875 249.066406 274.527344 249.023438 276.933594 C 249.027344 277.960938 248.910156 278.976562 248.679688 279.976562 C 248.449219 280.980469 248.105469 281.941406 247.652344 282.863281 C 247.199219 283.789062 246.648438 284.648438 245.996094 285.441406 C 245.34375 286.238281 244.609375 286.949219 243.796875 287.574219 Z M 291.636719 310.945312 C 292.488281 312 293.226562 313.125 293.851562 314.328125 C 294.476562 315.527344 294.976562 316.78125 295.351562 318.082031 C 295.726562 319.382812 295.964844 320.707031 296.074219 322.058594 C 296.183594 323.40625 296.15625 324.753906 295.992188 326.097656 C 295.78125 327.847656 295.234375 329.484375 294.355469 331.011719 C 293.472656 332.539062 292.328125 333.828125 290.917969 334.886719 C 290.070312 335.476562 289.167969 335.964844 288.210938 336.351562 C 287.253906 336.742188 286.265625 337.019531 285.246094 337.183594 C 284.226562 337.351562 283.199219 337.40625 282.171875 337.34375 C 281.140625 337.28125 280.128906 337.105469 279.136719 336.816406 C 276.773438 336.1875 274.582031 335.183594 272.5625 333.808594 C 270.542969 332.429688 268.804688 330.757812 267.355469 328.789062 C 266.507812 327.734375 265.773438 326.605469 265.152344 325.402344 C 264.53125 324.203125 264.035156 322.949219 263.664062 321.648438 C 263.292969 320.347656 263.054688 319.023438 262.949219 317.675781 C 262.84375 316.324219 262.875 314.980469 263.039062 313.636719 C 263.121094 312.871094 263.273438 312.121094 263.496094 311.382812 C 263.71875 310.648438 264.007812 309.9375 264.363281 309.257812 C 264.71875 308.574219 265.132812 307.929688 265.609375 307.324219 C 266.082031 306.722656 266.609375 306.164062 267.191406 305.660156 C 267.769531 305.152344 268.390625 304.703125 269.054688 304.316406 C 269.714844 303.925781 270.410156 303.597656 271.132812 303.339844 C 271.859375 303.078125 272.597656 302.886719 273.359375 302.765625 C 274.117188 302.644531 274.882812 302.59375 275.652344 302.613281 C 277.089844 302.621094 278.503906 302.808594 279.894531 303.183594 C 282.230469 303.785156 284.402344 304.753906 286.414062 306.085938 C 288.425781 307.414062 290.164062 309.035156 291.636719 310.945312 Z M 379.894531 252.425781 C 376.105469 271.363281 365.347656 285.683594 356.597656 283.902344 C 347.847656 282.121094 343.683594 264.621094 347.546875 245.796875 C 351.332031 227.992188 360.917969 214.167969 369.363281 214.167969 C 369.855469 214.109375 370.347656 214.109375 370.839844 214.167969 C 379.628906 216.097656 383.757812 233.5625 379.894531 252.425781 Z M 278.566406 137.195312 C 288.1875 137.195312 294.894531 140.984375 294.894531 144.015625 C 294.894531 147.046875 288.1875 150.832031 278.566406 150.832031 C 268.945312 150.832031 262.203125 147.273438 262.203125 144.015625 C 262.203125 140.757812 268.910156 137.195312 278.566406 137.195312 Z M 192.507812 150.945312 C 192.507812 147.726562 199.210938 144.128906 208.871094 144.128906 C 218.53125 144.128906 225.195312 147.917969 225.195312 150.945312 C 225.195312 153.976562 218.492188 157.765625 208.871094 157.765625 C 199.25 157.765625 192.507812 154.167969 192.507812 150.945312 Z M 345.347656 148.066406 C 335.726562 148.066406 329.023438 144.28125 329.023438 141.25 C 329.023438 138.21875 335.726562 134.433594 345.347656 134.433594 C 354.96875 134.433594 361.710938 138.03125 361.710938 141.25 C 361.710938 144.46875 354.855469 148.066406 345.347656 148.066406 Z M 323.226562 174.242188 C 323.226562 177.460938 316.523438 181.0625 306.863281 181.0625 C 297.203125 181.0625 290.460938 177.273438 290.460938 174.242188 C 290.460938 171.210938 297.167969 167.425781 306.789062 167.425781 C 316.410156 167.425781 323.226562 170.832031 323.226562 174.242188 Z M 234.933594 117.992188 C 234.933594 114.773438 241.636719 111.175781 251.257812 111.175781 C 260.878906 111.175781 267.734375 114.773438 267.734375 117.992188 C 267.734375 121.210938 260.917969 125 251.257812 125 C 241.597656 125 234.933594 121.210938 234.933594 117.992188 Z M 234.933594 117.992188 " fill-opacity="1" fill-rule="nonzero"/></svg>